<?xml version="1.0" encoding="utf-8"?>
<!-- Generator: Adobe Illustrator 25.4.1, SVG Export Plug-In . SVG Version: 6.00 Build 0)  -->
<svg version="1.1" id="Layer_1" xmlns="http://www.w3.org/2000/svg" xmlns:xlink="http://www.w3.org/1999/xlink" x="0px" y="0px"
	 viewBox="0 0 404.8 362.9" style="enable-background:new 0 0 404.8 362.9;" xml:space="preserve">
<style type="text/css">
	.st0{fill:#FFFFFF;}
	.st1{fill:#DB413E;}
</style>
<polygon class="st0" points="338.2,317.9 313.1,299.8 314.9,297.4 338.2,314.2 361.5,297.4 363.3,299.8 "/>
<path class="st0" d="M341.5,247.1c31.2,0.4,56.1,26,55.7,57.2c-0.4,30.6-25.1,55.2-55.7,55.7H59.4c-31.2-0.4-56.1-26-55.7-57.2
	c0.4-30.6,25.1-55.2,55.7-55.7H341.5 M341.5,244.1H59.4C26.6,244.1,0,270.7,0,303.5l0,0c0,32.8,26.6,59.4,59.4,59.4h282.1
	c32.8,0,59.4-26.6,59.4-59.4c0,0,0,0,0,0l0,0C400.9,270.7,374.3,244.1,341.5,244.1z"/>
<path class="st0" d="M83.3,293.3H71.9v33.1h-6.5v-33.1H54.6V288h10.8v-7.6l6.5-2.1v9.8h11.4V293.3z"/>
<path class="st0" d="M112.1,288.5c2.6,1.3,4.8,3.4,6.2,5.9c1.5,2.9,2.3,6.2,2.2,9.4v22.5h-6.4v-5.6c-1.2,2.2-3.1,4-5.4,5.2
	c-2.5,1.2-5.2,1.8-7.9,1.7c-2.5,0-5-0.5-7.3-1.7c-2.1-1-3.8-2.6-5-4.6c-1.2-2-1.8-4.2-1.8-6.5c0-2.3,0.6-4.5,1.8-6.4
	c1.2-1.9,3-3.5,5.1-4.5c2.3-1.1,4.9-1.7,7.5-1.6c2.7-0.1,5.3,0.5,7.7,1.5c2.1,0.9,3.9,2.4,5.3,4.3v-3.5c0.1-2.3-0.5-4.7-1.6-6.7
	c-1-1.8-2.6-3.2-4.4-4.1c-2-0.9-4.2-1.4-6.5-1.4c-2.4,0-4.8,0.4-7.1,1.4c-2.1,1-4,2.4-5.6,4.1v-6.7c1.8-1.5,3.9-2.7,6.1-3.5
	c2.5-0.9,5.1-1.4,7.8-1.3C106,286.4,109.2,287.1,112.1,288.5z M108.8,321.3c1.5-0.6,2.8-1.5,3.9-2.8c0.9-1.1,1.4-2.5,1.4-3.9
	c0-1.4-0.5-2.7-1.3-3.8c-1-1.2-2.3-2.1-3.7-2.6c-1.8-0.7-3.6-1-5.5-1c-1.9,0-3.8,0.3-5.5,1c-1.4,0.5-2.6,1.5-3.5,2.7
	c-0.8,1.1-1.2,2.5-1.2,3.9c0,1.4,0.4,2.8,1.2,3.9c0.9,1.2,2.1,2.1,3.4,2.7c1.7,0.7,3.5,1,5.3,1C105.2,322.3,107,322,108.8,321.3z"/>
<path class="st0" d="M160.9,288.6c2.4,1.5,4.3,3.7,5.4,6.3c1.3,3.1,1.9,6.5,1.9,9.9v21.5h-6.4v-20c0-4.7-0.9-8.2-2.7-10.5
	c-1.8-2.3-4.6-3.4-8.4-3.4c-2.4-0.1-4.7,0.5-6.8,1.7c-1.8,1.1-3.3,2.7-4.3,4.7c-1,2.1-1.5,4.3-1.4,6.6v20.8h-6.3V288h6.3v7.9
	c2.8-6.2,7.6-9.3,14.4-9.3C155.5,286.4,158.4,287.2,160.9,288.6z"/>
<path class="st0" d="M206.1,326.3l-20.2-20.2v20.2h-6.5v-48.5h6.5v26l18.6-15.9h9.2l-20.9,16.8l22.2,21.5L206.1,326.3z"/>
<path class="st0" d="M253.3,307.8h-31.4c0.1,2.6,0.9,5.1,2.2,7.2c1.3,2,3.2,3.6,5.4,4.6c2.5,1.1,5.2,1.7,8,1.6
	c5.3,0,10.4-1.9,14.4-5.3v6.1c-2.1,1.7-4.5,3-7,3.8c-2.7,0.9-5.6,1.4-8.4,1.4c-3.9,0.1-7.7-0.8-11.1-2.6c-3.2-1.7-5.8-4.2-7.6-7.3
	c-3.5-6.5-3.6-14.3-0.2-20.9c1.6-3,4-5.6,7-7.3c6.3-3.4,13.8-3.6,20.2-0.6c2.6,1.3,4.8,3.4,6.2,6c1.5,2.9,2.3,6.2,2.2,9.5V307.8z
	 M228.8,293.8c-1.8,0.8-3.3,2.1-4.4,3.7c-1.1,1.6-1.9,3.5-2.2,5.4h25c0-2.9-1.2-5.7-3.4-7.7c-2.1-1.8-5-2.7-8.6-2.7
	C232.9,292.5,230.8,292.9,228.8,293.8L228.8,293.8z"/>
<path class="st0" d="M284.9,288.9v6.5c-1.8-1.3-4-2-6.2-1.9c-1.7,0-3.5,0.5-4.9,1.5c-1.5,1.1-2.7,2.6-3.4,4.4
	c-0.9,2.2-1.3,4.5-1.3,6.9v20.1h-6.5V288h6.5v8.8c0.7-2.7,2.2-5.2,4.2-7.1c1.8-1.6,4.1-2.4,6.5-2.4
	C281.6,287.3,283.4,287.8,284.9,288.9z"/>
<path class="st0" d="M85.4,0h85.1C203.4,0,230,26.6,230,59.4l0,0c0,32.8-26.6,59.4-59.4,59.4H85.4C52.6,118.8,26,92.2,26,59.4l0,0
	C26,26.6,52.6,0,85.4,0z"/>
<path d="M123.5,32.9v7.1L93.4,88.9H84L115,40H82.5v-7.1H123.5z"/>
<path d="M163.2,54.4c2.9,1.5,5.2,3.8,6.8,6.6c1.6,2.7,2.4,5.8,2.3,9c0.1,3.7-0.9,7.2-2.8,10.4c-1.9,3.1-4.7,5.6-8,7.2
	c-3.7,1.8-7.9,2.7-12,2.6c-3.4,0-6.9-0.5-10.1-1.4c-2.9-0.8-5.7-2.1-8.1-3.9v-8c2.4,1.9,5.2,3.4,8.1,4.4c2.9,0.9,6,1.3,9.1,1.3
	c2.9,0.1,5.8-0.5,8.4-1.6c2.1-0.9,3.9-2.4,5.1-4.4c1.2-2,1.8-4.2,1.7-6.5c0.1-2.2-0.5-4.3-1.7-6.2c-1.3-1.9-3-3.3-5.1-4.1
	c-2.7-1.1-5.6-1.6-8.5-1.5c-3,0-5.9,0.3-8.8,1c-2.7,0.7-5.3,1.7-7.8,2.9V32.9h37.2v7.4h-29.8v14.2c4.2-1.7,8.6-2.5,13.1-2.5
	C156.3,51.9,160,52.7,163.2,54.4z"/>
<path class="st1" d="M299.2,41.5c4.8,2.2,8.8,5.9,11.4,10.5c2.6,4.7,3.9,10.3,3.9,16.9v33.9h-17.9v-8.4c-2.1,3.4-5.1,6.2-8.7,7.9
	c-4,1.9-8.4,2.8-12.9,2.7c-4.2,0.1-8.3-0.8-12-2.7c-6.7-3.4-10.9-10.3-10.8-17.8c-0.1-3.7,1-7.3,2.9-10.5c2-3.1,4.9-5.7,8.3-7.2
	c3.9-1.8,8.2-2.7,12.5-2.6c9.2,0,16,3,20.6,9v-2.6c0.1-3.5-0.9-6.8-2.7-9.8c-1.8-2.6-4.3-4.7-7.2-5.9c-3.3-1.4-6.9-2.1-10.5-2
	c-7.7-0.1-15.2,2.9-20.7,8.3V46c7.4-5.4,16-8.1,26-8.1C287.6,37.7,293.7,39,299.2,41.5z M289.7,92c2-0.7,3.7-1.9,5.1-3.5
	c1.2-1.4,1.8-3.2,1.8-5.1c0-1.8-0.6-3.5-1.7-4.8c-1.3-1.5-3-2.7-4.9-3.3c-2.4-0.9-4.8-1.3-7.4-1.2c-2.4-0.1-4.8,0.4-7,1.2
	c-1.8,0.7-3.4,1.8-4.5,3.4c-1,1.5-1.6,3.2-1.5,5c0,1.8,0.5,3.6,1.5,5.1c1.1,1.6,2.6,2.7,4.4,3.4c2.2,0.9,4.5,1.3,6.9,1.2
	C284.8,93.3,287.3,92.9,289.7,92z M277.6,33c-4-2-6.5-6.2-6.4-10.7c0-2.1,0.6-4.2,1.7-6c1.2-1.8,2.8-3.3,4.7-4.2
	c2.1-1,4.4-1.5,6.7-1.5c2.3,0,4.7,0.5,6.8,1.5c1.9,0.9,3.5,2.4,4.6,4.2c1.1,1.9,1.7,4,1.7,6.1c0,2.2-0.6,4.3-1.7,6.2
	c-1.1,1.8-2.8,3.3-4.7,4.3C286.8,35.1,281.8,35.1,277.6,33L277.6,33z M288.3,26.4c1.1-1,1.6-2.5,1.6-4c0-1.4-0.5-2.8-1.6-3.7
	c-2.3-2-5.7-2-8,0c-1,1-1.6,2.3-1.6,3.7c-0.1,1.5,0.5,2.9,1.6,4C282.6,28.5,286.1,28.5,288.3,26.4z"/>
<path class="st1" d="M374.6,41.9v16.9c-1.4-0.9-2.9-1.6-4.5-2.1c-1.9-0.5-3.9-0.8-5.9-0.8c-3.1-0.1-6.1,0.7-8.7,2.3
	c-2.6,1.7-4.6,4.1-5.8,7c-1.5,3.7-2.2,7.7-2.1,11.7v26h-18.5V40.5h18.2v17.1c1.5-6.1,3.8-10.7,6.9-13.8c3-3,7.1-4.7,11.4-4.6
	C368.8,39.2,372,40.1,374.6,41.9z"/>
<polygon class="st0" points="336,196 336.1,157.9 339.1,157.9 339,190.8 375,154.9 377.1,157 341.1,193 374,192.8 374.1,195.8 "/>
<path class="st0" d="M357.2,130.2c24.6,0,44.6,20,44.6,44.6s-20,44.6-44.6,44.6s-44.6-20-44.6-44.6c0,0,0,0,0,0
	C312.6,150.1,332.6,130.2,357.2,130.2 M357.2,127.2c-26.3,0-47.6,21.3-47.6,47.6s21.3,47.6,47.6,47.6s47.6-21.3,47.6-47.6
	c0,0,0,0,0,0C404.8,148.5,383.5,127.2,357.2,127.2z"/>
<path class="st1" d="M101.9,155.1c3.9,4.7,5.8,11.3,5.8,20v38H89.4V179c0-5-1-8.8-2.9-11.4s-4.9-4-8.7-4c-4.1,0-7.2,1.4-9.4,4.2
	S65,174.3,65,179v34.1H46.8v-35.6c0-4.3-1-7.7-3-10.2s-4.9-3.8-8.6-3.8c-2.5-0.1-4.9,0.7-6.9,2.2c-2,1.5-3.5,3.6-4.4,6
	c-1.1,2.9-1.6,6-1.5,9.1l0-0.1v32.4H3.9v-62.4h18.2v13.1c1.9-5.4,4.5-9.3,8-11.9c3.5-2.6,7.8-3.8,13-3.8c4.6-0.1,9.1,1.3,12.8,4
	c3.6,2.9,6.3,6.8,7.5,11.3c1.8-5.2,4.5-9,8.1-11.5c3.6-2.5,8.2-3.8,13.6-3.8C92.5,148.1,98,150.5,101.9,155.1z"/>
<path class="st1" d="M186.8,184.8H137c0.9,4.7,3.7,8.8,7.8,11.4c4.2,2.7,9.7,4,16.5,4c4.3,0,8.6-0.6,12.6-2
	c3.8-1.3,7.4-3.1,10.7-5.5v14.2c-3.7,2.7-7.9,4.6-12.3,5.9c-4.9,1.5-10.1,2.2-15.2,2.2c-7,0.2-13.9-1.3-20.2-4.3
	c-5.5-2.6-10.2-6.8-13.4-12c-6.1-10.6-6.3-23.7-0.4-34.4c2.9-5,7.2-9.1,12.4-11.8c5.9-3,12.4-4.5,19-4.4c6.9,0,12.8,1.2,17.6,3.6
	c4.7,2.2,8.5,5.8,11,10.3c2.6,4.9,3.9,10.5,3.7,16.1L186.8,184.8z M143.1,165.8c-3,2.3-5.1,5.6-5.8,9.3h34c-0.2-3.7-1.9-7.1-4.8-9.4
	c-2.8-2.2-6.7-3.3-11.6-3.3S146.1,163.5,143.1,165.8L143.1,165.8z"/>
<path class="st1" d="M269.4,135.3v77.8H251v-14.2c-2.1,4.8-5.6,9-10.1,11.8c-4.4,2.9-9.8,4.3-16.2,4.3c-5.4,0.1-10.8-1.4-15.4-4.3
	c-4.5-2.9-8.1-7-10.4-11.8c-2.5-5.3-3.8-11.1-3.7-17c-0.1-6.1,1.2-12.1,4-17.5c2.5-5,6.4-9.1,11.1-12c4.8-2.9,10.4-4.4,16-4.3
	c5.3-0.2,10.5,1.2,15,4c4.3,2.9,7.6,7,9.6,11.7v-28.5H269.4z M242.3,197.7c2.8-1.6,5.1-3.9,6.6-6.8c1.6-3,2.4-6.3,2.3-9.7
	c0.1-3.3-0.7-6.5-2.3-9.4c-1.5-2.7-3.7-5-6.5-6.5c-3-1.6-6.4-2.4-9.9-2.3c-3.4-0.1-6.7,0.7-9.7,2.4c-2.7,1.5-4.9,3.8-6.4,6.6
	c-3,6.1-3,13.2,0,19.2c1.4,2.8,3.6,5.1,6.3,6.6c2.9,1.6,6.2,2.5,9.5,2.4C235.8,200.2,239.3,199.4,242.3,197.7L242.3,197.7z"/>
</svg>
