<?xml version="1.0" encoding="UTF-8" standalone="no"?><!DOCTYPE svg PUBLIC "-//W3C//DTD SVG 1.1//EN" "http://www.w3.org/Graphics/SVG/1.1/DTD/svg11.dtd"><svg width="100%" height="100%" viewBox="0 0 400 30" version="1.1" xmlns="http://www.w3.org/2000/svg" xmlns:xlink="http://www.w3.org/1999/xlink" xml:space="preserve" xmlns:serif="http://www.serif.com/" style="fill-rule:evenodd;clip-rule:evenodd;stroke-linejoin:round;stroke-miterlimit:2;"><g id="svgg"><path id="path1" d="M169.734,6.039c0.44,0.09 1.789,0.281 2.998,0.423c1.21,0.143 2.694,0.336 3.299,0.428c1.658,0.254 4.034,0.483 6.798,0.656c3.245,0.203 7.967,0.707 8.151,0.869c0.214,0.19 -1.196,1.611 -1.926,1.94c-0.348,0.156 -0.734,0.474 -0.858,0.705c-0.308,0.578 -1.391,1.407 -1.835,1.407c-0.2,0 -0.599,0.121 -0.885,0.269c-0.348,0.18 -0.937,0.265 -1.772,0.257c-0.773,-0.008 -1.505,0.09 -1.918,0.255c-0.634,0.253 -0.692,0.25 -1.101,-0.073c-0.716,-0.564 -2.046,-0.085 -2.148,0.772c-0.029,0.242 -0.148,0.471 -0.264,0.509c-0.134,0.045 -0.174,-0.028 -0.109,-0.197c0.061,-0.16 -0.007,-0.308 -0.173,-0.371c-0.304,-0.117 -1.283,0.23 -1.283,0.455c-0,0.196 -1.248,1.581 -2.349,2.608l-0.907,0.846l-2.306,0.06c-1.268,0.033 -3.204,0.068 -4.301,0.077l-1.996,0.017l-0.626,-0.709c-1.963,-2.22 -7.398,-2.488 -9.59,-0.474l-0.842,0.775l-3.811,-0.106c-5.476,-0.152 -5.328,-0.154 -9.309,0.115c-6.046,0.407 -6.596,0.359 -5.952,-0.512c0.203,-0.274 0.369,-0.63 0.369,-0.79c-0,-0.305 0.63,-1.075 0.879,-1.075c0.078,-0 0.094,0.188 0.036,0.421c-0.159,0.637 0.371,0.764 0.836,0.2c0.2,-0.243 0.573,-0.519 0.829,-0.612c0.966,-0.353 0.487,-0.936 -0.888,-1.081c-0.513,-0.055 -1.54,-0.213 -2.284,-0.355c-4.182,-0.789 -9.626,-1.163 -12.479,-0.856l-1.142,0.122l-1.276,1.277c-0.983,0.981 -1.322,1.229 -1.476,1.075c-0.276,-0.278 -0.014,-0.653 0.909,-1.303c1.343,-0.946 1.105,-1.443 -0.721,-1.507c-1.682,-0.059 -1.665,-0.055 -1.665,-0.336c0,-0.472 0.738,-0.655 2.792,-0.692c3.506,-0.063 6.153,-0.252 6.826,-0.49c0.358,-0.126 1.251,-0.28 1.987,-0.343c0.736,-0.062 2.404,-0.37 3.707,-0.682c3.429,-0.822 5.756,-1.262 7.106,-1.34c0.651,-0.038 1.831,-0.19 2.622,-0.336c0.791,-0.147 1.857,-0.271 2.368,-0.275c0.512,-0.004 1.273,-0.087 1.693,-0.182c0.418,-0.095 1.294,-0.247 1.946,-0.337c0.65,-0.089 1.564,-0.24 2.03,-0.335c0.465,-0.094 2.101,-0.322 3.637,-0.506c1.535,-0.182 3.438,-0.416 4.23,-0.518c0.791,-0.103 1.97,-0.248 2.622,-0.323c1.489,-0.173 8.453,-0.042 9.522,0.178m-116.866,0.316c1.291,0.317 2.255,0.725 2.447,1.036c0.058,0.093 0.292,0.17 0.519,0.17c0.226,0 0.412,0.072 0.412,0.161c0,0.098 0.191,0.093 0.493,-0.013c0.37,-0.128 0.615,-0.111 0.974,0.068c0.701,0.35 2.682,0.789 4.306,0.956c0.78,0.079 1.989,0.263 2.687,0.407c0.698,0.144 1.954,0.391 2.792,0.547c0.837,0.156 1.688,0.347 1.892,0.424c0.203,0.077 1.117,0.185 2.03,0.241c0.913,0.056 2.498,0.215 3.522,0.354c2.913,0.396 4.772,0.544 8.177,0.654c1.737,0.056 3.348,0.137 3.581,0.18c2.284,0.417 8.015,0.779 8.415,0.531c0.173,-0.106 5.859,-0.16 12.227,-0.114c2.317,0.016 4.481,-0.047 4.907,-0.143c2.362,-0.535 4.158,-0.331 3.549,0.402c-0.226,0.273 -0.843,0.346 -0.843,0.1c-0,-0.083 -0.113,-0.194 -0.249,-0.247c-0.299,-0.114 -1.781,0.512 -1.781,0.755c-0,0.093 -0.24,0.388 -0.531,0.654c-0.629,0.575 -0.577,1.092 0.092,0.924c0.494,-0.125 0.45,0.523 -0.048,0.681c-0.154,0.049 -0.393,0.273 -0.532,0.498c-0.138,0.225 -0.772,0.956 -1.41,1.624l-1.158,1.215l-1.21,-0.122c-0.666,-0.067 -2.504,-0.118 -4.086,-0.113c-1.582,0.004 -3.544,-0.058 -4.36,-0.139c-0.865,-0.084 -1.888,-0.081 -2.453,0.01c-1.982,0.315 -10.603,0.454 -11.67,0.187c-0.349,-0.087 -1.282,-0.145 -2.073,-0.129c-0.792,0.017 -2.113,-0.035 -2.938,-0.113c-1.135,-0.108 -1.926,-0.075 -3.255,0.133c-0.968,0.152 -1.84,0.225 -1.939,0.163c-0.295,-0.182 -4.359,-0.081 -4.86,0.12c-0.539,0.217 -8.356,0.271 -8.994,0.063l-0.414,-0.135l0.39,-0.317c0.215,-0.173 0.573,-0.316 0.795,-0.316c0.242,0 0.405,-0.099 0.405,-0.247c-0,-0.459 -0.579,-0.585 -2.131,-0.464c-1.937,0.151 -4.324,0.094 -6.224,-0.147c-1.186,-0.152 -1.585,-0.146 -1.904,0.024c-0.337,0.181 -0.722,0.152 -2.39,-0.175c-1.508,-0.296 -2.74,-0.406 -5.116,-0.454c-1.721,-0.035 -4.082,-0.161 -5.245,-0.28c-3.869,-0.395 -7.915,-0.271 -8.843,0.274c-0.9,0.526 -0.97,0.541 -0.97,0.201c-0,-0.141 -0.095,-0.263 -0.211,-0.273c-0.515,-0.046 -1.085,0.063 -1.406,0.269c-0.192,0.122 -0.545,0.185 -0.786,0.139c-0.241,-0.046 -0.921,0.072 -1.513,0.26c-0.816,0.262 -1.701,0.365 -3.67,0.428c-2.136,0.068 -2.653,0.134 -2.917,0.372c-0.291,0.264 -0.463,0.271 -1.851,0.082c-1.053,-0.144 -1.597,-0.155 -1.741,-0.036c-0.129,0.108 -2.437,0.212 -6.008,0.273l-5.798,0.1l-0.328,-0.741c-0.301,-0.68 -0.315,-0.922 -0.165,-2.839c0.089,-1.152 0.164,-2.261 0.166,-2.464c0.006,-0.54 0.459,-0.62 3.219,-0.564c6.996,0.139 12.124,0.091 12.943,-0.124c0.932,-0.243 1.858,-0.343 4.398,-0.474c3.38,-0.173 3.744,-0.201 5.076,-0.392c0.744,-0.106 1.698,-0.308 2.119,-0.447c0.421,-0.14 1.563,-0.324 2.537,-0.41c2.409,-0.211 7.852,-1.088 10.571,-1.701c0.372,-0.084 0.899,-0.2 1.171,-0.258c0.271,-0.057 0.681,-0.251 0.911,-0.432c0.229,-0.181 0.54,-0.331 0.69,-0.335c0.15,-0.003 0.692,-0.191 1.204,-0.416c1.159,-0.51 2.616,-0.545 4.404,-0.106m142.45,-0.221c0,0.053 -0.078,0.243 -0.174,0.423c-0.261,0.487 -0.528,0.401 -0.302,-0.096c0.171,-0.374 0.476,-0.585 0.476,-0.327m159.076,0.653c1.709,0.786 2.129,0.943 2.531,0.943c0.222,-0 0.706,0.156 1.074,0.346c0.369,0.191 1.172,0.486 1.786,0.659c0.613,0.171 1.345,0.431 1.626,0.576c1.668,0.863 8.851,0.802 11.554,-0.097c0.326,-0.109 0.737,-0.176 0.914,-0.149c0.178,0.027 0.5,-0.047 0.718,-0.164c0.306,-0.163 0.494,-0.166 0.828,-0.014c0.239,0.108 0.559,0.197 0.714,0.197c0.33,-0 2.917,1.19 2.917,1.341c0,0.156 -1.694,0.52 -2.421,0.52c-0.592,-0 -0.622,0.024 -0.448,0.351c0.199,0.371 0.113,0.833 -0.155,0.833c-0.233,0 -0.744,-1.592 -0.532,-1.662c0.509,-0.17 -0.147,-1.004 -0.852,-1.084c-0.331,-0.036 -0.402,0.022 -0.356,0.293c0.032,0.186 0.057,0.529 0.056,0.761c-0.002,0.233 0.171,0.613 0.386,0.846c0.516,0.564 0.658,1.252 0.404,1.958c-0.164,0.451 -0.165,0.625 -0.006,0.783c0.111,0.111 0.203,0.34 0.203,0.507c-0,0.648 1.226,0.174 1.546,-0.598c0.117,-0.285 0.536,-0.866 0.926,-1.289c0.392,-0.422 0.866,-0.959 1.055,-1.192c0.326,-0.404 0.355,-0.409 0.644,-0.126c0.288,0.285 0.28,0.317 -0.201,0.786c-1.424,1.389 -2.448,2.693 -2.448,3.121c0,0.461 0.462,0.316 0.642,-0.202c0.092,-0.265 0.726,-1.036 1.407,-1.713c1.142,-1.136 1.24,-1.289 1.268,-1.982c0.047,-1.196 0.468,-1.064 0.661,0.21c0.1,0.659 0.083,0.687 -1.438,2.189c-1.214,1.199 -1.529,1.608 -1.49,1.932c0.072,0.595 0.451,0.635 0.648,0.07c0.166,-0.478 2.181,-2.424 2.51,-2.424c0.47,-0 0.287,1.575 -0.258,2.213c-0.24,0.281 -0.305,0.869 -0.117,1.057c0.205,0.205 0.556,-0.253 0.67,-0.875c0.062,-0.34 0.218,-0.771 0.347,-0.957c0.168,-0.244 0.202,-0.61 0.122,-1.316l-0.11,-0.979l0.678,0.109c0.425,0.068 0.721,0.038 0.794,-0.079c0.069,-0.112 -0.015,-0.188 -0.208,-0.188c-0.981,-0 -1.92,-0.859 -1.692,-1.546c0.091,-0.268 9.629,-0.268 10.487,-0c0.825,0.259 3.102,0.671 4.404,0.798c1.332,0.129 1.561,0.312 1.304,1.048c-0.238,0.682 -0.387,0.725 -2.846,0.818c-2.248,0.086 -3.011,0.286 -2.502,0.657c0.372,0.272 0.358,0.474 -0.054,0.848c-0.466,0.421 -0.424,0.592 0.143,0.592c0.266,-0 0.618,0.151 0.787,0.338c0.523,0.577 1.143,0.375 1.298,-0.423c0.048,-0.243 0.183,-0.327 0.485,-0.299c0.229,0.021 0.874,0.051 1.432,0.065c1.174,0.029 1.438,0.182 1.438,0.826c0,0.78 -0.28,0.865 -2.717,0.836c-1.901,-0.023 -2.263,0.014 -2.392,0.245c-0.084,0.151 -0.238,0.272 -0.342,0.272c-0.104,0 -0.327,0.124 -0.492,0.275c-0.467,0.422 -1.094,0.192 -1.085,-0.395l0.007,-0.471l-1.1,0.048c-2.035,0.091 -2.343,0.178 -2.401,0.684l-0.052,0.452l-1.692,-0.025c-0.93,-0.013 -2.663,-0.032 -3.849,-0.041c-2.227,-0.017 -2.33,-0.055 -1.976,-0.717c0.13,-0.243 0.127,-0.403 -0.01,-0.569c-0.191,-0.229 0.399,-1.418 0.837,-1.689c0.221,-0.137 0.232,-0.597 0.013,-0.597c-0.406,0 -1.851,1.777 -1.958,2.406c-0.164,0.97 -0.419,1.132 -1.818,1.149c-0.672,0.008 -1.678,0.033 -2.236,0.053c-0.563,0.021 -1.222,-0.06 -1.48,-0.182c-0.335,-0.158 -1.422,-0.218 -3.891,-0.213c-4.333,0.007 -12.919,-0.129 -14.255,-0.226c-1.891,-0.14 -4.084,-0.169 -4.263,-0.057c-0.099,0.061 -1.882,0.148 -3.964,0.195c-2.082,0.046 -4.166,0.128 -4.631,0.18c-1.8,0.206 -5.387,0.189 -5.996,-0.029c-0.332,-0.118 -1.306,-0.218 -2.165,-0.222c-0.86,-0.004 -1.887,-0.083 -2.284,-0.173c-0.66,-0.15 -3.652,-0.415 -6.389,-0.566c-3.188,-0.177 -4.244,-0.301 -5.245,-0.616c-0.605,-0.19 -1.582,-0.424 -2.171,-0.52c-0.588,-0.096 -1.35,-0.278 -1.692,-0.404c-1.938,-0.721 -2.455,-0.961 -3.031,-1.406c-0.349,-0.271 -0.901,-0.593 -1.227,-0.716c-0.326,-0.124 -0.859,-0.429 -1.185,-0.68c-0.326,-0.251 -0.763,-0.546 -0.972,-0.658c-0.21,-0.112 -0.381,-0.315 -0.381,-0.451c-0,-0.256 0.059,-0.266 2.03,-0.334c0.605,-0.021 1.861,-0.158 2.792,-0.304c0.934,-0.147 3.359,-0.309 5.413,-0.361c2.048,-0.051 4.39,-0.184 5.206,-0.296c1.088,-0.148 1.988,-0.156 3.383,-0.028c3.838,0.35 8.635,0.101 12.354,-0.641c0.952,-0.19 2.262,-0.447 2.913,-0.57c1.49,-0.284 2.375,-0.509 3.976,-1.011c0.699,-0.22 1.748,-0.436 2.333,-0.481c0.585,-0.045 1.156,-0.155 1.269,-0.243c0.796,-0.629 2.343,-0.689 3.543,-0.136m-304.075,0.528c-0.329,0.395 0.035,0.645 0.977,0.67c1.244,0.032 2.041,0.65 1.102,0.855c-0.84,0.183 -1.371,0.439 -1.474,0.71c-0.272,0.708 0.755,0.772 2.076,0.13c1.306,-0.637 2.399,-0.858 3.076,-0.622c0.588,0.205 0.847,0.139 0.847,-0.219c0,-0.439 -0.89,-0.837 -1.826,-0.816c-0.776,0.017 -0.963,-0.047 -1.402,-0.475c-0.605,-0.592 -2.945,-0.754 -3.376,-0.233m147.321,1.092c0.316,0.389 0.256,0.542 -0.165,0.416c-0.557,-0.167 -0.864,-0.519 -0.74,-0.846c0.118,-0.304 0.428,-0.158 0.905,0.43m-3.844,-0.417c-0,0.309 -0.533,1.242 -0.909,1.588c-0.77,0.712 -0.527,-0.409 0.283,-1.298c0.324,-0.356 0.626,-0.496 0.626,-0.29m1.585,0.29c-0.375,0.627 -1.464,2.166 -1.584,2.241c-0.078,0.048 -0.314,0.448 -0.525,0.89c-0.212,0.441 -0.809,1.321 -1.327,1.955c-0.517,0.634 -1.169,1.511 -1.449,1.949c-1.016,1.597 -2.284,2.866 -2.284,2.29c0,-0.223 0.753,-1.355 1.277,-1.923c0.665,-0.718 2.276,-3.05 2.277,-3.294c0,-0.095 0.364,-0.555 0.808,-1.02c0.445,-0.466 0.985,-1.189 1.2,-1.608c0.455,-0.887 1.17,-1.691 1.502,-1.691c0.14,-0 0.181,0.083 0.105,0.211m100.097,0.385c-0,0.047 -0.18,0.371 -0.399,0.718c-0.221,0.348 -0.603,0.991 -0.852,1.432c-0.248,0.439 -0.813,1.277 -1.255,1.86c-0.78,1.032 -2.579,3.976 -2.792,4.572c-0.1,0.279 -0.624,0.43 -0.624,0.18c0,-0.309 0.848,-1.844 1.946,-3.521c0.67,-1.024 1.687,-2.577 2.259,-3.45c0.572,-0.874 1.04,-1.653 1.04,-1.733c-0,-0.082 0.152,-0.147 0.339,-0.147c0.185,0 0.338,0.04 0.338,0.089m-99.026,0.351c0.069,0.206 -1.103,1.507 -1.236,1.374c-0.146,-0.146 0.073,-0.715 0.467,-1.216c0.339,-0.431 0.657,-0.496 0.769,-0.158m3.773,0.412c0,0.29 -0.321,0.173 -0.514,-0.188c-0.172,-0.322 -0.159,-0.335 0.163,-0.163c0.193,0.103 0.351,0.261 0.351,0.351m154.073,-0.063c-0.593,0.594 0.385,1.241 1.882,1.246c1.702,0.005 2.593,0.223 3.449,0.843c1.311,0.95 1.573,0.46 0.462,-0.867l-0.692,-0.827l-1.465,-0.002c-0.805,-0.001 -1.883,-0.114 -2.394,-0.252c-1.076,-0.288 -1.092,-0.29 -1.242,-0.141m-149.123,0.575c2.473,0.551 4.757,0.807 7.36,0.827c1.327,0.009 2.602,0.09 2.833,0.178c0.233,0.088 0.649,0.115 0.925,0.06c0.276,-0.055 0.98,-0.017 1.565,0.085c1.945,0.339 8.035,0.49 15.189,0.375c1.443,-0.023 4.717,-0.032 7.276,-0.021c2.559,0.011 4.995,-0.006 5.414,-0.038c0.418,-0.033 1.865,-0.001 3.214,0.07c1.35,0.07 6.146,0.167 10.659,0.215c4.513,0.047 9.271,0.164 10.574,0.259c2.83,0.205 9.087,0.07 14.212,-0.307c2.321,-0.171 5.246,-0.161 5.425,0.018c0.066,0.066 -0.251,0.275 -0.706,0.465c-0.455,0.189 -1.018,0.449 -1.251,0.578c-1.668,0.927 -5.638,1.934 -8.036,2.039c-1.126,0.05 -2.938,0.789 -4.399,1.794c-0.761,0.524 -2.009,0.497 -3.362,-0.072c-1.038,-0.437 -2.81,-0.178 -5.097,0.745c-0.506,0.204 -5.135,0.337 -10.659,0.307c-1.396,-0.009 -2.766,-0.014 -3.045,-0.013c-1.186,0.005 -5.581,0.176 -7.619,0.296c-3.004,0.176 -4.068,0.035 -4.388,-0.584c-0.134,-0.259 -0.477,-0.568 -0.764,-0.686c-0.285,-0.119 -0.574,-0.311 -0.642,-0.426c-0.441,-0.756 -3.713,-2.96 -4.394,-2.96c-0.212,0 -0.729,-0.162 -1.15,-0.359c-0.924,-0.435 -1.504,-0.457 -1.929,-0.072c-0.176,0.158 -0.779,0.431 -1.342,0.607c-1.576,0.49 -2.212,0.883 -3.404,2.101c-2.256,2.305 -2.57,2.392 -7.529,2.081c-3.479,-0.217 -6.134,-0.251 -7.817,-0.102c-1.814,0.161 -2.081,0.096 -2.082,-0.51c0,-0.331 -0.315,-0.754 -1.21,-1.631c-0.666,-0.652 -1.599,-1.576 -2.072,-2.053c-0.474,-0.478 -1.197,-1.037 -1.605,-1.242c-0.859,-0.433 -2.387,-1.803 -2.387,-2.142c-0,-0.313 0.409,-0.291 2.243,0.118m92.163,0.163c0,0.364 -1.169,2.468 -1.589,2.859c-0.611,0.569 -0.579,0.129 0.065,-0.886c0.278,-0.439 0.66,-1.101 0.849,-1.472c0.322,-0.631 0.675,-0.894 0.675,-0.501m7.276,0.133c-0,0.169 -0.229,0.526 -0.508,0.793c-0.279,0.268 -0.507,0.568 -0.507,0.669c-0,0.101 -0.185,0.455 -0.409,0.786c-0.226,0.332 -0.566,1.078 -0.757,1.657c-0.19,0.581 -0.539,1.285 -0.774,1.566c-0.236,0.28 -0.429,0.58 -0.429,0.669c0,0.257 -0.912,1.561 -0.97,1.386c-0.065,-0.196 1.368,-3.313 1.807,-3.928c0.176,-0.246 0.372,-0.735 0.438,-1.086c0.079,-0.421 0.287,-0.763 0.606,-0.999c0.268,-0.198 0.488,-0.441 0.489,-0.54c0.001,-0.288 0.653,-1.279 0.842,-1.279c0.095,-0 0.172,0.138 0.172,0.306m-248.536,0.117c-0.326,0.125 -0.829,0.233 -1.117,0.24c-1.474,0.037 -1.191,1.029 0.294,1.029c0.534,-0 1.022,0.081 1.083,0.181c0.118,0.189 -0.543,1.002 -0.814,1.002c-0.331,0 -1.139,0.715 -1.139,1.007c0,0.327 0.764,0.58 1.129,0.374c0.976,-0.548 2.424,-2.124 2.424,-2.635c0,-1.104 -0.788,-1.611 -1.86,-1.198m140.933,-0.025c-0,0.245 -0.857,1.442 -1.849,2.58c-0.641,0.736 -1.874,2.638 -1.874,2.891c0,0.082 -0.388,0.527 -0.863,0.989l-0.863,0.839l0.567,-1.129c0.974,-1.94 4.882,-6.878 4.882,-6.17m103.71,0.152c-0.001,0.347 -0.479,1.43 -1.101,2.495c-0.135,0.232 -0.247,0.547 -0.248,0.698c-0.002,0.152 -0.124,0.376 -0.272,0.499c-0.148,0.123 -0.639,0.96 -1.091,1.859c-0.821,1.639 -1.119,1.945 -1.709,1.759c-0.63,-0.201 -0.196,-1.42 1.113,-3.123c0.774,-1.01 1.136,-1.619 1.508,-2.538c0.585,-1.449 1.804,-2.567 1.8,-1.649m1.555,0.592c-0.273,0.535 -1.119,2.241 -1.88,3.792c-1.289,2.626 -1.668,3.164 -2.058,2.924c-0.299,-0.186 -0.136,-0.683 0.609,-1.852c0.416,-0.652 0.991,-1.68 1.278,-2.284c0.289,-0.605 0.88,-1.649 1.314,-2.32c0.97,-1.496 1.455,-1.667 0.737,-0.26m-107.529,0.338c-0.37,0.725 -1.789,2.411 -2.03,2.411c-0.114,-0 1.483,-2.478 1.88,-2.919c0.491,-0.544 0.562,-0.304 0.15,0.508m103.137,0.941c-0.367,0.576 -0.848,1.351 -1.071,1.721c-0.223,0.371 -0.499,0.828 -0.615,1.015c-0.115,0.188 -0.457,0.855 -0.761,1.482c-0.49,1.014 -0.974,1.487 -0.974,0.951c-0,-0.34 1.857,-3.982 2.179,-4.273c0.172,-0.155 0.45,-0.603 0.619,-0.996c0.17,-0.393 0.504,-0.93 0.743,-1.193c0.746,-0.822 0.664,0.058 -0.12,1.293m-106.182,-1.195c-0.15,0.21 -0.399,0.609 -0.552,0.888c-0.153,0.279 -0.537,0.851 -0.853,1.269c-0.316,0.419 -1.151,1.547 -1.855,2.508c-0.704,0.961 -1.39,1.788 -1.523,1.84c-0.635,0.243 -0.44,-0.572 0.3,-1.255c0.28,-0.259 0.649,-0.737 0.82,-1.063c0.17,-0.326 0.679,-1.024 1.131,-1.552c0.45,-0.528 1.01,-1.241 1.242,-1.586c0.574,-0.849 1.128,-1.43 1.367,-1.43c0.127,0 0.101,0.134 -0.077,0.381m-1.904,0.44c-0.174,0.274 -0.757,1.08 -1.296,1.792c-0.538,0.712 -1.147,1.589 -1.353,1.949c-0.549,0.962 -2.145,2.617 -2.338,2.424c-0.188,-0.188 0.869,-1.826 2.529,-3.922c1.713,-2.161 3.36,-3.665 2.458,-2.243m155.713,-0.549c-0.056,0.056 -1.534,0.123 -3.285,0.149c-3.318,0.05 -4.162,0.177 -4.251,0.643c-0.109,0.565 2.035,0.721 2.998,0.217c0.491,-0.257 0.842,-0.285 2.369,-0.196c0.986,0.057 2.126,0.123 2.534,0.144c0.911,0.049 1.349,-0.402 0.79,-0.816c-0.334,-0.248 -0.97,-0.326 -1.155,-0.141m-282.586,0.297c-0.184,0.126 -0.753,0.33 -1.264,0.45c-0.512,0.122 -1.046,0.344 -1.185,0.496c-0.14,0.151 -0.698,0.569 -1.242,0.93c-1.091,0.722 -1.472,1.284 -1.143,1.681c0.31,0.373 1.775,0.679 2.19,0.456c0.477,-0.255 1.675,-0.223 2.479,0.066c1.147,0.414 1.395,0.347 1.785,-0.481c0.605,-1.288 0.963,-1.511 1.907,-1.19c1.13,0.385 3.73,0.09 3.632,-0.412c-0.117,-0.613 -0.918,-0.755 -4.152,-0.739c-0.488,0.002 -0.888,-0.069 -0.888,-0.157c0,-0.743 -1.505,-1.524 -2.119,-1.1m315.423,0.153c0.033,0.169 -0.047,0.293 -0.189,0.293c-0.302,0 -0.665,-0.41 -0.505,-0.57c0.202,-0.203 0.635,-0.031 0.694,0.277m-83.476,0.185c-0.059,0.153 -0.178,0.278 -0.264,0.278c-0.087,-0 -0.072,-0.159 0.031,-0.353c0.216,-0.402 0.394,-0.346 0.233,0.075m10.197,0.2c-0.054,0.329 -0.279,0.814 -0.5,1.077c-0.222,0.264 -0.498,0.736 -0.615,1.051c-0.116,0.315 -0.315,0.8 -0.441,1.079c-0.126,0.28 -0.348,0.932 -0.491,1.451c-0.335,1.207 -1.454,2.171 -1.454,1.253c0,-0.313 0.94,-2.415 1.243,-2.78c0.119,-0.144 0.362,-0.604 0.541,-1.023c0.882,-2.069 1.917,-3.34 1.717,-2.108m1.575,-0.297c0,0.167 -0.157,0.605 -0.349,0.974c-0.193,0.368 -0.508,1.089 -0.701,1.601c-0.192,0.511 -0.521,1.234 -0.73,1.606c-0.211,0.373 -0.476,0.982 -0.59,1.354c-0.258,0.836 -0.445,1.059 -0.687,0.817c-0.263,-0.263 0.583,-2.865 1.289,-3.959c0.311,-0.484 0.78,-1.288 1.04,-1.788c0.489,-0.934 0.728,-1.133 0.728,-0.605m-109.865,1.428c-0.326,0.491 -0.864,1.155 -1.196,1.475c-0.332,0.321 -0.603,0.652 -0.603,0.736c0,0.219 -1.183,2.108 -1.468,2.344c-0.651,0.54 -0.603,-0.197 0.059,-0.915c0.373,-0.404 1.01,-1.302 1.416,-1.995c0.948,-1.615 2.257,-3.194 2.331,-2.813c0.03,0.152 -0.213,0.677 -0.539,1.168m111.483,-1.17c0.1,0.259 -1.244,2.655 -1.489,2.655c-0.092,-0 -0.11,-0.13 -0.04,-0.297c0.069,-0.162 0.233,-0.591 0.363,-0.95c0.523,-1.445 0.953,-1.963 1.166,-1.408m-105.306,0.676c0.193,0.369 0.192,0.369 -0.168,0.049c-0.2,-0.177 -0.364,-0.391 -0.364,-0.475c0,-0.239 0.316,0.015 0.532,0.426m129.609,-0.445c-0.332,0.133 0.089,0.563 0.55,0.563c0.489,-0 0.642,-0.169 0.408,-0.45c-0.191,-0.23 -0.559,-0.273 -0.958,-0.113m44.612,0.288c0.276,0.331 0.074,0.715 -0.574,1.098c-0.876,0.517 -1.056,0.061 -0.323,-0.811c0.49,-0.582 0.619,-0.623 0.897,-0.287m8.756,-0.116c-0.064,0.064 -0.515,0.096 -1.001,0.072c-0.728,-0.037 -0.846,-0.006 -0.666,0.177c0.119,0.123 0.588,0.223 1.048,0.224c0.457,0.001 0.926,0.098 1.043,0.213c0.117,0.117 0.339,0.212 0.495,0.212c0.337,0 0.603,0.294 0.691,0.762c0.077,0.418 1.569,0.53 2.982,0.222c1.146,-0.25 0.839,-0.47 -0.657,-0.474c-0.92,-0.002 -1.172,-0.065 -1.438,-0.36c-0.508,-0.565 -2.25,-1.296 -2.497,-1.048m-94.516,0.183c0,0.072 -0.251,0.511 -0.557,0.976c-0.307,0.466 -0.999,1.587 -1.539,2.492c-0.54,0.906 -1.058,1.693 -1.15,1.75c-0.51,0.315 -0.582,-0.82 -0.083,-1.319c0.283,-0.283 1.913,-2.445 2.524,-3.346c0.422,-0.621 0.805,-0.885 0.805,-0.553m-92.376,0.767c-0,0.094 -0.153,0.032 -0.338,-0.137c-0.187,-0.168 -0.339,-0.382 -0.339,-0.475c-0,-0.093 0.152,-0.031 0.339,0.137c0.185,0.169 0.338,0.383 0.338,0.475m-135.35,-0.469c-0,0.205 -0.546,0.903 -0.776,0.991c-0.205,0.079 -0.214,0.03 -0.051,-0.281c0.343,-0.663 0.827,-1.077 0.827,-0.71m225.865,0.332c-0.119,0.144 -0.255,0.225 -0.302,0.178c-0.047,-0.047 0.013,-0.202 0.133,-0.346c0.12,-0.145 0.256,-0.225 0.302,-0.178c0.046,0.047 -0.014,0.202 -0.133,0.346m-88.525,0.085c0.17,0.271 0.17,0.338 -0.003,0.338c-0.117,0 -0.309,-0.152 -0.425,-0.338c-0.169,-0.272 -0.169,-0.339 0.003,-0.339c0.118,0 0.31,0.153 0.425,0.339m108.32,-0.258c0,0.483 -1.247,2.606 -2.222,3.784c-0.242,0.291 0.075,1.042 0.44,1.042c0.147,0 0.473,-0.451 0.764,-1.057c0.535,-1.113 1.69,-2.829 1.907,-2.832c0.261,-0.005 0.11,0.464 -0.409,1.276c-0.631,0.984 -1.204,2.398 -1.065,2.624c0.238,0.385 0.571,0.072 1.164,-1.096c1.142,-2.249 1.765,-2.498 1.098,-0.437c-0.706,2.181 -1.214,2.551 -2.893,2.104c-0.494,-0.132 -1.108,-0.24 -1.364,-0.241c-0.577,-0.002 -0.578,0.016 0.057,-1.339c1.309,-2.799 2.523,-4.641 2.523,-3.828m-195.073,0.331c-0,0.14 -0.534,0.604 -0.695,0.604c-0.099,-0 -0.092,-0.133 0.018,-0.339c0.153,-0.286 0.677,-0.491 0.677,-0.265m2.2,0.086c-0,0.2 -0.33,0.413 -0.452,0.292c-0.121,-0.121 0.092,-0.451 0.292,-0.451c0.087,0 0.16,0.071 0.16,0.159m7.105,0.23c0,0.121 -0.09,0.31 -0.201,0.42c-0.438,0.44 0.036,0.361 0.756,-0.124c0.419,-0.284 0.847,-0.516 0.95,-0.516c0.352,-0 0.194,0.683 -0.194,0.835c-0.209,0.083 -0.513,0.309 -0.675,0.503c-0.361,0.435 -0.716,0.452 -1.007,0.047c-0.122,-0.169 -0.36,-0.36 -0.531,-0.423c-0.395,-0.147 -0.288,-0.479 0.239,-0.748c0.524,-0.267 0.663,-0.266 0.663,0.006m82.458,0.402c0.384,0.342 0.845,0.847 1.024,1.122c0.717,1.096 -0.588,-0.027 -1.779,-1.532c-0.331,-0.418 0.072,-0.2 0.755,0.41m86.988,1.341c-0.811,1.737 -1.174,2.267 -1.553,2.267c-0.387,-0 -0.24,-0.72 0.328,-1.628c1.946,-3.105 2.516,-3.401 1.225,-0.639m79.164,-1.774c-0.16,0.257 0.26,0.5 0.771,0.447c0.245,-0.025 0.445,-0.168 0.477,-0.34c0.066,-0.345 -1.043,-0.44 -1.248,-0.107m-366.696,0.387c-0.106,0.277 -0.297,0.439 -0.516,0.439c-0.454,0 -0.623,0.463 -0.29,0.796c0.292,0.292 0.507,0.301 5.874,0.249c5.031,-0.05 8.105,0.055 8.334,0.284c0.305,0.305 0.711,0.229 1.127,-0.213c0.6,-0.639 0.413,-1.01 -0.58,-1.149c-0.464,-0.065 -1.332,-0.195 -1.929,-0.288c-0.735,-0.113 -1.19,-0.112 -1.409,0.005c-0.484,0.259 -1.775,0.232 -2.92,-0.063c-0.704,-0.18 -1.934,-0.268 -4.018,-0.284c-1.652,-0.013 -3.116,-0.068 -3.255,-0.121c-0.164,-0.063 -0.308,0.056 -0.418,0.345m112.672,-0.173c-0,0.251 -1.381,1.459 -1.668,1.459c-0.419,-0 -0.328,-0.376 0.244,-1.009c0.62,-0.686 1.424,-0.94 1.424,-0.45m79.519,0.168c-0,0.222 -0.125,0.506 -0.278,0.633c-0.152,0.126 -0.459,0.519 -0.683,0.873c-0.223,0.353 -0.676,0.942 -1.006,1.306c-0.554,0.615 -0.635,1.016 -0.207,1.016c0.098,0 0.493,-0.323 0.879,-0.719c1.634,-1.672 2.164,-1.54 0.757,0.189c-0.687,0.843 -0.732,0.869 -1.587,0.869c-1.556,-0 -1.502,-0.382 0.354,-2.515c0.376,-0.431 0.871,-1.07 1.101,-1.418c0.481,-0.733 0.67,-0.799 0.67,-0.234m5.15,-0.175c0.468,0.342 0.271,0.691 -0.203,0.358c-0.375,-0.262 -0.508,-0.585 -0.243,-0.585c0.076,0 0.276,0.102 0.446,0.227m86.379,-0.08c0,0.08 -0.232,0.438 -0.515,0.796c-0.284,0.357 -0.869,1.204 -1.299,1.884c-0.43,0.679 -0.883,1.234 -1.007,1.234c-0.367,-0 -0.257,-0.411 0.322,-1.201c0.301,-0.41 0.728,-1.008 0.949,-1.33c0.762,-1.103 1.55,-1.808 1.55,-1.383m6.091,0.074c0,0.122 -0.217,0.563 -0.483,0.982c-0.265,0.42 -0.614,1.159 -0.776,1.643c-0.16,0.485 -0.419,1.009 -0.573,1.164c-0.652,0.655 -0.361,-0.479 0.568,-2.22c0.883,-1.651 1.264,-2.126 1.264,-1.569m-174.049,0.362c-0.071,0.122 -0.388,0.438 -0.705,0.702c-0.654,0.547 -0.524,0.064 0.198,-0.729c0.353,-0.387 0.736,-0.367 0.507,0.027m5.37,-0.23c-0,0.101 -0.504,0.653 -1.119,1.227c-0.615,0.574 -1.219,1.138 -1.341,1.255c-0.123,0.115 -0.267,0.211 -0.32,0.211c-0.294,-0 0.011,-0.532 0.773,-1.353c1.152,-1.242 2.007,-1.811 2.007,-1.34m56.847,0.057c-0,0.131 -0.241,0.454 -0.534,0.718c-0.906,0.813 -1.504,1.465 -2.012,2.194c-0.46,0.658 -0.953,1.019 -1.139,0.833c-0.046,-0.045 0.156,-0.354 0.448,-0.687c0.291,-0.332 0.53,-0.675 0.53,-0.762c-0,-0.088 0.221,-0.273 0.491,-0.413c0.27,-0.139 0.645,-0.503 0.834,-0.808c0.676,-1.09 1.382,-1.639 1.382,-1.075m-119.284,0.055c-0.007,0.178 -0.431,0.72 -0.562,0.72c-0.184,0 -0.12,-0.428 0.094,-0.643c0.229,-0.228 0.477,-0.268 0.468,-0.077m51.034,0.141c-0.056,0.148 -0.103,0.338 -0.103,0.424c0,0.085 -0.152,0.155 -0.338,0.155c-0.412,0 -0.426,-0.131 -0.059,-0.537c0.345,-0.38 0.64,-0.405 0.5,-0.042m14.756,0.198c0.058,0.41 0.354,0.497 0.659,0.192c0.103,-0.103 0.272,-0.136 0.375,-0.072c0.223,0.138 -2.457,3.137 -2.804,3.137c-0.445,-0 -0.222,-0.521 0.531,-1.243c0.836,-0.8 0.97,-1.179 0.387,-1.095c-0.212,0.031 -0.647,0.414 -1.003,0.886c-0.726,0.963 -1.036,1.176 -1.502,1.028c-0.51,-0.162 -0.405,-0.494 0.354,-1.121c0.379,-0.314 1.045,-0.923 1.48,-1.353c0.863,-0.855 1.433,-0.989 1.523,-0.359m56.142,-0.049c-0.055,0.143 -0.181,0.261 -0.281,0.261c-0.125,-0 -0.122,-0.109 0.009,-0.354c0.21,-0.392 0.43,-0.317 0.272,0.093m100.923,0.145c-0.202,0.215 -0.367,0.471 -0.367,0.568c-0,0.098 -0.236,0.473 -0.524,0.836c-0.288,0.361 -0.671,0.943 -0.85,1.292c-0.35,0.684 -0.657,0.83 -0.657,0.313c0,-0.489 2.471,-3.694 2.683,-3.482c0.045,0.045 -0.083,0.259 -0.285,0.473m110.382,-0.367c0.186,0.301 -0.432,0.652 -1.148,0.652c-0.702,0 -0.885,-0.35 -0.348,-0.664c0.404,-0.234 1.349,-0.226 1.496,0.012m-269.447,0.093c-0,0.117 -2.357,2.42 -2.476,2.42c-0.306,-0 0.12,-0.657 0.979,-1.508c0.922,-0.913 1.497,-1.263 1.497,-0.912m71.22,0.872c-0.276,0.092 -0.876,-0.624 -0.726,-0.866c0.067,-0.108 0.277,0.014 0.529,0.306c0.3,0.348 0.356,0.507 0.197,0.56m33.168,-0.741c0,0.281 -0.755,1.461 -0.817,1.276c-0.086,-0.26 0.46,-1.355 0.675,-1.355c0.078,-0 0.142,0.035 0.142,0.079m0.918,0.751c-0.362,1.051 -0.655,1.565 -1.155,2.032c-0.577,0.539 -0.553,0.389 0.119,-0.788c1.292,-2.257 1.45,-2.448 1.036,-1.244m1.79,-0.563c-0,0.329 -1.318,2.815 -1.584,2.986c-0.541,0.348 -0.622,-0.278 -0.119,-0.918c0.18,-0.228 0.518,-0.848 0.752,-1.376c0.404,-0.912 0.951,-1.311 0.951,-0.692m159.561,0.12c-0.217,0.218 -0.437,0.05 -0.277,-0.21c0.063,-0.101 0.191,-0.136 0.286,-0.077c0.116,0.071 0.113,0.167 -0.009,0.287m-261.744,0.044c0.12,0.144 0.392,0.24 0.605,0.211c0.609,-0.08 0.459,0.193 -0.875,1.599c-1.193,1.257 -1.619,1.518 -1.856,1.136c-0.105,-0.172 0.809,-1.126 1.57,-1.638c0.45,-0.302 0.512,-0.894 0.093,-0.894c-0.157,0 -0.499,0.204 -0.759,0.453c-0.706,0.676 -0.732,0.386 -0.04,-0.423c0.651,-0.761 0.921,-0.855 1.262,-0.444m58.698,1.162c-0.371,0.691 -0.673,1.407 -0.673,1.593c-0,0.398 -0.309,0.548 -0.706,0.345c-0.287,-0.148 0.636,-1.775 1.597,-2.813c0.534,-0.577 0.511,-0.485 -0.218,0.875m94.072,-1.176c-0,0.138 -1.969,2.704 -2.26,2.946c-0.443,0.367 -0.359,-0.156 0.135,-0.843c0.227,-0.317 0.62,-0.937 0.873,-1.378c0.393,-0.688 1.252,-1.184 1.252,-0.725m-163.436,0.227c0,0.219 -1,1.118 -1.115,1.002c-0.159,-0.157 0.594,-1.139 0.874,-1.139c0.133,0 0.241,0.062 0.241,0.137m58.878,0.012c-0,0.082 -0.215,0.368 -0.478,0.635c-0.754,0.766 -1.721,2.024 -1.721,2.236c-0,0.107 -0.152,0.194 -0.339,0.194c-0.635,0 -0.356,-0.624 0.863,-1.928c1.078,-1.155 1.675,-1.56 1.675,-1.137m55.324,0.196c-0,0.086 -0.247,0.559 -0.549,1.051c-0.303,0.493 -0.632,1.041 -0.732,1.22c-0.1,0.179 -0.271,0.354 -0.381,0.391c-0.25,0.083 -0.264,-0.578 -0.016,-0.732c0.101,-0.062 0.335,-0.466 0.52,-0.898c0.486,-1.133 1.158,-1.732 1.158,-1.032m-57.682,0.315c-0.191,0.271 -0.349,0.611 -0.349,0.756c0,0.693 -1.871,2.195 -2.255,1.81c-0.134,-0.134 0.214,-0.578 1.273,-1.621c1.514,-1.491 1.931,-1.787 1.331,-0.945m4.418,0.823c-1.141,1.499 -1.463,1.807 -1.719,1.648c-0.234,-0.144 0.527,-1.184 1.435,-1.959c0.373,-0.319 0.738,-0.674 0.812,-0.791c0.075,-0.117 0.211,-0.212 0.304,-0.212c0.093,-0 -0.282,0.591 -0.832,1.314m123.001,-0.111c-0.266,0.594 -0.536,1.291 -0.599,1.547c-0.067,0.267 -0.231,0.465 -0.388,0.465c-0.49,-0 -0.129,-1.316 0.641,-2.335c0.863,-1.143 0.96,-1.052 0.346,0.323m-183.295,-0.831c0.307,0.309 0.243,0.706 -0.155,0.954c-0.439,0.274 -0.861,-0.006 -0.522,-0.345c0.111,-0.111 0.203,-0.34 0.203,-0.507c-0,-0.353 0.184,-0.392 0.474,-0.102m160.593,-0.044c-0,0.613 -1.6,2.717 -2.067,2.717c-0.491,0 -0.05,-0.797 1.382,-2.495c0.328,-0.39 0.685,-0.506 0.685,-0.222m-78.842,0.559c-0,0.094 -0.113,0.076 -0.254,-0.041c-0.14,-0.115 -0.254,-0.287 -0.254,-0.379c0,-0.095 0.113,-0.077 0.254,0.04c0.139,0.116 0.254,0.287 0.254,0.38m26.055,-0.456c0,0.332 -0.582,1.144 -0.636,0.889c-0.073,-0.338 0.237,-0.981 0.473,-0.981c0.089,-0 0.163,0.041 0.163,0.092m-28.694,1.132c0.527,0.581 0.887,1.079 0.8,1.108c-0.156,0.052 -1.659,-1.447 -1.934,-1.927c-0.325,-0.568 0.249,-0.153 1.134,0.819m111.904,-0.929c-0.076,0.168 -0.978,1.635 -1.414,2.304c-0.362,0.557 -0.847,0.761 -1.129,0.478c-0.113,-0.113 0.059,-0.471 0.514,-1.073c0.375,-0.498 0.762,-1.114 0.859,-1.37c0.141,-0.37 0.285,-0.466 0.702,-0.466c0.289,0 0.501,0.058 0.468,0.127m-194.028,0.215c-0,0.096 -0.29,0.496 -0.646,0.889c-0.355,0.393 -0.817,0.963 -1.027,1.265c-0.331,0.479 -0.865,0.753 -0.865,0.444c0,-0.058 0.337,-0.578 0.749,-1.155c0.885,-1.24 1.789,-1.969 1.789,-1.443m109.145,0.384c-0.138,0.138 -0.189,0.119 -0.189,-0.071c0,-0.337 0.228,-0.564 0.312,-0.312c0.036,0.107 -0.019,0.279 -0.123,0.383m-94.595,0.177c-0,0.412 -1.229,1.635 -1.643,1.635c-0.412,0 -0.217,-0.412 0.579,-1.22c0.9,-0.914 1.064,-0.978 1.064,-0.415m49.649,0.873c-0.62,0.755 -1.092,0.982 -1.092,0.525c0,-0.13 0.362,-0.593 0.803,-1.03c1.008,-0.995 1.217,-0.628 0.289,0.505m20.603,-0.183c0.361,0.436 0.374,0.607 0.048,0.607c-0.354,-0 -1.222,-0.852 -1.362,-1.337l-0.118,-0.406l0.57,0.392c0.313,0.214 0.701,0.549 0.862,0.744m74.996,-0.746c-0.168,0.186 -0.374,0.338 -0.456,0.338c-0.081,-0 -0.067,-0.152 0.033,-0.338c0.099,-0.187 0.304,-0.339 0.454,-0.339c0.243,-0 0.239,0.039 -0.031,0.339m1.607,-0.111c-0,0.125 -0.145,0.358 -0.323,0.52c-0.177,0.16 -0.369,0.477 -0.426,0.702c-0.067,0.268 -0.225,0.411 -0.45,0.411c-0.471,0 -0.293,-0.575 0.405,-1.311c0.56,-0.591 0.794,-0.685 0.794,-0.322m33.669,0.105c-0,0.403 -0.781,1.87 -1.153,2.163c-0.576,0.457 -0.547,-0.122 0.065,-1.291c0.613,-1.17 1.088,-1.55 1.088,-0.872m1.768,0.032c0.551,0.252 0.546,0.294 -0.166,1.408c-0.726,1.135 -1.602,1.374 -1.602,0.437c-0,-0.274 0.079,-0.547 0.175,-0.607c0.097,-0.059 0.365,-0.406 0.595,-0.771c0.474,-0.752 0.423,-0.728 0.998,-0.467m-185.845,0.12c-0,0.19 -0.848,1.037 -1.038,1.037c-0.262,0 -0.155,-0.232 0.319,-0.694c0.489,-0.477 0.719,-0.587 0.719,-0.343m45.416,0.234c-0.723,0.867 -1.16,1.311 -1.29,1.311c-0.308,0 -0.098,-0.363 0.582,-1.004c0.776,-0.733 1.225,-0.927 0.708,-0.307m61.843,-0.169c-0.008,0.285 -0.799,1.239 -0.924,1.115c-0.055,-0.055 0.064,-0.376 0.263,-0.713c0.362,-0.612 0.672,-0.802 0.661,-0.402m39.754,0.531c-0.443,0.752 -0.939,1.192 -1.081,0.961c-0.129,-0.207 1.085,-1.728 1.282,-1.606c0.072,0.045 -0.018,0.335 -0.201,0.645m-239.916,-0.174c0.108,0.131 0.372,0.195 0.613,0.149c0.879,-0.168 0.463,0.594 -0.509,0.932c-0.279,0.098 -0.65,0.234 -0.823,0.305c-0.28,0.113 -0.295,0.085 -0.122,-0.237c0.275,-0.513 -0.203,-0.489 -1.085,0.054c-0.701,0.432 -1.269,0.549 -1.269,0.264c-0,-0.169 1.644,-1.28 2.27,-1.533c0.511,-0.207 0.709,-0.193 0.925,0.066m121.326,-0.068c0,0.263 -0.901,1.022 -1.214,1.022c-0.509,0 -0.492,-0.296 0.043,-0.746c0.517,-0.434 1.171,-0.588 1.171,-0.276m159.183,1.049c-0.343,0.623 -1.331,1.192 -1.331,0.767c0,-0.169 0.925,-1.734 1.091,-1.845c0.495,-0.334 0.646,0.34 0.24,1.078m-160.912,-0.843c-0.093,0.278 -0.598,0.575 -0.739,0.434c-0.162,-0.162 0.254,-0.633 0.558,-0.633c0.136,0 0.217,0.09 0.181,0.199m51.441,0.195c0.038,0.196 -0.026,0.251 -0.212,0.18c-0.313,-0.121 -0.366,-0.636 -0.054,-0.532c0.116,0.039 0.236,0.197 0.266,0.352m-179.902,0.398c-0.879,0.808 -2.616,1.129 -4.293,0.794c-0.847,-0.17 -0.61,-0.402 0.411,-0.402c0.532,0 1.167,-0.118 1.464,-0.271c0.337,-0.175 0.736,-0.238 1.116,-0.177c0.435,0.071 0.7,0.009 1.011,-0.235c0.777,-0.61 1.014,-0.373 0.291,0.291m3.469,-0.528c0,0.053 -0.24,0.301 -0.536,0.55c-1.196,1.016 -1.832,1.266 -1.832,0.724c-0,-0.251 0.267,-0.483 0.972,-0.843c0.949,-0.486 1.396,-0.624 1.396,-0.431m2.171,0.226c-0.294,0.472 -1.862,1.371 -2.39,1.371c-1.021,0 -0.169,-0.926 1.234,-1.339c0.418,-0.124 0.838,-0.248 0.931,-0.275c0.373,-0.112 0.417,-0.064 0.225,0.243m6.155,-0.035c0.298,0.269 0.347,0.268 0.833,-0.018c0.895,-0.529 0.881,-0.046 -0.016,0.541c-0.978,0.64 -1.022,0.65 -1.022,0.206c0,-0.411 -0.37,-0.435 -0.942,-0.061c-0.666,0.437 -0.728,0.08 -0.079,-0.463c0.68,-0.57 0.8,-0.591 1.226,-0.205m74.237,-0.153c0,0.073 -0.246,0.275 -0.549,0.45l-0.55,0.316l0.41,-0.449c0.405,-0.444 0.689,-0.575 0.689,-0.317m5.114,0.669c0.31,0.383 -0,1.108 -0.426,0.995c-0.205,-0.055 -0.468,-0.101 -0.585,-0.103c-0.351,-0.004 -0.238,-0.526 0.252,-1.169c0.404,-0.529 0.471,-0.564 0.526,-0.27c0.035,0.185 0.139,0.431 0.233,0.547m1.018,-0.091c-0.215,0.216 -0.378,0.274 -0.449,0.159c-0.061,-0.1 0.058,-0.35 0.265,-0.557c0.267,-0.266 0.397,-0.313 0.449,-0.158c0.04,0.121 -0.08,0.371 -0.265,0.556m39.888,-0.568c0,0.079 -0.152,0.281 -0.339,0.45c-0.384,0.347 -0.51,-0.014 -0.135,-0.39c0.236,-0.236 0.474,-0.266 0.474,-0.06m66.222,-0.013c-0.101,0.068 -0.27,0.276 -0.376,0.463c-0.142,0.25 -0.193,0.27 -0.197,0.076c-0.005,-0.301 0.316,-0.67 0.579,-0.666c0.119,0.002 0.117,0.044 -0.006,0.127m-181.439,0.197c0,0.247 -0.859,0.858 -1.207,0.858c-0.477,-0 -0.38,-0.268 0.234,-0.648c0.604,-0.373 0.973,-0.453 0.973,-0.21m65.655,0.397c-0.218,0.207 -0.334,0.262 -0.261,0.122c0.236,-0.446 0.466,-0.688 0.561,-0.591c0.052,0.051 -0.083,0.263 -0.3,0.469m4.783,-0.33l0.432,0.224l-0.326,0.537c-0.227,0.375 -0.455,0.537 -0.752,0.537c-0.496,0 -0.512,-0.088 -0.169,-0.909c0.294,-0.704 0.248,-0.683 0.815,-0.389m43.317,0.029c-0.101,0.265 -0.568,0.358 -0.568,0.113c-0,-0.207 0.194,-0.367 0.445,-0.367c0.126,0 0.179,0.109 0.123,0.254m39.366,0.007c0.286,0.345 0.052,0.561 -0.679,0.622c-0.443,0.036 -0.598,-0.023 -0.644,-0.248c-0.042,-0.204 0.044,-0.297 0.279,-0.297c0.188,0 0.388,-0.076 0.446,-0.168c0.148,-0.241 0.347,-0.21 0.598,0.091m77.066,0.066c-0.062,0.1 -0.24,0.179 -0.398,0.176c-0.251,-0.005 -0.246,-0.036 0.04,-0.253c0.348,-0.263 0.542,-0.221 0.358,0.077m44.283,0.462c-0.094,0.284 -0.342,0.545 -0.608,0.639c-0.636,0.224 -0.774,-0.023 -0.258,-0.462c0.242,-0.205 0.488,-0.519 0.549,-0.698c0.079,-0.232 0.163,-0.273 0.294,-0.142c0.122,0.123 0.13,0.34 0.023,0.663m1.983,-0.373c-0,0.481 -0.398,1.107 -0.704,1.107c-0.385,0 -0.408,-0.464 -0.049,-0.977c0.298,-0.425 0.753,-0.503 0.753,-0.13m-263.275,0.245c0.187,0.12 0.164,0.186 -0.117,0.336c-0.482,0.258 -0.879,0.235 -0.879,-0.052c-0,-0.379 0.581,-0.546 0.996,-0.284m65.325,-0.002c0,0.199 -0.494,0.384 -0.694,0.261c-0.087,-0.054 -0.114,-0.168 -0.06,-0.255c0.125,-0.201 0.754,-0.206 0.754,-0.006m200.403,0.286c0,0.254 -0.141,0.335 -0.653,0.378c-0.744,0.061 -0.792,-0.246 -0.095,-0.601c0.515,-0.262 0.748,-0.193 0.748,0.223m71.313,-0.183c-0,0.158 -0.161,0.254 -0.424,0.254c-0.442,-0 -0.575,-0.249 -0.211,-0.396c0.403,-0.163 0.635,-0.111 0.635,0.142m-344.975,0.084c0,0.093 -0.209,0.169 -0.464,0.166c-0.363,-0.002 -0.41,-0.038 -0.212,-0.166c0.331,-0.213 0.676,-0.213 0.676,0m279.288,0.043c-0.038,0.116 -0.272,0.235 -0.52,0.265c-0.352,0.041 -0.429,-0.005 -0.35,-0.212c0.122,-0.317 0.975,-0.369 0.87,-0.053m-277.088,0.127c0,0.093 -0.109,0.169 -0.243,0.169c-0.134,0 -0.292,-0.076 -0.349,-0.169c-0.057,-0.094 0.052,-0.17 0.244,-0.17c0.192,0 0.348,0.076 0.348,0.17m3.13,-0c-0.057,0.093 -0.328,0.169 -0.602,0.169c-0.273,0 -0.498,-0.076 -0.498,-0.169c0,-0.094 0.272,-0.17 0.602,-0.17c0.359,0 0.561,0.069 0.498,0.17m96.776,0.581c2.403,0.008 3.317,0.069 3.624,0.244c0.408,0.232 15.118,0.324 20.866,0.13c1.186,-0.04 2.622,-0.017 3.189,0.05c0.569,0.067 1.691,0.039 2.495,-0.061c1.539,-0.192 2.367,-0.192 7.977,0.003c4.222,0.147 4.712,0.146 6.852,-0.004c4.185,-0.295 16.595,-0.39 23.518,-0.181c2.512,0.076 5.786,0.129 7.274,0.119c1.489,-0.012 4.04,-0.014 5.669,-0.005c1.628,0.008 4.064,0.015 5.413,0.016c1.349,0.001 4.053,0.004 6.007,0.006c1.954,0.002 3.819,-0.003 4.145,-0.011c7.245,-0.188 15.868,-0.237 20.302,-0.117c1.722,0.047 5.49,0.066 8.375,0.044c9.523,-0.076 20.956,0.015 22.417,0.178c0.791,0.089 2.124,0.106 2.961,0.04c0.838,-0.067 2.208,-0.059 3.045,0.016c1.349,0.122 9.211,0.218 14.636,0.181c1.069,-0.008 2.211,-0.014 2.537,-0.015c0.325,-0 1.952,-0.007 3.614,-0.014c1.662,-0.007 3.091,0.03 3.174,0.082c0.085,0.051 0.552,0.016 1.039,-0.079c0.487,-0.095 2.698,-0.214 4.913,-0.263c2.215,-0.051 4.156,-0.156 4.314,-0.234c0.499,-0.246 10.883,-0.329 14.669,-0.118c1.698,0.096 3.829,0.142 13.873,0.305c1.861,0.03 4.849,0.088 6.64,0.131l3.256,0.075l-0.102,0.548c-0.133,0.713 0.342,0.964 0.763,0.406c0.224,-0.298 0.384,-0.348 0.827,-0.259c0.754,0.151 0.826,0.354 0.314,0.887c-0.291,0.305 -0.405,0.572 -0.343,0.808c0.097,0.374 -0.307,0.909 -0.688,0.909c-0.122,0 -0.264,-0.16 -0.316,-0.356c-0.104,-0.397 -0.419,-0.365 -0.694,0.071c-0.598,0.948 1.261,1.232 2.095,0.32c0.265,-0.291 0.679,-0.577 0.92,-0.638c0.361,-0.09 0.42,-0.181 0.336,-0.517c-0.144,-0.567 0.176,-0.875 1.043,-1.005c1.711,-0.256 1.354,-0.936 -0.404,-0.768c-0.873,0.082 -1.325,0.057 -1.523,-0.088c-0.403,-0.295 -0.117,-0.482 0.702,-0.458c0.39,0.012 1.395,0.036 2.232,0.055c1.83,0.04 2.049,0.161 1.606,0.889c-0.302,0.498 -0.309,0.804 -0.016,0.804c0.073,-0 0.219,-0.191 0.325,-0.423c0.105,-0.233 0.318,-0.424 0.472,-0.424c0.413,0 0.232,1.57 -0.251,2.171c-0.2,0.248 -0.488,0.693 -0.641,0.988c-0.106,0.208 -0.742,0.561 -1.308,0.592c-1.517,0.082 -66.281,-0.01 -71.246,-0.101c-2.326,-0.044 -4.573,-0.074 -4.991,-0.069c-2.287,0.029 -14.131,0.009 -18.019,-0.031c-1.395,-0.014 -5.507,-0.052 -9.136,-0.083c-3.629,-0.031 -6.674,-0.06 -6.768,-0.063c-0.092,-0.004 -1.767,0.062 -3.721,0.145c-3.754,0.161 -56.875,-0.008 -61.585,-0.195c-0.372,-0.015 -1.932,-0.012 -3.468,0.006c-1.535,0.019 -7.969,-0.007 -14.296,-0.057c-16.301,-0.127 -43.199,-0.263 -45.004,-0.227c-2.036,0.041 -2.269,0.04 -4.23,-0.01c-1.737,-0.044 -19.833,-0.048 -21.656,-0.005c-1.023,0.024 -6.816,0.018 -7.445,-0.008c-0.263,-0.01 -29.988,0.173 -33.245,0.206c-0.608,0.006 -24.129,-0.208 -25.716,-0.234c-2.046,-0.034 -32.856,0.203 -37.983,0.293c-11.509,0.199 -11.462,0.199 -12.07,-0.043c-0.391,-0.155 -0.661,-0.174 -0.877,-0.058c-0.686,0.368 -0.728,0.255 -0.62,-1.648c0.131,-2.326 0.022,-2.246 3.07,-2.256c1.307,-0.004 2.871,-0.047 3.476,-0.094c2.067,-0.166 4.68,-0.11 12.35,0.263c2.28,0.11 5.406,0.192 6.946,0.182c1.54,-0.011 2.994,0.055 3.234,0.145c0.277,0.106 0.883,0.109 1.683,0.008c1.998,-0.254 6.148,-0.359 13.769,-0.348c11.607,0.017 13.689,0.05 14.007,0.22c0.378,0.201 6.662,0.299 7.194,0.111c0.84,-0.295 13.835,-0.453 15.869,-0.193c1,0.129 7.158,0.128 12.08,-0.001c4.559,-0.119 8.832,-0.13 10.32,-0.025c0.791,0.056 2.12,0.028 2.953,-0.06c0.976,-0.104 1.669,-0.103 1.946,0.002c0.758,0.289 7.883,0.15 10.049,-0.195c0.584,-0.093 1.97,-0.164 3.081,-0.157c2.028,0.012 6.214,-0.09 10.31,-0.252c1.21,-0.049 3.303,-0.086 4.653,-0.085c1.349,0.002 2.72,-0 3.045,-0.004c0.325,-0.004 1.506,-0.011 2.622,-0.017c1.117,-0.006 2.297,-0.077 2.623,-0.159c0.325,-0.081 0.782,-0.101 1.015,-0.045c0.233,0.056 1.87,0.107 3.638,0.112m241.376,0.439c3.138,0.019 2.953,-0.116 2.94,2.144c-0.012,2.124 0.048,2.066 -2.248,2.157c-1.919,0.075 -2.332,-0.037 -2.209,-0.599c0.108,-0.489 -0.508,-0.332 -0.684,0.176c-0.17,0.485 -0.233,0.515 -1.048,0.515c-0.976,0 -1.219,-0.538 -0.29,-0.645c0.255,-0.03 0.544,-0.204 0.643,-0.389c0.099,-0.184 0.365,-0.406 0.592,-0.493c0.464,-0.175 0.55,-0.63 0.148,-0.784c-0.169,-0.065 -0.464,0.118 -0.826,0.513c-0.416,0.454 -0.699,0.615 -1.089,0.615c-0.619,-0 -0.619,-0 -0.21,-0.812c0.515,-1.022 0.566,-1.327 0.269,-1.625c-0.287,-0.285 -0.965,-0.224 -1.408,0.127c-0.336,0.266 -0.932,-0.618 -0.625,-0.926c0.043,-0.042 0.824,-0.058 1.735,-0.034c0.912,0.023 2.851,0.05 4.31,0.06m-5.363,2.575c-0.07,0.209 -0.136,0.669 -0.147,1.02c-0.021,0.704 -0.28,0.961 -0.971,0.965c-1.075,0.007 -1.017,-0.779 0.128,-1.731c0.879,-0.732 1.175,-0.808 0.99,-0.254m-5.665,0.878c0,0.295 0.278,0.49 0.501,0.352c0.225,-0.139 0.022,-0.595 -0.264,-0.595c-0.13,-0 -0.237,0.109 -0.237,0.243m13.998,-11.576c-1.284,-0.168 -3.556,-0.36 -4.936,-0.743c-1.324,-0.37 -2.628,-0.486 -5.931,-0.527c-5.88,-0.076 -7.418,-0.264 -9.067,-1.113c-1.463,-0.752 -4.033,-1.13 -4.891,-0.719c-1.285,0.616 -7.923,0.989 -9.56,0.539c-0.719,-0.198 -1.69,-0.491 -3.008,-0.907c-0.446,-0.14 -1.002,-0.256 -1.237,-0.256c-0.234,0 -0.887,-0.228 -1.449,-0.507c-0.563,-0.28 -1.136,-0.508 -1.275,-0.508c-0.14,0 -0.684,-0.236 -1.211,-0.526c-1.805,-0.993 -4.634,-1.178 -5.621,-0.369c-0.147,0.121 -0.468,0.219 -0.714,0.219c-0.246,-0 -0.792,0.117 -1.215,0.261c-0.422,0.143 -1.032,0.281 -1.353,0.306c-0.322,0.026 -0.735,0.182 -0.917,0.347c-0.195,0.176 -0.776,0.355 -1.414,0.434c-0.595,0.074 -1.229,0.21 -1.408,0.304c-0.492,0.254 -3.69,0.901 -6.078,1.227c-2.952,0.403 -3.742,0.44 -5.33,0.251c-0.948,-0.114 -7.138,-0.108 -9.897,0.01c-0.838,0.035 -1.958,0.062 -2.489,0.06c-0.532,-0.002 -1.118,0.076 -1.302,0.174c-0.184,0.1 -0.853,0.21 -1.487,0.248c-1.589,0.092 -6.519,0.592 -6.771,0.685c-0.114,0.043 -0.599,-0.04 -1.079,-0.183c-0.48,-0.143 -1.035,-0.219 -1.232,-0.169c-0.231,0.058 -0.629,-0.09 -1.112,-0.415c-1.01,-0.678 -1.348,-0.74 -2.588,-0.471c-1.859,0.403 -4.766,0.259 -5.391,-0.267c-0.284,-0.239 -0.589,-0.434 -0.679,-0.434c-0.089,0 -0.373,-0.156 -0.631,-0.346c-0.689,-0.509 -1.771,-0.238 -2.535,0.634c-1.178,1.342 -1.488,1.619 -2.252,2.006c-0.628,0.32 -0.89,0.37 -1.314,0.248c-0.293,-0.083 -3.012,-0.115 -6.068,-0.068c-3.045,0.046 -6.564,0.07 -7.82,0.055c-2.707,-0.034 -3.576,-0.029 -4.484,0.021c-1.458,0.081 -5.611,-0.139 -5.939,-0.314c-0.412,-0.221 -2.304,-0.282 -3.62,-0.116c-1.3,0.162 -2.219,0.138 -3.948,-0.106c-1.118,-0.157 -1.629,-0.163 -2.03,-0.021c-0.75,0.264 -5.433,0.305 -6.335,0.054c-0.397,-0.111 -0.804,-0.15 -0.902,-0.09c-0.172,0.106 -15.695,0.303 -17.831,0.226c-1.214,-0.044 -2.348,-0.049 -3.722,-0.017c-1.338,0.03 -6.767,-0.116 -8.375,-0.225c-1.911,-0.13 -2.548,-0.148 -3.384,-0.094c-0.418,0.026 -1.087,-0.036 -1.485,-0.139c-0.744,-0.194 -2.871,-0.338 -6.321,-0.429c-1.083,-0.028 -2.061,-0.108 -2.173,-0.177c-0.113,-0.07 -0.636,-0.19 -1.162,-0.265c-0.525,-0.076 -1.371,-0.226 -1.879,-0.332c-0.508,-0.107 -1.117,-0.158 -1.354,-0.112c-0.357,0.069 -0.543,-0.06 -1.106,-0.769c-0.648,-0.815 -1.365,-1.396 -2.506,-2.031c-0.288,-0.16 -0.805,-0.597 -1.147,-0.972c-1.293,-1.414 -2.354,-0.94 -4.276,1.914c-0.343,0.508 -1.679,0.668 -3.067,0.367c-1.693,-0.367 -4.687,-0.634 -7.53,-0.672c-4.053,-0.053 -6.458,-0.264 -6.892,-0.602c-0.412,-0.322 -2.227,-0.619 -4.444,-0.729c-0.419,-0.021 -1.02,-0.169 -1.337,-0.33c-0.761,-0.385 -1.398,-0.368 -1.751,0.045c-0.281,0.328 -0.299,0.329 -0.841,0.022c-1.231,-0.694 -5.21,-0.861 -5.906,-0.248c-0.152,0.134 -0.57,0.239 -0.931,0.232c-0.36,-0.007 -1.301,0.061 -2.092,0.151c-0.792,0.091 -2.069,0.218 -2.84,0.284c-0.771,0.066 -1.442,0.184 -1.49,0.263c-0.049,0.079 -0.563,0.144 -1.142,0.144c-0.579,0 -1.469,0.118 -1.978,0.263c-1.985,0.563 -3.963,0.969 -4.647,0.955c-0.717,-0.017 -5.267,0.505 -5.668,0.649c-0.232,0.084 -1.108,0.188 -1.946,0.233c-2.102,0.112 -4.141,0.486 -4.721,0.867c-0.268,0.175 -0.837,0.335 -1.267,0.354c-0.792,0.035 -1.758,0.222 -2.978,0.576c-2.024,0.584 -4.879,1.002 -7.601,1.111c-1.203,0.049 -2.321,0.159 -2.484,0.247c-0.184,0.098 -0.456,0.099 -0.71,0.003c-0.226,-0.085 -1.087,-0.115 -1.915,-0.065c-0.826,0.05 -2.492,0.11 -3.702,0.135c-1.21,0.024 -2.313,0.055 -2.453,0.068c-0.139,0.014 -1.32,-0 -2.622,-0.031c-1.303,-0.029 -2.647,-0.005 -2.986,0.056c-0.339,0.061 -1.048,0.052 -1.576,-0.019c-1.142,-0.155 -4.748,-0.201 -7.112,-0.09c-0.931,0.043 -2.149,0.07 -2.708,0.057c-0.558,-0.011 -1.395,-0.027 -1.86,-0.034c-0.465,-0.007 -1.113,-0.073 -1.439,-0.146c-0.325,-0.073 -1.315,-0.162 -2.199,-0.195c-0.884,-0.034 -2.75,-0.187 -4.145,-0.341c-1.457,-0.161 -3.222,-0.247 -4.145,-0.203c-1.45,0.07 -1.734,0.031 -2.892,-0.396c-1.114,-0.409 -1.543,-0.474 -3.219,-0.487c-1.064,-0.009 -2.189,-0.089 -2.498,-0.177c-0.311,-0.089 -1.336,-0.212 -2.28,-0.274c-1.173,-0.076 -1.876,-0.207 -2.223,-0.411c-0.28,-0.166 -0.926,-0.351 -1.438,-0.414c-0.513,-0.063 -1.159,-0.183 -1.438,-0.266c-0.279,-0.084 -1.469,-0.268 -2.645,-0.41c-1.174,-0.143 -2.355,-0.374 -2.622,-0.513c-0.267,-0.139 -0.614,-0.254 -0.771,-0.255c-0.159,0 -0.338,-0.083 -0.401,-0.185c-0.069,-0.112 -0.342,-0.142 -0.696,-0.075c-0.489,0.092 -0.673,0.03 -1.147,-0.388c-2.188,-1.92 -6.95,-1.93 -8.987,-0.019c-0.191,0.181 -0.504,0.328 -0.695,0.328c-0.19,0 -0.637,0.198 -0.994,0.44c-0.499,0.339 -0.781,0.418 -1.226,0.346c-0.348,-0.056 -0.722,-0.003 -0.94,0.135c-0.2,0.126 -0.896,0.28 -1.547,0.343c-0.652,0.063 -1.477,0.263 -1.833,0.445c-0.438,0.223 -0.825,0.299 -1.185,0.231c-0.294,-0.055 -1.107,0.009 -1.804,0.142c-0.698,0.133 -1.46,0.254 -1.692,0.268c-2.923,0.181 -4.05,0.305 -4.247,0.467c-0.493,0.406 -1.768,0.583 -4.153,0.578c-2.016,-0.005 -2.653,0.054 -3.49,0.33c-0.595,0.194 -1.491,0.337 -2.138,0.339c-0.613,0.001 -1.804,0.075 -2.646,0.164c-1.597,0.169 -4.59,0.206 -10.311,0.131l-3.385,-0.045c0,0 -2.261,0.011 -2.38,0.551c-0.229,1.04 -0.305,2.032 -0.229,4.426c0.025,0.783 0.07,1.545 0.15,1.693c0.087,0.163 0.05,0.536 -0.093,0.945c-0.27,0.773 -0.283,1.077 -0.209,4.625l0.055,2.596l0.508,0.406c0.598,0.481 0.801,0.5 1.36,0.134c0.337,-0.221 0.507,-0.237 0.882,-0.083c0.444,0.183 1.511,0.19 18.906,0.131c1.86,-0.006 4.084,0.009 4.939,0.036c0.856,0.026 2.113,-0.032 2.792,-0.128c0.68,-0.097 4.154,-0.226 7.721,-0.285c3.567,-0.061 6.674,-0.161 6.905,-0.223c0.23,-0.062 1.081,-0.056 1.889,0.012c2.204,0.185 25.908,0.225 34.377,0.057c6.449,-0.128 34.502,-0.116 34.714,0.014c0.54,0.334 2.945,0.362 3.296,0.037c0.348,-0.323 0.383,-0.325 0.807,-0.048c0.334,0.22 0.617,0.261 1.158,0.173c0.393,-0.065 1.514,-0.107 2.491,-0.095c0.977,0.014 2.005,0.027 2.284,0.03c0.279,0.004 0.844,-0.07 1.253,-0.164c0.5,-0.113 0.907,-0.113 1.235,0.001c0.346,0.121 0.707,0.111 1.223,-0.034c0.574,-0.16 1.278,-0.16 3.234,-0.002c1.376,0.112 2.781,0.158 3.124,0.103c0.343,-0.054 1.567,-0.097 2.722,-0.094c1.154,0.003 2.25,0.003 2.436,-0.001c0.187,-0.003 0.986,0.004 1.776,0.015c0.791,0.011 1.63,0.011 1.862,0.001c0.496,-0.023 0.618,-0.023 13.027,0.084c5.258,0.044 10.473,0.098 11.59,0.119c2.987,0.055 6.154,0.088 7.02,0.072c0.42,-0.007 1.98,0.052 3.469,0.132c2.939,0.159 2.984,0.16 6.345,0.108c1.255,-0.019 6.928,0.018 12.605,0.082c5.675,0.065 11.461,0.1 12.857,0.077c1.396,-0.022 4.556,-0.075 7.022,-0.117c7.401,-0.128 17.81,-0.121 21.233,0.013c1.767,0.069 5.955,0.112 9.305,0.096c3.35,-0.016 6.471,-0.018 6.937,-0.004c1.818,0.055 6.324,0.057 7.528,0.003c0.699,-0.031 4.01,0.004 7.36,0.078c6.027,0.134 10.336,0.168 13.45,0.106c3.751,-0.075 39.131,0.116 46.189,0.25c4.234,0.08 8.269,0.13 8.967,0.111c0.698,-0.019 6.56,-0.07 13.027,-0.113c11.332,-0.078 13.739,-0.089 16.666,-0.081c2.342,0.008 10.801,-0.197 11.42,-0.276c0.326,-0.041 4.436,-0.115 9.136,-0.165l8.543,-0.091l0.387,-0.737c0.291,-0.556 0.349,-0.835 0.235,-1.142c-0.085,-0.224 -0.112,-1.32 -0.063,-2.437c0.048,-1.116 0.099,-3.667 0.11,-5.668c0.012,-2.002 -0.142,-4.034 -0.343,-4.171" style="fill:#3b3630;"/></g></svg>