<?xml version="1.0" encoding="UTF-8" standalone="no"?><!DOCTYPE svg PUBLIC "-//W3C//DTD SVG 1.1//EN" "http://www.w3.org/Graphics/SVG/1.1/DTD/svg11.dtd"><svg width="100%" height="100%" viewBox="0 0 400 30" version="1.1" xmlns="http://www.w3.org/2000/svg" xmlns:xlink="http://www.w3.org/1999/xlink" xml:space="preserve" xmlns:serif="http://www.serif.com/" style="fill-rule:evenodd;clip-rule:evenodd;stroke-linejoin:round;stroke-miterlimit:2;"><g id="svgg"><clipPath id="_clip1"><path id="path1" d="M399.955,0.136l-399.894,-2.045l-0.143,28.017l399.894,2.046l0.143,-28.018Z"/></clipPath><g clip-path="url(#_clip1)"><path d="M287.377,-31.513c-0.572,0.027 -1.156,0.094 -1.3,0.15c-0.143,0.057 -1.001,0.09 -1.906,0.075c-0.905,-0.015 -4.686,-0.028 -8.403,-0.029c-8.795,-0.002 -8.525,0.001 -9.53,-0.067c-0.476,-0.032 -1.801,-0.06 -2.944,-0.062c-15.258,-0.03 -25.298,0.009 -31.969,0.126c-4.746,0.081 -8.36,0.124 -15.508,0.183c-0.572,0.005 -5.25,-0.07 -10.395,-0.166c-5.146,-0.097 -9.57,-0.163 -9.832,-0.148c-1.048,0.058 -1.595,0.062 -5.848,0.043c-3.403,-0.016 -11.489,0.026 -12.736,0.066c-0.095,0.002 -2.278,-0.051 -4.851,-0.12c-2.572,-0.068 -5.145,-0.119 -5.717,-0.112c-0.572,0.006 -2.365,0.003 -3.985,-0.007c-1.62,-0.009 -3.374,-0.007 -3.898,0.006c-0.525,0.013 -1.461,0.013 -2.079,0.001c-0.62,-0.013 -3.154,-0.039 -5.632,-0.058c-2.477,-0.019 -5.432,-0.044 -6.566,-0.055c-1.136,-0.011 -2.213,-0.101 -2.397,-0.201c-0.231,-0.125 -0.581,-0.122 -1.146,0.011c-0.531,0.124 -3.253,0.181 -7.827,0.161c-3.857,-0.015 -8.417,-0.026 -10.132,-0.022c-1.716,0.002 -6.121,-0.04 -9.79,-0.094c-3.668,-0.053 -6.943,-0.097 -7.276,-0.097c-0.333,-0 -3.14,0.002 -6.238,0.005c-4.817,0.003 -19.086,-0.181 -26.854,-0.346c-1.287,-0.028 -3.275,0.009 -4.419,0.081c-1.345,0.085 -3.052,0.052 -4.836,-0.092c-2.133,-0.172 -3.193,-0.179 -4.679,-0.029c-3.178,0.323 -3.745,0.329 -5.797,0.056c-1.465,-0.193 -2.461,-0.225 -3.897,-0.119c-1.061,0.079 -7.971,0.077 -15.356,-0.003c-15.351,-0.168 -13.939,-0.165 -16.244,-0.028c-1.135,0.068 -1.779,0.177 -1.782,0.302c-0.004,0.109 -0.087,0.059 -0.184,-0.11c-0.147,-0.257 -0.335,-0.291 -1.163,-0.21c-0.542,0.052 -2.636,0.111 -4.651,0.131c-2.016,0.019 -3.756,0.091 -3.868,0.159c-0.11,0.068 -1.113,0.151 -2.227,0.185c-1.113,0.034 -2.727,0.097 -3.585,0.141c-0.858,0.043 -2.261,0.07 -3.119,0.061c-1.443,-0.018 -1.595,0.014 -2.035,0.424l-0.476,0.441l0.081,2.813c0.167,5.836 0.165,7.513 -0.01,8.269c-0.309,1.337 -0.37,8.859 -0.088,10.726c0.155,1.022 0.205,2.09 0.133,2.859c-0.064,0.676 -0.115,1.969 -0.113,2.874c0,0.906 -0.015,2.349 -0.035,3.206c-0.034,1.479 -0.03,1.94 0.035,3.985c0.016,0.476 -0.036,1.334 -0.113,1.905c-0.159,1.164 -0.176,1.79 -0.167,6.237c0.003,1.715 -0.02,4.289 -0.053,5.719c-0.032,1.432 0.01,3.147 0.095,3.813c0.199,1.571 0.182,6.531 -0.025,7.535c-0.493,2.388 1.806,3.031 8.772,2.45c2.305,-0.192 2.226,-0.192 6.324,-0.045c3.032,0.109 8.048,0.188 8.923,0.141c0.239,-0.013 1.057,-0.012 1.819,0.002c0.763,0.015 2.283,-0.012 3.379,-0.06c1.096,-0.048 5.19,-0.11 9.097,-0.14c3.908,-0.029 7.299,-0.056 7.537,-0.061c0.24,-0.005 3.203,-0.063 6.586,-0.13c10.921,-0.215 17.513,-0.251 30.149,-0.164c6.813,0.047 12.583,0.077 12.821,0.068c0.238,-0.01 1.486,-0.043 2.773,-0.074c1.286,-0.031 3.197,-0.107 4.246,-0.168c1.048,-0.061 4.051,-0.129 6.671,-0.15c17.959,-0.147 21.119,-0.164 21.659,-0.119c0.334,0.028 0.996,0.045 1.473,0.036c0.476,-0.009 2.932,-0.003 5.458,0.013c2.525,0.016 5.682,0.021 7.017,0.011c3.266,-0.025 2.94,-0.028 7.537,0.096c4.437,0.12 18.851,0.207 25.209,0.152c5.447,-0.047 21.109,-0.02 30.148,0.053c4.097,0.033 15.364,0.06 25.036,0.062c20.501,0.003 21.625,0.004 24.95,0.039c1.382,0.014 3.643,-0.008 5.025,-0.05c1.382,-0.042 2.63,-0.074 2.773,-0.072c0.142,0.001 4.548,0.074 9.789,0.16c5.24,0.087 9.918,0.161 10.395,0.166c0.476,0.005 10.223,-0 21.658,-0.011c11.436,-0.011 21.532,-0.004 22.438,0.018c3.652,0.082 6.045,0.085 15.421,0.02c5.384,-0.036 20.171,-0.048 32.859,-0.026c17.472,0.03 23.163,-0.01 23.458,-0.166c0.214,-0.113 0.67,-0.165 1.015,-0.115c0.344,0.049 1.317,0.042 2.163,-0.016c1.044,-0.073 1.692,-0.039 2.028,0.103c0.271,0.115 0.711,0.183 0.976,0.149c0.266,-0.034 0.579,-0.065 0.696,-0.072c0.65,-0.033 1.308,-8.395 0.775,-9.837c-0.099,-0.264 -0.054,-0.542 0.142,-0.879c0.271,-0.466 0.266,-0.535 -0.086,-1.272c-0.454,-0.953 -0.454,-0.952 -0.008,-1.774c0.272,-0.502 0.335,-0.832 0.252,-1.336c-0.061,-0.367 -0.023,-0.926 0.082,-1.242c0.141,-0.416 0.142,-0.808 0.004,-1.432c-0.263,-1.196 -0.247,-3.5 0.029,-4.306c0.147,-0.433 0.194,-1.05 0.13,-1.732c-0.233,-2.496 -0.028,-12.032 0.417,-19.336c0.038,-0.619 -0.029,-1.828 -0.147,-2.686c-0.119,-0.858 -0.181,-1.912 -0.137,-2.34c0.275,-2.684 0.389,-9.28 0.187,-10.801c-0.289,-2.189 -0.934,-2.741 -3.332,-2.852c-2.102,-0.097 -3.034,-0.177 -3.962,-0.339c-0.468,-0.082 -0.82,-0.058 -0.971,0.067c-0.131,0.106 -1.087,0.24 -2.125,0.295c-2.142,0.114 -2.103,0.114 -3.275,-0.021c-0.8,-0.093 -4.665,-0.167 -8.836,-0.172c-0.952,-0.002 -3.096,-0.048 -4.764,-0.105c-1.667,-0.056 -4.786,-0.096 -6.93,-0.087c-5.038,0.019 -13.683,-0.031 -15.68,-0.092c-0.858,-0.025 -2.768,-0.05 -4.244,-0.056c-1.478,-0.004 -4.83,-0.034 -7.451,-0.065c-2.621,-0.032 -6.09,-0.043 -7.71,-0.027c-5.724,0.061 -11.12,0.061 -17.154,0.002c-2.191,-0.022 -4.218,-0.039 -4.504,-0.039c-0.286,0.001 -3.171,-0.023 -6.411,-0.053c-3.239,-0.031 -8.463,-0.052 -11.608,-0.047c-3.145,0.003 -5.913,-0.029 -6.151,-0.075c-0.238,-0.045 -0.901,-0.061 -1.473,-0.035m5.098,2.68c0.428,0.001 1.755,0.004 2.945,0.007c1.192,0.003 5.324,0.061 9.183,0.128c3.859,0.068 7.679,0.119 8.489,0.115c2.861,-0.014 10.192,0.054 14.727,0.139c2.525,0.046 4.852,0.03 5.172,-0.037c0.318,-0.067 0.798,-0.045 1.067,0.05c0.308,0.11 1.397,0.124 2.972,0.038c1.368,-0.074 3.655,-0.079 5.084,-0.012c1.429,0.066 3.339,0.068 4.244,0.003c1.094,-0.078 2.315,-0.033 3.632,0.133c1.092,0.137 2.129,0.205 2.305,0.151c0.651,-0.204 13.479,-0.366 15.202,-0.193c0.238,0.024 0.9,-0.017 1.473,-0.091c0.697,-0.09 1.318,-0.063 1.882,0.084c0.574,0.148 0.945,0.163 1.164,0.047c0.202,-0.106 0.678,-0.112 1.281,-0.014c0.527,0.085 1.952,0.139 3.166,0.119c1.215,-0.02 4.587,-0.072 7.494,-0.117c2.907,-0.044 5.441,-0.084 5.632,-0.087c0.19,-0.004 2.317,0.012 4.726,0.034c2.408,0.022 4.562,-0.004 4.787,-0.059c0.601,-0.148 2.171,0.585 2.365,1.103c0.145,0.387 0.096,5.071 -0.197,18.931c-0.312,14.8 -0.358,15.353 -1.219,14.887c-0.66,-0.357 -2.932,0.099 -2.934,0.588c-0.002,0.4 -1.156,0.962 -1.73,0.844c-0.401,-0.082 -0.805,0.064 -1.9,0.688c-0.764,0.437 -1.436,0.793 -1.492,0.793c-0.056,-0.001 -0.313,0.144 -0.573,0.32c-0.922,0.631 -2.264,0.784 -3.214,0.368c-0.46,-0.202 -0.934,-0.366 -1.055,-0.367c-0.119,-0.001 -1.052,-0.824 -2.07,-1.831c-2.541,-2.508 -2.837,-2.512 -5.56,-0.093c-0.763,0.679 -1.76,1.502 -2.214,1.829c-0.455,0.326 -0.827,0.655 -0.827,0.73c-0.003,0.467 -0.906,0.719 -1.286,0.358c-0.47,-0.446 -0.634,-0.452 -1.162,-0.044c-0.227,0.176 -0.609,0.38 -0.848,0.453c-0.239,0.073 -0.864,0.418 -1.39,0.767c-1.59,1.054 -3.528,1.466 -3.915,0.831c-0.057,-0.092 -0.387,-0.351 -0.736,-0.575c-0.348,-0.224 -1.269,-1 -2.046,-1.726c-2.184,-2.038 -2.949,-2.128 -4.672,-0.551c-1.723,1.578 -2.953,2.151 -3.443,1.603c-0.172,-0.191 -0.42,-0.348 -0.552,-0.349c-0.132,-0 -0.578,-0.353 -0.993,-0.784c-0.982,-1.021 -1.72,-0.984 -4.492,0.224c-0.395,0.172 -1.186,0.505 -1.759,0.742c-0.922,0.38 -1.038,0.481 -1.011,0.885c0.022,0.329 -0.195,0.698 -0.771,1.318c-0.886,0.952 -1.15,1.009 -0.604,0.131c0.49,-0.788 0.209,-1.289 -1.728,-3.086c-1.687,-1.564 -1.845,-1.623 -2.376,-0.886c-0.452,0.628 -0.589,0.638 -1.237,0.087c-1.909,-1.624 -3.823,-1.638 -4.824,-0.037c-0.262,0.419 -0.509,0.609 -0.79,0.608c-0.224,-0.002 -0.46,0.079 -0.522,0.18c-0.108,0.173 -0.693,-0.117 -1.237,-0.61c-0.111,-0.103 -0.526,-0.422 -0.92,-0.71c-0.455,-0.332 -0.869,-0.851 -1.135,-1.418c-0.885,-1.893 -1.866,-2.166 -3.963,-1.105c-0.823,0.417 -1.616,0.696 -1.95,0.689c-0.56,-0.014 -1.564,0.717 -2.852,2.075c-0.581,0.61 -0.809,0.612 -0.938,0.007c-0.811,-3.802 -3.958,-5.291 -5.718,-2.707c-0.342,0.503 -0.755,0.714 -0.621,0.317c0.428,-1.26 -1.837,-1.522 -3.047,-0.352c-0.186,0.179 -0.315,0.177 -0.692,-0.02c-1.735,-0.899 -3.116,-0.49 -4.133,1.227c-0.476,0.802 -1.228,1.239 -2.125,1.234c-0.277,-0.001 -0.729,0.115 -1.003,0.258c-0.805,0.422 -1.751,0.172 -2.592,-0.684c-2.069,-2.105 -2.549,-2.332 -3.745,-1.773c-0.586,0.275 -0.793,0.396 -1.989,1.159c-0.433,0.276 -0.978,0.468 -1.325,0.466c-0.775,-0.004 -1.704,0.396 -1.985,0.854c-0.335,0.545 -1.51,0.317 -3.402,-0.658c-1.699,-0.877 -4.271,-1.646 -5.905,-1.767c-1.186,-0.088 -3.087,0.354 -2.97,0.69c0.072,0.205 0.21,0.209 0.997,0.025c0.338,-0.078 0.697,0.066 1.505,0.609c0.584,0.392 1.229,0.713 1.435,0.714c0.764,0.004 2.029,0.745 2.127,1.246c0.074,0.382 0.346,0.599 1.432,1.149c1.005,0.507 1.365,0.783 1.442,1.103c0.078,0.332 0.195,0.415 0.524,0.373c0.232,-0.03 0.728,-0.067 1.101,-0.081c0.723,-0.029 0.962,-0.309 0.619,-0.727c-0.244,-0.298 -0.105,-0.327 0.364,-0.072c0.73,0.395 -0.218,1.772 -1.101,1.599c-0.38,-0.075 -0.522,0.022 -0.904,0.619c-0.426,0.668 -0.835,0.855 -1.56,0.714c-0.087,-0.018 -0.671,-0.067 -1.298,-0.112c-1.536,-0.11 -2.752,-0.569 -3.051,-1.153c-0.129,-0.253 -0.511,-0.625 -0.849,-0.828c-0.339,-0.201 -0.664,-0.505 -0.722,-0.674c-0.06,-0.169 -0.205,-0.424 -0.324,-0.568c-0.119,-0.143 -0.542,-0.887 -0.942,-1.651c-0.399,-0.764 -0.798,-1.482 -0.886,-1.595c-0.274,-0.354 -3.476,-2.107 -4.092,-2.241c-0.323,-0.072 -1.257,-0.443 -2.075,-0.827c-1.895,-0.889 -2.682,-0.931 -4.004,-0.211c-2.931,1.596 -3.372,1.897 -4.295,2.937c-1.348,1.52 -1.802,1.706 -4.081,1.672c-2.069,-0.032 -1.953,0.024 -3.276,-1.584c-0.825,-1.003 -1.757,-1.641 -2.412,-1.653c-0.252,-0.004 -0.68,-0.125 -0.952,-0.269c-0.753,-0.398 -1.878,-0.337 -2.719,0.147c-0.723,0.415 -2.878,1.298 -4.198,1.72c-0.883,0.284 -3.291,0.307 -3.782,0.037c-0.206,-0.113 -0.868,-0.191 -1.471,-0.174c-0.866,0.027 -1.29,-0.059 -2.017,-0.408c-1.365,-0.654 -2.099,-0.394 -3.778,1.339c-1.301,1.344 -1.766,1.571 -1.956,0.961c-0.059,-0.19 -0.26,-0.429 -0.445,-0.529c-0.185,-0.101 -0.578,-0.615 -0.873,-1.145c-1.109,-1.989 -2.63,-2.145 -4.138,-0.421c-1.273,1.454 -1.405,1.501 -2.373,0.853c-1.363,-0.913 -2.112,-0.698 -3.775,1.084c-1.248,1.339 -2.084,1.199 -4.359,-0.732c-0.49,-0.415 -1.01,-0.756 -1.156,-0.757c-0.145,-0 -0.313,-0.079 -0.371,-0.174c-0.207,-0.339 -1.258,-0.192 -1.789,0.251c-0.982,0.817 -0.903,0.917 -3.76,-4.828c-1.161,-2.334 -1.787,-2.566 -3.431,-1.27c-0.383,0.303 -1.283,0.883 -2,1.292c-0.716,0.409 -1.671,1.02 -2.119,1.357c-3.735,2.807 -3.437,2.669 -3.935,1.816c-0.621,-1.065 -1.696,-0.947 -3.469,0.382c-0.348,0.261 -0.974,0.733 -1.39,1.048c-0.711,0.538 -0.796,0.561 -1.408,0.374c-0.861,-0.263 -1.927,-0.257 -2.542,0.012c-0.732,0.322 -2.88,1.75 -3.262,2.17c-0.401,0.439 -0.67,0.448 -2.011,0.067c-1.256,-0.356 -1.933,-0.207 -3.326,0.734c-0.572,0.386 -1.256,0.678 -1.793,0.763c-0.476,0.076 -1.421,0.408 -2.098,0.738c-0.999,0.487 -1.327,0.572 -1.735,0.452c-0.904,-0.267 -2.734,-1.224 -3.527,-1.846c-0.743,-0.583 -0.822,-0.604 -1.845,-0.515c-0.663,0.058 -1.319,0.009 -1.731,-0.13c-0.365,-0.123 -0.82,-0.243 -1.011,-0.269c-0.19,-0.026 -0.841,-0.179 -1.447,-0.341c-0.606,-0.163 -1.25,-0.256 -1.432,-0.21c-0.182,0.046 -0.643,-0.04 -1.025,-0.193c-1.213,-0.482 -2.572,0.624 -3.987,3.247c-0.594,1.1 -0.834,1.346 -1.32,1.35c-0.186,0.001 -0.786,0.05 -1.332,0.11c-0.948,0.101 -1.052,0.071 -2.174,-0.614c-1.504,-0.92 -2.18,-0.957 -2.936,-0.166c-1.052,1.102 -1.94,1.708 -2.32,1.586c-0.428,-0.138 -2.237,0.161 -3.799,0.629c-0.758,0.228 -1.39,0.307 -1.927,0.241c-0.439,-0.053 -0.87,-0.026 -0.957,0.059c-0.093,0.092 -0.537,0.096 -1.062,0.011c-0.496,-0.081 -1.677,-0.114 -2.624,-0.073c-1.566,0.067 -1.766,0.04 -2.19,-0.298c-0.258,-0.204 -0.568,-0.372 -0.691,-0.373c-0.122,-0 -0.454,-0.197 -0.736,-0.436c-0.687,-0.585 -0.708,-0.579 -1.878,0.526c-0.561,0.53 -1.464,1.383 -2.008,1.896c-0.542,0.512 -1.064,0.931 -1.157,0.931c-0.094,-0.001 -0.493,0.266 -0.887,0.591c-0.394,0.325 -0.855,0.635 -1.022,0.688c-0.169,0.052 -0.606,0.491 -0.971,0.976l-0.665,0.88l-0.806,-0.134c-0.442,-0.074 -2.42,-0.154 -4.394,-0.178c-1.974,-0.024 -3.643,-0.099 -3.71,-0.166c-0.215,-0.218 -1.121,-0.136 -1.746,0.157c-0.513,0.24 -0.735,0.253 -1.412,0.081c-1.154,-0.291 -6.838,-0.378 -7.165,-0.109c-0.187,0.154 -1.401,0.194 -4.571,0.154c-2.375,-0.031 -4.486,0.002 -4.693,0.073c-0.3,0.101 -0.516,-0.014 -1.058,-0.568c-0.375,-0.382 -0.906,-0.742 -1.18,-0.8c-0.274,-0.058 -0.757,-0.176 -1.073,-0.261c-0.583,-0.159 -1.303,0.024 -4.307,1.099c-0.598,0.215 -1.164,0.322 -1.286,0.245c-0.12,-0.075 -0.391,-0.072 -0.601,0.007c-0.75,0.281 -1.801,-0.014 -2.3,-0.645c-0.253,-0.322 -0.558,-0.585 -0.676,-0.586c-0.12,-0.001 -0.517,-0.275 -0.884,-0.609c-1.07,-0.977 -1.698,-1.166 -3.467,-1.041c-1.036,0.072 -1.829,0.033 -2.461,-0.124c-0.513,-0.127 -1.088,-0.249 -1.278,-0.272c-1.465,-0.169 -2.228,-0.419 -2.57,-0.838c-0.92,-1.127 -1.992,-1.256 -4.216,-0.507l-1.076,0.362l-0.625,-0.578c-1.239,-1.147 -2.367,-1.625 -3.226,-1.369c-0.413,0.123 -1.022,0.25 -1.356,0.281c-0.334,0.032 -0.897,0.179 -1.253,0.325c-0.446,0.185 -1.206,0.264 -2.467,0.258c-1.002,-0.005 -2.159,0.079 -2.573,0.188c-0.93,0.243 -1.567,0.093 -1.8,-0.424c-0.098,-0.219 -0.402,-0.512 -0.676,-0.653c-0.273,-0.14 -0.78,-0.473 -1.125,-0.738c-2.862,-2.207 -5.446,-2.362 -7.252,-0.436c-0.85,0.908 -2.258,1.164 -2.254,0.411c0.001,-0.256 -1.131,-1.421 -1.535,-1.579c-0.503,-0.197 -1.194,0.215 -2.599,1.544c-0.684,0.649 -1.033,0.862 -1.304,0.801c-0.203,-0.045 -1.032,-0.172 -1.842,-0.281c-0.859,-0.117 -1.963,-0.412 -2.656,-0.711c-0.653,-0.281 -1.279,-0.512 -1.394,-0.513c-0.114,-0.001 -0.471,-0.197 -0.793,-0.436c-0.748,-0.558 -1.602,-0.571 -2.416,-0.039c-0.728,0.476 -3.369,2.155 -4.04,2.568c-0.319,0.197 -1.034,0.318 -2.255,0.383c-2.42,0.128 -3.951,1.354 -6.442,5.159c-0.977,1.495 -0.924,1.455 -1.733,1.31c-0.667,-0.12 -1.199,-0.721 -1.671,-1.884c-0.123,-0.303 -0.38,-0.695 -0.571,-0.869c-0.191,-0.175 -0.624,-0.748 -0.96,-1.273c-0.732,-1.141 -1.191,-1.558 -1.728,-1.565c-0.219,-0.004 -0.636,-0.131 -0.926,-0.283c-0.429,-0.223 -0.714,-0.246 -1.502,-0.113c-0.535,0.088 -1.061,0.127 -1.17,0.085c-0.108,-0.042 -0.647,0.12 -1.198,0.36c-0.552,0.24 -1.159,0.437 -1.349,0.436c-0.198,-0.001 -0.691,0.379 -1.152,0.889c-0.443,0.49 -0.96,1.014 -1.147,1.164c-0.187,0.149 -0.584,0.524 -0.882,0.832c-0.299,0.308 -0.716,0.56 -0.928,0.559c-0.217,-0.001 -0.745,0.332 -1.207,0.76c-0.771,0.713 -0.891,0.763 -1.9,0.8l-1.078,0.038l-1.133,-1.099c-2.384,-2.313 -2.38,-2.297 -2.195,-8.248c0.046,-1.524 0.092,-3.005 0.1,-3.291c0.018,-0.637 0.107,-13.656 0.097,-14.382c-0.003,-0.285 0.005,-0.909 0.018,-1.385c0.013,-0.476 0.009,-1.062 -0.009,-1.3c-0.041,-0.511 -0.03,-10.207 0.012,-11.089c0.016,-0.334 0.037,-0.742 0.046,-0.909c0.027,-0.5 0.021,-2.122 -0.022,-5.44c-0.034,-2.685 -0.001,-3.19 0.238,-3.464c0.153,-0.175 0.325,-0.45 0.381,-0.608c0.089,-0.246 0.404,-0.288 2.151,-0.289c1.126,-0.002 4.348,-0.047 7.159,-0.102c4.878,-0.094 21.994,0.003 40.629,0.232c4.835,0.059 8.791,0.039 8.952,-0.046c0.186,-0.099 0.515,-0.055 0.933,0.121c0.435,0.185 0.909,0.242 1.445,0.176c1.081,-0.133 7.299,-0.136 20.377,-0.011c2.287,0.022 6.029,0.041 8.316,0.044c3.356,0.002 11.785,0.062 13.775,0.097c1.179,0.021 7.277,0.072 7.883,0.066c0.381,-0.004 1.551,0.004 2.599,0.018c1.048,0.015 2.218,0.014 2.599,0.002c2.875,-0.1 5.616,-0.098 5.978,0.002c0.238,0.066 1.407,0.067 2.599,0.002c2.607,-0.141 4.973,-0.147 10.482,-0.021c2.287,0.052 5.444,0.085 7.017,0.073c1.572,-0.012 3.483,-0.003 4.245,0.02c2.479,0.074 2.936,0.06 3.553,-0.11c0.37,-0.102 2.429,-0.121 5.284,-0.046c2.573,0.067 7.914,0.127 11.869,0.134c8.486,0.014 8.568,0.015 13.254,0.135c2.001,0.051 4.648,0.029 5.881,-0.049c1.233,-0.078 3.69,-0.131 5.459,-0.117c12.232,0.092 16.954,0.075 19.775,-0.073c3.237,-0.168 8.438,-0.212 16.622,-0.139c2.429,0.021 6.289,0.04 8.576,0.043c2.287,0.001 4.509,0.009 4.938,0.015c0.429,0.008 1.832,0.022 3.119,0.034c1.286,0.011 2.611,0.023 2.945,0.028c0.334,0.003 2.127,0.012 3.985,0.017c1.859,0.005 3.69,0.028 4.072,0.05c0.912,0.051 0.717,0.051 9.702,-0.01c13.151,-0.091 21.107,-0.213 21.833,-0.335c0.382,-0.065 1.98,-0.085 3.553,-0.045c1.572,0.04 3.209,0.072 3.638,0.073m-81.098,33.059c0.127,0.311 0.401,1.033 0.608,1.606c0.207,0.572 0.455,1.237 0.553,1.475c0.28,0.692 1.243,3.901 1.242,4.14c-0.001,0.191 0.131,0.531 0.852,2.195c0.083,0.192 0.243,0.66 0.357,1.041c0.112,0.383 0.268,0.891 0.344,1.129c0.077,0.239 0.219,0.863 0.316,1.388c0.098,0.524 0.224,1.168 0.281,1.43c0.16,0.736 -0.243,0.577 -0.445,-0.175c-0.096,-0.357 -0.321,-0.892 -0.5,-1.187c-0.18,-0.294 -0.378,-0.803 -0.44,-1.128c-0.064,-0.326 -0.22,-0.944 -0.349,-1.373c-0.128,-0.43 -0.4,-1.367 -0.606,-2.083c-0.205,-0.716 -0.473,-1.535 -0.594,-1.822c-0.123,-0.286 -0.261,-0.716 -0.307,-0.955c-0.177,-0.904 -0.65,-2.537 -0.888,-3.063c-0.136,-0.301 -0.247,-0.7 -0.246,-0.887c0.001,-0.187 -0.14,-0.528 -0.313,-0.755c-0.415,-0.548 -0.556,-0.965 -0.433,-1.282c0.155,-0.397 0.313,-0.312 0.568,0.306m-2.934,0.279c-0.001,0.254 -0.714,1.432 -1.161,1.916c-0.401,0.434 -0.993,1.448 -1.913,3.275c-0.264,0.523 -0.71,1.184 -0.993,1.468c-0.283,0.285 -0.627,0.776 -0.765,1.091c-0.136,0.315 -0.343,0.543 -0.458,0.504c-0.386,-0.129 -0.327,-0.928 0.109,-1.447c0.23,-0.274 0.615,-0.888 0.856,-1.366c0.54,-1.073 1.368,-2.304 2.541,-3.779c0.216,-0.272 0.393,-0.633 0.394,-0.805c0.001,-0.17 0.209,-0.47 0.46,-0.667c0.482,-0.375 0.932,-0.467 0.93,-0.19m1.557,0.65c-0.002,0.309 -0.221,0.664 -0.666,1.08c-0.835,0.778 -1.81,2.217 -1.744,2.57c0.08,0.422 0.421,0.437 0.798,0.037c0.429,-0.456 0.578,-0.248 0.386,0.535c-0.228,0.926 -0.646,1.781 -1.049,2.142c-0.203,0.181 -0.803,0.975 -1.334,1.766c-0.771,1.146 -1.052,1.436 -1.389,1.435c-0.768,-0.004 -0.54,-0.763 0.617,-2.05c1.427,-1.59 1.729,-2.505 0.723,-2.191c-0.439,0.137 -0.223,-0.702 0.42,-1.626c0.237,-0.341 0.518,-0.815 0.625,-1.052c1.034,-2.296 2.619,-3.902 2.613,-2.646m63.116,1.018c-0.063,0.158 -0.532,1.05 -1.045,1.982c-0.513,0.933 -0.933,1.853 -0.934,2.046c-0.002,0.42 0.384,0.464 0.705,0.081c0.207,-0.247 0.244,-0.236 0.366,0.1c0.152,0.417 0.635,0.421 0.833,0.008c0.7,-1.469 1.049,-1.728 1.045,-0.777c-0.005,0.864 0.55,0.798 0.703,-0.083c0.181,-1.042 1.015,-2.315 1.452,-2.215c0.213,0.048 0.128,0.344 -0.436,1.525c-1.181,2.475 -0.597,3.963 0.626,1.597c0.311,-0.601 0.72,-1.261 0.911,-1.468c0.189,-0.206 0.438,-0.555 0.553,-0.775c0.17,-0.326 0.256,-0.361 0.46,-0.189c0.22,0.184 0.218,0.256 -0.017,0.574c-0.148,0.2 -0.363,0.558 -0.477,0.796c-0.115,0.237 -0.439,0.757 -0.72,1.155c-0.513,0.728 -0.534,1.264 -0.052,1.266c0.29,0.002 0.865,-0.742 1.067,-1.38c0.318,-1.008 1.48,-2.02 1.476,-1.286c-0.001,0.331 -0.632,1.574 -0.872,1.72c-0.491,0.3 -0.185,1.11 0.553,1.465c0.912,0.439 1.272,0.671 1.989,1.276c0.31,0.263 0.777,0.523 1.036,0.579c0.843,0.182 2.273,0.973 2.499,1.38c0.408,0.737 2.784,1.077 3.981,0.568c1.231,-0.522 1.039,-0.192 -1.167,2.008c-1.459,1.457 -1.656,1.721 -1.5,2.018c0.224,0.421 0.23,0.588 0.018,0.455c-0.089,-0.055 -1.083,-0.013 -2.21,0.095c-1.126,0.107 -2.282,0.178 -2.567,0.159c-0.286,-0.02 -1.159,0.048 -1.94,0.15c-1.674,0.221 -2.125,0.072 -1.204,-0.395c0.46,-0.232 0.635,-0.434 0.637,-0.73c0.001,-0.225 0.12,-0.632 0.263,-0.904c0.804,-1.523 0.047,-2.794 -1.159,-1.944c-1.104,0.778 -3.084,0.536 -2.39,-0.292c0.308,-0.367 -0.059,-0.832 -1.181,-1.497c-2.177,-1.289 -2.467,-1.428 -3.086,-1.487c-0.355,-0.034 -1.222,-0.11 -1.924,-0.169c-0.704,-0.058 -1.45,-0.15 -1.659,-0.205c-0.297,-0.076 -0.722,0.2 -1.933,1.256c-2.092,1.824 -3.886,3.147 -4.263,3.145c-0.17,-0.001 -0.353,0.065 -0.403,0.147c-0.202,0.323 -3.358,2.059 -3.839,2.112c-0.33,0.035 -0.585,0.203 -0.719,0.47c-0.255,0.507 -2.899,0.692 -3.478,0.244c-0.4,-0.309 -0.046,-0.584 0.753,-0.584c0.296,0 0.726,-0.144 0.953,-0.32c0.229,-0.175 0.689,-0.458 1.023,-0.627c1.496,-0.755 5.398,-5.014 5.402,-5.897c0.002,-0.363 0.334,-0.916 0.551,-0.915c0.103,0.001 0.145,0.157 0.095,0.347c-0.326,1.22 0.515,0.304 0.904,-0.985c0.299,-0.993 0.308,-1.002 1.072,-1.109c0.424,-0.059 0.959,-0.167 1.189,-0.238c0.457,-0.142 0.456,-0.059 -0.004,1.066c-0.519,1.271 1.091,1.712 1.708,0.467c0.417,-0.842 0.619,-1.224 0.979,-1.856c0.163,-0.285 0.497,-0.922 0.742,-1.415c0.388,-0.782 1.747,-2.508 1.602,-2.036c-0.051,0.163 -1.703,3.403 -2.199,4.312c-0.476,0.869 0.2,1.29 0.787,0.493c0.284,-0.386 0.391,-0.431 0.601,-0.254c0.387,0.323 0.78,0.079 1.01,-0.627c0.114,-0.348 0.302,-0.75 0.419,-0.892c0.117,-0.143 0.591,-0.958 1.052,-1.814c0.462,-0.855 0.916,-1.652 1.011,-1.77c0.246,-0.313 0.482,-0.264 0.352,0.073m-1.453,0.181c-0.006,0.071 -0.163,0.363 -0.347,0.648c-0.185,0.285 -0.617,1.08 -0.961,1.768c-0.346,0.688 -0.7,1.295 -0.789,1.349c-0.341,0.208 -0.137,-0.765 0.278,-1.323c0.239,-0.323 0.575,-0.859 0.746,-1.192c0.583,-1.127 0.753,-1.381 0.92,-1.381c0.092,0.001 0.161,0.059 0.153,0.131m47.592,0.362c0.11,0.29 -0.63,1.601 -1.309,2.321c-0.259,0.274 -0.814,0.954 -1.233,1.512c-0.42,0.557 -1.167,1.478 -1.661,2.047c-0.493,0.57 -1.313,1.634 -1.82,2.367c-0.507,0.732 -1.275,1.617 -1.706,1.966c-0.432,0.35 -1.016,1.008 -1.3,1.464c-0.517,0.83 -1.084,1.195 -1.387,0.888c-0.298,-0.301 0.174,-1.067 1.437,-2.337c0.682,-0.685 1.54,-1.679 1.904,-2.206c0.366,-0.529 1.181,-1.49 1.812,-2.137c0.632,-0.647 1.149,-1.252 1.149,-1.344c0.001,-0.094 0.202,-0.413 0.449,-0.712c0.934,-1.133 1.573,-1.869 2.039,-2.346c0.264,-0.273 0.6,-0.775 0.744,-1.115c0.268,-0.632 0.713,-0.818 0.882,-0.368m81.409,0.332c0.135,0.221 -0.47,0.526 -1.04,0.523c-0.921,-0.005 -0.345,-0.475 0.82,-0.668c0.065,-0.01 0.165,0.055 0.22,0.145m-195.192,-0.34c-0.216,0.356 -0.488,0.765 -0.605,0.906c-0.118,0.143 -0.452,0.765 -0.744,1.383c-0.291,0.618 -0.771,1.351 -1.067,1.63l-0.537,0.506l0.003,-0.582c0.002,-0.32 0.134,-0.725 0.295,-0.901c0.224,-0.245 0.245,-0.368 0.089,-0.525c-0.281,-0.284 -0.249,-0.852 0.073,-1.308c0.311,-0.439 1.048,-0.542 0.875,-0.12c-0.058,0.142 -0.154,0.375 -0.213,0.518c-0.275,0.672 0.428,0.155 0.976,-0.715c0.606,-0.965 0.99,-1.441 1.159,-1.44c0.049,-0 -0.088,0.292 -0.304,0.648m68.681,0.005c-0.061,0.166 -0.244,0.497 -0.409,0.734c-0.164,0.238 -0.504,0.834 -0.755,1.327c-0.45,0.881 -0.746,1.213 -0.924,1.035c-0.049,-0.05 0.245,-0.7 0.655,-1.444c1.02,-1.855 1.089,-1.957 1.332,-1.956c0.128,0.001 0.169,0.12 0.101,0.304m40.836,0.358c-0.001,0.153 -0.256,0.67 -0.568,1.146l-0.568,0.868l-0.099,-0.748c-0.086,-0.657 -0.043,-0.798 0.353,-1.143c0.531,-0.463 0.884,-0.513 0.882,-0.123m66.877,1.052c-0.549,1.154 -1.332,2.248 -2.261,3.162c-2.412,2.374 -3.34,3.581 -2.877,3.738c0.186,0.064 2.812,-2.673 3.915,-4.08c0.84,-1.072 2.434,-2.838 2.625,-2.907c0.577,-0.209 -0.965,1.96 -2.559,3.597c-1.424,1.462 -3.039,3.644 -3.041,4.104c-0.004,0.724 0.547,0.369 1.222,-0.787c0.35,-0.598 1.42,-1.917 2.378,-2.932c0.958,-1.016 1.836,-2.021 1.952,-2.234c0.421,-0.781 0.985,-0.987 1.562,-0.571c0.279,0.2 0.587,0.364 0.685,0.365c0.097,0 0.326,0.192 0.506,0.425c0.243,0.311 0.532,0.439 1.09,0.481c2.117,0.164 -0.566,3.969 -3.744,5.312c-1.366,0.577 -1.332,0.407 0.253,-1.285c1.883,-2.01 1.241,-1.9 -0.76,0.131c-1.845,1.872 -2.497,2.306 -4.179,2.786c-1.475,0.421 -2.569,0.934 -2.487,1.169c0.103,0.296 0.674,0.188 2.176,-0.412c0.73,-0.293 1.574,-0.525 1.875,-0.516c0.345,0.01 0.585,-0.083 0.652,-0.252c0.081,-0.209 0.255,-0.242 0.779,-0.151c0.775,0.135 2.004,-0.37 2.172,-0.894c0.055,-0.168 0.764,-0.802 1.576,-1.409c0.813,-0.607 1.959,-1.663 2.549,-2.348c1.034,-1.203 2.283,-1.817 2.744,-1.351c0.228,0.23 -4.776,4.533 -6.597,5.673c-0.43,0.27 -1.186,0.747 -1.68,1.06c-0.495,0.314 -1.083,0.57 -1.31,0.569c-0.503,-0.003 -2.166,0.56 -2.432,0.823c-0.416,0.412 0.436,0.43 1.489,0.031c0.585,-0.222 1.453,-0.41 1.93,-0.419c1.224,-0.024 1.178,-0 1.642,-0.84c0.249,-0.45 0.702,-0.928 1.106,-1.164c0.639,-0.376 1.425,-1.006 3.269,-2.624c0.422,-0.37 1.276,-1.098 1.899,-1.619c0.622,-0.521 1.205,-1.013 1.296,-1.093c0.103,-0.091 0.088,-0.225 -0.042,-0.355c-0.344,-0.348 -0.268,-0.413 1.488,-1.268c1.3,-0.634 1.898,-0.828 2.568,-0.839c0.653,-0.01 0.971,-0.111 1.258,-0.395c0.561,-0.555 1.119,-0.512 0.969,0.075c-0.213,0.829 0.779,1.02 2.074,0.399c1.055,-0.506 1.324,-0.362 1.318,0.706c-0.007,1.412 -0.789,2.091 -2.406,2.089c-1.224,-0.001 -2.153,0.496 -4.11,2.201c-0.477,0.416 -1.22,0.994 -1.653,1.286c-0.432,0.29 -1.684,1.366 -2.783,2.391c-1.099,1.025 -2.059,1.863 -2.133,1.862c-0.075,-0 -0.797,0.434 -1.603,0.965c-1.367,0.899 -1.53,0.962 -2.385,0.921c-0.506,-0.026 -3.473,-0.066 -6.596,-0.09c-5.288,-0.041 -6.824,-0.19 -5.051,-0.491c0.764,-0.129 0.714,-0.57 -0.144,-1.28c-0.419,-0.347 -0.85,-0.63 -0.959,-0.63c-0.485,-0.003 -1.613,-1.339 -2.272,-2.694c-0.817,-1.679 -1.382,-2.116 -2.537,-1.967l-0.699,0.09l0.273,-0.471c0.272,-0.469 0.207,-1.049 -0.119,-1.05c-0.095,-0.001 -0.267,0.174 -0.382,0.387c-0.545,1.009 -2.672,3.081 -3.06,2.981c-0.308,-0.079 -0.767,0.229 -2.231,1.496c-1.013,0.877 -2.069,1.749 -2.345,1.939c-0.634,0.434 -0.73,0.662 -0.445,1.055c0.213,0.296 0.265,0.281 0.861,-0.238c0.569,-0.495 0.971,-0.69 0.969,-0.472c-0.002,0.383 -0.491,0.983 -0.857,1.053c-0.246,0.047 -0.643,0.143 -0.881,0.216c-0.609,0.183 -2.079,0.029 -2.078,-0.219c0,-0.111 0.562,-0.743 1.248,-1.405c0.687,-0.662 1.53,-1.504 1.873,-1.872c0.343,-0.368 0.879,-0.904 1.19,-1.192c0.653,-0.601 0.709,-0.811 0.218,-0.814c-0.484,-0.002 -0.042,-0.641 1.974,-2.855c1.315,-1.443 1.525,-1.758 1.484,-2.216c-0.066,-0.725 0.358,-0.782 1.039,-0.138l0.534,0.504l-1.739,1.793c-1.702,1.757 -2.124,2.418 -1.769,2.777c0.395,0.398 1.95,-0.919 1.954,-1.655c0,-0.108 0.466,-0.65 1.033,-1.206l1.032,-1.012l1.394,1.271c1.315,1.201 1.411,1.256 1.71,0.987c0.178,-0.158 0.616,-0.284 0.997,-0.286c0.374,-0.001 0.875,-0.113 1.113,-0.248c0.6,-0.339 0.659,-0.32 0.562,0.176c-0.05,0.256 -0.004,0.433 0.112,0.434c0.108,0 0.285,0.197 0.393,0.435c0.306,0.683 0.833,0.554 1.53,-0.377c0.678,-0.907 2.739,-2.4 2.978,-2.159c0.194,0.195 -0.485,1.109 -1.404,1.887c-0.681,0.577 -0.903,1.129 -0.544,1.353c0.281,0.176 0.871,-0.241 0.873,-0.616c0.001,-0.22 0.836,-1.17 2.231,-2.538c1.454,-1.428 2.368,-2.475 2.632,-3.014c0.222,-0.455 0.597,-0.959 0.833,-1.123c0.236,-0.162 0.639,-0.462 0.894,-0.668c0.629,-0.502 0.668,-0.39 0.203,0.586m-170.687,-0.838c0.344,0.812 0.527,1.416 1.215,4.007c0.165,0.62 0.43,1.479 0.591,1.909c0.271,0.729 0.558,1.665 1.217,3.991c0.458,1.615 0.48,1.789 0.214,1.702c-0.133,-0.042 -0.408,-0.58 -0.611,-1.194c-0.203,-0.615 -0.48,-1.352 -0.616,-1.639c-0.545,-1.155 -1.027,-2.469 -1.146,-3.125c-0.07,-0.381 -0.214,-0.913 -0.32,-1.182c-0.107,-0.269 -0.196,-0.815 -0.197,-1.214c-0.001,-0.447 -0.197,-1.123 -0.511,-1.763c-0.484,-0.988 -0.687,-2.347 -0.35,-2.345c0.084,0 0.315,0.384 0.514,0.853m100.158,0.344c0.312,0.2 -0.095,1.164 -0.876,2.078c-1.012,1.182 -1.138,-0.184 -0.142,-1.543c0.543,-0.742 0.625,-0.786 1.018,-0.535m19.409,0.327c-0.011,0.352 -2.519,3.489 -2.838,3.549c-0.439,0.082 -0.352,-0.293 0.187,-0.808c0.543,-0.517 1.563,-1.775 2.016,-2.485c0.317,-0.496 0.647,-0.629 0.635,-0.256m-21.647,0.865c-0.197,0.384 -0.361,0.812 -0.361,0.952c-0.002,0.386 -0.537,0.853 -0.742,0.646c-0.254,-0.257 0.4,-1.902 0.917,-2.305c0.564,-0.438 0.637,-0.164 0.186,0.707m11.434,-0.607c0.156,0.296 0.104,0.453 -0.303,0.929c-0.269,0.315 -1.157,1.489 -1.973,2.611c-0.815,1.122 -1.875,2.511 -2.354,3.089c-0.479,0.578 -1.186,1.51 -1.569,2.07c-1.314,1.924 -3.201,3.746 -3.814,3.683c-0.828,-0.086 -0.771,-0.553 0.191,-1.596c0.801,-0.867 1.404,-1.554 2.736,-3.119c0.323,-0.38 0.719,-0.924 0.88,-1.209c0.529,-0.932 1.154,-1.712 2.075,-2.589c0.5,-0.473 1.162,-1.21 1.474,-1.638c1.889,-2.583 2.292,-2.921 2.657,-2.231m-66.4,-0.137c0.029,0.148 -0.267,0.632 -0.655,1.076c-0.388,0.444 -0.706,0.88 -0.707,0.97c-0.002,0.402 0.621,0.099 1.252,-0.61c0.934,-1.051 1.986,-1.052 1.152,-0.002c-0.203,0.256 -0.585,0.867 -0.847,1.359c-1.404,2.629 -1.787,3.297 -2.199,3.832c-0.557,0.722 -0.513,1.233 0.097,1.154c0.552,-0.071 0.691,-0.225 1.434,-1.581c1.099,-2.011 1.331,-2.495 1.522,-3.197c0.332,-1.215 1.075,-1.922 1.728,-1.647c0.778,0.327 0.7,0.808 -0.401,2.478c-0.517,0.782 -1.033,1.71 -1.147,2.06c-0.218,0.669 -1.297,1.76 -2.076,2.097c-0.253,0.11 -0.655,0.33 -0.894,0.49c-1.26,0.845 -5.243,1.275 -7.659,0.826c-0.635,-0.119 -2.214,-0.237 -3.507,-0.265c-2.587,-0.053 -2.617,-0.07 -1.74,-1.032c0.335,-0.367 0.61,-0.771 0.611,-0.898c0.003,-0.768 -0.774,-0.345 -1.688,0.919c-0.838,1.159 -1.336,1.538 -2.061,1.57c-1.312,0.058 -4.034,1.423 -3.843,1.927c0.169,0.448 0.646,0.338 1.823,-0.423c1.009,-0.652 1.162,-0.699 1.916,-0.595c1.132,0.156 2.375,-0.097 2.755,-0.561c0.378,-0.464 2.266,-0.611 3.013,-0.235c0.25,0.125 1.534,0.36 2.856,0.523c3.183,0.39 3.015,0.358 3.666,0.7c0.314,0.165 0.704,0.26 0.865,0.212c1.11,-0.333 2.243,-0.855 2.625,-1.208c0.247,-0.23 0.762,-0.577 1.144,-0.771c0.382,-0.196 1.204,-0.843 1.827,-1.44c1.05,-1.006 1.448,-1.539 2.624,-3.519c0.844,-1.422 1.67,-2.034 2.173,-1.613c0.141,0.118 0.439,0.162 0.688,0.1c0.563,-0.138 0.739,0.257 0.356,0.798c-0.153,0.215 -0.279,0.651 -0.28,0.968c-0.005,0.943 -1.504,3.051 -2.965,4.169c-0.671,0.513 -1.22,0.992 -1.22,1.064c-0.002,0.3 -2.111,1.399 -3.475,1.809c-0.811,0.243 -1.778,0.546 -2.148,0.673c-0.471,0.16 -0.769,0.177 -0.997,0.054c-0.596,-0.323 -4.327,-0.182 -5.481,0.207c-0.458,0.154 -0.74,0.131 -1.472,-0.121c-0.645,-0.222 -1.03,-0.266 -1.333,-0.156c-0.247,0.092 -0.703,0.093 -1.087,0.005c-0.517,-0.119 -0.801,-0.081 -1.307,0.171c-0.417,0.208 -1.161,0.35 -2.08,0.396c-1.177,0.06 -1.505,0.142 -1.846,0.458c-0.392,0.364 -0.471,0.374 -1.452,0.176c-0.762,-0.154 -1.269,-0.161 -1.91,-0.027c-0.48,0.1 -1.385,0.132 -2.013,0.069c-1.188,-0.117 -1.329,-0.251 -0.964,-0.926c0.419,-0.772 -0.306,-1.173 -0.792,-0.438c-0.443,0.668 -0.689,0.521 -1.09,-0.656c-0.203,-0.596 -0.474,-1.319 -0.6,-1.606c-0.128,-0.286 -0.325,-0.872 -0.441,-1.301c-0.115,-0.429 -0.271,-0.938 -0.347,-1.128c-0.075,-0.191 -0.255,-0.737 -0.401,-1.215c-0.145,-0.477 -0.38,-1.249 -0.522,-1.713c-0.142,-0.466 -0.214,-0.918 -0.159,-1.006c0.162,-0.26 0.552,0.181 0.769,0.871c0.109,0.35 0.335,0.91 0.5,1.245c0.419,0.849 0.989,2.262 1.122,2.778c0.184,0.717 0.577,1.215 0.96,1.217c0.278,0.001 0.331,-0.068 0.234,-0.301c-0.07,-0.168 -0.203,-0.617 -0.294,-0.999c-0.091,-0.381 -0.226,-0.816 -0.3,-0.966c-0.712,-1.456 -2.075,-5.362 -1.944,-5.571c0.197,-0.315 0.558,-0.112 0.757,0.422c0.115,0.31 0.43,1.111 0.701,1.78c0.271,0.668 0.585,1.605 0.699,2.083c0.219,0.917 0.568,1.475 0.923,1.477c0.385,0.002 0.439,-0.545 0.109,-1.102c-0.179,-0.3 -0.455,-1.014 -0.615,-1.586c-0.159,-0.573 -0.438,-1.376 -0.619,-1.784c-0.413,-0.931 -0.414,-1.254 -0.007,-1.252c0.478,0.003 0.846,0.514 1.068,1.481c0.366,1.603 0.955,2.475 1.383,2.05c0.107,-0.106 -0.028,-0.588 -0.373,-1.337c-0.454,-0.982 -0.51,-1.239 -0.348,-1.59c0.218,-0.471 0.549,-0.561 0.547,-0.15c-0.003,0.515 0.517,1.293 0.864,1.295c0.407,0.002 0.441,-0.412 0.088,-1.039c-0.499,-0.883 -0.137,-1.65 0.444,-0.944c0.339,0.414 0.713,0.238 1.111,-0.519c0.482,-0.917 0.789,-0.931 1.476,-0.066l0.574,0.722l-0.293,1.59c-0.16,0.876 -0.293,1.797 -0.294,2.05c-0.005,0.849 -0.379,2.176 -0.643,2.275c-0.573,0.218 -0.974,-0.233 -0.855,-0.958c0.123,-0.738 -0.133,-0.943 -0.31,-0.25c-0.126,0.489 -0.783,1.16 -1.002,1.023c-0.251,-0.158 -0.158,-0.609 0.188,-0.908c0.4,-0.344 0.968,-2.445 0.727,-2.688c-0.103,-0.104 -0.232,0.012 -0.35,0.319c-0.103,0.266 -0.377,0.707 -0.608,0.979c-0.242,0.285 -0.473,0.843 -0.545,1.315c-0.069,0.452 -0.304,1.172 -0.524,1.6c-0.219,0.428 -0.455,1.128 -0.522,1.556c-0.144,0.914 0.049,0.788 0.525,-0.343c0.465,-1.104 0.927,-1.585 1.319,-1.373c0.17,0.092 0.591,0.169 0.935,0.171c0.554,0.003 0.677,0.092 1.09,0.78c0.452,0.754 1.083,1.135 0.806,0.487c-0.278,-0.65 -0.284,-1.447 -0.013,-1.743c0.256,-0.28 0.709,-2.244 0.646,-2.802c-0.015,-0.144 -0.038,-0.627 -0.049,-1.076c-0.029,-1.128 0.566,-1.674 0.67,-0.617c0.021,0.219 0.049,0.455 0.06,0.527c0.062,0.367 0.95,0.051 1.8,-0.641c1.424,-1.161 1.771,-1.045 0.736,0.244c-0.335,0.417 -0.61,0.82 -0.61,0.897c-0.001,0.263 0.325,0.341 0.51,0.122c0.543,-0.642 1.791,-2.547 2.031,-3.099c0.283,-0.65 0.679,-0.948 0.861,-0.649c0.137,0.222 0.009,0.605 -0.904,2.731c-0.423,0.985 -0.77,1.86 -0.77,1.946c-0.002,0.394 0.498,0.101 0.69,-0.403c0.236,-0.621 1.725,-3.567 1.949,-3.854c0.18,-0.232 1.75,-0.051 1.835,0.212c0.035,0.106 -0.252,0.572 -0.637,1.036c-1.872,2.249 -2.789,3.863 -2.196,3.866c0.142,0.001 0.26,-0.125 0.261,-0.281c0.001,-0.156 0.178,-0.456 0.394,-0.668c0.215,-0.212 0.655,-0.711 0.976,-1.109c0.553,-0.681 0.604,-0.706 0.9,-0.435c0.296,0.271 0.331,0.253 0.613,-0.29c0.165,-0.317 0.479,-0.788 0.695,-1.045c0.218,-0.258 0.431,-0.569 0.476,-0.691c0.194,-0.535 0.313,0.078 0.124,0.64c-0.402,1.2 0.287,1.485 0.78,0.321c0.289,-0.681 0.606,-0.616 0.603,0.123c-0.004,0.632 0.273,0.812 0.685,0.442c0.417,-0.374 0.598,-0.09 0.444,0.703c-0.114,0.595 0.378,1.15 0.555,0.628c0.038,-0.113 0.141,-0.204 0.229,-0.204c0.251,0.002 0.182,0.379 -0.133,0.723c-0.237,0.26 -0.253,0.395 -0.09,0.758c0.534,1.191 -1.038,2.39 -1.785,1.359c-0.115,-0.16 -0.581,-0.312 -1.142,-0.373c-0.522,-0.057 -1.08,-0.173 -1.24,-0.258c-0.545,-0.288 -0.709,-0.185 -0.6,0.376c0.095,0.492 0.074,0.521 -0.284,0.395c-0.678,-0.24 -1.6,-0.183 -1.601,0.099c-0.004,0.733 7.114,0.992 7.904,0.288c0.362,-0.323 0.371,-0.322 0.626,0.064c0.694,1.051 0.947,0.147 0.414,-1.476c-0.554,-1.684 -0.604,-2.495 -0.201,-3.275c0.506,-0.977 0.902,-1.278 0.899,-0.679c-0.004,0.706 0.563,0.59 0.94,-0.191c0.657,-1.364 2.029,-2.574 2.155,-1.901m-39.999,0.251c0.097,0.368 0.403,0.984 0.68,1.369c1.034,1.444 1.142,1.775 2.149,6.556c0.242,1.145 0.562,2.375 0.713,2.735c0.151,0.359 0.223,0.704 0.161,0.765c-0.177,0.175 -0.805,-0.485 -0.803,-0.847c0.001,-0.178 -0.121,-0.615 -0.271,-0.97c-0.15,-0.355 -0.458,-1.387 -0.687,-2.293c-0.228,-0.906 -0.57,-1.973 -0.759,-2.37c-0.381,-0.798 -0.512,-1.2 -1.095,-3.358c-0.218,-0.811 -0.451,-1.65 -0.518,-1.866c-0.072,-0.238 -0.046,-0.39 0.068,-0.389c0.103,0.001 0.266,0.302 0.362,0.668m53.895,-0.223c-0.003,0.664 -1.568,3.463 -1.935,3.461c-0.507,-0.002 0.228,-2.127 0.897,-2.598c0.272,-0.192 0.545,-0.503 0.605,-0.691c0.113,-0.347 0.435,-0.476 0.433,-0.172m30.84,0.138c-0.001,0.188 -0.964,1.509 -1.209,1.659c-0.249,0.152 -0.239,0.734 0.016,0.893c0.118,0.074 0.285,-0.001 0.391,-0.177c1.268,-2.084 1.708,-2.549 2.067,-2.187c0.139,0.141 -0.006,0.391 -0.542,0.932c-0.734,0.741 -0.976,1.504 -0.478,1.506c0.142,0.001 0.445,-0.29 0.674,-0.646c0.569,-0.885 1.049,-1.282 1.391,-1.148c0.312,0.121 0.371,0.346 0.128,0.494c-0.184,0.113 -0.892,1.42 -0.894,1.649c-0.002,0.437 1.748,0.127 2.04,-0.362c0.356,-0.596 0.981,-0.643 1.537,-0.115c0.484,0.459 1.315,0.246 1.914,-0.492c0.528,-0.648 0.934,-0.31 0.619,0.513c-0.114,0.297 -0.165,0.611 -0.112,0.698c0.247,0.404 -1.997,1.689 -2.944,1.684c-0.274,-0.001 -0.892,0.451 -1.872,1.37l-1.462,1.372l-0.258,-0.554c-0.327,-0.698 -1.776,-1.17 -4.024,-1.31c-1.563,-0.096 -1.941,-0.339 -1.166,-0.75c0.381,-0.201 0.47,-0.518 0.146,-0.519c-0.111,-0.001 -0.326,0.106 -0.477,0.238c-0.958,0.829 -1.311,0.413 -0.407,-0.481c0.58,-0.574 0.623,-0.678 0.423,-1.002c-0.236,-0.382 0.956,-1.871 1.496,-1.869c0.389,0.002 0.244,0.325 -0.415,0.922c-0.595,0.539 -0.734,1.152 -0.264,1.154c0.287,0.002 1.15,-0.998 1.592,-1.844c0.627,-1.202 2.094,-2.344 2.09,-1.628m29.132,1.263c-0.386,0.496 -0.944,1.129 -1.237,1.407c-0.359,0.339 -0.535,0.673 -0.537,1.014c-0.003,0.659 -0.86,1.806 -2.628,3.518c-0.765,0.74 -1.627,1.72 -1.916,2.178c-0.356,0.564 -0.732,0.916 -1.171,1.093c-1.174,0.478 -2.023,1.782 -1.162,1.787c0.649,0.003 1.741,-1.109 6.244,-6.356c1.186,-1.381 1.739,-1.7 1.955,-1.128c0.063,0.167 -0.1,0.484 -0.421,0.82c-0.725,0.762 -2.486,3.077 -2.487,3.271c-0.002,0.378 -0.8,1.222 -1.376,1.456c-1.164,0.472 -1.831,1.45 -1.167,1.708c0.573,0.224 2.64,-1.716 3.401,-3.19c0.189,-0.365 0.454,-0.706 0.589,-0.757c0.135,-0.05 0.3,-0.305 0.367,-0.565c0.066,-0.26 0.512,-0.867 0.99,-1.351c0.622,-0.629 0.845,-0.977 0.785,-1.226c-0.055,-0.224 0.13,-0.625 0.516,-1.125c0.331,-0.427 0.791,-1.049 1.022,-1.38c0.796,-1.144 1.434,-1.787 1.641,-1.657c0.35,0.219 0.223,0.652 -0.46,1.56c-1.194,1.587 -1.824,2.682 -1.714,2.975c0.071,0.185 -0.177,0.605 -0.724,1.233c-0.457,0.523 -1.355,1.608 -1.997,2.41c-0.641,0.803 -1.688,2.001 -2.326,2.664l-1.16,1.206l-1.758,-0.036c-1.62,-0.032 -3.924,0.154 -4.92,0.399c-1.007,0.248 -0.853,-0.256 0.597,-1.95c0.511,-0.598 0.931,-1.151 0.931,-1.229c0.001,-0.165 3.606,-4.04 3.832,-4.119c0.085,-0.03 0.247,0.264 0.361,0.651c0.114,0.389 0.258,0.705 0.321,0.706c0.294,0.001 1.086,-1.035 0.989,-1.294c-0.153,-0.405 0.66,-1.883 1.297,-2.357c0.299,-0.224 0.766,-0.626 1.036,-0.894c0.271,-0.269 0.587,-0.579 0.703,-0.69c0.115,-0.11 0.644,-0.624 1.177,-1.143c1.164,-1.131 1.41,-0.895 0.407,0.391m-129.452,-1.404c-0.103,0.191 -0.254,0.346 -0.337,0.345c-0.083,0 -0.313,0.251 -0.513,0.56c-0.478,0.741 -0.716,1.107 -1.259,1.941c-0.249,0.381 -0.665,1.121 -0.924,1.644c-0.746,1.505 -1.212,2.313 -1.701,2.95c-0.249,0.325 -0.503,0.727 -0.562,0.893c-0.06,0.166 -0.229,0.303 -0.378,0.302c-0.147,-0.001 -0.633,0.327 -1.079,0.73c-0.468,0.423 -0.76,0.598 -0.692,0.416c0.066,-0.174 0.12,-0.382 0.12,-0.463c0,-0.08 0.188,-0.365 0.416,-0.633c0.227,-0.268 0.826,-1.265 1.329,-2.216c0.501,-0.95 1.014,-1.844 1.139,-1.986c0.124,-0.143 0.458,-0.765 0.743,-1.383c0.477,-1.038 1.938,-2.589 2.437,-2.587c0.084,0.001 0.417,-0.192 0.741,-0.428c0.712,-0.521 0.76,-0.528 0.52,-0.085m53.706,0.058c-0.004,0.072 -0.278,0.441 -0.608,0.821c-0.711,0.816 -0.82,0.505 -0.124,-0.358c0.454,-0.563 0.748,-0.748 0.732,-0.463m60.595,0.467c0.07,0.185 -0.034,0.403 -0.288,0.605c-0.732,0.588 -1.138,0.259 -0.694,-0.562c0.222,-0.408 0.833,-0.435 0.982,-0.043m14.035,0.207c-0.147,0.145 -0.293,0.33 -0.326,0.412c-0.033,0.082 -0.562,0.526 -1.177,0.986c-0.796,0.596 -1.364,1.219 -1.973,2.166c-0.843,1.31 -1.371,1.704 -1.799,1.345c-0.269,-0.226 -3.705,3.373 -5.048,5.286c-1.608,2.291 -1.905,2.541 -2.844,2.397c-1.842,-0.282 -1.678,-1.2 0.66,-3.722c1.104,-1.19 2.602,-2.945 3.222,-3.772c0.381,-0.51 0.82,-1.055 0.977,-1.212c0.318,-0.319 0.618,-0.727 1.503,-2.047c0.669,-0.995 0.981,-1.118 1.262,-0.494c0.199,0.444 -0.312,1.248 -2.694,4.237c-0.56,0.703 -1.378,1.768 -1.818,2.367c-0.44,0.599 -1.323,1.636 -1.961,2.307c-1.178,1.235 -1.303,1.448 -0.981,1.649c0.301,0.188 0.97,-0.371 1.675,-1.399c0.738,-1.081 2.973,-3.746 3.215,-3.837c0.084,-0.03 0.154,-0.135 0.155,-0.232c0.001,-0.163 0.926,-1.43 2.152,-2.946c0.288,-0.356 0.649,-0.647 0.803,-0.646c0.154,0.001 0.799,-0.386 1.435,-0.86c0.636,-0.473 1.227,-0.859 1.315,-0.859c0.089,0.001 0.485,-0.231 0.881,-0.515c0.396,-0.284 0.789,-0.516 0.873,-0.516c0.085,0.001 0.253,-0.117 0.375,-0.262c0.121,-0.145 0.258,-0.225 0.302,-0.18c0.046,0.046 -0.037,0.203 -0.184,0.347m-38.673,0.319c0.229,0.152 0.56,0.277 0.734,0.278c0.457,0.003 0.733,0.345 0.73,0.904c-0.002,0.365 -0.086,0.485 -0.338,0.484c-0.387,-0.002 -0.616,-0.289 -0.614,-0.77c0.001,-0.253 -0.304,-0.46 -1.252,-0.85c-0.689,-0.283 -1.252,-0.581 -1.252,-0.66c0.001,-0.189 1.455,0.259 1.992,0.614m-38.304,0.555c-0.805,1.386 -1.014,1.475 -0.436,0.187c0.372,-0.83 0.506,-1.01 0.752,-1.009c0.089,0.001 -0.054,0.371 -0.316,0.822m65.763,-0.323c-0.001,0.184 -0.726,0.728 -0.83,0.623c-0.037,-0.038 0.02,-0.231 0.128,-0.429c0.195,-0.361 0.703,-0.502 0.702,-0.194m-105.264,-0.018c0.495,0.97 0.343,1.382 -0.259,0.701c-0.514,-0.581 -0.621,-0.88 -0.399,-1.1c0.221,-0.218 0.397,-0.111 0.658,0.399m174.065,0.769c-1.688,2.002 -2.743,3.159 -3.998,4.389c-1.381,1.35 -1.711,2.009 -0.847,1.682c0.402,-0.152 5.519,-6.012 5.52,-6.323c0.002,-0.262 -0.352,-0.13 -0.675,0.252m-165.694,-0.67c0.252,0.272 0.335,0.522 0.263,0.794c-0.058,0.219 0.023,0.881 0.181,1.47c0.485,1.804 0.809,2.944 1.067,3.76c1.074,3.403 1.275,4.512 0.821,4.51c-0.4,-0.002 -0.787,-0.717 -0.783,-1.445c0.002,-0.408 -0.131,-0.844 -0.341,-1.113c-0.189,-0.243 -0.343,-0.562 -0.342,-0.709c0.001,-0.146 -0.194,-0.842 -0.433,-1.543c-0.301,-0.888 -0.399,-1.455 -0.321,-1.86c0.065,-0.333 0.026,-0.745 -0.091,-0.966c-1.193,-2.259 -1.208,-4.174 -0.021,-2.898m29.895,-0.111c0.134,0.231 -0.215,0.909 -0.467,0.908c-0.428,-0.003 -0.708,-0.483 -0.456,-0.782c0.227,-0.273 0.793,-0.349 0.923,-0.126m90.319,1.252c1.083,0.567 1.101,0.992 0.086,2.07c-0.585,0.62 -0.714,0.603 -1.844,-0.252c-1.064,-0.804 -1.058,-0.794 -0.699,-1.176c0.141,-0.151 0.51,-0.574 0.82,-0.94c0.55,-0.652 0.568,-0.658 0.839,-0.32c0.152,0.19 0.512,0.468 0.798,0.618m-145.715,-1.245c0.107,0.281 -0.247,1.067 -1.483,3.297c-0.474,0.856 -1.159,2.1 -1.522,2.765c-0.363,0.665 -0.844,1.428 -1.067,1.696c-0.224,0.27 -0.408,0.56 -0.408,0.646c-0.001,0.086 -0.499,0.799 -1.109,1.584c-0.609,0.784 -1.201,1.601 -1.315,1.815c-0.225,0.423 -0.641,0.516 -0.761,0.169c-0.11,-0.318 0.137,-0.874 0.831,-1.873c0.339,-0.488 0.617,-0.972 0.618,-1.075c0,-0.103 0.187,-0.386 0.415,-0.628c0.227,-0.242 0.821,-1.207 1.317,-2.143c1.023,-1.924 1.319,-2.414 1.88,-3.098c0.217,-0.264 0.599,-0.885 0.851,-1.381c0.841,-1.655 1.533,-2.356 1.753,-1.774m120.454,0.611c-0.031,0.133 -0.567,0.807 -1.19,1.496c-1.576,1.746 -4.297,4.805 -5.191,5.837c-0.474,0.546 -0.84,0.826 -1,0.764c-0.446,-0.174 -0.275,-0.5 0.902,-1.717c0.634,-0.655 1.383,-1.499 1.663,-1.875c0.282,-0.377 1.174,-1.362 1.984,-2.19c0.809,-0.828 1.472,-1.553 1.473,-1.61c0.001,-0.185 0.95,-0.938 1.187,-0.942c0.126,-0.002 0.204,0.104 0.172,0.237m-32.879,0.132c0.169,0.318 0.119,0.445 -0.35,0.908c-0.625,0.616 -0.988,0.405 -0.679,-0.395c0.357,-0.925 0.717,-1.104 1.029,-0.513m-86.123,-0.367c-0.002,0.451 -2.168,4.566 -2.913,5.537c-0.226,0.293 -0.41,0.612 -0.411,0.707c-0,0.096 -0.328,0.671 -0.728,1.279c-0.4,0.609 -1.128,1.845 -1.617,2.748c-0.819,1.509 -0.936,1.646 -1.454,1.693c-0.425,0.038 -0.562,-0.017 -0.561,-0.229c0.001,-0.291 1.263,-2.23 1.575,-2.421c0.098,-0.06 0.422,-0.589 0.719,-1.176c0.297,-0.588 0.84,-1.456 1.206,-1.931c0.367,-0.475 0.835,-1.252 1.042,-1.727c0.206,-0.475 0.516,-1.02 0.69,-1.21c0.173,-0.189 0.571,-0.811 0.882,-1.381c1.161,-2.118 1.574,-2.615 1.57,-1.889m3.918,-0.003c0.106,0.283 -0.199,0.799 -1.333,2.259c-1.37,1.764 -2.294,3.349 -2.237,3.841c0.03,0.269 -0.045,0.481 -0.189,0.53c-0.651,0.215 0.184,-1.78 2.148,-5.132c0.969,-1.656 1.399,-2.056 1.611,-1.498m1.846,0.72c0.257,0.527 0.465,1.058 0.464,1.178c-0,0.122 0.156,0.53 0.347,0.909c0.191,0.378 0.533,1.274 0.759,1.989c0.522,1.652 1.24,3.656 1.349,3.766c0.396,0.4 1.518,-0.669 1.39,-1.324c-0.084,-0.431 0.004,-0.618 0.53,-1.138c0.346,-0.344 0.784,-0.966 0.971,-1.385c0.32,-0.713 1.077,-1.165 0.811,-0.486c-0.058,0.151 -0.107,0.424 -0.108,0.606c-0.001,0.183 -0.265,0.623 -0.587,0.979c-0.732,0.81 -1.111,1.845 -0.81,2.213c0.327,0.397 0.669,0.301 0.787,-0.22c0.169,-0.749 0.224,-0.851 0.238,-0.443c0.015,0.509 0.358,0.698 0.619,0.344c0.334,-0.451 0.576,-0.335 0.767,0.367c0.256,0.94 0.227,1.074 -0.272,1.261c-0.581,0.217 -0.765,0.087 -0.762,-0.54c0.003,-0.602 -0.462,-0.716 -0.55,-0.135c-0.048,0.308 -0.246,0.414 -1.098,0.59c-1.638,0.335 -1.995,0.304 -1.992,-0.177c0.001,-0.223 -0.14,-0.536 -0.314,-0.695c-0.339,-0.31 -0.98,-1.662 -1.126,-2.377c-0.049,-0.242 -0.325,-0.616 -0.613,-0.831l-0.524,-0.392l-0.002,0.383c-0.003,0.598 1.025,3.315 1.421,3.753c0.261,0.289 0.304,0.444 0.161,0.586c-0.185,0.183 -1.247,-1.821 -1.246,-2.351c-0.001,-0.106 -0.279,-0.741 -0.621,-1.409c-0.679,-1.333 -1.263,-2.912 -1.26,-3.412c0.003,-0.511 0.309,-0.368 0.616,0.288c0.156,0.334 0.346,0.569 0.424,0.521c0.161,-0.099 -0.095,-1.161 -0.447,-1.854c-0.304,-0.596 -0.31,-1.525 -0.009,-1.524c0.123,0.001 0.432,0.433 0.687,0.96m32.559,-0.388c-0.256,0.597 -0.27,0.983 -0.033,0.984c0.254,0.001 0.381,-0.406 0.307,-0.98l-0.064,-0.492l-0.21,0.488m-15.811,0.773c0.898,2.538 1.029,2.982 1.129,3.833c0.099,0.857 0.263,1.452 0.822,2.978c0.315,0.857 0.348,1.877 0.059,1.779c-0.535,-0.18 -1.212,-1.881 -1.749,-4.386c-0.204,-0.957 -0.973,-3.812 -1.134,-4.219c-0.161,-0.404 0.056,-1.072 0.347,-1.071c0.079,0.001 0.315,0.489 0.526,1.086m114.986,-0.018c-0.385,0.718 -1.831,2.242 -1.838,1.937c-0.006,-0.219 0.485,-0.906 1.569,-2.198c0.337,-0.401 0.525,-0.218 0.269,0.261m-41.27,0.547c-0.231,0.37 -0.642,0.048 -0.697,-0.545l-0.056,-0.607l0.428,0.491c0.237,0.271 0.383,0.568 0.325,0.661m2.597,-0.628c-0.16,0.408 -0.551,0.445 -0.97,0.092l-0.396,-0.334l0.731,-0.003c0.562,-0.001 0.708,0.055 0.635,0.245m20.895,0.077c-0.003,0.387 -3.02,4.156 -4.248,5.306c-0.657,0.616 -1.46,1.528 -1.784,2.026c-0.605,0.934 -0.877,1.1 -1.049,0.644c-0.136,-0.36 0.325,-1.012 1.632,-2.308c0.608,-0.604 1.194,-1.261 1.302,-1.46c0.615,-1.135 4.153,-4.724 4.147,-4.208m29.881,0.325c0.174,0.25 0.203,0.412 0.084,0.452c-0.183,0.059 -0.667,-0.452 -0.677,-0.714c-0.01,-0.266 0.331,-0.116 0.593,0.262m10.17,0.056c0.232,0.218 0.826,0.657 1.32,0.978c1.296,0.841 1.073,1.291 -1.212,2.438c-1.334,0.67 -1.374,0.619 -0.408,-0.502c0.862,-0.999 0.957,-1.32 0.443,-1.486c-0.218,-0.07 -0.327,-0.241 -0.301,-0.47c0.119,-1.036 -1.372,0.226 -7.008,5.929c-2.433,2.462 -2.768,2.671 -3.098,1.936c-0.209,-0.467 -0.022,-0.722 2.44,-3.322c0.938,-0.991 1.105,-1.086 0.961,-0.547c-0.295,1.105 0.692,0.402 1.631,-1.161c0.403,-0.673 2.101,-2.296 2.399,-2.295c0.066,0.001 0.588,-0.425 1.16,-0.945c1.202,-1.093 1.124,-1.067 1.673,-0.553m-20.727,-0.144c0.062,0.1 -0.483,0.798 -1.21,1.551c-1.232,1.276 -1.565,1.895 -1.156,2.151c0.093,0.059 0.413,-0.285 0.71,-0.763c0.618,-0.992 1.171,-1.432 2.263,-1.803c0.819,-0.276 1.434,-0.07 0.666,0.224c-0.489,0.188 -1.112,0.831 -1.858,1.921c-0.293,0.427 -0.775,1.004 -1.072,1.282c-0.296,0.279 -0.541,0.668 -0.542,0.865c-0.001,0.224 -0.305,0.58 -0.822,0.959c-0.45,0.332 -0.94,0.819 -1.087,1.083c-0.723,1.298 -2.444,2.698 -2.793,2.273c-0.251,-0.306 0.811,-1.746 3.272,-4.435c0.974,-1.064 0.995,-1.675 0.04,-1.17c-0.185,0.098 -1.043,1.009 -1.908,2.025c-0.864,1.017 -1.834,2.124 -2.155,2.461c-0.321,0.336 -0.637,0.774 -0.702,0.973c-0.107,0.335 -0.558,0.564 -1.117,0.566c-0.353,0.003 -0.198,-0.24 0.85,-1.327c0.531,-0.55 1.112,-1.232 1.294,-1.514c0.181,-0.282 0.684,-0.89 1.119,-1.349c0.434,-0.46 1.029,-1.199 1.324,-1.643c0.342,-0.518 0.727,-0.87 1.069,-0.979c0.695,-0.221 1.068,-0.538 1.411,-1.192c0.71,-1.356 2.121,-2.623 2.404,-2.159m58.563,0.283c-0.057,0.091 -0.054,0.365 0.006,0.611c0.139,0.562 -1.105,1.811 -3.585,3.598c-2.172,1.567 -4.141,3.062 -4.597,3.491c-0.319,0.3 -0.774,0.512 -1.215,0.569c-1.157,0.148 -0.956,0.622 0.239,0.563c1.126,-0.057 1.745,-0.316 2.012,-0.845c0.108,-0.214 0.516,-0.617 0.906,-0.897c0.391,-0.28 0.775,-0.612 0.855,-0.74c0.08,-0.126 0.657,-0.588 1.284,-1.026c0.627,-0.437 1.249,-0.926 1.384,-1.087c0.135,-0.161 0.659,-0.553 1.165,-0.874c0.507,-0.319 0.921,-0.644 0.921,-0.72c0.001,-0.075 0.549,-0.597 1.218,-1.159c0.671,-0.563 1.219,-1.113 1.22,-1.223c0.002,-0.34 -1.618,-0.573 -1.813,-0.261m-171.733,-0.481c0.134,0.215 0.296,0.773 0.359,1.239c0.064,0.466 0.235,1.13 0.382,1.474c0.459,1.083 0.535,1.308 0.62,1.843c0.044,0.286 0.237,0.988 0.427,1.561c0.495,1.488 0.927,3.501 0.796,3.709c-0.239,0.383 -0.576,-0.045 -0.779,-0.988c-0.117,-0.544 -0.275,-1.185 -0.352,-1.423c-0.077,-0.239 -0.188,-0.746 -0.248,-1.127c-0.126,-0.82 -1,-3.524 -1.458,-4.513c-0.71,-1.539 -0.503,-2.993 0.253,-1.775m89.704,0.91c-0.86,1.075 -2.11,2.072 -2.108,1.682c0,-0.036 0.554,-0.627 1.23,-1.313c1.293,-1.31 1.804,-1.525 0.878,-0.369m-99.311,0.125c-0.005,0.646 -0.023,0.67 -0.258,0.355c-0.261,-0.35 -0.338,-1.164 -0.129,-1.371c0.204,-0.203 0.394,0.294 0.387,1.016m-5.489,-0.332c-0.165,0.357 -0.439,0.833 -0.61,1.059c-0.169,0.227 -0.309,0.513 -0.309,0.636c-0.001,0.124 -0.236,0.34 -0.523,0.481c-0.621,0.305 -0.638,0.222 -0.124,-0.605c1.052,-1.691 1.346,-2.047 1.825,-2.206c0.022,-0.007 -0.094,0.278 -0.259,0.635m4.136,0.433c0.195,0.512 0.497,1.518 0.671,2.234c0.175,0.715 0.511,1.804 0.75,2.419c0.492,1.275 0.534,1.716 0.177,1.85c-0.686,0.26 -1.543,-1.614 -1.755,-3.841c-0.054,-0.572 -0.283,-1.412 -0.507,-1.866c-0.386,-0.784 -0.393,-0.855 -0.128,-1.36c0.332,-0.634 0.342,-0.628 0.792,0.564m72.226,-0.265c0.218,0.413 0.03,0.959 -0.329,0.957c-0.237,-0.001 -0.547,-0.735 -0.444,-1.052c0.149,-0.462 0.501,-0.419 0.773,0.095m26.584,-0.144c0.132,0.216 -0.708,0.947 -0.928,0.809c-0.258,-0.162 -0.231,-0.372 0.089,-0.688c0.3,-0.297 0.697,-0.353 0.839,-0.121m35.347,0.77c1.239,0.982 1.123,1.781 -0.309,2.128c-0.283,0.069 -0.591,0.325 -0.744,0.616c-0.293,0.561 -0.776,0.638 -1.463,0.237c-0.237,-0.139 -0.76,-0.427 -1.16,-0.641c-0.986,-0.527 -1.019,-0.746 -0.258,-1.666c1.376,-1.665 2.453,-1.849 3.934,-0.674m16.365,-0.364c-0.772,0.931 -1.428,1.655 -2.59,2.863c-0.718,0.745 -1.514,1.681 -1.77,2.079c-0.256,0.397 -1.236,1.461 -2.179,2.362l-1.715,1.64l-1.429,0.003c-0.953,0.002 -1.429,-0.063 -1.429,-0.193c0.001,-0.234 2.781,-3.541 2.975,-3.54c0.075,0 0.356,-0.178 0.627,-0.398c0.27,-0.219 0.799,-0.583 1.174,-0.806c0.721,-0.432 0.716,-0.392 -0.108,0.811c-0.271,0.397 -0.494,0.844 -0.494,0.994c-0.003,0.436 0.484,0.316 0.806,-0.201c0.163,-0.261 0.704,-0.902 1.202,-1.423c0.498,-0.522 1.281,-1.414 1.741,-1.983c0.46,-0.57 1.069,-1.19 1.354,-1.38c1.623,-1.079 2.296,-1.383 1.835,-0.828m1.581,0.023c-0.002,0.228 -2.423,2.955 -2.802,3.154c-0.624,0.331 -0.542,0.078 0.32,-0.975c1.503,-1.837 2.484,-2.699 2.482,-2.179m-195.35,-0.602c0.145,0.238 -0.409,1.072 -0.623,0.937c-0.23,-0.144 -0.204,-0.665 0.047,-0.913c0.257,-0.255 0.431,-0.262 0.576,-0.024m184.086,0.914c-0.003,0.508 -0.664,0.953 -1.11,0.748c-0.635,-0.293 -0.575,-0.699 0.114,-0.781c0.31,-0.037 0.661,-0.08 0.78,-0.094c0.119,-0.015 0.217,0.043 0.216,0.127m-126.674,0.533c0.116,0.553 0.397,1.436 0.622,1.961c0.225,0.525 0.519,1.384 0.653,1.909c0.135,0.525 0.412,1.384 0.617,1.909c0.544,1.388 0.601,1.736 0.281,1.734c-0.348,-0.002 -0.809,-0.473 -0.807,-0.826c0,-0.153 -0.196,-0.859 -0.437,-1.568c-0.241,-0.709 -0.393,-1.403 -0.34,-1.541c0.054,-0.138 -0.056,-0.556 -0.244,-0.929c-0.188,-0.372 -0.343,-0.856 -0.345,-1.075c-0.002,-0.218 -0.115,-0.592 -0.25,-0.831c-0.26,-0.46 -0.349,-1.989 -0.107,-1.838c0.079,0.049 0.239,0.543 0.357,1.095m175.972,-0.079c0.125,0.207 -1.864,2.082 -2.946,2.778c-0.394,0.252 -1.263,0.972 -1.934,1.601c-0.671,0.629 -1.845,1.562 -2.609,2.075c-2.273,1.522 -2.787,2.154 -1.873,2.293c0.254,0.039 0.749,-0.304 1.639,-1.134c0.7,-0.654 1.408,-1.262 1.573,-1.349c0.488,-0.262 1.856,-1.443 3.195,-2.763c0.689,-0.678 1.413,-1.318 1.61,-1.422c0.197,-0.104 0.719,-0.499 1.161,-0.877c1.125,-0.964 1.303,-0.916 1.296,0.35l-0.005,1.035l-1.873,1.861c-1.029,1.024 -2.4,2.234 -3.045,2.69c-0.646,0.456 -1.174,0.93 -1.175,1.055c-0.004,0.846 1.579,-0.102 3.041,-1.823c0.576,-0.676 2.634,-2.39 2.869,-2.389c0.161,0.001 0.188,0.195 0.101,0.72c-0.155,0.939 -0.059,0.828 -1.86,2.15c-1.006,0.738 -1.548,1.248 -1.515,1.425c0.107,0.568 0.613,0.345 1.872,-0.824c0.712,-0.662 1.336,-1.137 1.387,-1.055c0.153,0.252 0.046,2.451 -0.128,2.624c-0.277,0.275 -9.46,0.488 -9.873,0.229c-0.093,-0.058 -0.825,-0.119 -1.629,-0.136c-1.65,-0.037 -2.455,-0.151 -2.378,-0.34c0.064,-0.153 3.428,-2.992 4.371,-3.69c0.365,-0.27 1.001,-0.812 1.412,-1.206c3.499,-3.343 6.628,-5.003 7.316,-3.878m-231.744,-1.081c-0,0.062 -0.295,0.618 -0.656,1.236c-0.361,0.616 -0.853,1.479 -1.093,1.916c-0.827,1.502 -1.207,1.917 -1.75,1.915c-0.59,-0.004 -1.093,0.618 -1.009,1.241c0.071,0.518 0.892,0.649 1.372,0.218c0.28,-0.25 0.4,-0.264 0.73,-0.086c0.385,0.209 0.697,0.235 2.469,0.2c1.155,-0.022 1.372,-0.174 1.325,-0.931c-0.042,-0.668 0.26,-0.866 0.348,-0.227c0.087,0.638 0.615,0.585 0.943,-0.094c0.159,-0.33 0.661,-0.88 1.116,-1.223c0.454,-0.343 0.929,-0.875 1.053,-1.182c0.125,-0.307 0.531,-0.841 0.902,-1.188l0.676,-0.628l0.68,0.45c1.37,0.908 -0.099,3.941 -2.702,5.572c-0.681,0.428 -1.141,1.205 -0.715,1.207c0.195,0.001 1.451,-0.688 1.553,-0.851c0.058,-0.094 0.379,-0.299 0.713,-0.455c0.333,-0.156 0.685,-0.43 0.782,-0.607c0.098,-0.184 0.362,-0.323 0.606,-0.321c0.238,0.001 0.479,-0.114 0.534,-0.258c0.056,-0.142 0.282,-0.258 0.502,-0.257c0.321,0.002 0.503,-0.206 0.898,-1.029c0.442,-0.922 0.842,-1.358 1.051,-1.147c0.18,0.182 -0.396,1.512 -0.757,1.746c-0.243,0.157 -0.448,0.513 -0.522,0.909c-0.069,0.358 -0.312,0.873 -0.541,1.146c-1.128,1.34 -1.149,2.281 -0.026,1.207c1.117,-1.067 1.74,-2.063 1.69,-2.699c-0.048,-0.62 1.077,-2.37 1.523,-2.368c0.312,0.002 0.307,0.195 -0.015,0.617c-0.14,0.184 -0.259,0.533 -0.264,0.774c-0.004,0.242 -0.165,0.745 -0.357,1.118c-0.429,0.831 -0.439,1.059 -0.05,1.279c0.278,0.158 0.265,0.212 -0.155,0.657c-0.714,0.758 -0.925,1.246 -0.595,1.375c0.241,0.094 0.237,0.133 -0.037,0.339c-0.37,0.277 -2.837,0.318 -3.102,0.051c-0.12,-0.122 -0.278,-0.068 -0.496,0.17c-0.377,0.414 -0.789,0.434 -1.901,0.094c-0.53,-0.163 -0.964,-0.201 -1.217,-0.107c-0.262,0.098 -0.55,0.064 -0.867,-0.103c-0.601,-0.316 -0.869,-0.314 -1.362,0.006c-0.225,0.145 -0.952,0.284 -1.685,0.322c-0.709,0.036 -2.225,0.143 -3.369,0.238c-2.882,0.239 -4.564,0.249 -5.341,0.033c-0.429,-0.119 -0.855,-0.128 -1.213,-0.025c-1.2,0.35 -5.315,-0.042 -5.313,-0.505c0.003,-0.519 1.044,-2.092 1.071,-1.616c0.027,0.484 0.071,1.012 0.114,1.356c0.017,0.132 0.193,0.206 0.419,0.175c0.371,-0.05 0.391,-0.131 0.419,-1.706c0.036,-2.004 0.29,-3.244 0.841,-4.108c0.751,-1.176 0.862,-1.199 1.818,-0.383c0.838,0.713 0.867,0.723 2.333,0.768c0.815,0.025 1.54,0.103 1.608,0.173c0.216,0.218 0.882,0.141 1.108,-0.13c0.273,-0.325 0.526,-0.324 1.15,0.005c1.051,0.556 1.673,0.328 1.96,-0.717c0.109,-0.401 0.269,-0.771 0.355,-0.824c0.191,-0.117 1.579,-2.155 1.58,-2.321c0.001,-0.199 0.404,-0.533 0.643,-0.532c0.124,0.001 0.225,0.052 0.225,0.115m18.019,0.071c-0.001,0.225 -0.895,1.807 -1.277,2.259c-0.231,0.274 -0.562,0.771 -0.734,1.104c-0.172,0.332 -0.662,1.129 -1.088,1.769c-1.305,1.962 -1.991,3.456 -1.717,3.738c0.343,0.353 0.499,0.173 1.052,-1.219c0.276,-0.694 0.711,-1.495 0.969,-1.78c0.256,-0.285 0.807,-1.139 1.224,-1.899c1.313,-2.398 2.789,-4.169 3.161,-3.794c0.162,0.164 -0.51,1.828 -0.875,2.165c-0.199,0.184 -0.657,0.86 -1.015,1.503c-0.36,0.643 -0.797,1.354 -0.971,1.58c-0.192,0.248 -0.32,0.703 -0.322,1.141c-0.003,0.539 -0.143,0.921 -0.53,1.451c-1.096,1.498 -1.577,1.773 -2.677,1.535c-0.388,-0.083 -1.094,-0.195 -1.568,-0.25c-0.475,-0.054 -0.891,-0.126 -0.924,-0.159c-0.121,-0.123 0.508,-0.903 0.89,-1.105c0.216,-0.116 0.585,-0.563 0.817,-0.996c0.233,-0.432 0.603,-0.904 0.823,-1.047c0.221,-0.142 0.402,-0.379 0.403,-0.526c0.001,-0.147 0.18,-0.507 0.4,-0.802c0.22,-0.293 0.547,-0.866 0.728,-1.272c0.185,-0.415 0.522,-0.83 0.77,-0.949c0.244,-0.116 0.486,-0.366 0.538,-0.556c0.101,-0.364 0.595,-1.172 1.029,-1.684c0.232,-0.275 0.895,-0.428 0.894,-0.207m4.196,0.202c-0.085,0.15 -0.338,0.363 -0.562,0.474c-0.289,0.143 -0.469,0.454 -0.617,1.066c-0.228,0.947 -0.878,2.173 -1.776,3.352c-0.318,0.417 -0.581,0.845 -0.585,0.95c-0.015,0.407 -2.021,3.472 -2.308,3.525c-0.463,0.088 -0.379,-0.661 0.154,-1.362c0.586,-0.771 1.295,-2.282 1.298,-2.766c0.001,-0.209 0.355,-0.955 0.788,-1.659c0.432,-0.705 0.786,-1.348 0.787,-1.432c0.002,-0.408 1.428,-1.908 1.811,-1.906c0.225,0.001 0.506,-0.114 0.625,-0.257c0.291,-0.346 0.583,-0.335 0.385,0.015m32.191,0.419c0.103,0.196 0.162,0.644 0.131,0.997l-0.056,0.643l-0.3,-0.445c-0.447,-0.666 -0.584,-1.553 -0.238,-1.551c0.152,0.001 0.36,0.161 0.463,0.356m113.778,0.509c0.032,0.095 -1.048,1.41 -2.399,2.923c-2.623,2.938 -2.961,3.414 -2.65,3.729c0.33,0.334 0.72,0.018 1.144,-0.926c0.263,-0.588 0.761,-1.232 1.399,-1.809c0.545,-0.492 1.423,-1.397 1.952,-2.01c1.135,-1.316 1.353,-1.428 1.812,-0.93c0.481,0.522 0.652,0.289 -2.637,3.598c-2.636,2.653 -3.074,3.024 -3.785,3.205c-1.422,0.363 -2.574,-0.042 -1.839,-0.646c0.144,-0.117 0.262,-0.294 0.262,-0.391c0.001,-0.097 0.535,-0.689 1.188,-1.316c0.653,-0.626 1.644,-1.721 2.204,-2.432c1.909,-2.433 3.166,-3.555 3.349,-2.995m-171.658,-0.54c-0.188,0.491 -1.228,1.793 -1.433,1.796c-0.271,0.006 -0.111,-0.335 0.392,-0.833c0.287,-0.283 0.599,-0.717 0.694,-0.963c0.095,-0.246 0.251,-0.446 0.346,-0.445c0.115,0 0.115,0.151 0.001,0.445m4.683,0.081c-0.003,0.72 -2.561,5.029 -2.983,5.027c-0.35,-0.002 -0.353,-0.525 -0.005,-1.162c0.197,-0.36 0.468,-0.929 0.603,-1.261c0.135,-0.333 0.523,-0.965 0.864,-1.403c0.34,-0.439 0.707,-0.964 0.816,-1.165c0.247,-0.456 0.708,-0.48 0.705,-0.036m28.936,-0.014c-0.001,0.091 -0.159,0.561 -0.352,1.044c-0.194,0.482 -0.353,1.142 -0.355,1.465c-0.003,0.576 -0.675,1.302 -1.202,1.299c-0.553,-0.002 0.415,-2.663 1.334,-3.668c0.309,-0.337 0.576,-0.403 0.575,-0.14m-27.344,0.131c0.308,0.311 -2.366,4.747 -2.859,4.745c-0.445,-0.002 -0.387,-0.282 0.301,-1.471c0.33,-0.57 0.731,-1.269 0.89,-1.554c0.659,-1.18 1.424,-1.967 1.668,-1.72m112.083,0.762c0.199,0.243 0.187,0.272 -0.096,0.216c-0.18,-0.036 -0.358,-0.162 -0.397,-0.282c-0.101,-0.309 0.22,-0.267 0.493,0.066m-111.078,0.608c-0.356,1.05 -1.112,2.003 -1.588,2.001c-0.376,-0.002 0.593,-2.052 1.352,-2.863c0.613,-0.653 0.673,-0.431 0.236,0.862m39.845,0.07c-0.001,0.23 0.215,0.905 0.48,1.5c0.622,1.398 0.957,2.64 0.811,3.013c-0.234,0.601 -0.634,-0.209 -1.128,-2.28c-0.268,-1.124 -0.571,-2.128 -0.671,-2.23c-0.101,-0.102 -0.18,-0.423 -0.175,-0.714l0.008,-0.528l0.339,0.41c0.186,0.226 0.338,0.599 0.336,0.829m136.793,-0.102c-0.346,0.379 -0.535,0.338 -0.372,-0.082c0.057,-0.147 0.236,-0.267 0.397,-0.266c0.266,0.002 0.265,0.033 -0.025,0.348m4.91,0.159c-0.223,0.263 -0.749,0.785 -1.167,1.159c-0.419,0.374 -0.95,1.075 -1.183,1.56c-0.232,0.484 -0.91,1.41 -1.506,2.057c-0.596,0.648 -1.127,1.342 -1.18,1.542c-0.106,0.407 -1.089,0.584 -1.553,0.279c-0.576,-0.378 2.376,-3.933 4.52,-5.443c0.403,-0.284 1.088,-0.768 1.522,-1.075c0.966,-0.683 1.076,-0.7 0.547,-0.079m-188.052,-0.794c-0.072,0.167 -0.23,0.574 -0.352,0.905c-0.283,0.762 -0.954,1.272 -0.951,0.72c0.004,-0.763 0.719,-1.931 1.181,-1.928c0.173,0.001 0.211,0.096 0.122,0.303m17.244,0.13c-0.001,0.093 -0.308,0.813 -0.683,1.598c-0.375,0.786 -0.803,1.712 -0.952,2.057c-0.264,0.617 -1.337,1.568 -1.335,1.182c0.001,-0.268 0.828,-1.647 1.144,-1.906c0.139,-0.114 0.254,-0.496 0.256,-0.849c0.002,-0.46 0.126,-0.756 0.439,-1.046c0.239,-0.223 0.435,-0.535 0.436,-0.693c0,-0.158 0.053,-0.338 0.117,-0.402c0.178,-0.175 0.579,-0.135 0.578,0.059m123.535,0.69c-0.002,0.334 -2.248,2.877 -2.54,2.876c-0.365,-0.002 -0.304,-0.244 0.275,-1.092c0.89,-1.306 2.268,-2.39 2.265,-1.784m-97.385,0.095c0.097,0.358 0.176,0.885 0.175,1.17c-0.001,0.286 0.199,1.132 0.444,1.881c0.511,1.562 0.382,2.042 -0.361,1.337c-0.308,-0.293 -0.455,-0.667 -0.539,-1.377c-0.063,-0.537 -0.252,-1.399 -0.418,-1.914c-0.211,-0.65 -0.256,-1.063 -0.147,-1.344c0.237,-0.612 0.644,-0.493 0.846,0.247m99.117,0.088c-0.001,0.127 -0.334,0.494 -0.741,0.813c-0.727,0.572 -0.654,0.365 0.2,-0.57c0.494,-0.54 0.542,-0.562 0.541,-0.243m-108.462,0.18c0.273,0.841 0.077,0.963 -0.255,0.157c-0.312,-0.758 -0.315,-0.779 -0.106,-0.778c0.088,0.001 0.25,0.28 0.361,0.621m148.31,0.286c-0,0.081 -0.157,0.287 -0.348,0.459c-0.396,0.354 -0.523,-0.017 -0.137,-0.4c0.243,-0.24 0.486,-0.27 0.485,-0.059m-124.528,0.863l0.099,0.693l-0.337,-0.41c-0.217,-0.266 -0.332,-0.664 -0.324,-1.128c0.012,-0.902 0.395,-0.328 0.562,0.845m12.671,-0.978c-0.508,0.767 -1.114,2.415 -0.95,2.581c0.254,0.257 0.592,-0.149 0.947,-1.138c0.181,-0.505 0.436,-1.071 0.565,-1.259c0.301,-0.44 0.296,-0.61 -0.021,-0.611c-0.141,-0.001 -0.385,0.191 -0.541,0.427m32.054,-0.05c-0.304,0.532 -0.987,1.353 -1.062,1.278c-0.102,-0.103 0.244,-0.782 0.607,-1.193c0.304,-0.346 0.64,-0.408 0.455,-0.085m1.204,0.619c-1.055,1.618 -1.985,2.556 -1.982,2c0.001,-0.165 1.619,-2.555 1.824,-2.692c0.375,-0.253 0.48,0.2 0.158,0.692m2.102,-0.647c0.11,0.179 -0.348,0.872 -1.785,2.704c-0.744,0.948 -1.378,1.551 -2.795,2.654c-0.585,0.455 -0.355,0.642 0.37,0.3c0.703,-0.33 3.417,-2.702 3.418,-2.986c0.001,-0.262 0.712,-1.156 0.827,-1.04c0.047,0.049 -0.08,0.368 -0.284,0.71c-0.458,0.766 -0.466,0.948 -0.043,0.95c0.21,0.002 0.396,-0.185 0.512,-0.513c0.259,-0.73 1.107,-1.73 1.465,-1.728c0.433,0.002 0.373,0.293 -0.124,0.616c-0.445,0.287 -1.142,1.526 -1.145,2.03c-0.003,0.577 0.477,0.279 0.771,-0.478c0.387,-1 1.208,-1.717 1.677,-1.463c0.434,0.236 0.426,0.277 -0.191,0.972c-0.33,0.371 -0.524,0.78 -0.526,1.103c-0.003,0.636 0.385,0.685 0.662,0.084c0.11,-0.237 0.279,-0.432 0.377,-0.431c0.258,0.001 0.216,0.189 -0.13,0.569c-0.172,0.189 -0.306,0.61 -0.308,0.961c-0.002,0.528 -0.07,0.64 -0.437,0.714c-0.238,0.049 -0.644,0.23 -0.903,0.403c-0.64,0.43 -1.221,0.247 -1.07,-0.336c0.127,-0.5 -0.132,-0.45 -1.175,0.225c-0.666,0.43 -1.536,0.471 -1.663,0.077c-0.039,-0.119 0.17,-0.352 0.463,-0.517c0.652,-0.368 0.832,-0.733 0.363,-0.735c-0.187,-0.001 -0.644,0.269 -1.014,0.601c-1.035,0.925 -1.651,1.113 -3.232,0.985l-1.359,-0.11l0.421,-0.327c0.23,-0.18 0.94,-0.826 1.575,-1.437c0.882,-0.848 1.274,-1.11 1.657,-1.108c0.525,0.003 1.347,-0.89 2.286,-2.484c0.559,-0.949 1.108,-1.344 1.34,-0.965m23.304,0.332c-0,0.095 -0.124,0.125 -0.274,0.066c-0.151,-0.058 -0.311,-0.107 -0.356,-0.107c-0.046,-0 -0.036,-0.074 0.02,-0.165c0.125,-0.201 0.612,-0.036 0.61,0.206m2.47,-0.111c-0.066,0.257 -0.956,0.205 -1.043,-0.062c-0.056,-0.165 0.084,-0.212 0.506,-0.17c0.32,0.032 0.561,0.136 0.537,0.232m-120.067,0.521c-0.269,0.495 -0.569,1.046 -0.663,1.223c-0.172,0.32 -0.611,0.449 -0.61,0.179c0.001,-0.298 1.072,-2.203 1.356,-2.413c0.48,-0.354 0.448,0.038 -0.083,1.011m115.345,-0.405c-0.001,0.126 -0.236,0.399 -0.523,0.61c-0.287,0.209 -0.523,0.476 -0.523,0.594c-0.001,0.255 -2.779,3.121 -2.905,2.994c-0.236,-0.239 0.294,-0.985 1.599,-2.253c0.792,-0.768 1.495,-1.572 1.562,-1.786c0.13,-0.417 0.792,-0.55 0.79,-0.159m52.498,0.21c-0,0.094 -0.196,0.297 -0.436,0.451c-0.331,0.216 -0.434,0.432 -0.437,0.916c-0.003,0.559 -0.159,0.787 -1.309,1.919c-1.214,1.193 -1.617,1.897 -1.088,1.9c0.559,0.002 3.197,-3.092 3.375,-3.96c0.127,-0.616 0.284,-0.654 0.756,-0.178c0.465,0.471 0.478,0.438 -0.658,1.631c-0.551,0.58 -1.32,1.434 -1.709,1.901l-0.707,0.848l-1.277,-0.041c-1.595,-0.051 -1.578,-0.028 -0.702,-1.014c0.553,-0.622 0.704,-0.915 0.63,-1.218c-0.116,-0.475 0.342,-1.434 0.684,-1.432c0.133,0 0.767,-0.426 1.409,-0.946c1.156,-0.937 1.471,-1.104 1.469,-0.777m-5.545,0.156c0.218,0.149 0.182,0.237 -0.227,0.56c-0.268,0.211 -0.933,0.849 -1.478,1.418c-2.752,2.869 -2.924,3.016 -3.491,3.013c-0.707,-0.003 -0.699,-0.035 0.281,-1.093c3.066,-3.306 4.321,-4.301 4.915,-3.898m-58.706,-0.083c-0.443,0.527 -0.626,2.198 -0.242,2.2c0.24,0.002 1.445,-1.936 1.354,-2.177c-0.115,-0.304 -0.865,-0.319 -1.112,-0.023m86.069,0.463c0.243,0.296 0.004,1.319 -0.474,2.027c-1.42,2.099 -2.186,3.075 -2.484,3.168c-0.193,0.061 -0.432,0.26 -0.531,0.444c-0.214,0.395 -0.69,0.443 -0.688,0.071c0.001,-0.144 0.117,-0.259 0.257,-0.259c0.141,0.001 0.374,-0.224 0.519,-0.5c0.145,-0.277 0.366,-0.606 0.492,-0.735c0.126,-0.127 0.494,-0.62 0.816,-1.094c0.322,-0.475 0.815,-1.077 1.094,-1.339c0.545,-0.51 0.58,-0.927 0.104,-1.23c-0.238,-0.151 -0.398,-0.093 -0.805,0.294c-0.364,0.344 -0.547,0.422 -0.639,0.272c-0.379,-0.621 1.865,-1.695 2.339,-1.119m-162.886,-0.603c0.289,0.565 0.408,2.167 0.157,2.085c-0.263,-0.088 -0.794,-1.155 -0.936,-1.884c-0.116,-0.594 0.498,-0.753 0.779,-0.201m68.469,0.312c-0.002,0.28 -0.465,0.542 -0.641,0.364c-0.122,-0.124 0.271,-0.631 0.489,-0.63c0.084,0.001 0.152,0.121 0.152,0.266m-219.894,-0.827c-0.276,0.511 -1.903,2.618 -2.071,2.683c-0.725,0.278 -0.16,-1.098 0.926,-2.256c0.827,-0.881 1.534,-1.145 1.145,-0.427m250.559,1.411c-0.185,0.341 -0.696,0.484 -0.695,0.197c0.001,-0.115 0.551,-0.464 0.833,-0.531c0.027,-0.006 -0.035,0.145 -0.138,0.334m-247.591,-1.284c-0.001,0.086 -0.53,0.922 -1.176,1.857c-0.645,0.936 -1.373,2.085 -1.615,2.554c-0.243,0.468 -0.539,0.883 -0.659,0.92c-0.246,0.078 -0.294,-0.496 -0.063,-0.747c0.141,-0.154 1.094,-1.832 1.802,-3.171c0.585,-1.11 1.714,-2.042 1.711,-1.413m243.628,1.599c0.176,0.219 0.32,0.541 0.319,0.714c-0.001,0.173 0.222,0.477 0.497,0.675c0.522,0.376 0.696,0.307 0.941,-0.372c0.125,-0.343 0.815,-0.413 0.813,-0.082c-0.004,0.393 -0.768,1.125 -2.002,1.916c-0.67,0.429 -1.374,0.929 -1.565,1.11c-0.535,0.504 -1.049,0.596 -1.635,0.29c-0.437,-0.23 -0.641,-0.24 -1.264,-0.069c-0.836,0.232 -3.826,0.325 -5.464,0.17c-1.522,-0.143 -1.447,-0.36 0.968,-2.767l2.046,-2.04l3.014,0.028c2.925,0.027 3.023,0.04 3.332,0.427m21.91,0.47c-0.464,0.472 -1.284,1.157 -1.822,1.521c-1.018,0.686 -1.412,1.408 -0.769,1.412c0.391,0.002 0.757,-0.278 1.124,-0.861c0.513,-0.815 1.938,-2.243 2.239,-2.241c0.307,0.002 0.571,-0.4 0.385,-0.587c-0.188,-0.19 -0.307,-0.112 -1.157,0.756m37.529,-0.235c0.297,0.662 -4.225,5.074 -5.069,4.946c-0.746,-0.113 -0.601,-0.31 2.341,-3.183c0.574,-0.56 1.311,-1.286 1.637,-1.612c0.708,-0.708 0.833,-0.725 1.091,-0.151m-323.433,-1.53c-0.065,0.214 -0.343,0.661 -0.619,0.993c-0.276,0.332 -0.861,1.304 -1.3,2.159c-0.983,1.912 -2.019,3.744 -2.327,4.11c-0.521,0.619 -0.964,-0.149 -0.483,-0.837c0.131,-0.187 0.294,-0.514 0.361,-0.726c0.169,-0.533 1.077,-1.99 2.072,-3.328c0.46,-0.618 1.067,-1.492 1.349,-1.943c0.542,-0.865 1.163,-1.147 0.947,-0.428m11.757,0.497c-0.148,0.354 -0.369,0.761 -0.489,0.903c-0.121,0.142 -0.676,1.115 -1.235,2.16c-1.529,2.864 -2.529,4.128 -2.525,3.189c0.004,-0.714 2.814,-5.56 3.868,-6.671c0.522,-0.551 0.704,-0.35 0.381,0.419m294.317,1.029c0.154,0.293 0.105,0.42 -0.301,0.775c-0.268,0.233 -1.197,1.085 -2.065,1.893c-1.516,1.409 -1.961,1.642 -2.492,1.302c-0.195,-0.126 -0.129,-0.3 0.346,-0.905c2.373,-3.02 3.964,-4.101 4.512,-3.065m-296.535,-0.395c-0.341,0.442 -0.621,0.905 -0.621,1.029c-0.001,0.125 -0.132,0.332 -0.292,0.462c-0.158,0.13 -0.738,1.148 -1.286,2.263c-1.161,2.362 -1.3,2.553 -1.849,2.55c-0.501,-0.003 -0.506,-0.088 -0.06,-0.998c0.192,-0.395 0.35,-0.787 0.35,-0.873c0.001,-0.087 0.302,-0.498 0.669,-0.916c0.367,-0.416 0.972,-1.295 1.342,-1.952c0.719,-1.28 2.173,-2.909 2.294,-2.572c0.04,0.111 -0.205,0.564 -0.547,1.007m12.036,-0.677c-0.001,0.205 -2.105,3.432 -2.62,4.018c-0.167,0.19 -0.506,0.85 -0.753,1.468c-0.467,1.168 -0.88,1.496 -1.079,0.859c-0.122,-0.392 0.207,-1.383 0.46,-1.382c0.082,0.001 0.357,-0.406 0.611,-0.906c0.256,-0.499 0.728,-1.198 1.051,-1.554c0.323,-0.356 0.588,-0.754 0.589,-0.883c0.001,-0.2 0.534,-0.978 1.231,-1.797c0.202,-0.239 0.512,-0.132 0.51,0.177m249.056,1.479c-0.3,0.452 -0.603,0.588 -0.601,0.271c0.001,-0.224 0.7,-0.917 0.812,-0.804c0.046,0.047 -0.048,0.286 -0.211,0.533m71.479,-0.047c-1.531,0.496 -1.886,0.546 -2.446,0.347c-0.795,-0.281 -1.259,0.119 -0.77,0.665c0.477,0.531 1.008,0.464 3.516,-0.446c1.179,-0.428 0.9,-0.954 -0.3,-0.566m-324.001,-1.487c-0.001,0.296 -1.76,3.28 -1.933,3.279c-0.352,-0.001 -0.127,-0.83 0.456,-1.689c0.339,-0.496 0.691,-1.097 0.783,-1.336c0.162,-0.418 0.696,-0.614 0.694,-0.254m213.539,1.219c-0.073,0.166 -0.181,0.611 -0.24,0.99c-0.216,1.363 -5.067,4.617 -5.061,3.393c0.001,-0.206 1.228,-1.334 1.846,-1.698c0.721,-0.424 1.849,-1.359 2.724,-2.255c0.782,-0.802 0.931,-0.889 0.731,-0.43m-231.093,0.012c-0.415,0.834 -1.302,2.334 -1.883,3.181c-0.165,0.244 -0.545,0.919 -0.842,1.5c-0.297,0.581 -0.625,1.11 -0.73,1.172c-0.294,0.18 -0.432,-0.076 -0.222,-0.408c0.105,-0.166 0.246,-0.549 0.314,-0.852c0.068,-0.303 0.511,-1.116 0.984,-1.806c0.473,-0.691 0.861,-1.31 0.861,-1.375c0,-0.066 0.41,-0.727 0.911,-1.47c0.98,-1.455 1.343,-1.42 0.607,0.058m2.569,-1.133c0.06,0.097 -0.211,0.555 -0.601,1.017c-0.391,0.461 -0.71,0.891 -0.711,0.956c0,0.063 -0.23,0.402 -0.512,0.752c-0.28,0.351 -0.915,1.337 -1.41,2.192c-1.023,1.767 -1.123,1.895 -1.367,1.743c-0.253,-0.158 0.689,-2.118 1.779,-3.701c0.503,-0.731 1.016,-1.561 1.142,-1.846c0.522,-1.192 1.313,-1.715 1.68,-1.113m162.109,3.193c0.449,1.224 0.453,1.273 0.135,1.441c-0.574,0.303 -0.872,0.035 -0.868,-0.785c0.002,-0.411 -0.139,-1.085 -0.312,-1.499c-0.173,-0.414 -0.37,-0.986 -0.437,-1.273l-0.121,-0.52l0.569,0.685c0.314,0.377 0.779,1.255 1.034,1.951m64.948,-2.042c-0.002,0.31 -1.146,1.305 -2.658,2.31c-1.761,1.171 -2.006,1.413 -1.722,1.7c0.392,0.396 0.181,0.479 -1.194,0.472l-1.392,-0.007l0.573,-0.493c0.616,-0.532 1.556,-1.055 1.89,-1.054c0.114,0.001 0.528,-0.259 0.922,-0.576c0.392,-0.318 1.144,-0.851 1.669,-1.184c0.526,-0.333 1.106,-0.77 1.288,-0.972c0.352,-0.387 0.625,-0.474 0.624,-0.196m96.717,1.06c-0.303,0.3 -0.612,0.483 -0.686,0.404c-0.074,-0.078 0.014,-0.229 0.195,-0.337c0.183,-0.107 0.452,-0.328 0.601,-0.49c0.147,-0.164 0.308,-0.258 0.355,-0.21c0.048,0.049 -0.162,0.333 -0.465,0.633m-137.949,-0.262c0.657,2.2 0.81,2.912 0.658,3.063c-0.354,0.354 -1.192,-1.961 -1.186,-3.274c0.004,-0.78 0.264,-0.677 0.528,0.211m144.37,0.126c0.124,0.351 -0.209,0.855 -1.116,1.699c-0.913,0.849 -1.067,1.364 -0.571,1.917c0.273,0.304 0.243,0.317 -0.694,0.313c-1.277,-0.007 -1.289,-0.29 -0.075,-1.761c1.785,-2.161 2.298,-2.615 2.456,-2.168m-311.038,-0.452c-0.283,0.539 -0.603,1.175 -0.712,1.412c-1.004,2.175 -2.805,4.209 -2.798,3.16c0.003,-0.442 2.446,-4.31 3.5,-5.542c0.472,-0.551 0.478,0.074 0.01,0.97m306.829,0.666c-0.005,0.966 -3.546,4.293 -3.918,3.683c-0.082,-0.132 1.831,-2.272 2.601,-2.911c0.184,-0.152 0.497,-0.443 0.696,-0.646c0.446,-0.455 0.623,-0.491 0.621,-0.126m-323.072,-1.626c0.045,0.071 -0.34,0.675 -0.855,1.337c-0.515,0.664 -0.939,1.27 -0.945,1.349c-0.005,0.078 -0.239,0.475 -0.522,0.882c-0.284,0.406 -0.712,1.178 -0.953,1.716c-0.353,0.788 -0.805,1.289 -0.803,0.892c0.001,-0.159 0.876,-1.918 1.353,-2.722c1.997,-3.359 2.44,-3.922 2.725,-3.454m159.85,1.629c0.005,0.477 -0.289,0.129 -0.434,-0.514c-0.111,-0.498 -0.105,-0.505 0.157,-0.171c0.15,0.191 0.275,0.499 0.277,0.685m-49.372,-0.604c-0.001,0.231 -0.198,0.65 -0.437,0.932c-0.239,0.281 -0.657,0.928 -0.93,1.438c-0.82,1.535 -1.432,2.413 -1.609,2.303c-0.324,-0.203 -0.156,-0.718 0.446,-1.368c0.336,-0.363 0.611,-0.77 0.612,-0.906c0.002,-0.377 0.503,-1.272 1.17,-2.086c0.697,-0.853 0.751,-0.874 0.748,-0.313m2.6,-0.169c-0.001,0.129 -0.159,0.433 -0.35,0.675c-0.193,0.241 -0.351,0.543 -0.354,0.671c-0.006,0.341 -1.075,2.579 -1.516,3.175c-0.619,0.835 -0.746,0.098 -0.177,-1.022c0.248,-0.488 0.592,-1.237 0.764,-1.666c0.636,-1.579 1.637,-2.704 1.633,-1.833m42.508,0.426c1.531,0.865 2.331,2.377 1.734,3.276c-0.57,0.862 -0.244,0.889 2.236,0.182c0.464,-0.133 0.995,-0.24 1.178,-0.239c0.184,0.001 0.663,-0.17 1.065,-0.38c0.662,-0.346 1.009,-0.385 3.677,-0.407c1.62,-0.012 3.803,-0.052 4.852,-0.088c1.664,-0.057 2.152,-0.003 3.835,0.428c1.061,0.271 2.541,0.55 3.289,0.621c0.748,0.07 1.542,0.245 1.766,0.387c0.224,0.143 0.554,0.222 0.735,0.175c0.181,-0.045 0.33,-0.011 0.329,0.078c-0.001,0.302 -0.951,0.525 -1.735,0.408c-1.196,-0.179 -6.734,-0.249 -7.71,-0.097c-0.511,0.08 -1.406,0.055 -2.182,-0.061c-0.822,-0.122 -1.698,-0.142 -2.339,-0.053c-0.562,0.079 -1.53,0.088 -2.148,0.021c-0.768,-0.084 -1.403,-0.047 -1.994,0.116c-1.563,0.43 -14.372,-0.045 -13.618,-0.506c0.127,-0.077 0.379,-0.102 0.559,-0.053c0.394,0.105 0.848,-0.229 0.85,-0.624c0.001,-0.156 0.17,-0.594 0.378,-0.974c0.207,-0.378 0.542,-0.995 0.743,-1.37l0.367,-0.683l1.542,-0.214c0.849,-0.117 1.584,-0.254 1.634,-0.304c0.123,-0.122 0.068,-0.142 0.957,0.361m34.249,0.379c-0.103,0.357 -0.238,1 -0.298,1.428c-0.156,1.108 0.293,0.657 0.562,-0.565c0.11,-0.497 0.259,-1.04 0.332,-1.206c0.094,-0.215 0.054,-0.304 -0.137,-0.305c-0.164,-0 -0.344,0.254 -0.459,0.648m-191.804,-1.37c0,0.049 -0.475,0.915 -1.056,1.926c-0.58,1.012 -1.309,2.371 -1.618,3.02c-0.524,1.102 -0.6,1.181 -1.125,1.182c-0.707,0 -0.704,-0.045 0.104,-1.489c1.072,-1.917 1.554,-2.597 2.118,-2.995c0.292,-0.206 0.532,-0.476 0.532,-0.599c0.002,-0.281 0.668,-1.134 0.886,-1.133c0.088,0 0.16,0.04 0.159,0.088m3.343,0.233c-0.159,0.419 -0.861,1.52 -1.631,2.556c-0.357,0.478 -0.899,1.333 -1.205,1.899c-0.577,1.069 -1.014,1.354 -0.909,0.594c0.09,-0.645 0.733,-1.881 1.472,-2.824c0.36,-0.459 0.656,-0.887 0.658,-0.949c0.005,-0.194 1.368,-1.581 1.553,-1.58c0.096,0.001 0.124,0.137 0.062,0.304m26.613,0.396c-1.273,2.425 -2.876,4.794 -3.243,4.792c-0.672,-0.004 0.104,-1.835 1.542,-3.639c1.14,-1.43 2.237,-2.174 1.701,-1.153m69.135,0.18c-0.037,0.522 -2.193,4.368 -2.477,4.418c-0.507,0.091 -0.352,-0.381 0.66,-2.014c0.528,-0.854 0.96,-1.62 0.961,-1.703c0.001,-0.238 0.526,-0.919 0.707,-0.918c0.091,0.001 0.158,0.098 0.149,0.217m1.651,-0.05c0.237,0.387 -2.193,4.595 -2.575,4.459c-0.32,-0.114 -0.15,-1.002 0.32,-1.683c0.23,-0.332 0.588,-0.993 0.796,-1.469c0.472,-1.08 1.2,-1.731 1.459,-1.307m163.308,0.85c-0.001,0.096 -0.077,0.174 -0.171,0.173c-0.093,-0 -0.329,0.307 -0.523,0.685c-0.195,0.377 -0.53,0.774 -0.745,0.882c-0.214,0.109 -0.792,0.465 -1.282,0.794c-0.526,0.351 -1.05,0.572 -1.274,0.537c-0.509,-0.081 1.918,-2.536 2.645,-2.677c0.262,-0.052 0.564,-0.2 0.674,-0.33c0.231,-0.277 0.677,-0.317 0.676,-0.064m-244.301,-0.84c-0.003,0.508 -0.855,2.356 -1.567,3.395c-0.293,0.428 -0.533,0.913 -0.534,1.081c-0.001,0.22 -0.143,0.301 -0.523,0.299c-0.746,-0.003 -0.461,-1.008 0.743,-2.615c0.24,-0.321 0.702,-1.03 1.027,-1.577c0.639,-1.073 0.857,-1.223 0.854,-0.583m90.624,1.416c-0.197,0.381 -0.444,0.745 -0.548,0.809c-0.106,0.064 -0.34,0.46 -0.522,0.879c-0.295,0.678 -0.745,1.102 -0.95,0.896c-0.11,-0.111 0.781,-2.208 1.247,-2.938c0.855,-1.339 1.496,-1.046 0.773,0.354m129.326,-0.537c0.147,0.238 -1.168,2.777 -1.436,2.776c-0.411,-0.002 -0.441,-0.538 -0.061,-1.046c0.43,-0.576 0.474,-0.859 0.134,-0.86c-0.235,-0.002 -1.102,0.9 -1.727,1.793c-0.298,0.426 -0.877,0.599 -1.051,0.313c-0.212,-0.346 1.82,-2.142 3.194,-2.825c0.712,-0.353 0.814,-0.37 0.947,-0.151m-231.386,-0.924c-0.001,0.254 -0.583,1.35 -0.97,1.825c-0.116,0.142 -0.551,0.909 -0.968,1.703c-0.711,1.357 -1.074,1.769 -1.331,1.51c-0.06,-0.06 0.076,-0.44 0.303,-0.842c0.226,-0.404 0.469,-0.849 0.54,-0.993c1.124,-2.267 2.431,-3.992 2.426,-3.203m15.646,-0.061c0.1,0.101 -0.506,1.449 -0.651,1.448c-0.037,-0 -0.228,-0.277 -0.424,-0.614c-0.393,-0.674 -0.386,-0.68 0.866,-0.923c0.055,-0.01 0.15,0.03 0.209,0.089m7.737,0.235c-0.005,0.166 -0.394,0.846 -0.865,1.511c-0.471,0.665 -1.102,1.617 -1.402,2.116c-0.425,0.705 -0.642,0.906 -0.976,0.905l-0.43,-0.002l0.635,-1.195c0.35,-0.656 0.892,-1.491 1.206,-1.856c0.315,-0.365 0.703,-0.915 0.864,-1.224c0.32,-0.614 0.984,-0.788 0.968,-0.255m70.526,0.291c-0.001,0.129 -0.206,0.616 -0.456,1.081c-0.453,0.847 -1.617,2.97 -1.77,3.23c-0.044,0.076 -0.181,0.054 -0.305,-0.05c-0.274,-0.229 0.159,-1.483 0.867,-2.514c0.245,-0.358 0.446,-0.745 0.446,-0.861c0.002,-0.325 0.693,-1.122 0.972,-1.121c0.136,0.001 0.247,0.106 0.246,0.235m11.089,-0.074c-0.001,0.057 -0.114,0.31 -0.254,0.562c-0.139,0.252 -0.487,0.975 -0.773,1.606c-0.286,0.632 -0.605,1.2 -0.708,1.263c-0.366,0.224 -0.182,-0.568 0.363,-1.574c0.303,-0.556 0.663,-1.225 0.801,-1.487c0.222,-0.421 0.572,-0.648 0.571,-0.37m-85.419,-0.204c-0,0.09 -0.075,0.208 -0.164,0.263c-0.09,0.056 -0.346,0.461 -0.568,0.903c-0.223,0.44 -0.737,1.169 -1.145,1.618c-0.408,0.449 -0.741,0.98 -0.742,1.18c-0.001,0.249 -0.112,0.364 -0.349,0.363c-0.478,-0.002 -0.44,-0.207 0.295,-1.53c1.228,-2.212 2.678,-3.729 2.673,-2.797m9.492,0.255c0.053,0.285 -0.423,1.071 -1.27,2.097c-0.253,0.306 -0.711,0.945 -1.018,1.421c-1.021,1.582 -1.591,0.783 -0.628,-0.881c0.744,-1.286 1.728,-2.722 1.975,-2.882c0.321,-0.209 0.884,-0.062 0.941,0.245m70.268,0.467c-0.067,0.261 -0.268,0.801 -0.446,1.198c-0.178,0.398 -0.344,1.137 -0.369,1.644l-0.047,0.922l-1.329,0.04c-1.5,0.044 -1.624,-0.039 -1.283,-0.858c0.469,-1.126 0.526,-1.705 0.166,-1.707c-0.363,-0.002 -0.727,0.728 -0.905,1.814c-0.089,0.546 -0.196,0.704 -0.503,0.746c-0.505,0.069 -0.493,-0.048 0.154,-1.464c1.098,-2.399 1.384,-2.843 1.381,-2.146c-0.003,0.489 0.448,0.454 0.789,-0.061c0.49,-0.741 2.576,-0.852 2.392,-0.128m1.673,-0.387c-0.001,0.311 -1.137,2.199 -1.409,2.344c-0.615,0.324 -0.306,-0.765 0.529,-1.867c0.359,-0.473 0.882,-0.756 0.88,-0.477m-83.817,0.545c-0.266,0.484 -0.617,1.125 -0.779,1.425c-0.396,0.735 -0.835,1.151 -1.212,1.149c-0.395,-0.002 -0.257,-0.911 0.234,-1.539c0.177,-0.226 0.322,-0.498 0.323,-0.604c0.006,-0.609 0.709,-1.317 1.306,-1.314l0.612,0.004l-0.484,0.879m71.86,-0.191c-0.001,0.178 -0.399,0.857 -0.886,1.509c-0.487,0.651 -0.929,1.401 -0.984,1.665c-0.064,0.311 -0.207,0.478 -0.413,0.477c-0.58,-0.003 -0.545,-0.366 0.132,-1.334c0.37,-0.53 0.807,-1.219 0.972,-1.531c0.244,-0.459 0.909,-1.111 1.133,-1.11c0.026,0.001 0.047,0.146 0.046,0.324m233.003,1.076c0.344,0.348 0.236,0.582 -0.415,0.888c-0.985,0.464 -1.335,-0.075 -0.481,-0.74c0.533,-0.416 0.617,-0.429 0.896,-0.148m-93.701,-0.361c-0.001,0.218 -0.511,0.607 -0.634,0.483c-0.177,-0.178 0.091,-0.638 0.37,-0.637c0.146,0.001 0.265,0.07 0.264,0.154m-246.208,-0.049c-0.403,0.568 -0.828,1.292 -0.944,1.608c-0.544,1.485 -1.508,2.905 -1.504,2.219c0.003,-0.555 0.93,-2.438 1.485,-3.018c0.359,-0.373 0.85,-0.977 1.095,-1.34c0.243,-0.365 0.478,-0.627 0.521,-0.582c0.044,0.044 -0.25,0.545 -0.653,1.113m42.625,-0.694c-0.003,0.656 -2.463,3.909 -2.742,3.627c-0.318,-0.321 1.905,-3.908 2.42,-3.906c0.18,0.001 0.323,0.124 0.322,0.279m233.553,1.134c-0.01,0.417 -0.64,1.051 -0.932,0.937c-0.375,-0.145 -0.354,-0.394 0.069,-0.811c0.389,-0.386 0.87,-0.457 0.863,-0.126m-231.822,-1.031c-0,0.11 -0.28,0.616 -0.622,1.125c-0.341,0.51 -0.82,1.353 -1.062,1.875c-0.435,0.938 -0.848,1.204 -1.048,0.676c-0.218,-0.577 1.893,-3.879 2.478,-3.876c0.141,0.001 0.255,0.091 0.254,0.2m-13.687,0.054c-0.001,0.082 -0.178,0.413 -0.394,0.735c-0.217,0.321 -0.498,0.785 -0.626,1.031c-0.377,0.724 -1.034,1.464 -1.176,1.323c-0.152,-0.154 0.099,-0.674 1.045,-2.161c0.6,-0.941 1.153,-1.388 1.151,-0.928m17.782,0.379c0.302,0.797 -1.4,3.191 -2.453,3.453c-1.015,0.253 -1.096,0.115 -0.487,-0.834c1.421,-2.214 2.672,-3.33 2.94,-2.619m90.011,0.446c0.033,0.159 0.137,0.285 0.232,0.28c0.258,-0.012 0.212,-0.399 -0.057,-0.491c-0.145,-0.049 -0.211,0.029 -0.175,0.211m-156.037,-0.397c-0.228,0.417 -2.559,3.57 -3.064,4.142c-0.272,0.308 -0.524,0.265 -0.521,-0.09c0.004,-0.458 0.89,-1.744 2.323,-3.366c1.081,-1.226 1.753,-1.591 1.262,-0.686m36.286,0.131c-0.001,0.126 -0.277,0.681 -0.614,1.232c-0.336,0.552 -0.612,1.103 -0.612,1.223c-0.003,0.464 -0.423,1.099 -0.726,1.098c-0.46,-0.002 -0.402,-0.295 0.388,-1.96c0.874,-1.841 1.568,-2.548 1.564,-1.593m93.388,0.304c-0.001,0.261 -0.314,0.536 -0.451,0.397c-0.12,-0.121 0.122,-0.648 0.297,-0.647c0.086,0 0.155,0.113 0.154,0.25m-128.364,0.345c-0.286,0.407 -0.86,1.094 -1.276,1.528c-0.416,0.434 -0.963,1.055 -1.216,1.38c-0.418,0.537 -0.972,0.619 -0.578,0.086c0.094,-0.126 0.572,-0.803 1.063,-1.506c0.963,-1.375 2.357,-2.748 2.463,-2.426c0.036,0.11 -0.17,0.531 -0.456,0.938m289.323,0.693c-0.002,0.358 -0.498,0.92 -0.811,0.919c-0.346,-0.002 -0.281,-0.36 0.148,-0.811c0.447,-0.472 0.665,-0.507 0.663,-0.108m4.332,-0.088c-0.002,0.499 -0.781,1.202 -1.328,1.199c-0.823,-0.004 -0.88,-0.316 -0.117,-0.629c0.365,-0.149 0.727,-0.379 0.803,-0.512c0.163,-0.28 0.643,-0.323 0.642,-0.058m32.312,0.331c-0.001,0.168 -0.203,0.279 -0.564,0.313c-0.591,0.053 -0.708,-0.104 -0.347,-0.462c0.287,-0.283 0.913,-0.179 0.911,0.149m-289.13,-0.742c0.723,1.795 0.932,2.591 0.732,2.788c-0.299,0.297 -0.511,-0.061 -0.655,-1.103c-0.11,-0.801 -0.192,-0.957 -0.519,-1.006c-0.397,-0.059 -0.527,-0.675 -0.276,-1.318c0.177,-0.456 0.335,-0.315 0.718,0.639m11.27,-0.099c0.049,0.619 -0.53,2.11 -0.932,2.402c-0.695,0.505 -1.519,-0.2 -0.864,-0.738c0.144,-0.118 0.262,-0.284 0.262,-0.369c0.002,-0.345 1.106,-2.06 1.288,-2c0.107,0.036 0.218,0.354 0.246,0.705m112.759,-0.03c-0.061,0.097 -0.026,0.228 0.078,0.293c0.265,0.166 0.437,-0.059 0.216,-0.282c-0.123,-0.126 -0.221,-0.129 -0.294,-0.011m-166.09,0.041c-0.407,0.565 -0.484,0.596 -0.864,0.353c-0.297,-0.19 0.169,-0.815 0.779,-1.043c0.489,-0.183 0.522,0.082 0.085,0.69m1.906,-0.62c-0.002,0.478 -1.621,2.365 -1.839,2.145c-0.095,-0.098 0.478,-1.048 1.149,-1.905c0.402,-0.513 0.692,-0.614 0.69,-0.24m20.392,0.706c-0.141,0.16 -0.386,0.542 -0.544,0.851c-0.415,0.809 -0.657,0.691 -0.349,-0.17c0.328,-0.912 1.006,-1.694 1.092,-1.258c0.031,0.158 -0.058,0.419 -0.199,0.577m49.259,-0.226c-0.001,0.195 -0.394,0.766 -0.873,1.268c-0.478,0.502 -0.871,1.04 -0.872,1.198c-0.001,0.157 -0.075,0.286 -0.164,0.285c-0.347,-0.001 -0.344,-0.342 0.006,-0.895c0.201,-0.316 0.593,-0.945 0.872,-1.396c0.527,-0.855 1.034,-1.081 1.031,-0.46m291.444,1.531c-0.224,0.222 -0.448,0.049 -0.283,-0.217c0.065,-0.103 0.197,-0.138 0.294,-0.077c0.118,0.074 0.114,0.17 -0.011,0.294m-344.413,-1.637c-0.111,0.417 -0.399,0.634 -0.398,0.301c0.001,-0.194 0.322,-0.65 0.455,-0.65c0.019,0 -0.006,0.157 -0.057,0.349m1.099,0.133c-0.142,0.261 -0.301,0.612 -0.354,0.778c-0.054,0.167 -0.224,0.302 -0.381,0.301c-0.342,-0.002 -0.237,-0.343 0.323,-1.046c0.501,-0.629 0.747,-0.649 0.412,-0.033m53.739,0.123c-0.405,0.857 -2.021,2.784 -2.334,2.782c-0.658,-0.003 -0.631,-0.492 0.068,-1.196c0.359,-0.361 0.897,-0.94 1.196,-1.287c0.464,-0.538 1.292,-0.769 1.07,-0.299m92.829,0.777c-0.667,0.719 -0.831,1.34 -0.329,1.246c0.456,-0.086 1.384,-1.477 1.144,-1.719c-0.143,-0.145 -0.355,-0.022 -0.815,0.473m113.389,0.213c-0.001,0.145 -0.155,0.259 -0.347,0.258c-0.346,-0.001 -0.451,-0.187 -0.23,-0.405c0.212,-0.21 0.578,-0.117 0.577,0.147m81.709,0.358c0.182,0.296 -0.434,0.664 -1.106,0.661c-0.752,-0.004 -0.668,-0.359 0.15,-0.639c0.761,-0.261 0.81,-0.262 0.956,-0.022m-345.174,-1.316c-0.064,0.262 -0.254,0.631 -0.422,0.822c-0.169,0.189 -0.593,0.791 -0.943,1.337c-1.005,1.571 -1.574,1.293 -0.629,-0.306c0.925,-1.566 2.214,-2.763 1.994,-1.853m279.813,1.215c-0.105,0.271 -0.584,0.363 -0.582,0.113c0.001,-0.212 0.2,-0.374 0.458,-0.373c0.129,0.001 0.182,0.111 0.124,0.26m-220.625,-0.979c-0.001,0.13 -0.237,0.53 -0.524,0.888c-0.288,0.358 -0.524,0.754 -0.525,0.881c-0.001,0.291 -0.435,0.522 -1.262,0.672c-0.851,0.156 -0.826,0.063 0.354,-1.282c1.27,-1.45 1.96,-1.858 1.957,-1.159m2.252,0.108c-0,0.066 -0.116,0.272 -0.257,0.456c-0.141,0.184 -0.259,0.467 -0.263,0.629c-0.01,0.417 -0.682,0.829 -1.347,0.825c-0.709,-0.003 -0.707,-0.028 0.07,-1.074c0.732,-0.987 1.8,-1.485 1.797,-0.836m-60.685,0.156c-0.115,0.249 -0.238,0.363 -0.274,0.253c-0.09,-0.277 0.097,-0.706 0.309,-0.705c0.109,0.001 0.096,0.169 -0.035,0.452m224.662,0.802c0.82,0.319 -0.605,0.702 -1.824,0.489c-0.869,-0.151 -0.686,-0.388 0.365,-0.473c0.429,-0.036 0.872,-0.077 0.983,-0.093c0.112,-0.016 0.326,0.018 0.476,0.077m-233.631,-0.686c-0.001,0.233 -2.03,2.666 -2.223,2.665c-0.322,0 -0.287,-0.076 0.579,-1.252c0.919,-1.246 1.646,-1.87 1.644,-1.413m71.238,0.556c0.622,0.57 0.407,0.928 -0.553,0.924c-0.973,-0.005 -1.064,-0.17 -0.438,-0.79c0.507,-0.501 0.58,-0.51 0.991,-0.134m153.481,0.681c0.151,0.008 0.095,0.08 -0.131,0.169c-0.429,0.17 -0.91,0.053 -0.908,-0.222c0,-0.097 0.175,-0.127 0.39,-0.069c0.215,0.06 0.507,0.114 0.649,0.122m-214.676,-0.977c-0.007,0.207 -1.236,1.81 -1.321,1.724c-0.1,-0.101 1.027,-1.846 1.196,-1.851c0.072,-0.001 0.127,0.056 0.125,0.127m-12.203,0.168c0.063,0.103 -0.035,0.292 -0.219,0.419c-0.184,0.127 -0.556,0.548 -0.827,0.936c-0.465,0.662 -0.966,0.929 -0.964,0.511c0.001,-0.233 1.557,-2.055 1.754,-2.054c0.078,0 0.192,0.085 0.256,0.188m35.07,1.551c-0.002,0.286 -1.191,0.481 -1.434,0.236c-0.057,-0.058 0.004,-0.35 0.135,-0.649c0.132,-0.3 0.289,-0.698 0.349,-0.884c0.103,-0.32 0.952,0.839 0.95,1.297m299.268,0.466c0.45,0.087 1.024,0.119 1.277,0.071c0.316,-0.058 0.512,0.006 0.619,0.2c0.179,0.325 0.924,0.388 1.108,0.095c0.085,-0.135 0.605,-0.157 1.7,-0.074c0.868,0.066 2.592,0.115 3.831,0.109c1.238,-0.006 3.695,0.021 5.458,0.061c1.763,0.04 3.75,0.069 4.418,0.065c0.666,-0.004 2.069,0.002 3.118,0.013c1.992,0.021 5.249,0.032 10.656,0.033c1.763,0.001 3.517,0.007 3.898,0.014c0.381,0.006 2.414,0.002 4.519,-0.01c2.378,-0.013 3.95,0.047 4.157,0.158c0.389,0.211 3.136,0.294 5.92,0.178l1.949,-0.08l-0.117,2.459c-0.149,3.146 0.035,2.965 -2.852,2.808c-1.861,-0.102 -8.497,-0.217 -21.919,-0.381c-0.095,-0 -2.278,0.027 -4.852,0.061c-3.84,0.052 -7.702,0.047 -9.702,-0.011c-0.191,-0.006 -3.31,0.036 -6.932,0.092c-6.961,0.109 -24.362,0.076 -33.093,-0.062c-1.811,-0.029 -4.072,-0.04 -5.025,-0.024c-2.412,0.04 -3.657,0.038 -7.537,-0.015c-1.858,-0.027 -4.86,-0.024 -6.67,0.004c-1.811,0.028 -9.764,0.06 -17.674,0.071c-15.586,0.021 -18.746,0.075 -19.649,0.338c-0.386,0.112 -0.847,0.112 -1.333,0c-0.579,-0.133 -8.722,-0.464 -9.945,-0.405c-0.144,0.007 -5.095,0.032 -11.004,0.056c-5.908,0.024 -14.485,0.064 -19.059,0.09c-4.574,0.025 -18.025,0.025 -29.889,-0.001c-11.863,-0.026 -26.093,-0.03 -31.621,-0.011c-5.526,0.021 -20.068,0.031 -32.314,0.022c-12.245,-0.007 -22.849,0.016 -23.565,0.053c-0.714,0.037 -9.759,0.073 -20.099,0.08c-23.673,0.016 -27.048,0.033 -30.149,0.156c-1.382,0.054 -6.256,0.121 -10.83,0.148c-4.574,0.027 -11.28,0.091 -14.901,0.141c-5.311,0.075 -10.746,0.082 -12.865,0.015c-0.958,-0.03 -6.18,0.076 -8.102,0.164c-4.088,0.188 -11.666,0.011 -12.43,-0.289c-0.515,-0.203 -0.561,-0.498 -0.471,-3.055c0.049,-1.395 0.125,-1.589 0.676,-1.739c1.197,-0.327 11.599,-0.27 12.878,0.07c0.249,0.066 0.913,0.033 1.473,-0.075c0.956,-0.182 6.769,-0.31 6.926,-0.151c0.103,0.106 9.771,0.087 9.943,-0.018c0.155,-0.095 2.744,-0.287 3.472,-0.258c0.238,0.009 1.758,0.009 3.379,-0.001c3.944,-0.023 8.1,0.011 9.269,0.077c2.204,0.123 5.7,0.107 6.931,-0.032c0.429,-0.049 2.885,-0.122 5.458,-0.161c2.574,-0.038 5.965,-0.126 7.539,-0.194c1.572,-0.067 3.171,-0.063 3.552,0.01c0.38,0.071 1.013,0.062 1.404,-0.022c0.637,-0.136 1.77,-0.113 5.872,0.123c0.667,0.037 4.292,0.133 8.056,0.211c3.763,0.08 6.97,0.181 7.124,0.228c0.154,0.046 0.934,-0.025 1.733,-0.16c1.299,-0.218 3.126,-0.265 8.557,-0.221c0.762,0.006 3.374,-0.011 5.805,-0.038c3.991,-0.044 18.336,-0.055 22.005,-0.016c0.81,0.008 1.862,-0.059 2.34,-0.15c0.733,-0.141 2.059,-0.124 6.149,0.078c0.334,0.016 1.922,-0.02 3.528,-0.081c1.898,-0.071 3.158,-0.045 3.597,0.076c0.487,0.133 0.979,0.129 1.758,-0.014c0.689,-0.127 2.465,-0.173 4.893,-0.127c4.275,0.08 4.206,0.081 7.191,-0.036c1.192,-0.047 2.751,-0.075 3.465,-0.064c3.706,0.061 4.592,0.042 6.586,-0.147c1.192,-0.114 2.672,-0.157 3.292,-0.097c2.724,0.265 3.74,0.287 5.159,0.116c1,-0.122 5.589,-0.149 13.553,-0.084c6.623,0.056 12.432,0.097 12.908,0.093c4.203,-0.037 11.105,0.007 14.334,0.093c2.823,0.076 4.171,0.047 4.765,-0.105c1.072,-0.273 2.306,-0.355 4.554,-0.305c6.569,0.147 13.673,0.191 15.074,0.094c0.905,-0.062 3.439,-0.145 5.632,-0.183c2.192,-0.037 4.882,-0.119 5.979,-0.181c1.096,-0.062 2.188,-0.11 2.426,-0.106c4.791,0.075 6.889,0.083 9.702,0.036c6.343,-0.107 7.885,-0.089 8.701,0.102c0.812,0.19 4.678,0.183 14.257,-0.024c2.382,-0.052 6.554,-0.104 9.27,-0.117c2.716,-0.013 5.367,-0.033 5.891,-0.045c0.524,-0.012 1.655,0.021 2.513,0.073c0.857,0.052 2.995,0.156 4.75,0.229c1.757,0.075 3.38,0.207 3.609,0.295c0.229,0.089 0.483,0.119 0.566,0.069c0.082,-0.051 1.148,-0.13 2.369,-0.175c1.219,-0.045 2.647,-0.1 3.171,-0.12c0.524,-0.02 1.303,-0.136 1.731,-0.256c0.627,-0.177 1.022,-0.176 2.032,0.002c0.719,0.126 1.789,0.179 2.514,0.124c0.694,-0.054 3.133,-0.136 5.42,-0.184c2.286,-0.046 4.182,-0.109 4.212,-0.139c0.124,-0.123 11.278,0.146 12.028,0.29m-324.057,-1.084c-0.138,0.255 -0.246,0.321 -0.292,0.181c-0.074,-0.228 0.3,-0.797 0.435,-0.66c0.042,0.041 -0.023,0.257 -0.143,0.479m-17.674,0.107c-0.178,0.385 -0.821,0.903 -0.953,0.768c-0.075,-0.074 0.903,-1.167 1.043,-1.166c0.051,-0 0.011,0.179 -0.09,0.398m10.238,-0.165c-0.001,0.378 -0.544,1.203 -0.79,1.201c-0.14,-0 -0.311,0.004 -0.381,0.011c-0.305,0.03 -0.181,-0.324 0.293,-0.838c0.515,-0.558 0.88,-0.714 0.878,-0.374m-9.124,0.703c-0.306,0.635 -0.586,0.821 -0.584,0.389c0.002,-0.268 0.7,-1.204 0.813,-1.089c0.04,0.04 -0.062,0.356 -0.229,0.7m-10.34,-0.367c0.028,0.09 -0.023,0.279 -0.114,0.421c-0.22,0.344 -0.615,-0.033 -0.458,-0.437c0.113,-0.29 0.48,-0.279 0.572,0.016m7.638,-0.017c-0.126,0.374 -1.175,0.888 -1.382,0.679c-0.13,-0.131 -0.012,-0.289 0.405,-0.539c0.663,-0.4 1.086,-0.46 0.977,-0.14m376.614,2.065c-1.488,0.146 -2.114,1.01 -1.121,1.548c0.371,0.201 0.469,0.942 0.15,1.137c-0.104,0.064 -0.382,0.012 -0.617,-0.115c-0.779,-0.422 -1.078,0.656 -0.322,1.157c0.426,0.283 0.45,0.272 1.295,-0.509c0.473,-0.439 1.011,-0.797 1.195,-0.796c0.404,0.002 0.542,-0.292 0.429,-0.905c-0.088,-0.47 0.425,-0.732 1.685,-0.857c0.299,-0.03 0.435,-0.149 0.436,-0.382c0.002,-0.38 -1.084,-0.477 -3.13,-0.278m4.413,0.697c-0.315,0.312 -0.468,0.606 -0.405,0.777c0.144,0.378 0.519,0.345 0.953,-0.086c0.669,-0.663 0.778,-0.127 0.232,1.14c-0.389,0.902 -0.447,1.185 -0.279,1.352c0.233,0.233 0.269,0.196 1.054,-1.079c0.235,-0.382 0.497,-0.695 0.582,-0.694c0.085,0 0.353,-0.155 0.597,-0.344c0.779,-0.607 1.019,-0.316 0.391,0.474c-0.978,1.231 0.656,2.448 1.942,1.447c0.24,-0.187 0.641,-0.417 0.891,-0.511c0.474,-0.177 0.615,-0.612 0.241,-0.747c-0.118,-0.043 -0.505,0.066 -0.86,0.241c-1.274,0.632 -1.679,0.343 -0.913,-0.651c0.913,-1.185 0.432,-1.846 -0.98,-1.347c-0.769,0.273 -0.881,0.274 -1.313,0.024c-0.948,-0.55 -1.574,-0.549 -2.133,0.004m-2.911,2.38c0.032,0.167 0.212,0.304 0.399,0.305c0.188,0.001 0.369,-0.134 0.402,-0.301c0.044,-0.227 -0.055,-0.303 -0.399,-0.305c-0.343,-0.001 -0.444,0.074 -0.402,0.301m9.271,0.2c-0.225,0.223 -0.128,0.719 0.163,0.831c0.365,0.143 0.629,-0.111 0.551,-0.526c-0.062,-0.331 -0.498,-0.517 -0.714,-0.305m-394.703,0.235c-0.198,0.196 0.061,0.41 0.501,0.412c0.237,0.001 0.736,0.16 1.108,0.352c1.014,0.524 1.178,0.426 0.42,-0.251c-0.645,-0.575 -1.697,-0.841 -2.029,-0.513" style="fill:#3c362f;"/></g></g></svg>