<?xml version="1.0" encoding="utf-8"?>
<!-- Generator: Adobe Illustrator 25.4.1, SVG Export Plug-In . SVG Version: 6.00 Build 0)  -->
<svg version="1.1" id="UiBmerke_grayscale" xmlns="http://www.w3.org/2000/svg" xmlns:xlink="http://www.w3.org/1999/xlink" x="0px"
	 y="0px" viewBox="0 0 99.2 99.2" style="enable-background:new 0 0 99.2 99.2;" xml:space="preserve">
<g>
	<g>
		<g>
			<path d="M9,39.1c-0.9-0.2-2.6-0.4-3-0.2c-0.2,0.1-0.3,0.3-0.4,0.7l-0.1,0.4c-0.1,0.1-0.3,0-0.3-0.1c0.1-0.5,0.2-1.1,0.3-1.6
				c0.1-0.6,0.2-1,0.2-1.5c0.1-0.1,0.3-0.1,0.4,0l0,0.4c0,0.4,0,0.7,0.2,0.8c0.4,0.3,2.1,0.6,2.9,0.7l1.6,0.3
				c1.3,0.2,2.6,0.6,3.3,1.6c0.6,0.7,0.8,1.9,0.6,2.9c-0.2,1-0.5,2-1.3,2.6c-0.8,0.7-1.9,0.8-3.6,0.5l-3.4-0.6
				c-1.5-0.3-1.8-0.3-2,0.6l-0.1,0.4c-0.1,0.1-0.3,0-0.3-0.1C4,46,4.1,45.5,4.2,44.9c0.1-0.6,0.2-1.1,0.3-1.8c0.1-0.1,0.3-0.1,0.4,0
				l0,0.4c-0.1,0.9,0.2,0.9,1.7,1.2l3.1,0.5c2.3,0.4,4-0.1,4.4-2.3c0.4-2.1-1.1-3.2-3.3-3.6L9,39.1z"/>
			<path d="M18.1,27.4c0.4,0.2,1.9,1.1,2.3,1.2c0.1,0.1,0.1,0.2,0,0.3c-0.3,0-1,0.2-2.9,0.6l-5,1.1c-0.6,0.1-2.1,0.4-2.6,0.5l0,0
				c0.1,0.1,0.4,0.3,0.8,0.5l2.8,1.6c0.6,0.3,2.3,1.3,2.8,1.3c0.2,0,0.4-0.2,0.6-0.5l0.3-0.4c0.1,0,0.3,0.1,0.3,0.2
				c-0.3,0.6-0.6,1-0.9,1.5c-0.3,0.5-0.5,0.9-0.7,1.4c-0.1,0.1-0.3,0-0.3-0.2l0.2-0.4c0.1-0.3,0.2-0.6,0.1-0.7
				c-0.4-0.4-1.9-1.3-2.5-1.6l-3.7-2.1c-0.4-0.2-0.6-0.3-1.1-0.2c-0.3,0.1-0.5,0.3-0.7,0.6l-0.1,0.2c-0.1,0-0.3-0.1-0.3-0.2
				c0.3-0.5,0.7-1.2,0.8-1.4c0.1-0.2,0.2-0.4,0.3-0.6c0.8,0.1,3.3-0.5,4-0.6l2.1-0.5c1.5-0.3,2.5-0.6,3.5-0.8l0,0
				c0-0.1-0.2-0.2-0.5-0.4l-2.7-1.5c-0.6-0.3-2.3-1.3-2.8-1.2c-0.2,0-0.3,0.2-0.7,0.7l-0.1,0.2c-0.1,0-0.3-0.1-0.3-0.2
				c0.4-0.6,0.6-1,0.9-1.5c0.3-0.6,0.5-0.9,0.7-1.3c0.1-0.1,0.3,0,0.3,0.2l-0.1,0.2c-0.2,0.4-0.2,0.8-0.1,0.9
				c0.3,0.5,1.9,1.3,2.5,1.7L18.1,27.4z"/>
			<path d="M18.1,20c-1.1-1.1-1.3-1.2-2-0.7l-0.3,0.2c-0.1,0-0.3-0.2-0.2-0.3c0.5-0.5,0.9-0.9,1.3-1.3c0.4-0.4,0.7-0.8,1.2-1.3
				c0.1,0,0.3,0.1,0.3,0.2l-0.2,0.3c-0.5,0.7-0.4,0.9,0.7,1.9l3.8,3.6c1.1,1.1,1.3,1.2,2,0.6l0.3-0.2c0.1,0,0.3,0.2,0.2,0.3
				c-0.5,0.5-0.9,0.9-1.3,1.3c-0.4,0.4-0.8,0.8-1.3,1.4c-0.1,0-0.3-0.1-0.3-0.2l0.2-0.3c0.5-0.7,0.4-0.9-0.7-1.9L18.1,20z"/>
			<path d="M23.3,14.3c-0.7-0.5-1.1-0.7-1.6-0.4L21.4,14c-0.1,0-0.2-0.2-0.2-0.3c0.4-0.2,0.8-0.4,1.3-0.8c0.5-0.3,1-0.6,1.5-1
				c0.1,0,0.3,0.2,0.2,0.3L24,12.3c-0.4,0.4-0.5,0.5-0.4,0.6c0.1,0.1,0.7,0.6,1.7,1.3c1.5,1.1,3,2.1,4.5,3.2
				c-0.1-1.1-0.4-2.7-0.5-3.5c-0.2-1.1-0.5-2.8-0.6-3.5c-0.1-0.3-0.1-0.5-0.2-0.6c-0.1-0.1-0.2-0.1-0.7,0.1l-0.2,0.1
				c-0.1,0-0.2-0.2-0.2-0.3c0.4-0.2,0.8-0.5,1.3-0.8c0.4-0.3,0.8-0.5,1.2-0.8c0.1,0,0.2,0.2,0.2,0.3l-0.4,0.3
				c-0.3,0.2-0.4,0.5-0.4,0.8c0,0.8,0.2,2.1,0.4,3.7l0.3,1.9c0.2,1.5,0.5,3.3,0.8,4.1c0,0-0.1,0.1-0.1,0.1c-0.1,0-0.1,0.1-0.2,0.1
				c-0.5-0.4-1.1-0.9-1.6-1.3L23.3,14.3z"/>
			<path d="M35.5,8.6C35.1,7.1,35,6.9,34.2,7l-0.2,0c-0.1,0-0.1-0.3-0.1-0.4c0.6-0.1,1.1-0.3,1.7-0.4l2.7-0.8
				C39.1,5.3,39.9,5,40.1,5c0.2,0.2,0.5,1.2,0.8,1.8c0,0.1-0.3,0.2-0.3,0.1c-0.4-0.6-0.7-1.1-1.5-1c-0.3,0-0.8,0.1-1.4,0.3l-1,0.3
				c-0.4,0.1-0.4,0.1-0.3,0.7l0.8,2.8c0.1,0.4,0.2,0.4,0.6,0.3l0.8-0.2c0.6-0.2,1-0.3,1.2-0.4C39.9,9.5,40,9.3,39.9,9l-0.1-0.6
				c0-0.1,0.3-0.2,0.4-0.1c0.1,0.3,0.2,0.9,0.3,1.4c0.1,0.5,0.4,1,0.4,1.3c0,0.1-0.3,0.2-0.4,0.1l-0.3-0.5c-0.1-0.2-0.3-0.4-0.6-0.4
				c-0.2,0-0.6,0.1-1.1,0.2l-0.8,0.2c-0.4,0.1-0.5,0.1-0.4,0.5l0.6,2c0.2,0.7,0.4,1.2,0.7,1.4c0.2,0.1,0.6,0.2,1.8-0.2
				c1.1-0.3,1.5-0.5,1.7-0.7c0.2-0.2,0.5-0.8,0.6-1.7c0.1-0.1,0.3-0.1,0.4,0c0,0.5,0,1.7-0.1,2.1c-1.3,0.3-2.5,0.7-3.8,1l-1.3,0.4
				c-0.6,0.2-1.1,0.3-1.9,0.6c-0.1,0-0.2-0.2-0.1-0.3l0.5-0.2c0.8-0.3,0.8-0.5,0.4-2L35.5,8.6z"/>
			<path d="M47.1,6.3c0-1.4,0-1.6-0.6-1.7L46,4.5c-0.1-0.1-0.1-0.3,0-0.4C46.8,4.1,47.8,4,49.3,4c0.9,0,1.8,0.1,2.4,0.5
				c0.7,0.4,1.2,1,1.2,2.1c0,1.4-1.1,2.1-1.9,2.4c-0.1,0.1,0,0.2,0.1,0.4c1.2,1.9,1.9,3.1,2.9,3.9c0.2,0.2,0.6,0.4,1,0.4
				c0.1,0,0.1,0.1,0,0.2c-0.1,0-0.4,0.1-0.6,0.1c-1.2,0-2-0.4-3-1.9c-0.4-0.5-1-1.6-1.4-2.2c-0.2-0.3-0.5-0.5-1-0.5
				c-0.7,0-0.7,0-0.7,0.3l0,1.8c0,1.5,0,1.7,0.9,1.8l0.3,0c0.1,0.1,0.1,0.3,0,0.4c-0.7,0-1.2-0.1-1.7-0.1c-0.6,0-1.1,0-1.8,0
				c-0.1,0-0.1-0.3,0-0.4l0.4,0c0.9-0.1,0.9-0.3,0.9-1.8L47.1,6.3z M48.3,8.4c0,0.3,0,0.4,0,0.5c0,0,0.3,0.1,1,0.1
				c0.5,0,1.1-0.1,1.5-0.4c0.4-0.3,0.7-0.8,0.7-1.8c0-1.2-0.7-2.3-2.3-2.3c-0.9,0-1,0.1-1,0.5L48.3,8.4z"/>
			<path d="M60.1,15.6c-1.2-0.4-1.8-1-2-1.2c-0.1-0.4,0.1-1.4,0.2-2.1c0.1-0.1,0.3,0,0.4,0.1c0,0.8,0.1,2.3,1.7,2.8
				c1.2,0.4,2-0.2,2.3-1.1c0.2-0.6,0.3-1.3-0.5-2.3l-1.1-1.3c-0.6-0.7-1.1-1.7-0.7-2.9c0.4-1.3,1.8-2.1,3.6-1.5
				c0.4,0.1,0.9,0.4,1.2,0.6c0.2,0.1,0.3,0.2,0.5,0.2c0,0.4-0.1,1.2-0.3,1.8c-0.1,0.1-0.3,0-0.4-0.1C65,8,65,6.9,63.6,6.5
				c-1.4-0.4-2,0.4-2.2,1c-0.3,0.8,0.2,1.6,0.6,2.1l0.9,1.1c0.7,0.8,1.3,1.9,0.9,3.2C63.4,15.5,61.9,16.1,60.1,15.6z"/>
			<path d="M71.7,12.4c0.8-1.3,0.9-1.6,0.2-2.1l-0.3-0.2c0-0.1,0.1-0.3,0.2-0.3c0.6,0.4,1,0.7,1.6,1c0.5,0.3,0.9,0.6,1.6,0.9
				c0.1,0.1-0.1,0.3-0.2,0.3l-0.3-0.2c-0.8-0.4-0.9-0.2-1.7,1.1L70,17.4c-0.8,1.3-0.9,1.5-0.2,2.1l0.3,0.2c0,0.1-0.1,0.3-0.2,0.3
				c-0.6-0.4-1-0.7-1.5-1c-0.5-0.3-1-0.6-1.6-0.9c-0.1-0.1,0-0.3,0.2-0.3l0.3,0.2c0.8,0.4,0.9,0.2,1.7-1.1L71.7,12.4z"/>
			<path d="M78,24.2c-1.1,1-1.3,1.2-0.7,1.9l0.3,0.4c0,0.1-0.2,0.3-0.3,0.2c-0.5-0.6-0.9-1-1.3-1.4c-0.4-0.4-0.8-0.8-1.4-1.5
				c0-0.1,0.1-0.3,0.3-0.2l0.4,0.4c0.6,0.6,0.8,0.5,2-0.6l4.8-4.5c0.3-0.3,0.3-0.3,0-0.6l-0.5-0.6c-0.4-0.5-1-1-1.5-1.1
				c-0.5,0-0.8,0.1-1.2,0.2c-0.1,0-0.2-0.2-0.2-0.3c0.6-0.3,1.5-0.8,2-1.1c0.1,0,0.2,0.1,0.2,0.2c-0.3,0.4,0.1,0.7,0.5,1.2l4,4.4
				c0.5,0.6,0.7,0.7,1.1,0.6c0.1,0,0.2,0.2,0.1,0.2c-0.6,0.3-1.5,1-1.8,1.4c-0.1,0-0.3-0.1-0.3-0.3c0.2-0.3,0.6-0.7,0.5-1
				c0-0.4-0.3-0.9-0.9-1.5l-0.7-0.8c-0.3-0.3-0.3-0.3-0.7,0L78,24.2z"/>
			<path d="M85.8,34.1c0.2-0.2,0.3-0.3,0.1-0.7l-1-2c-0.2-0.3-0.2-0.4-0.6-0.4l-1.6,0.2c-0.7,0.1-1.1,0.2-1.2,0.2
				c-0.2,0.1-0.2,0.2-0.1,0.5l0.2,0.5c0,0.1-0.2,0.2-0.3,0.1c-0.1-0.4-0.3-0.8-0.6-1.4c-0.2-0.4-0.5-0.9-0.6-1.3
				c0-0.1,0.2-0.2,0.3-0.2l0.2,0.4c0.2,0.3,0.5,0.5,1,0.5c0.7-0.1,1.8-0.1,3.5-0.2l4.2-0.3c0.6,0,0.9-0.1,1-0.2
				c0.2,0.3,0.6,0.4,0.8,0.5c0,0.1,0.1,0.2,0,0.3c-0.5,0.5-1,1-1.5,1.4l-4.5,4.3c-1,0.9-1.1,1.2-0.9,1.8l0.1,0.4
				c0,0.1-0.2,0.2-0.3,0.2c-0.2-0.6-0.4-1-0.7-1.6c-0.3-0.6-0.6-1.1-0.8-1.5c0-0.1,0.2-0.2,0.3-0.2l0.2,0.4c0.2,0.3,0.3,0.4,0.5,0.4
				c0.1-0.1,0.4-0.2,0.6-0.5L85.8,34.1z M85.7,30.9c-0.4,0-0.4,0.1-0.2,0.4l0.8,1.6c0.2,0.4,0.2,0.4,0.5,0.1l1.8-1.7
				c0.3-0.3,0.6-0.5,0.7-0.7l0,0c-0.1,0-0.5,0-0.9,0.1L85.7,30.9z"/>
			<path d="M84.9,44.1c-0.2-1.2,0.1-2,0.2-2.3c0.3-0.2,1.3-0.6,2-0.7c0.1,0.1,0.2,0.3,0.1,0.3c-0.7,0.3-2,1.1-1.8,2.8
				c0.2,1.2,1.1,1.7,1.9,1.6c0.6-0.1,1.3-0.3,1.9-1.5l0.7-1.5c0.4-0.8,1.1-1.8,2.3-1.9c1.4-0.2,2.7,0.7,2.9,2.6c0.1,0.5,0.1,1,0,1.4
				c0,0.2,0,0.4,0,0.5c-0.3,0.2-1.1,0.4-1.7,0.5c-0.1,0-0.2-0.3-0.1-0.4c0.7-0.3,1.6-0.8,1.3-2.2c-0.2-1.4-1.2-1.6-1.9-1.5
				c-0.8,0.1-1.3,0.9-1.6,1.5l-0.6,1.3c-0.4,1-1.1,2-2.5,2.2C86.4,47,85.1,46,84.9,44.1z"/>
		</g>
		<g>
			<path d="M13.3,60.3c1-0.4,1.3-0.5,1.1-1.2l-0.1-0.5c0-0.1,0.3-0.2,0.3-0.1c0.3,0.7,0.7,1.6,1.2,2.9c0.3,0.9,0.6,1.7,0.5,2.5
				c-0.1,0.7-0.5,1.4-1.3,1.7c-1,0.4-1.7,0-2.4-0.7c-0.1,0-0.1,0.2-0.1,0.3c0.1,0.8-0.1,2.1-1.6,2.7c-1.6,0.6-3.1-0.2-4-2.7
				c-0.1-0.4-0.4-1.1-0.6-1.7C6,63,5.8,62.6,5.6,62.1c0-0.1,0.2-0.2,0.3-0.2l0.1,0.2c0.4,0.7,0.6,0.7,2,0.1L13.3,60.3z M8.7,63.3
				c-0.5,0.2-1.2,0.5-1.4,0.8c-0.2,0.4-0.1,0.8,0,1.2c0.5,1.2,1.4,2,2.7,1.4c1.1-0.4,2.1-1.4,1.3-3.6c-0.3-0.7-0.4-0.8-0.7-0.7
				L8.7,63.3z M11.9,62.2c-0.4,0.1-0.4,0.2-0.1,0.9c0.6,1.4,1.3,2,2.6,1.5c1.3-0.5,1.5-1.7,1.1-2.7c-0.1-0.3-0.2-0.5-0.3-0.6
				C15,61.1,15,61,14.7,61.1L11.9,62.2z"/>
			<path d="M17.7,70.5c1.2-0.9,1.4-1.1,0.9-1.8l-0.1-0.2c0-0.1,0.2-0.2,0.3-0.2c0.4,0.5,0.6,0.9,1,1.4l1.7,2.2
				c0.6,0.8,1.1,1.4,1.2,1.6c-0.1,0.2-0.9,0.9-1.4,1.4c-0.1,0-0.3-0.2-0.2-0.3c0.4-0.6,0.8-1,0.4-1.7c-0.1-0.3-0.4-0.7-0.8-1.2
				l-0.6-0.8c-0.3-0.4-0.3-0.3-0.7,0L17,72.6c-0.3,0.2-0.3,0.3,0,0.6l0.5,0.7c0.4,0.5,0.7,0.8,0.8,0.9c0.2,0.1,0.3,0.1,0.6,0
				l0.6-0.3c0.1,0,0.3,0.2,0.2,0.3c-0.3,0.2-0.8,0.5-1.2,0.8c-0.4,0.3-0.8,0.7-1.1,0.9c-0.1,0-0.3-0.2-0.2-0.3l0.4-0.4
				c0.2-0.2,0.3-0.4,0.2-0.7c-0.1-0.2-0.3-0.5-0.6-0.9l-0.5-0.7c-0.3-0.4-0.3-0.4-0.6-0.1l-1.7,1.2c-0.6,0.5-1,0.8-1.1,1.1
				c0,0.2,0,0.6,0.8,1.6c0.7,0.9,1,1.2,1.3,1.4c0.3,0.1,0.9,0.1,1.8,0c0.1,0,0.2,0.2,0.1,0.4c-0.5,0.2-1.6,0.6-2,0.7
				c-0.8-1.1-1.5-2.1-2.3-3.2l-0.8-1.1c-0.4-0.5-0.7-0.9-1.2-1.6c0-0.1,0.2-0.3,0.3-0.2l0.3,0.4c0.6,0.6,0.8,0.6,2-0.4L17.7,70.5z"
				/>
			<path d="M24.9,78.7c0.8-1.1,0.9-1.4,0.5-1.8L25,76.6c0-0.1,0.1-0.3,0.2-0.3c0.7,0.4,1.5,1,2.7,1.8c0.7,0.5,1.4,1.1,1.7,1.8
				c0.4,0.7,0.4,1.5-0.2,2.4c-0.8,1.1-2.2,1.1-2.9,0.9c-0.1,0-0.1,0.2-0.1,0.3c-0.2,2.2-0.2,3.6,0.1,4.9c0.1,0.3,0.3,0.7,0.6,0.9
				c0,0.1,0,0.2-0.1,0.2c-0.1,0-0.3-0.2-0.6-0.3c-1-0.7-1.4-1.5-1.4-3.3c0-0.7,0.1-1.8,0.1-2.6c0-0.4-0.1-0.6-0.6-1
				c-0.5-0.4-0.6-0.4-0.7-0.1l-1.1,1.5c-0.9,1.2-1,1.4-0.4,2l0.2,0.2c0,0.1-0.1,0.3-0.2,0.3c-0.5-0.4-0.9-0.7-1.4-1.1
				c-0.5-0.4-0.9-0.7-1.5-1c0-0.1,0.1-0.3,0.2-0.3l0.3,0.2c0.7,0.4,0.9,0.3,1.8-1L24.9,78.7z M24.6,81.1c-0.2,0.2-0.3,0.3-0.3,0.4
				c0,0.1,0.2,0.2,0.8,0.7c0.4,0.3,0.9,0.6,1.4,0.6c0.5,0,1.1-0.2,1.7-1c0.7-0.9,0.8-2.2-0.6-3.2c-0.7-0.5-0.8-0.5-1-0.2L24.6,81.1z
				"/>
			<path d="M39.7,92.8c-0.2,0.6-0.2,0.9,0,1.1c0,0.1,0,0.1-0.1,0.2c-0.2-0.1-0.4-0.1-0.7-0.1c-0.8,0-1.9-0.2-2.6-0.5
				c-1.7-0.5-3-1.5-3.7-2.9c-0.6-1.1-0.6-2.4-0.2-3.6c0.4-1.2,1.2-2.3,2.3-2.9c1.3-0.7,2.8-0.9,5-0.2c0.8,0.3,1.5,0.7,1.7,0.8
				c0.2,0.1,0.6,0.4,0.8,0.4c-0.2,0.5-0.3,1.2-0.5,2.1c-0.1,0.1-0.3,0-0.4-0.1c0.1-1.6-0.8-2.5-2.2-2.9c-2.7-0.9-4.5,0.6-5.2,2.7
				c-0.9,2.7-0.2,5.2,2.6,6.2c0.9,0.3,1.4,0.3,1.7,0.1c0.1-0.1,0.3-0.3,0.4-0.7l0.2-0.6c0.4-1.2,0.4-1.3-0.5-1.6l-0.6-0.3
				c-0.1-0.1,0-0.3,0.1-0.3c0.4,0.2,1.2,0.4,2,0.7c0.5,0.2,1,0.3,1.5,0.4c0.1,0.1,0,0.3-0.1,0.4L41,91c-0.6-0.1-0.8,0.3-1,1
				L39.7,92.8z"/>
			<path d="M47.2,87.7c0-1.5,0-1.7-0.9-1.8l-0.2,0c-0.1-0.1-0.1-0.3,0-0.4c0.6,0,1.1,0,1.7,0l2.8,0c0.9,0,1.8,0,2,0
				c0.1,0.3,0.2,1.3,0.2,2c-0.1,0.1-0.3,0.1-0.4,0c-0.2-0.7-0.3-1.2-1.1-1.4C51,86,50.5,86,49.9,86l-1.1,0c-0.4,0-0.4,0-0.4,0.6
				l0,2.9c0,0.4,0,0.4,0.5,0.4l0.8,0c0.6,0,1.1,0,1.2-0.1c0.2-0.1,0.3-0.1,0.4-0.5l0.1-0.6c0.1-0.1,0.3-0.1,0.4,0
				c0,0.4-0.1,0.9-0.1,1.5c0,0.5,0.1,1.1,0.1,1.4c-0.1,0.1-0.3,0.1-0.4,0L51.3,91c-0.1-0.3-0.2-0.5-0.5-0.6
				c-0.2-0.1-0.6-0.1-1.1-0.1l-0.9,0c-0.4,0-0.5,0-0.5,0.4l0,2.1c0,0.8,0,1.3,0.3,1.5c0.2,0.2,0.5,0.3,1.8,0.3
				c1.1,0,1.6-0.1,1.9-0.2c0.3-0.1,0.7-0.7,1-1.4c0.1-0.1,0.3,0,0.4,0.1c-0.1,0.5-0.5,1.6-0.7,2c-1.3,0-2.6,0-3.9-0.1l-1.3,0
				c-0.6,0-1.1,0-2,0c-0.1,0-0.1-0.3,0-0.4l0.5,0c0.8-0.1,0.9-0.3,0.9-1.8L47.2,87.7z"/>
			<path d="M67.2,85.3c-0.2-0.6-0.9-2.3-0.8-2.9c0-0.1,0.2-0.3,0.7-0.6l0.2-0.1c0.1-0.1,0-0.3-0.2-0.3c-0.5,0.2-0.8,0.3-1.4,0.6
				c-0.5,0.2-1,0.4-1.6,0.6c-0.1,0.1,0,0.3,0.1,0.4l0.2-0.1c0.6-0.1,0.8-0.1,1,0c0.4,0.3,1.1,2.1,1.3,2.7l1.1,2.9
				c0.1,0.3,0.2,0.5,0.2,0.6l0,0c-0.9-0.4-1.9-0.9-3.2-1.6l-1.9-1c-0.6-0.3-2.9-1.6-3.5-2.1c-0.2,0.1-0.4,0.2-0.6,0.3
				c-0.2,0.1-1,0.4-1.6,0.5c-0.1,0.1,0,0.3,0.1,0.4l0.2-0.1c0.3-0.1,0.7-0.1,1,0c0.4,0.2,0.5,0.5,0.7,0.9l1.5,4
				c0.2,0.7,0.9,2.3,0.9,2.9c0,0.2-0.2,0.3-0.5,0.5l-0.4,0.2c-0.1,0.1,0,0.3,0.2,0.3c0.5-0.2,0.8-0.4,1.4-0.6c0.5-0.2,1-0.4,1.6-0.6
				c0.1-0.1,0-0.3-0.1-0.4l-0.4,0.1c-0.4,0.1-0.7,0.1-0.8,0c-0.4-0.3-1.1-2.1-1.3-2.8l-1.1-3c-0.2-0.4-0.3-0.7-0.3-0.9l0,0
				c0.4,0.2,1.8,1,2.3,1.3l4.5,2.4c1.7,0.9,2.3,1.2,2.5,1.4c0.2-0.1,0.2-0.2,0.2-0.2c-0.2-0.3-0.8-2-0.9-2.4L67.2,85.3z"/>
			<path d="M78.8,85c-0.9,0.8-1.8,1-2.1,1.1c-0.3-0.1-1.2-0.8-1.6-1.3c0-0.1,0.1-0.3,0.2-0.3c0.6,0.4,2,1.2,3.3,0.1
				c0.9-0.8,0.9-1.8,0.3-2.5c-0.4-0.5-1-1-2.2-0.8L75,81.4c-0.9,0.1-2.1,0-2.8-0.9c-0.9-1.1-0.8-2.6,0.7-3.9
				c0.3-0.3,0.8-0.6,1.2-0.7c0.2-0.1,0.4-0.2,0.5-0.3c0.3,0.2,1,0.7,1.3,1.2c0,0.1-0.1,0.3-0.3,0.3c-0.6-0.4-1.5-0.9-2.6,0
				c-1.1,0.9-0.7,1.8-0.3,2.4c0.5,0.7,1.5,0.7,2.1,0.6l1.4-0.2c1.1-0.2,2.3-0.1,3.2,1C80.4,82.1,80.2,83.8,78.8,85z"/>
			<path d="M80.4,72.2c-1.3-0.9-1.5-1-2.1-0.4l-0.2,0.3c-0.1,0-0.3-0.1-0.3-0.2c0.4-0.6,0.7-1,1.1-1.5c0.3-0.5,0.6-0.9,1-1.5
				c0.1,0,0.3,0.1,0.3,0.2L80,69.4c-0.4,0.7-0.3,0.9,1,1.8l4.3,3c1.3,0.9,1.5,1,2,0.3l0.3-0.3c0.1,0,0.3,0.1,0.3,0.2
				c-0.5,0.6-0.8,1-1.1,1.5c-0.4,0.5-0.6,0.9-1,1.5c-0.1,0-0.3-0.1-0.3-0.2l0.2-0.3c0.4-0.8,0.3-0.9-1-1.8L80.4,72.2z"/>
			<path d="M92.4,66c-0.4,1.2-1.1,1.7-1.3,2c-0.4,0.1-1.4-0.1-2.1-0.4c-0.1-0.1,0-0.3,0.1-0.3c0.8,0.1,2.3,0,2.9-1.6
				c0.4-1.2-0.1-2-0.9-2.3c-0.6-0.2-1.3-0.4-2.3,0.4l-1.3,1c-0.7,0.5-1.8,1-2.9,0.6c-1.3-0.5-2-1.9-1.3-3.7c0.2-0.4,0.4-0.9,0.7-1.2
				c0.1-0.2,0.2-0.3,0.3-0.5c0.4,0,1.2,0.2,1.8,0.4c0.1,0.1,0,0.3-0.1,0.4c-0.7-0.1-1.8,0-2.3,1.3c-0.5,1.3,0.3,2,0.9,2.2
				c0.8,0.3,1.6-0.1,2.1-0.5l1.1-0.8c0.9-0.7,2-1.2,3.3-0.7C92.5,62.7,93.1,64.2,92.4,66z"/>
		</g>
	</g>
	<path d="M49.6,0.1C22.3,0.1,0.1,22.3,0.1,49.6c0,27.4,22.2,49.6,49.6,49.6C77,99.2,99.2,77,99.2,49.6C99.2,22.3,77,0.1,49.6,0.1z
		 M49.6,97.7c-26.5,0-48.1-21.5-48.1-48.1S23.1,1.6,49.6,1.6s48.1,21.5,48.1,48.1C97.7,76.2,76.2,97.7,49.6,97.7z"/>
	<g>
		<path d="M61.3,73.7c-1,0.8-1.6,1.9-2.1,2.8c0.9,0.7,3,1.6,6.6,2.2c1.6-0.9,2.8-1.7,4.2-2.8c-1.3-0.3-2.5-1-3.3-1.5
			C65.2,73.6,63.2,72.2,61.3,73.7z"/>
		<path d="M38.2,67.1c-1.2-0.3-1.9-0.3-3.7,0.3c-3.1,1-7.9,6.4-7.9,6.4c1.4,1.4,3,2.6,4.7,3.7c1.3-1.7,4.9-5.8,8.3-5.8
			c1.8,0,2.8,0.8,4.3,1.7c0.1-0.2,0.3-0.4,0.4-0.6C41.5,71.5,38.2,67.1,38.2,67.1z"/>
		<path d="M48.7,71.8c-1.5,0.2-2.5,1.4-3.3,2.7c2.8,1.9,5.3,4.1,8.9,5.2c2.8,0.8,3.9,1.2,6.8,1.2c1.3-0.5,2.5-1,3.7-1.7
			c-1.8-0.2-4.1-1.1-6.2-2C55.5,75.7,51.7,71.4,48.7,71.8z"/>
	</g>
	<path d="M40.2,73.5c-4.2,0-5.8,3.5-7.2,5c4.9,2.8,10.6,4.5,16.6,4.5c3.2,0,6.3-0.5,9.2-1.3c-1.9-0.1-4.1-0.6-6.2-1.4
		C48.1,78.5,43.2,73.5,40.2,73.5z"/>
	<path d="M69.9,70.7c-2.8-3.5-4.9-4.2-6-3.9c-1.1,0.3-0.8,1.1-2.1,2.6c-1.2,1.4-3.8,2.9-4.4,3.3c0.4,0.5,1,1.1,1.2,1.3
		c1.3-1.2,3-2.4,4.7-2.4c3,0,3.8,2.3,7.7,3.7c0.8-0.7,1.7-1.4,2.4-2.2C73.4,73.1,71.5,72.8,69.9,70.7z"/>
	<g>
		<path d="M63.4,41.9c-0.1-0.1,0-0.4-0.1-0.5c-0.1-0.6-0.4-1.1-0.4-1.8c-0.1-0.4,0.3-0.6,0.6-0.7c0.2-0.4,0.1-0.8,0-1.1
			c-0.1-0.6-0.9-0.7-0.9-1.3c0-0.5-0.3-0.8-0.3-1.4C62,34.3,62,33.5,62,32.8c-0.2-0.8-0.2-1.6-0.3-2.5c-0.1-1-0.3-2-0.5-3
			c-0.1-0.9-0.4-1.7-0.8-2.4c-0.1-0.5-0.6-0.9-0.3-1.5c0.5-0.7,0.9-1.4,1.1-2.2c0.2-0.4,0.2-1,0.3-1.5c0-0.4,0.1-0.9,0-1.2
			c-0.1-0.1-0.1,0-0.2,0c-0.2,0.7-1,1-1.5,1.4c-0.8,0.3-1.7,0.2-2.6,0.3c-0.6,0-1,0.5-1.6,0.2c-0.3-0.2-0.6-0.3-0.9-0.5
			c-0.7,0-1.4,0-2,0c-1,0.1-1.7-0.5-2.7-0.4c-1.2,0-2.2,0.6-3.5,0.5c-1.1-0.3-2.2,0.1-3.1,0.6c-0.3-0.1-0.7-0.3-1.1-0.3
			c-1-0.4-2.2,0.3-3-0.5c-0.4-0.4-0.6-0.9-0.6-1.4c-0.2,0.1-0.2,0.3-0.3,0.5c-0.2,0.4-0.4,0.8-0.4,1.3c-0.1,0.6,0.1,1.2,0.2,1.8
			c0.1,1,0.8,1.8,0.6,2.9c-0.2,0.5-0.4,1-0.5,1.5c-0.4,0.5-0.3,1.2-0.4,1.8c-0.4,1.1-0.1,2.3,0,3.4c-0.4,1.3-0.6,2.8-0.8,4.2
			c-0.1,0.9-0.1,1.9-0.4,2.8c-0.5,0.5-0.9,1-0.8,1.8c0.1,0.4,0.3,0.7,0.4,1c0.1,0.8,0.1,1.5,0,2.2c0.1,0.6-0.6,0.8-0.7,1.3
			c-0.1,0.5,0.2,0.9,0.6,1.2c0.2,0.3,0.1,0.8,0.2,1.2c0.1,0.9,0.3,1.9,0.4,2.8c0.2,1.4,0.4,2.8,0.7,4.1c0.3,1.6,0.7,3.2,1.1,4.7
			c0.5,1.1,0.8,2.3,1.2,3.5c0.3,0.9,0.9,1.8,0.9,2.8c0,0.1,0.1,0.2,0.1,0.3c0.1,0.7-0.5,1.2-0.4,1.9c0,0,2,3.6,4.5,5.1
			c1-1.1,2.4-2.1,4.1-2.1c2.9,0,5.6,3,8.4,5.1c0.2-0.2,0.4-0.5,0.7-0.7c-0.9-1.3-5-6-8.4-6.5c0,0,0.3-0.7-0.1-1
			c-0.3-0.4-0.2-0.7-0.3-1.1c0-0.2-0.1-0.5,0.1-0.7c0.5,0.1,0.7,0.7,1,1.1c0,0,0.1,0,0.1,0c0,0,0.1,0,0.1-0.1c0.1-0.5,0.6-0.8,1-1.1
			c0.1,0,0.2,0,0.2,0.1c0.1,0.6,0,1.3,0.4,1.7c0.1,0.2,0,0.3-0.1,0.5c0,0.4-0.3,0.3-0.3,0.3c2.5,1.2,3.9,2.7,5.4,4.4
			c1-0.7,4.4-2.9,4.4-5.2c0-0.8-0.4-0.7-0.6-1.1c-0.3-0.3-0.6-0.6-0.7-1c-0.4-0.7-0.7-1.6-0.5-2.5c0.3-0.7,0.3-1.4,0.6-2.1
			c0.4-1.3,0.7-2.6,1-3.8c0.5-1.7,0.9-3.5,1.2-5.3c0.3-0.6,0.2-1.3,0.4-1.9c0.2-0.6,0.1-1.4,0.3-2c0.1-0.5,0-1.1,0.2-1.5
			c0.1-0.3,0-0.6,0.1-0.8c-0.1-0.4,0.4-0.3,0.5-0.7c0.3-0.1,0.4-0.5,0.5-0.8C64.3,42.8,63.7,42.4,63.4,41.9z M61.8,37
			c0.2,0.1,0.6,0.1,0.6,0.4c0.3,0.1,0.3,0.5,0.5,0.7c0,0.2,0,0.4-0.1,0.5c-0.5,0.1-1-0.3-1.3-0.6C61.3,37.6,61.6,37.3,61.8,37z
			 M58.8,43.8c-0.1,0.8,0,1.7-0.1,2.6c-0.1,0.1,0,0.3-0.1,0.4c-0.2,0.9,0,1.8-0.2,2.6l-0.1,0c-0.3-0.4-1-0.5-1-1
			c0.4-1.5,0.3-3.1,0.4-4.6c0.2-1.3,0.1-2.6,0.1-3.9c0,0,0-0.1,0.1-0.1c0.4,0.1,0.6,0.5,0.9,0.8C58.9,41.6,58.7,42.7,58.8,43.8z
			 M39.7,32.8c-0.4,0-0.4-0.5-0.5-0.7c-0.1-0.2-0.1-0.4-0.1-0.6c0.1-0.1,0.2-0.3,0.2-0.5c-0.1-0.1-0.4,0-0.4-0.3
			c0-0.3-0.1-0.7,0.2-0.9c0.3-0.2,0.8-0.1,1.1-0.3c0-0.1,0-0.1-0.1-0.1c-0.4,0-0.7,0.2-1,0.2c-0.1-0.1-0.1-0.2-0.2-0.3
			c0-0.9-0.1-1.8,0.2-2.6c-0.1-0.2-0.1-0.4,0-0.5c0.4-0.1,0.6,0.5,1,0.4v-0.1c-0.3-0.2-0.5-0.5-0.9-0.6c-0.2-0.3-0.1-0.6,0-0.9
			c0.1-0.1,0.1-0.3,0.3-0.2c0.3,0.1,0.4,0.4,0.8,0.5c0.1-0.1,0.1-0.2,0.1-0.3c-0.3-0.4-1.1-0.5-0.7-1.1c0.1-0.2,0.2-0.5,0.4-0.6
			c0.3,0.1,0.5,0.4,0.7,0.6l0.1,0c-0.2-0.2-0.4-0.5-0.3-0.9c0.2-0.2,0.4,0.1,0.6,0.2l0.3,0.1c0.3,0.2,0.7,0.3,0.7,0.7
			c0.2,0.4,0.3,0.8,0.7,1.1c0.1,0.2,0.3,0.4,0.4,0.6C43.1,26,43,26,42.8,26c-0.3-0.2-0.5-0.6-0.7-0.9C42,25,42,25.1,42,25.2
			c0.1,0.3,0.2,0.6,0.4,0.9l0,0.2c-0.5,0-0.9-0.4-1.2-0.8c-0.1-0.1-0.2-0.1-0.2,0c-0.1,0.1,0,0.2,0,0.3c0.2,0.4,0.4,0.8,0.9,1
			c0.1,0.1,0.1,0.2,0.1,0.3c-0.1,0.2-0.3,0.1-0.4,0.1c-0.3-0.2-0.6-0.5-0.8-0.7l-0.1,0c0,0.2,0.2,0.4,0.3,0.5
			c0.2,0.4,0.9,0.4,0.7,0.9c-0.1,0.1,0,0.2-0.1,0.3c-0.7-0.1-1.7-0.4-2.3,0.2c0,0.1,0,0.2,0.1,0.2c0.6,0,1.2,0,1.8,0.4
			c0.1,0.1,0.2,0.3,0.2,0.4c-0.1,0.1-0.3,0.1-0.4,0.1c-0.2,0.2-0.4,0.3-0.7,0.5c0,0,0,0.1,0.1,0.1c0.3-0.1,0.6-0.3,1-0.4
			c0.1,0,0.2,0,0.3,0.1c0,0.2-0.2,0.2-0.3,0.3c-0.2,0.3-0.7,0.5-0.7,0.9l0.1,0c0.5-0.1,0.7-0.7,1.2-0.6c0.1,0.1,0.2,0.2,0.1,0.3
			c-0.6,0.4-1.4,0.7-1.5,1.5c0,0.1,0,0.1,0,0.1c0.2,0,0.2-0.2,0.3-0.3c0.5-0.4,1-0.9,1.6-0.9c0.1,0,0.1,0,0.2,0.1
			c0,0.3-0.5,0.5-0.5,0.9c-0.1,0.3-0.2,0.5-0.3,0.8c0,0.1,0.1,0.1,0.1,0c0.3-0.5,0.6-1.2,1.2-1.4c0,0.2,0.2,0,0.3,0.1
			c0.3,0.1,0.6,0.2,0.9,0.4c-0.1,0.7-0.3,1.5,0,2.1c0.1-0.1,0-0.3,0.1-0.4c0-0.5,0.3-0.9,0.4-1.4c0-0.1,0.2-0.2,0.3-0.1
			c0.3,0.1,0.3,0.4,0.5,0.6c0.2-0.2-0.1-0.5,0-0.8c0.1-0.2,0.3-0.1,0.5-0.1c0.1,0.1,0.1,0.1,0.2,0.1c0.1-0.1,0.1-0.2,0.1-0.3
			c0.3-0.3,0.5-0.8,0.9-0.7l0.1,0.1c0,0.3,0,0.7-0.1,1c-0.1,0-0.2-0.3-0.4-0.2c-0.1,0.1-0.1,0.3,0,0.4c0.1,0.3,0.3,0.6,0.4,0.9
			c0,0.1,0.1,0.2,0,0.3c-0.4,0-0.5-0.4-0.7-0.6c-0.1-0.1-0.2,0-0.2,0.2c-0.1,0.5,0.3,0.8,0.6,1.1c0.1,0,0.2,0.1,0.3,0.2
			c0,0.2-0.2,0.3,0,0.4l0.2,0.2c-0.2,0.2-0.5,0-0.7-0.1c-0.5-0.3-0.9-0.8-1-1.4c0-0.1-0.1-0.1-0.2,0c-0.2,0.4,0,0.7,0.2,1
			c0.2,0.2,0.5,0.4,0.4,0.7c-0.1,0.1-0.3,0.2-0.4,0.1c-0.4-0.3-0.4-0.8-0.5-1.3c-0.1,0-0.1-0.1-0.2,0C45,34.2,45,34.5,45,34.7
			c-0.1,0.2,0.1,0.5-0.1,0.7c-0.2,0.1-0.6,0-0.9,0.1c-0.3-0.1-0.3-0.5-0.3-0.9c-0.1-0.1-0.1,0-0.2,0c-0.3,0.2-0.3,0.8-0.8,0.6
			c-0.3-0.2-0.7-0.3-0.9-0.6c-0.2-0.4,0.3-0.6,0.3-1c0.1-0.3,0.5-0.5,0.5-0.8c-0.2-0.1-0.4,0.2-0.5,0.3c-0.3,0.4-0.5,0.8-0.7,1.2
			c0,0.1-0.1,0.2-0.3,0.1c-0.5-0.4-1.4-0.7-1.3-1.5c0.1-0.1,0.2-0.3,0.3-0.5C40,32.5,39.9,32.8,39.7,32.8z M49.5,34.3
			c0.1,0,0.1,0,0.2,0c0.2-0.3,0.1-0.8,0.2-1.2c0.1-1,0.2-1.9,0.3-2.9c0.1-0.1,0-0.3,0.2-0.4c0.3,0.1,0.6,0.1,0.8,0.4
			c0.1,1.3,0,2.6-0.4,3.8c-0.2,0.6-0.6,1-0.9,1.6c-0.2,0.2-0.2,0.5-0.5,0.6c-0.8-1.2-1.4-2.5-1.4-4.1c0-0.6-0.3-1.3,0.1-1.8
			c0.4-0.1,0.7-0.5,1.1-0.5l0.1,0.2C49.4,31.5,49.1,33,49.5,34.3z M53.2,38.4c-0.7-0.3-1.3-1-1.4-1.8c0-0.1,0.1-0.1,0.2-0.1l0.7,0.7
			c0.5,0.3,1.2,0.7,1.4,1.3c0,0.2,0.1,0.5-0.1,0.6c-0.2,0.3-0.6,0.4-1,0.4c-0.7-0.1-1.3-0.6-1.7-1.3c-0.1-0.5-0.1-1,0.1-1.4
			c0.2,0,0.1,0.3,0.2,0.4c0.3,0.6,0.8,1.3,1.5,1.5C53.2,38.5,53.2,38.4,53.2,38.4z M52.9,31.8c-0.1,0.1-0.3,0.3-0.5,0.4
			c-0.1-0.2,0.1-0.5,0.2-0.7c0-0.1,0.1-0.1,0-0.2c-0.1-0.1-0.3,0-0.3-0.2c0-0.1,0-0.2,0.1-0.3l0.2,0c0.3,0.3,0.7,0.6,1.1,1
			c0,0.3,0,0.6-0.1,0.8c0,0.3-0.2,0.6-0.3,0.9c0,0.1,0.1,0.1,0.2,0c0.3-0.4,0.5-0.9,0.8-1.3c0.4-0.1,0.8,0,1.2-0.1
			c0.3,0.2,0.1,0.6,0.3,0.8c0.1,0.2,0,0.5,0.2,0.6c0.3,0,0.2-0.4,0.3-0.6c0.1-0.4,0-0.7,0-1.1c-0.1-0.1,0-0.2,0-0.2
			c0.1-0.1,0.2-0.1,0.4-0.1c0.2,0.1,0.4,0.5,0.7,0.7c0.1-0.1,0-0.2,0-0.3c0-0.3-0.4-0.5-0.4-0.8c0-0.1,0.1-0.2,0.2-0.1
			c0.3,0.1,0.2,0.5,0.5,0.7c0.1,0,0.1-0.2,0-0.3c-0.1-0.3-0.3-0.6-0.3-0.9c0.1-0.1,0.2,0,0.3,0c0.4,0.2,0.7,0.3,1.1,0.6
			c0.4,0.3,0.5,0.9,0.6,1.3c-0.1,0.4,0.2,0.9-0.1,1.2c-0.3,0.1-0.5,0.4-0.9,0.5c-0.1-0.1-0.1-0.3-0.2-0.5c-0.3-0.3-0.4-0.9-0.9-0.8
			c-0.2,0.2,0.1,0.4,0.2,0.7c0,0.4,0.5,0.8,0.1,1.2c-0.4-0.2-0.6,0.4-1,0.3c-0.5-0.1-0.9,0.7-1.3,0.1c0-0.6,0-1.2-0.1-1.8
			c-0.1-0.2-0.1-0.4-0.3-0.5c-0.2,0.2,0,0.5-0.1,0.7c0,0.5-0.2,1-0.4,1.5c-0.1,0.1-0.3,0.2-0.5,0.2c0,0-0.1-0.1-0.1-0.1
			c0-0.3,0.1-0.6,0.2-0.9c0-0.1-0.1-0.1-0.2,0c-0.3,0.4-0.7,0.9-1.3,0.8c-0.1-0.1-0.2-0.1-0.2-0.2c0.2-0.3,0.6-0.5,0.5-0.9
			c-0.3,0-0.4,0.3-0.7,0.4c-0.1-1,0.9-1.5,1-2.5C53,31.9,52.9,31.8,52.9,31.8z M52.8,27.2c0.4-0.6,1.1-0.7,1.8-0.9
			c0.7,0,1.5,0.1,2,0.7c0.5,0.7,0.7,1.7,0.4,2.6c-0.4,0.9-1.3,1.5-2.3,1.5c-0.4,0.1-0.8-0.1-1.1-0.2c-0.5-0.2-0.7-0.8-1-1.2
			C52.3,28.8,52.5,27.9,52.8,27.2z M60.1,38.4c0.1-0.1,0.1-0.1,0.2-0.2c0.2,0,0.4,0.1,0.6,0.2c0.2,0.3,0.2,0.7,0.1,1
			c-0.4,0.2-0.7-0.1-1-0.3C60,38.8,60.2,38.6,60.1,38.4z M60.4,37.9c-0.5-0.1-0.8-0.5-1.1-0.9c-0.1-0.4-0.4-0.7-0.4-1.1
			c0-0.3-0.1-0.6,0-0.8h0c0.3,0.6,0.9,1.2,1.4,1.8c0.2,0.2,0.4,0.2,0.5,0.4C60.8,37.5,60.7,37.8,60.4,37.9z M57.1,46.6
			c-0.5,0.1-0.7-0.4-1.1-0.6c-0.4-0.5-0.9-1.1-0.9-1.9c0-0.1,0.1-0.1,0.2-0.1c0.3,0.4,0.6,0.9,1.1,1.1c0.1,0,0.2,0,0.2-0.1
			c-0.1-0.4-0.4-0.8-0.2-1.3c0.3,0,0.5,0.4,0.8,0.5c0.2,0.2,0.1,0.5,0.1,0.7C57.1,45.5,57.3,46.1,57.1,46.6z M56.9,55.7
			c0.1-1.2,0.3-2.3,0.3-3.5c0.1-0.2,0.4-0.2,0.7-0.2c0,0.2,0,0.4,0.1,0.6c0,1.1-0.2,2.3-0.1,3.4c0,0.5-0.2,0.9-0.2,1.4
			c-0.1,0.3-0.1,0.6-0.1,0.9c0,1-0.2,1.8-0.4,2.7c-0.1,0.2-0.1,0.6-0.4,0.6c-0.3-0.3-0.1-0.7-0.1-1c0.1-0.3,0-0.6,0.1-0.9
			C56.7,58.3,57.1,57.1,56.9,55.7z M56.6,63.8c0.2,0.5,0.3,1.1,0.5,1.6c0,0.3,0.1,0.5-0.1,0.7c-0.7-0.1-1.3,0.2-1.8,0.5
			c-0.2,0-0.3,0-0.4-0.1c-0.1-0.2,0-0.5,0-0.8c0.1-0.3,0-0.8,0.3-1c0.1-0.1,0.4-0.1,0.5-0.4c-0.3-0.2-0.7,0.1-0.9-0.3
			c-0.3-0.4-0.6-0.9-0.6-1.4c0.4-0.4,1.1-0.6,1.7-0.4c0.2,0.1,0.4,0.2,0.4,0.3C56.5,63,56.5,63.5,56.6,63.8z M55.6,67.1
			c0.1-0.4,0.6-0.4,0.9-0.6c0.1,0,0.3,0,0.3,0.1c-0.1,0.9-0.2,1.7-0.8,2.4c-0.1,0.1-0.1,0.1-0.2,0.1c-0.1-0.1-0.1-0.2,0-0.2
			C56,68.4,55.9,67.6,55.6,67.1z M54.3,68.6c-0.5-0.1-1.2-0.6-1.3-1.2c-0.1-0.1-0.1-0.3-0.1-0.4c0.3-0.3,0.7-0.3,1.1-0.3l0.1,0.1
			C54,67.3,53.8,68.1,54.3,68.6z M53.3,66.2c-0.3,0-0.5,0.3-0.9,0.3c-0.2-0.2-0.1-0.6-0.2-0.9c-0.1-0.9,0-1.9,0.8-2.5
			c0.1-0.1,0.3,0,0.4,0c0.3,0.3,0.4,0.7,0.6,1c0.1,0.3,0.3,0.5,0.4,0.8c0.2,0.4,0,0.9,0,1.3C54.1,66.3,53.7,66,53.3,66.2z M47,67.6
			c0.2-0.2,0.6-0.4,0.9-0.2c0.3,0.2,0.2,0.6,0.2,0.9c-0.3,0.6-0.8,1.1-1.4,1.3c-0.1,0-0.1,0-0.1-0.1c0-0.4,0.2-0.8,0.2-1.2
			C46.7,68,46.9,67.8,47,67.6z M48,67c-0.3,0-0.5-0.1-0.7-0.2c-0.3-0.1-0.3,0.3-0.6,0.4c-0.1,0.1-0.1,0.2-0.2,0.2
			c-0.1-0.2-0.1-0.6-0.1-0.9c-0.2-0.3-0.1-0.7,0.1-1c0.2-0.2,0.4-0.5,0.8-0.4c0.1-0.1,0.1-0.2,0.1-0.3c-0.1-0.2-0.4-0.1-0.5-0.1
			c-0.2,0.1-0.5,0.3-0.7,0.5c-0.3-0.4-0.2-0.9-0.3-1.3c0-0.4,0.1-1,0.5-1.2c0.3,0.2,0.8,0.1,1,0.6c0.5,0.8,1.2,1.5,1.3,2.4
			c0,0.6,0.1,1.2-0.2,1.6C48.3,67.2,48.2,67.1,48,67z M46.4,61.7c-0.9-0.5-1-1.4-0.9-2.3c0-0.1,0-0.4,0.2-0.4
			c0.2,0.1,0.1,0.3,0.2,0.5c0.5,0.8,1.4,1.3,2,2.1c0.6,0.3,0.8,1,0.8,1.6c0.1,0.2,0,0.4,0,0.6c-0.1,0-0.1-0.1-0.1-0.1
			C48.3,62.8,47.4,62,46.4,61.7z M42.4,37.3c0.3-0.1,0.4-0.4,0.6-0.5c0.2-0.2,0.4-0.5,0.7-0.8c0.1,0,0.3,0,0.3,0.1
			c0,0.4-0.2,0.7-0.2,1.1c-0.4,0.9-0.9,1.7-1.9,1.8c-0.3,0-0.5-0.1-0.7-0.3c0-0.4-0.2-0.7-0.1-1c0.1-0.7,0.5-1.3,0.9-1.9
			c0.1-0.1,0.4-0.3,0.5-0.1c-0.1,0.5-0.2,0.9-0.2,1.4C42.3,37.2,42.3,37.3,42.4,37.3z M44.5,42.5c0.6-0.4,1-1.1,1.4-1.6
			c0,0,0.1,0,0.1,0.1c0,1-0.6,1.9-1.2,2.7c-0.4,0.5-1.1,0.7-1.7,0.6c-0.5-0.1-0.5-0.6-0.7-0.9c0-0.4,0.1-0.7,0.3-1
			c0.5-0.4,1.3-0.8,1.6-1.4c0.1-0.1,0.2-0.2,0.3-0.1c0,0.7-0.4,1.2-0.7,1.8C44.2,42.8,44.3,42.6,44.5,42.5z M46,38.7
			c0.5-0.2,0.8-0.6,1.1-1c0-0.3,0.3-0.4,0.4-0.7c0.1,0,0.1,0,0.1,0.1c0,1-0.4,2-1.3,2.6c-0.2,0.1-0.4,0.1-0.6,0.1
			c-0.3-0.2-0.7-0.3-0.6-0.6c0-0.6,0.2-1.2,0.7-1.6c0.2-0.2,0.3-0.4,0.5-0.5c-0.1,0.4-0.2,0.8-0.2,1.2C46.2,38.4,45.9,38.5,46,38.7z
			 M48.7,48.3c0,0,0.1,0.1,0.1,0.1c0.1-0.2,0-0.5,0.2-0.6c0.1-0.1,0.2-0.1,0.3,0c0.4,0.3,0.2,0.9,0.2,1.3c0,0.5-0.2,0.9-0.3,1.3
			c0.1,0.1,0.2,0,0.3,0c0.4-0.5,0.3-1.2,0.5-1.8c0-0.1,0-0.3,0.1-0.4c0.1,0,0.1,0.1,0.2,0.1c0,0.4-0.1,0.8,0,1.2l0.1,0
			c0.4-0.5,0.2-1.3,0.5-1.9c0.1-0.3,0-0.7,0.1-1.1c0.2,0,0.2,0.3,0.3,0.5c0,0.3,0.1,0.4,0.2,0.6c0.2,1.4,0.5,3.3-0.8,4.2
			c-0.5,0.3-1.1,0.2-1.5,0c-0.4-0.2-0.5-0.6-0.7-1c-0.3-0.8-0.6-1.7-0.4-2.6c0.2-0.9,0.2-1.8,0.7-2.5c0.1,0.1,0,0.2,0,0.4
			C48.6,47,48.5,47.7,48.7,48.3z M52.8,45.5c-0.2-0.3-0.1-0.8-0.2-1.2c0-0.3,0.2,0,0.3,0.1c0.3,0.8,1.5,1,1.6,1.9
			c0.1,0.2,0.1,0.6,0,0.8c-0.3,0.3-0.7,0.5-1.2,0.4c-0.7-0.3-1.1-0.9-1.6-1.5c0-0.4-0.4-0.7-0.2-1.1c0.1,0,0.2,0.1,0.3,0.2
			c0.4,0.5,0.8,0.8,1.3,1.1c0.1,0,0.2,0,0.2-0.1C53.2,45.9,52.8,45.7,52.8,45.5z M52.1,53.6c-0.1-0.3-0.6-0.5-0.6-0.9
			c0-0.1-0.1-0.3,0.1-0.4c0.6,0.3,1.2,0.7,1.7,1.3c0.2,0.4,0.2,0.9-0.1,1.2c0,0.2-0.1,0.4-0.3,0.5c-0.2,0.1-0.4,0.1-0.6,0.1
			c-0.7-0.4-1.2-1.2-1.3-2h0.1c0.3,0.2,0.4,0.9,0.9,0.8C52.1,54,52.1,53.7,52.1,53.6z M53.3,52c-0.5-0.5-0.8-1.1-0.8-1.9
			c0-0.1,0.1-0.1,0.2-0.1c0.1,0.1,0.1,0.3,0.2,0.4c0.2,0.3,0.2,0.7,0.6,0.7c0.1-0.1,0.1-0.2,0-0.3c0-0.4-0.3-0.8-0.1-1.2h0.1
			c0.5,0.6,1.2,1.1,1,2c0,0.2-0.3,0.4-0.5,0.4C53.8,52.2,53.5,52.1,53.3,52z M46.1,51.1c0.4-0.4,0.6-0.9,0.9-1.3
			c0.1,0,0.1,0.1,0.2,0.1c0.1,1.1-0.4,2-1.3,2.5c-0.2,0.1-0.5,0.1-0.8,0.1c-0.2-0.2-0.2-0.4-0.4-0.5c-0.1-0.8,0.1-1.6,0.6-2.1
			c0.2-0.2,0.3-0.5,0.5-0.7c0.3,0.2,0.2,0.7,0.2,1c0,0.4-0.3,0.6-0.3,1C45.9,51.4,46,51.2,46.1,51.1z M46.9,52.9
			c0.2-0.4,0.6-0.6,0.8-0.9c0.1,0,0.2,0,0.3,0.1c0,0.7-0.4,1.2-0.8,1.8c0.2,0.2,0.3-0.2,0.6-0.1c0.4-0.3,0.4-0.9,0.7-1.3
			c0.1,0,0.2,0.1,0.3,0.2c0.4,0.9-0.2,1.8-0.6,2.5c-0.3,0.5-0.9,0.3-1.3,0.4c-0.2-0.1-0.5-0.1-0.6-0.4
			C46.2,54.2,46.7,53.6,46.9,52.9z M48.1,44.8c-0.1,0.4-0.2,0.7-0.3,1.1L47.7,46c0.1,0.1,0,0.3,0,0.4c-0.2,0.8-0.8,1.4-1.6,1.6
			c-0.3,0-0.5-0.1-0.8-0.3c-0.4-0.3-0.3-0.9-0.2-1.3c0.3-0.9,0.8-1.7,1.3-2.5c0.1,0,0.2-0.1,0.2,0c0.1,0.8,0,1.5-0.3,2.2
			c-0.1,0.2,0,0.3,0.2,0.4c0.3-0.1,0.3-0.4,0.6-0.6l0-0.1c0.3-0.6,0.7-1.1,0.8-1.8c0-0.1,0.1-0.1,0.2-0.1
			C48.2,44.2,48.1,44.5,48.1,44.8z M43.9,40.4c-0.3,0.3-0.7,0.6-1.1,0.5c-0.1,0-0.3-0.1-0.3-0.2c-0.1-0.8,0.6-1.2,0.7-1.9
			c0.1-0.2,0.3-0.4,0.5-0.4c0.1,0.5-0.1,0.9-0.2,1.3c0.1,0.1,0.3-0.2,0.4-0.3c0.3-0.6,0.5-1.2,0.6-1.9c0.1-0.1,0.2,0,0.2,0.1
			C44.7,38.7,44.4,39.6,43.9,40.4z M42.3,45.6l0.7-0.7c0.1,0,0.2,0,0.2,0.1c0.1,0.5-0.1,0.9-0.3,1.3c0,0.2-0.2,0.4,0,0.6
			c0.2,0,0.4-0.3,0.5-0.4c0.3-0.4,0.6-0.9,1-1.2c0,0,0.1,0,0.1,0.1c-0.1,0.7-0.4,1.2-0.7,1.8c-0.3,0.5-0.9,1-1.5,0.9l-0.2-0.2
			C42.1,47.1,41.9,46.2,42.3,45.6z M44.7,54c0.1-0.1,0.2-0.3,0.3-0.3c0,0.3-0.2,0.5-0.3,0.7c-0.1,0.3-0.3,0.5-0.3,0.9
			c0.1,0.2,0.3,0,0.4,0c0.3-0.2,0.5-0.6,0.8-0.8c0,0,0,0.1,0,0.2c-0.1,0,0,0.1,0,0.1c-0.3,0.6-0.6,1.4-1.3,1.5
			c-0.3,0.1-0.5,0-0.7-0.2c-0.2-0.5,0-1,0.2-1.4C44.1,54.5,44.3,54.1,44.7,54z M44.6,59.4c0.1,0.6,0.2,1.2-0.1,1.7
			c-0.1,0.1-0.3,0.3-0.4,0.1c-0.2-0.1-0.2-0.3-0.3-0.5c0-0.6-0.1-1.1,0.1-1.6c0.1-0.4,0.2-0.7,0.2-1.1c0.1-0.3,0.1-0.6,0.2-0.9
			c0.1,0.2,0.1,0.4,0.1,0.6C44.5,58.3,44.3,58.9,44.6,59.4z M43.6,63.6c0.1-0.3,0.3-0.7,0.6-0.9c0.1-0.3,0.6-0.2,0.8-0.3
			c0.2,0.2,0.8-0.2,0.7,0.3c-0.3,0.6-0.5,1.2-0.3,1.9c-0.1,0.3-0.8-0.1-0.7,0.5c0.2,0.4,0.7,0.1,0.9,0.5c0.1,0.5,0.1,1,0.2,1.4
			c0,0.1-0.1,0.1-0.1,0c-0.4-0.3-0.8-0.5-1.3-0.2c-0.3,0.1-0.4,0.5-0.7,0.7c-0.1,0.1-0.2-0.1-0.2-0.2C43.2,66,43.3,64.7,43.6,63.6z
			 M47.1,60c-0.3-0.4-0.4-1-0.7-1.4c-0.1-0.5-0.1-1,0-1.5c0-0.1,0.1-0.3,0.2-0.4l0.1,0.1c0,1.1,0.7,1.8,1.3,2.6
			c0.5,0.5,1.3,0.6,1.3,1.4c0,0.4,0.2,0.8,0,1.1c-0.1,0-0.1-0.1-0.1-0.1C48.5,61,47.7,60.6,47.1,60z M49.2,58.6
			c-0.5-0.6-1-1.3-0.7-2.1c0-0.5,0.2-1.1,0.7-1.4c0.1-0.1,0-0.4,0.2-0.4c0.1,0.1-0.1,0.2-0.1,0.3c0.1,0.5,0.4,1.4-0.1,1.8
			c0,0.1,0,0.2,0.1,0.3c0.5,0.1,0.4-0.5,0.7-0.7c0.1,0.4-0.3,0.8-0.5,1.1c0,0.1,0.2,0.1,0.3,0.2c0.3,0,0.4-0.4,0.5-0.6
			c0.1-0.6,0.1-1.3-0.3-1.8c0-0.2-0.1-0.5,0.1-0.6c0.4,0,0.5,0.4,0.7,0.7c0.3,0.6,0.4,1.4,0.2,2c0.1,0.6-0.5,0.8-0.9,1.2
			C49.8,58.6,49.5,58.8,49.2,58.6z M50.6,59.9c0-0.3,0.3-0.4,0.4-0.6c0.2-0.6,0.6-1.2,0.9-1.8c0.2-0.3,0.1-0.8,0.3-1.1
			c0.2,0,0.2,0.3,0.3,0.5c0.1,0.7,0.1,1.5-0.2,2.2c-0.5,0.8-1.1,1.5-1.5,2.3c-0.2,0.1-0.1,0.4-0.2,0.5
			C50.3,61.3,50.4,60.5,50.6,59.9z M51.1,62.7c0.1-0.7,0.5-1.2,0.8-1.8c0.5-0.7,0.8-1.4,1.1-2.2c0-0.2-0.1-0.3,0-0.4
			c0.3,0.4,0.4,1,0.3,1.5c0,1.4-1.5,2.2-1.7,3.5c-0.2,0.1-0.3,0.4-0.4,0.5C51,63.6,51.1,63.1,51.1,62.7z M54.4,59.9
			c0-0.8,0.3-1.6,0.3-2.4c0-0.1,0.1-0.3,0.2-0.1c0.1,0.8,0,1.6,0.2,2.4c0,0.5,0.1,1.2-0.4,1.5c-0.2,0.1-0.4-0.1-0.4-0.2
			C54.1,60.7,54.5,60.3,54.4,59.9z M55.6,55.1c-0.1,0.2-0.3,0.2-0.5,0.2c-0.8-0.3-1.1-1.2-1.3-1.9c0.2-0.1,0.2,0.2,0.4,0.3
			c0.3,0.1,0.4,0.7,0.8,0.5c-0.1-0.4-0.4-0.6-0.5-0.9c0-0.1-0.2-0.3-0.1-0.5c0.2,0,0.1,0.3,0.4,0.4c0.5,0.1,0.8,0.5,1,1
			C55.9,54.4,55.8,54.8,55.6,55.1z M54,42.9c-0.6-0.4-0.7-1-0.9-1.6c0-0.2-0.1-0.4,0-0.6c0.1,0,0.1,0.1,0.2,0.2c0.3,0.3,0.5,0.8,1,1
			c0.1,0.1,0.1,0.2,0.2,0.3c0.1,0.1,0.2,0,0.3-0.1c0-0.2-0.2-0.4-0.3-0.5c-0.1-0.5-0.6-0.8-0.5-1.3c0.2-0.2,0.3,0.2,0.5,0.3
			c0.6,0.2,1.4,0.5,1.5,1.3c0,0.4,0.1,0.9-0.3,1.2C55.2,43.2,54.5,43.1,54,42.9z M55.6,38.7c0.1,0.1,0.3,0.3,0.4,0.3
			c0.3,0.3,0.5,0.6,0.4,1.1c-0.1,0.2-0.1,0.4-0.3,0.5c-0.4,0-0.7-0.4-0.9-0.6c-0.2-0.3-0.4-0.6-0.3-1c0-0.1,0.2-0.1,0.2,0
			c0.2,0.1,0.4,0.5,0.7,0.3C55.7,39.1,55.5,38.9,55.6,38.7z M56,38.4c-0.4-0.6-0.8-1.3-0.9-2.1c0-0.1,0.1-0.1,0.1,0
			c0.3,0.4,0.8,1.1,1.4,1.1c0.2-0.2-0.1-0.4-0.1-0.6c0-0.2-0.2-0.5-0.1-0.7c0.2,0,0.2,0.2,0.3,0.3c0.4,0.3,0.8,0.6,0.9,1.1
			c0,0.5-0.1,1-0.4,1.3C56.8,38.8,56.4,38.7,56,38.4z M51.6,43.7c-0.5,0.6-1.2,1.1-2,1.1c-0.4-0.1-0.8-0.2-1.1-0.5
			c0.1-0.3-0.4-0.5-0.3-0.8c-0.3-0.7-0.6-1.4-0.5-2.2c-0.1-0.9,0.1-1.8,0.3-2.6c0.1-0.1,0.2-0.6,0.4-0.3c0,0.8-0.2,1.6,0.1,2.3
			c0.1,0.1,0.2,0.2,0.3,0.1c0.2-0.2,0-0.6,0.2-0.8c0.1-0.1,0.2,0.1,0.2,0.1c0.1,0.8,0,1.8,0.4,2.5c0.1,0.1,0.2,0.2,0.4,0.2
			c0.1-0.1,0.1-0.2,0.1-0.3c-0.4-1.1-0.4-2.6,0-3.6c0.1,0,0.1,0,0.1,0.1c0.1,0.7-0.1,1.5,0.1,2.2c0.3-0.1,0.3-0.4,0.4-0.7
			c0.2-0.8,0-1.5,0.2-2.3c0.1,0,0.1,0.1,0.1,0.2C51.6,40,52.7,42,51.6,43.7z M48.2,27.9c0-0.2,0.1-0.4-0.1-0.5
			c-0.2,0.1-0.4,0.1-0.5,0.2c-0.1,0-0.1-0.1-0.1-0.2c0,0,0-0.1,0-0.1c0.3-0.2,0.7-0.4,1-0.6c0.1-0.1,0.3-0.3,0.4-0.1
			c0,0.5-0.4,1-0.6,1.4C48.2,28,48.3,27.9,48.2,27.9z M47.2,26.6c-0.3,0-0.6,0.1-0.8-0.1c0.1-0.2,0.4-0.2,0.6-0.3
			c0.4-0.1,0.6,0.2,0.9,0.3c0,0,0,0.1,0,0.1C47.8,26.7,47.5,26.6,47.2,26.6z M48.1,24.4c-0.2,0-0.2-0.2-0.3-0.3
			c-0.1-0.1-0.2-0.2-0.3-0.1c-0.2,0.2-0.2,0.4-0.4,0.6l0,0.2c-0.2,0-0.3-0.3-0.5-0.4c-0.1-0.4,0.2-0.7,0.5-1c0.3,0,0.6,0.1,0.8,0.4
			C48,23.9,48.2,24.1,48.1,24.4z M46.9,25.4c-0.1,0.4,0.4,0.3,0.6,0.5l0.1,0.1c-0.1,0.1-0.3,0.2-0.4,0.1c-0.4-0.1-0.8-0.1-1.2,0.1
			c-0.2,0-0.3,0-0.5-0.1c0-0.3,0.4-0.1,0.6-0.2c0.1-0.1,0.3-0.1,0.4-0.2c-0.4-0.3-0.9,0-1.4,0c-0.3,0.1-0.7,0.2-0.9,0
			c0-0.1,0.1-0.1,0.1-0.1c0.4,0.1,0.7-0.3,1.1-0.3c0.3-0.2,0.7,0,1.1,0C46.7,25.2,46.8,25.2,46.9,25.4z M45.9,24.6
			c-0.7,0-1.3,0.4-2,0.3c0-0.1-0.2,0-0.2-0.1c0-0.1,0.1-0.1,0.2-0.1c0.2-0.3,0.5-0.1,0.8-0.3c0.2,0,0.4,0,0.6-0.2
			c0.5,0,0.9,0.1,1.2,0.4l0,0.1C46.2,24.7,46.1,24.6,45.9,24.6z M44,26.6c0.8-0.2,1.6,0,2.2,0.5c0.5,0.8,0.7,1.8,0.3,2.7
			c-0.2,0.6-0.7,1.3-1.4,1.3c-0.8,0.4-1.7-0.1-2.3-0.6c-0.5-0.5-0.9-1.3-0.6-2C42.4,27.6,43.1,26.8,44,26.6z M41.4,40.2
			C41.4,40.2,41.4,40.2,41.4,40.2c0,1.7,0.1,3.3,0.2,5c0.1,1.5,0.2,3.1,0.2,4.5c0,0.3-0.3,0.5-0.4,0.7c-0.2,0.2-0.3,0.4-0.5,0.5
			c-0.2-0.4-0.1-1-0.2-1.5c-0.1-2.4-0.4-5-0.4-7.5c0.1-0.3,0.3-0.6,0.4-0.9C40.9,40.7,41.2,40.5,41.4,40.2z M42.1,50.1l0.1-0.1
			c0.4-0.3,0.8-0.7,1.1-1c0.1,0,0.1,0,0.2,0.1c-0.2,0.7-0.3,1.5-0.8,2.1c0,0.1,0,0.2,0.1,0.2c0.3-0.4,0.5-0.8,0.9-1.1
			c0.2-0.3,0.4-0.6,0.7-0.8c0.2,0.2,0,0.5,0,0.7c-0.1,1.1-0.6,2.1-1.7,2.6c-0.4,0-0.6,0.3-0.9,0.2c-0.3-0.1-0.6-0.3-0.7-0.6
			C40.9,51.5,41.5,50.7,42.1,50.1z M41.6,53.3l0.5-0.1c0.1,0,0.1,0,0.1,0.1c0.1,1.2,0.2,2.5,0.3,3.8c0,0.9,0.2,1.7,0.3,2.6
			c0.1,0.6,0,1.3,0.3,1.8c0.2,0.5-0.1,0.9-0.3,1.3c-0.5,0,0-0.6-0.3-0.8c-0.4-1.6-0.9-3.2-1-5c-0.1-0.8-0.2-1.6-0.2-2.5
			c-0.1-0.4,0-0.9-0.2-1.3C41.3,53.1,41.4,53.3,41.6,53.3z M41.2,65.3c0-0.6,0.1-1.1,0.5-1.6c0-0.3,0.3-0.3,0.5-0.5
			c0.3,0,0.6-0.2,0.9,0c0,0.2,0.3,0.3,0.2,0.5c-0.1,0.3-0.3,0.6-0.6,0.8c-0.1,0-0.4-0.1-0.4,0.1c0.1,0.4,0.6,0.1,0.7,0.5
			c0,0.3,0.1,0.7,0,1c-0.3,0-0.7,0-1,0.2c-0.1,0.1-0.3,0.2-0.5,0.2C41,66.2,41.1,65.7,41.2,65.3z M41.9,66.7c0.3-0.1,0.6-0.1,0.9,0
			c0,0.3-0.1,0.7-0.1,1c0.1,0.4,0.2,0.9,0.7,1v0c-0.3,0.1-0.6-0.2-0.8-0.3c-0.4-0.2-0.4-0.6-0.6-1C41.9,67.2,41.6,66.9,41.9,66.7z
			 M44.7,67c0.3,0,0.6,0,0.8,0.3c0,0.3-0.2,0.6-0.2,1c0.1,0.4,0,0.8,0.3,1.1l0,0.1c-0.3,0-0.5-0.3-0.7-0.5c-0.4-0.4-0.8-0.8-0.8-1.4
			C44.1,67.3,44.4,67.1,44.7,67z M57.8,66.7c-0.1,0,0-0.2,0-0.2c0.3-0.4,0.8-0.1,1.1-0.2l0.1,0c0.1,0.5-0.4,0.7-0.5,1.2
			c-0.1,0.1-0.1,0.2-0.1,0.3c-0.2,0.3-0.4,0.6-0.7,0.8l-0.1,0C57.6,67.9,58.1,67.4,57.8,66.7z M59.2,65.7c-0.1,0.1-0.2,0.2-0.3,0.1
			c-0.4-0.2-0.7,0.1-1.1,0.1c-0.1-0.3-0.2-0.7-0.2-1c0.2-0.3,0.5-0.4,0.7-0.7c0-0.1,0-0.2-0.1-0.2c-0.3-0.1-0.6,0.5-0.8,0.1
			c-0.2-0.3-0.3-0.7-0.4-1.1c0.3-0.2,0.5,0.1,0.7,0.1l0.4,0.1c0.7,0.1,0.7,0.9,1.1,1.4C59.1,65.1,59.6,65.4,59.2,65.7z M57.6,51.6
			c-0.9,0.2-1.7-0.2-2.2-0.9c-0.3-0.4-0.5-0.8-0.6-1.4c0.1-0.1,0.1-0.1,0.2-0.1c0.4,0.4,0.9,0.8,1.5,1l0.1-0.1
			c0.1,0.1,0.1,0.2,0.3,0.1c0-0.1,0.1-0.1,0-0.1c-0.7-0.6-1.1-1.2-1.3-2c0-0.1,0.1-0.1,0.2-0.1c0.7,0.4,1.4,0.9,2.1,1.5
			c0.3,0.4,0.6,0.8,0.4,1.3C58.2,51.2,57.9,51.5,57.6,51.6z M58.1,37.9c0-0.1,0.1-0.1,0.2,0c0.3,0.2,0.4,0.6,0.7,0.9
			c0.5,0.4,1,1,1.7,1.2c0.2,0.3,0.5,0.2,0.8,0.4c0,0.3-0.2,0.5-0.4,0.6c-0.8,0-1.2-0.5-1.8-1C58.5,39.3,58.3,38.6,58.1,37.9z
			 M61.3,36.6c-0.2,0.1-0.4,0-0.5-0.1c-0.6-0.3-0.3-0.9-0.4-1.4c0-0.4-0.1-0.8,0.1-1.1c0.1,0,0.2,0.1,0.2,0.1
			C60.9,35,61.3,35.7,61.3,36.6z M60.7,31.2c-0.1,0.1-0.2,0.1-0.3,0.1c-0.2-0.3-0.6-0.4-0.6-0.8c-0.1-0.1-0.2-0.1-0.3-0.1
			c0,0.1-0.1,0.1,0,0.1c0.4,0.5,0.5,1.1,0.9,1.6c0,0.3-0.3,0.6-0.4,0.8c0,0-0.1,0-0.1,0c-0.2-0.2-0.2-0.5-0.4-0.7
			c0-0.2-0.1-0.4-0.2-0.5c0.1-0.6-0.4-0.9-0.6-1.3c-0.3-0.2-0.6-0.2-0.9-0.5c0-0.1,0-0.2,0.1-0.3c0.4-0.4,0.8,0.1,1.3-0.1
			c0.2,0.1,0.4-0.1,0.6,0c0.3,0.2,0.5,0.4,0.9,0.4c0.2,0.2,0.3,0.4,0.3,0.7C60.8,30.8,60.7,31,60.7,31.2z M60,26.1
			c0,0.2-0.2,0.4,0,0.5c0.2,0.1,0.4,0.2,0.5,0.5c0.1,0.1,0,0.3-0.1,0.3c-0.5,0-0.9,0.2-1.2,0.6c0,0.1,0,0.2,0.1,0.2
			c0.3,0,0.3-0.4,0.6-0.5c0.2,0,0.5-0.2,0.6,0c-0.1,0.3,0.3,0.4,0.3,0.6c-0.1,0.4,0.1,1-0.2,1.3c-0.5,0-1-0.6-1.5-0.2
			c-0.3-0.1-0.7-0.2-1-0.2c-0.3-0.2-0.4-0.6-0.3-0.9c0.1-0.2,0.4-0.2,0.5-0.4c0.2,0,0.4,0.1,0.5,0c-0.1-0.2-0.4-0.1-0.6-0.1
			C58,27.9,57.9,28,57.7,28c-0.2-0.1-0.2-0.3-0.1-0.5c0.2-0.6,0.9-0.7,1.5-0.8c0,0,0.1-0.1,0.1-0.1c-0.6-0.4-1.2,0.1-1.7,0.4
			c-0.1,0-0.1,0-0.2-0.1c0.1-0.4,0.3-0.9,0.8-1c0-0.1,0.1-0.1,0.1-0.2c-0.2-0.1-0.3,0-0.5,0.1c-0.2,0.2-0.5,0.4-0.7,0.5
			c0-0.3,0.4-0.6,0.5-0.9c0,0,0-0.1-0.1-0.1c-0.5,0.2-0.8,0.7-1.2,0.9c-0.1,0-0.3,0-0.4-0.1c-0.1-0.1-0.1-0.2,0-0.3
			c0.3-0.4,0.6-0.8,0.8-1.3c0.3-0.8,1.3-0.7,1.8-1.2c0.3,0.1,0.6-0.1,0.7,0.2c-0.1,0.1-0.2,0.2-0.4,0.2c-0.3,0.3-0.9,0.4-1,0.9
			c0.2,0.2,0.3-0.2,0.5-0.3c0.1-0.1,0.3-0.2,0.4-0.1c0.2,0.2,0.5-0.4,0.6,0.1c-0.1,0.2-0.4,0.3-0.5,0.4c-0.2,0.2-0.4,0.5-0.5,0.7
			c0.1,0.1,0.2,0,0.3,0c0.3-0.2,0.6-0.6,0.9-0.6C59.9,25.1,60,25.6,60,26.1z M55.1,21.9c0.3-0.4,0.8-0.3,1.2-0.6
			c1-0.3,2,0.1,2.8-0.5l1-0.7c0.4,0,0.6-0.4,0.9-0.6c0.1,0,0.2,0,0.2,0.1c-0.1,0.5-0.3,0.9-0.4,1.4c-0.1,0.7-0.9,0.9-1.3,1.3
			c-0.3,0.2-0.7,0.2-1.1,0.3c-0.8,0-1.6,0.4-2,1.1c0.1,0.2-0.1,0.4-0.3,0.5c-0.2,0.1-0.5,0.1-0.6,0.3c0.1,0.1,0.3,0.1,0.3,0.2
			c-0.4,0.4-1.2,0.1-1.6,0.4c-0.1,0.1-0.2,0.1-0.2,0.2c0.1,0.1,0.4,0,0.4,0.2c-0.3,0.3-0.8,0.2-1.2,0.4c0,0.1,0.1,0.1,0.1,0.1
			c0.2,0,0.3-0.1,0.5-0.1c0,0.2-0.2,0.1-0.3,0.2c-0.4,0.2-0.9,0-1.2,0.3c0.2,0.1,0.4,0.1,0.5,0.2c-0.4,0.3-0.9,0.3-1.3,0.5
			c-0.3,0.2,0.1,0.9-0.4,0.7c-0.3-0.2-0.5-0.6-0.5-1c0.1-0.1-0.1-0.5,0.2-0.5c0.3,0.1,0.2,0.4,0.5,0.6c0.2,0,0.3-0.2,0.4-0.3
			c-0.3-0.4,0.4-0.4,0.6-0.7c-0.1-0.4,0.4-0.3,0.5-0.4c0.4-0.1,0.8-0.2,1.1-0.3c0-0.1-0.1-0.1-0.1-0.1c-0.1,0-0.1,0-0.2,0
			c0,0-0.1-0.1,0-0.1c0.4-0.5,1.1-0.4,1.7-0.6c0-0.1-0.2-0.1-0.1-0.3c0.4-0.3,1.1-0.2,1.2-0.7c0-0.1,0.2-0.3,0-0.3
			c-0.3,0.1-0.5,0.4-0.7,0.6c-0.2,0.3-0.5,0.4-0.8,0.5c0-0.2,0.1-0.3,0.3-0.4c0.5-0.5,0.8-1,1-1.6c0-0.1-0.2-0.1-0.2,0
			c-0.4,0.4-1,0.7-1.4,1.1c-0.1,0-0.2,0.1-0.3,0c-0.1-0.2,0.2-0.3,0.3-0.5C54.6,22.6,54.8,22.2,55.1,21.9z M50.5,24.4
			c-0.1-0.2-0.1-0.4-0.1-0.6c-0.1-0.1-0.1-0.1-0.2,0c-0.2,0.2-0.3,0.4-0.3,0.6c-0.1,0-0.1,0-0.1,0c-0.1-0.4,0-0.8,0.2-1.1
			c0.1-0.1,0.3-0.3,0.4-0.2c0.2,0.1,0.3,0.3,0.4,0.5C50.8,23.8,50.8,24.2,50.5,24.4z M51.9,23.9c-0.1-0.1-0.3,0.1-0.4,0.1
			c-0.2,0.2-0.2,0.4-0.4,0.6c-0.1,0-0.1-0.1-0.2-0.1c0-0.4,0.1-0.7,0.3-1.1c0.2-0.2,0.5-0.2,0.6-0.5c0.2-0.1,0.5-0.2,0.5,0.1
			c0,0.3,0.1,0.6,0.3,0.8c0,0.3-0.2,0.5-0.3,0.8c-0.1,0.1-0.2,0.1-0.2,0.1C52.2,24.4,52,24.2,51.9,23.9z M52.3,20.7
			c0-0.4,0.4-0.3,0.7-0.4c0.5,0,0.9,0,1.2,0.5c0.1,0.2,0.2,0.3,0.2,0.5c-0.2,0.2-0.2,0.5-0.4,0.7c-0.4-0.1-0.3-0.6-0.6-0.9
			c-0.4-0.3-0.8,0.2-1.1,0.3C52.1,21.1,52.2,20.9,52.3,20.7z M52.8,21.5c0.1,0,0.2,0,0.2,0.1c0,0.5,0.7,1,0.1,1.4
			c-0.4,0-0.3-0.5-0.5-0.7c-0.3-0.2-0.5,0.2-0.8,0.2c-0.1,0-0.2-0.1-0.2-0.2C51.7,21.7,52.4,21.7,52.8,21.5z M49.8,20.6
			c0.2-0.5,0.8-0.6,1.4-0.6c0.2,0.2,0.3,0.5,0.5,0.7c0.1,0.2-0.1,0.4-0.1,0.5c-0.1,0-0.2-0.2-0.4-0.3c-0.3-0.1-0.6-0.2-0.9-0.1
			c-0.2,0-0.3,0.2-0.5,0.2C49.7,20.9,49.8,20.8,49.8,20.6z M50.4,21.3c0.3-0.1,0.4,0.3,0.6,0.5c0.1,0.2,0.4,0.3,0.2,0.5
			c-0.1,0.1-0.1,0.3-0.3,0.2c-0.3-0.1-0.4-0.5-0.7-0.4c-0.1,0.1-0.2,0.3-0.4,0.3c-0.2-0.1-0.1-0.4-0.1-0.6
			C49.9,21.7,50.1,21.5,50.4,21.3z M49.6,26.8c0.2-0.1,0.6,0.1,0.7-0.2l0.1,0c0.1,0.3,0.3,0.7,0.1,1c0,0.2,0.1,0.3,0.1,0.5
			c-0.2,0-0.2-0.3-0.3-0.4c-0.1-0.1-0.1-0.2-0.2-0.3c-0.3,0-0.1,0.7-0.5,0.3c-0.1-0.2,0.1-0.6-0.2-0.7c-0.2,0.2-0.2,0.5-0.4,0.7
			c-0.1-0.1-0.2-0.2-0.2-0.3c0.5-0.2-0.1-0.7,0.4-0.9C49.4,26.7,49.6,26.8,49.6,26.8z M49.4,24.1c-0.2,0-0.1-0.2-0.2-0.3
			c-0.1-0.1-0.1-0.3-0.3-0.2c-0.1,0.2-0.2,0.4-0.1,0.6l-0.1,0.1c-0.2-0.3-0.4-0.6-0.3-0.9c0-0.2,0.2-0.4,0.4-0.6
			c0.2,0,0.3,0.2,0.5,0.2C49.5,23.3,49.5,23.7,49.4,24.1z M48.3,22.3c-0.1,0.1-0.1,0.3-0.3,0.4c-0.1,0-0.2-0.1-0.3-0.2
			c-0.1-0.1,0-0.3-0.1-0.4c0.2-0.3,0.3-0.7,0.6-0.8c0.3,0,0.5,0.4,0.9,0.4c0.1,0.1,0.1,0.3,0.1,0.4C49,22.4,48.5,21.9,48.3,22.3z
			 M48.4,20c0.2,0,0.4,0,0.5,0.1c0.2,0.2,0.2,0.5,0.4,0.7c0,0.1,0,0.3-0.1,0.3c-0.5,0.1-0.6-0.6-1.1-0.4c-0.2,0.2-0.5,0.4-0.6,0.6
			c-0.1,0.1-0.1,0.2-0.2,0.1c-0.1-0.1-0.2-0.2-0.2-0.4C47.3,20.6,47.7,20,48.4,20z M47.3,22.2c0.1,0.1,0.1,0.4,0.1,0.5
			c-0.3,0-0.7,0-0.8,0.4c-0.1,0.2-0.2,0.4-0.4,0.6c-0.2-0.1-0.3-0.3-0.4-0.5c0.2-0.3,0.3-0.7,0.5-1c0-0.1,0.1-0.1,0.2-0.1
			C46.7,22.1,47,22.3,47.3,22.2z M45.4,20.5c0.3,0,0.6,0,0.9,0.2c0.2,0.1,0.2,0.4,0.5,0.5c0.1,0,0.1,0.2,0.1,0.2
			c-0.1,0.1-0.3,0-0.4,0c-0.3,0-0.7-0.4-0.9,0.1c-0.1,0.1-0.1,0.4-0.3,0.4c-0.2-0.2-0.3-0.4-0.3-0.7C45,21.1,45.1,20.7,45.4,20.5z
			 M38.2,20.6c-0.1-0.4,0-0.8,0.1-1.1c0.1,0,0.1-0.1,0.2-0.1c0.4-0.1,0.3,0.4,0.5,0.5c0.2,0.4,0.5,0.8,1,0.9c0.8,0,1.7-0.1,2.4,0.1
			c0.6,0.1,1.1,0.6,1.6,1.1c0.1,0,0.2-0.1,0.3-0.1c0.1,0.2,0.5,0.3,0.4,0.6c0.5,0.1,0.6,0.6,0.9,0.8c-0.3,0.3,0.7,0.7-0.1,0.7
			c-0.6-0.3-1.1,0.1-1.6,0.2c-0.1,0-0.3,0-0.4-0.1l0-0.1c0.3-0.2,0.7-0.4,1.2-0.5c0.1-0.1,0-0.3,0.2-0.2c0.1,0.1,0.2,0.2,0.3,0.2
			c0,0,0-0.1,0-0.1C45,23.3,45,23,44.7,22.9c-0.2,0-0.4,0-0.6-0.2c-0.1-0.4-0.5-0.5-0.8-0.7c-0.1-0.1-0.3-0.2-0.5-0.1
			c-0.1,0.1-0.2,0.2-0.1,0.3c0.3,0.4,0.6,0.8,0.9,1.2v0c-0.4,0-0.6-0.5-1-0.5c-0.1,0.1-0.1,0.1,0,0.2c0.2,0.3,0.5,0.6,0.3,0.8
			c-0.3,0-0.4-0.3-0.6-0.5c0-0.4-0.4-0.5-0.7-0.6c-0.3-0.1-0.6,0-0.9,0c-0.3-0.1-0.6,0.1-0.8-0.1C39,22.5,38.3,21.6,38.2,20.6z
			 M38,36.3c0.2-0.5,0.1-1.1,0.4-1.5c0.2,0.1,0.1,0.4,0.2,0.6c0.1,0.5,0.1,1,0.2,1.4c-0.1,0.2-0.4,0.4-0.7,0.4
			C37.9,36.9,38,36.5,38,36.3z M40.4,35.5c0.1-0.1,0.3-0.2,0.3,0c0,0.4-0.2,0.8-0.3,1.2c-0.4,0.6-0.5,1.3-1,1.8
			c-0.3,0.2-0.5,0.6-0.9,0.5c-0.2-0.3-0.4-0.6-0.4-1C38.8,37.3,39.8,36.5,40.4,35.5z M38.7,40.7c-0.2,0.1-0.3,0.2-0.5,0.2
			c0-0.3-0.2-0.8,0.2-1c0.2-0.1,0.4-0.5,0.6-0.1C39,40.1,39,40.5,38.7,40.7z M39.2,40.5c0.4-0.6,1-1,1.2-1.7c0.1,0,0.1-0.2,0.2-0.1
			c-0.1,1.2-0.5,2.2-1.2,3.1c-0.3,0.4-0.9,0.5-1.3,0.8c-0.1,0-0.3-0.1-0.3-0.2c-0.1-0.1-0.1-0.3-0.1-0.5
			C38.2,41.5,38.8,41.1,39.2,40.5z M36.3,40c0.1-0.4,0.2-0.8,0.5-1c0.2-0.1,0.4-0.3,0.7-0.2l0.2,0.4c0.1,0.6-0.6,0.7-0.9,1.1
			c-0.1,0-0.1,0.2-0.2,0.1C36.4,40.3,36.3,40.1,36.3,40z M36.7,45.4c-0.2,0.1-0.2-0.1-0.4-0.1c-0.2-0.2-0.3-0.4-0.2-0.7
			c0.1-0.3,0.5-0.4,0.6-0.7c0.5-0.2,0.7-0.8,1.1-1.1c0.2,0,0.4-0.2,0.6,0C38,43.8,37.5,44.6,36.7,45.4z M39.1,58.6
			c-0.5-1.8-1-3.7-1.3-5.6c-0.3-1.6-0.4-3.4-0.7-5c0.1-0.8,0-1.5-0.1-2.3c0.2-0.2,0.4-0.4,0.7-0.6c0.1,0,0.1,0,0.1,0.1
			c0,1.3,0.3,2.4,0.2,3.7c0.1,0.9,0.2,1.9,0.3,2.8c0,1,0.2,1.9,0.2,2.9c0.1,1.1,0.3,2.1,0.4,3.1C39.1,58,39.2,58.3,39.1,58.6
			L39.1,58.6L39.1,58.6z M39.6,57.2c-0.2-0.9-0.1-1.8-0.3-2.6c-0.2-1.7-0.2-3.5-0.4-5.1c-0.1-0.5-0.2-1-0.2-1.5
			c-0.1-1.1-0.1-2.2-0.3-3.3c-0.1-0.7,0.1-1.2,0.3-1.7c0.2-0.1,0.4-0.4,0.6-0.2c0.1,1.1,0,2.2,0.1,3.3c0.1,0.5,0.1,0.9,0.1,1.4
			c0.1,1.8,0.2,3.5,0.4,5.2c0.3,2.4,0.6,4.8,0.8,7.3c0.1,0.9,0.3,1.7,0.4,2.6c0,0-0.1,0.1-0.2,0C40.3,60.8,39.9,59,39.6,57.2z
			 M59.3,57.7c-0.3,1.2-0.4,2.5-0.8,3.7c0,0.4-0.1,0.8-0.3,1.2c0,0-0.1,0-0.1,0c-0.1-0.9,0.4-1.7,0.4-2.5c0.1-0.7,0.1-1.5,0.2-2.2
			c0.1-1,0.1-1.9,0.2-2.8c0.1-0.3,0.1-0.6,0.2-1c-0.1-0.7,0.2-1.4,0.1-2.1c0.1-0.7,0.3-1.5,0.2-2.3c0.1-1.4,0.3-2.6,0.3-4
			c0.1-0.4-0.1-0.9,0.1-1.3c-0.1-0.4,0-0.8,0-1.1c0.1-0.3-0.2-1,0.3-1.1c0.2,0.1,0.4,0.3,0.6,0.4c0,0.4-0.1,0.9-0.1,1.3
			c0,0.7-0.2,1.4-0.1,2.2c0,1-0.1,2.1-0.2,3.1c-0.2,1.2-0.3,2.5-0.5,3.6C59.9,54.5,59.5,56.1,59.3,57.7z M62.3,44.4
			c-0.2,0.8,0,1.6-0.1,2.4c0,0.7-0.2,1.3-0.2,2.1c0,1.1-0.4,2.1-0.4,3.2c-0.2,1.1-0.5,2.2-0.7,3.2c-0.3,1.3-0.7,2.5-1.2,3.7
			c0,0-0.1,0-0.1,0c0.2-1.2,0.4-2.3,0.5-3.5c0.3-1.4,0.5-2.9,0.8-4.4c0.1-1.1,0.1-2.3,0.3-3.3c0.2-1.3,0.3-2.7,0.5-4.1
			c0.2-0.1,0.4,0.1,0.6,0.1C62.3,44.1,62.4,44.2,62.3,44.4z M63.1,43.8c-0.6-0.5-1.4-1-1.8-1.7c-0.2-0.2-0.3-0.4-0.2-0.7
			c0.1-0.1,0.2-0.2,0.3-0.1c0.3,0.1,0.4,0.4,0.8,0.4c0.1,0.1,0.1,0.3,0.2,0.4c0.3,0.3,0.7,0.7,1,0.9c0.1,0.2,0.2,0.3,0.2,0.6
			C63.5,43.6,63.4,43.9,63.1,43.8z"/>
		<path d="M39.2,21c0.3,0.2,0.8,0.3,1.1,0.3c0.4,0.1,0.8,0,1.1,0.2c0.1,0.2,0.5,0.3,0.4,0.6l-0.1,0.1c-0.8-0.4-1.9,0-2.5-0.7
			c-0.3-0.1-0.4-0.3-0.5-0.6c0-0.1,0-0.2,0.1-0.2C38.9,20.7,39.1,20.9,39.2,21z"/>
		<path d="M60.5,20.8c-0.1,0.2-0.2,0.4-0.4,0.6c-0.8,0.5-1.7,0.7-2.6,0.6c-0.1,0-0.1-0.1,0-0.1c0.6-0.2,1.2-0.3,1.8-0.6
			C59.6,21.1,60,20.9,60.5,20.8L60.5,20.8z"/>
		<path d="M43.5,27.7c-0.1,0-1.1,1.5-0.1,2.4c1.3,1.1,2.8-0.8,2.5-1.2c-0.2-0.1-0.6,1.1-1.7,0.9C42.9,29.4,43.6,27.7,43.5,27.7z"/>
		<path d="M53.7,29.7c0,0.4,1.6,1.2,2.3,0.1c1-1.5-0.4-2.3-0.9-2c-0.1,0.2,0.9,0.6,0.4,1.6C55,30.4,53.6,29.5,53.7,29.7z"/>
	</g>
</g>
</svg>
