<?xml version="1.0" encoding="utf-8"?>
<!-- Generator: Adobe Illustrator 25.4.1, SVG Export Plug-In . SVG Version: 6.00 Build 0)  -->
<svg version="1.1" id="UiBmerke_grayscale" xmlns="http://www.w3.org/2000/svg" xmlns:xlink="http://www.w3.org/1999/xlink" x="0px"
	 y="0px" viewBox="0 0 99.2 99.2" style="enable-background:new 0 0 99.2 99.2;" xml:space="preserve">
<style type="text/css">
	.st0{fill:#FFFFFF;}
</style>
<g>
	<g>
		<g>
			<path class="st0" d="M9.2,39.2c-0.8-0.1-2.5-0.4-3-0.3c-0.1,0.1-0.3,0.3-0.4,0.7v0.3c-0.1,0-0.3,0-0.3-0.1
				c0.1-0.6,0.3-1.1,0.3-1.7c0.1-0.6,0.1-1,0.3-1.5c0.1-0.1,0.3,0,0.4,0V37c0,0.4,0,0.7,0.3,0.8c0.4,0.3,2.1,0.6,2.9,0.7l1.7,0.3
				c1.2,0.3,2.5,0.7,3.2,1.7c0.6,0.7,0.7,1.8,0.6,2.9c-0.1,1-0.6,1.9-1.2,2.5c-0.7,0.7-1.8,0.8-3.6,0.6l-3.3-0.6
				c-1.5-0.3-1.8-0.3-1.9,0.6l-0.1,0.4c-0.1,0.1-0.3,0-0.3-0.1c0.1-0.7,0.3-1.2,0.4-1.8C5,44.3,5,43.8,5.2,43.1c0-0.1,0.3,0,0.4,0
				v0.4c-0.1,0.8,0.1,1,1.7,1.1l3,0.6c2.4,0.4,3.9,0,4.3-2.2c0.4-2.1-1.1-3.2-3.3-3.5L9.2,39.2z"/>
			<path class="st0" d="M18.3,27.6c0.4,0.3,1.9,1.1,2.2,1.2c0,0,0.1,0.1,0,0.3c-0.3,0-1,0.1-2.8,0.6l-5.1,1.1
				c-0.6,0.1-2.1,0.4-2.5,0.6l0,0c0.1,0.1,0.4,0.3,0.8,0.6l2.8,1.5c0.6,0.3,2.2,1.2,2.8,1.2c0.1,0,0.4-0.3,0.6-0.6l0.3-0.4
				c0.1,0,0.3,0.1,0.3,0.1c-0.3,0.6-0.6,1-0.8,1.5c-0.3,0.6-0.4,0.8-0.7,1.4c-0.1,0-0.3,0-0.3-0.1l0.1-0.4c0.1-0.3,0.1-0.6,0-0.7
				c-0.4-0.4-1.9-1.2-2.5-1.7l-3.6-2.1c-0.4-0.1-0.7-0.3-1.1-0.3c-0.3,0.1-0.6,0.3-0.7,0.6l-0.1,0.1c-0.1,0-0.3-0.1-0.3-0.1
				c0.3-0.6,0.7-1.2,0.8-1.4s0.3-0.4,0.3-0.6c0.8,0.1,3.3-0.4,4-0.6l2.1-0.4c1.5-0.3,2.5-0.6,3.5-0.8l0,0c0-0.1-0.3-0.1-0.6-0.4
				L15,26.4c-0.6-0.3-2.2-1.2-2.8-1.2c-0.1,0-0.3,0.1-0.7,0.7l-0.3,0.3c-0.1,0-0.3-0.1-0.3-0.1c0.4-0.6,0.6-1,0.8-1.5
				c0.3-0.6,0.4-0.8,0.7-1.4c0.1,0,0.3,0,0.3,0.1l-0.1,0.1c0,0.6,0,0.8,0.1,1c0.3,0.4,1.9,1.4,2.5,1.7L18.3,27.6z"/>
			<path class="st0" d="M18.2,20.3c-1.1-1.1-1.2-1.2-1.9-0.7L16,19.8c-0.1,0-0.3-0.1-0.3-0.3c0.6-0.6,0.8-0.8,1.2-1.2
				c0.4-0.4,0.7-0.8,1.2-1.4c0.1,0,0.3,0.1,0.3,0.3l-0.3,0.3c-0.6,0.7-0.4,0.8,0.7,1.9l3.7,3.6c1.1,1.1,1.2,1.2,1.9,0.7l0.3-0.3
				c0.1,0,0.3,0.1,0.3,0.3c-0.6,0.6-0.8,0.8-1.2,1.2c-0.4,0.4-0.7,0.8-1.2,1.4c-0.1,0-0.3-0.1-0.3-0.3l0.3-0.3
				c0.6-0.7,0.4-0.8-0.7-1.9L18.2,20.3z"/>
			<path class="st0" d="M23.3,14.6c-0.7-0.6-1.1-0.7-1.7-0.4l-0.3,0.1c-0.1,0-0.3-0.1-0.1-0.3c0.4-0.1,0.8-0.4,1.2-0.8
				c0.6-0.3,1-0.7,1.5-1c0.1,0,0.3,0.1,0.3,0.3l-0.1,0.1c-0.4,0.4-0.4,0.6-0.4,0.7c0.1,0.1,0.7,0.7,1.7,1.4c1.5,1.1,2.9,2.1,4.4,3.2
				c-0.1-1.1-0.4-2.6-0.6-3.5c-0.1-1.1-0.4-2.8-0.6-3.5c0-0.3-0.1-0.4-0.1-0.6s-0.3-0.1-0.7,0.1l-0.3,0.1c-0.1,0-0.3-0.3-0.1-0.3
				c0.4-0.1,0.8-0.4,1.2-0.8c0.4-0.3,0.8-0.6,1.1-0.8c0.1,0,0.3,0.1,0.3,0.3l-0.4,0.3c-0.3,0.3-0.4,0.4-0.4,0.8
				c0,0.8,0.1,2.1,0.4,3.7l0.3,1.9c0.3,1.4,0.6,3.2,0.7,4c0,0,0,0.1-0.1,0.1c0,0-0.1,0-0.1,0.1c-0.4-0.4-1.1-0.8-1.7-1.2L23.3,14.6z
				"/>
			<path class="st0" d="M35.5,8.9c-0.4-1.4-0.6-1.7-1.4-1.5h-0.3c-0.1,0-0.1-0.3-0.1-0.4c0.6-0.1,1.1-0.3,1.7-0.4L38,5.9
				c0.8-0.3,1.7-0.6,1.9-0.6c0.1,0.3,0.6,1.2,0.7,1.8c0,0.1-0.3,0.1-0.3,0.1c-0.4-0.6-0.7-1.1-1.4-1c-0.3,0-0.8,0.1-1.4,0.3l-1,0.3
				C36.2,7,36.2,7,36.3,7.5l0.8,2.8c0.1,0.4,0.1,0.4,0.6,0.3l0.8-0.3c0.6-0.1,1-0.3,1.1-0.4c0.1-0.1,0.3-0.3,0.1-0.6V8.8
				c0-0.1,0.3-0.1,0.4-0.1c0.1,0.3,0.1,0.8,0.3,1.4c0.1,0.6,0.4,1,0.4,1.4c0,0.1-0.3,0.1-0.4,0.1L40.3,11c-0.1-0.3-0.3-0.4-0.6-0.4
				s-0.6,0.1-1.1,0.3l-0.8,0.3c-0.4,0.1-0.4,0.1-0.4,0.6l0.6,1.9c0.3,0.7,0.4,1.2,0.7,1.4c0.3,0.1,0.6,0.1,1.8-0.1
				c1.1-0.3,1.5-0.4,1.7-0.7c0.3-0.3,0.4-0.8,0.6-1.7c0.1-0.1,0.3-0.1,0.4,0c0,0.6,0,1.7-0.1,2.1c-1.2,0.3-2.5,0.7-3.7,1L38,16
				c-0.6,0.1-1.1,0.3-1.9,0.6c-0.1,0-0.1-0.3-0.1-0.3l0.4-0.1c0.8-0.3,0.8-0.6,0.4-1.9L35.5,8.9z"/>
			<path class="st0" d="M47,6.7C47,5.3,47,5,46.3,5h-0.4c-0.1-0.1-0.1-0.3,0-0.4c0.8,0,1.8-0.1,3.2-0.1c1,0,1.8,0.1,2.4,0.4
				c0.7,0.4,1.2,1,1.2,2.1c0,1.4-1.1,2.1-1.8,2.4c-0.1,0.1,0,0.3,0.1,0.4c1.1,1.9,1.9,3,2.9,3.9c0.3,0.3,0.6,0.4,1,0.4
				c0.1,0,0.1,0.1,0,0.1c-0.1,0-0.4,0-0.7,0c-1.2,0-1.9-0.4-3-1.8c-0.4-0.6-1-1.5-1.4-2.2c-0.3-0.3-0.4-0.4-1-0.4
				c-0.7,0-0.7,0-0.7,0.3v1.8c0,1.5,0,1.7,0.8,1.8h0.3c0.1,0.1,0,0.3,0,0.4c-0.7,0-1.1,0-1.7,0s-1.1,0-1.8,0c-0.1,0-0.1-0.3,0-0.4
				h0.4c0.8-0.1,0.8-0.3,0.8-1.8L47,6.7z M48.1,8.8c0,0.3,0,0.4,0,0.4s0.3,0.1,1,0.1c0.6,0,1.1,0,1.5-0.4c0.4-0.3,0.8-0.7,0.8-1.7
				c0-1.1-0.7-2.2-2.4-2.2c-1,0-1,0-1,0.4V8.8z"/>
			<path class="st0" d="M59.9,15.8c-1.1-0.4-1.8-1-1.9-1.2c-0.1-0.4,0-1.4,0.3-2.1c0.1-0.1,0.3,0,0.4,0c0,0.8,0.1,2.4,1.7,2.8
				c1.1,0.4,1.9-0.3,2.2-1.1c0.1-0.6,0.3-1.4-0.6-2.4l-1.1-1.2c-0.6-0.7-1.1-1.7-0.7-2.9c0.4-1.4,1.8-2.1,3.6-1.5
				c0.4,0.1,1,0.4,1.2,0.6c0.1,0.1,0.3,0.1,0.4,0.3c0,0.4-0.1,1.2-0.3,1.8c-0.1,0-0.3,0-0.4,0c0-0.7,0-1.8-1.4-2.2
				c-1.4-0.4-1.9,0.4-2.1,1c-0.3,0.8,0.3,1.7,0.7,2.1l0.8,1.1c0.7,0.8,1.2,1.9,0.8,3.2C63.2,15.8,61.7,16.5,59.9,15.8z"/>
			<path class="st0" d="M71.3,12.8c0.8-1.2,1-1.5,0.3-2.1l-0.3-0.3c0-0.1,0.1-0.3,0.3-0.3c0.6,0.4,1,0.7,1.5,1c0.6,0.3,1,0.6,1.5,1
				c0,0.1,0,0.3-0.1,0.3l-0.3-0.1c-0.8-0.4-1-0.1-1.7,1.1L70,17.8c-0.8,1.2-0.8,1.5-0.1,2.1l0.3,0.3c0,0.1-0.1,0.3-0.3,0.3
				c-0.6-0.4-1-0.7-1.5-1c-0.6-0.3-1-0.6-1.5-1c0-0.1,0-0.3,0.1-0.3l0.3,0.1c0.8,0.4,1,0.1,1.7-1.1L71.3,12.8z"/>
			<path class="st0" d="M77.6,24.4c-1.1,1-1.2,1.2-0.7,1.9l0.3,0.4c0,0.1-0.1,0.3-0.3,0.3c-0.6-0.7-0.8-1-1.2-1.4s-0.7-0.8-1.4-1.4
				c0-0.1,0.1-0.3,0.3-0.3l0.4,0.4c0.6,0.6,0.8,0.4,1.9-0.6l4.7-4.4c0.3-0.3,0.3-0.3,0-0.7L81,18.2c-0.4-0.4-1-1-1.5-1.1
				c-0.4,0-0.8,0.1-1.2,0.1c-0.1,0-0.3-0.3-0.1-0.3c0.7-0.3,1.5-0.7,1.9-1.1l0.1,0.1c-0.3,0.4,0,0.7,0.6,1.2l4,4.3
				c0.6,0.6,0.7,0.7,1.1,0.6c0.1,0,0.1,0.1,0.1,0.3c-0.6,0.3-1.5,1-1.8,1.4c-0.1,0-0.3-0.1-0.3-0.3c0.3-0.3,0.6-0.7,0.6-1
				c0-0.4-0.3-0.8-0.8-1.5L83,20.3c-0.3-0.3-0.3-0.3-0.7,0L77.6,24.4z"/>
			<path class="st0" d="M85.2,34.2c0.3-0.3,0.3-0.3,0.1-0.7l-1-1.9c-0.1-0.3-0.3-0.4-0.6-0.4l-1.7,0.1c-0.7,0.1-1.1,0.1-1.2,0.3
				c-0.1,0.1-0.1,0.1-0.1,0.6l0.1,0.4c0,0.1-0.3,0.3-0.3,0.1c-0.1-0.4-0.3-0.7-0.6-1.4c-0.1-0.4-0.4-0.8-0.7-1.2
				c0-0.1,0.3-0.3,0.3-0.1l0.3,0.4c0.1,0.3,0.4,0.6,1,0.4c0.7,0,1.8-0.1,3.5-0.3l4.2-0.3c0.6,0,0.8-0.1,1-0.3
				c0.3,0.3,0.6,0.4,0.8,0.4c0,0.1,0,0.1,0,0.3c-0.6,0.4-1,1-1.5,1.4l-4.2,4.4c-1,1-1.1,1.2-0.8,1.8l0.1,0.4c0,0.1-0.3,0.1-0.3,0.1
				c-0.3-0.6-0.4-1-0.7-1.7c-0.3-0.7-0.6-1.1-0.7-1.5c0-0.1,0.1-0.3,0.3-0.1l0.3,0.4c0.1,0.3,0.3,0.4,0.4,0.4c0.1,0,0.4-0.3,0.6-0.6
				L85.2,34.2z M85.2,31.1c-0.4,0-0.4,0-0.1,0.4l0.8,1.7c0.1,0.4,0.3,0.4,0.6,0.1l1.8-1.7c0.3-0.3,0.6-0.6,0.7-0.7l0,0
				c-0.1,0-0.4,0-1,0L85.2,31.1z"/>
			<path class="st0" d="M84.4,44.1c-0.1-1.2,0.1-2.1,0.1-2.4c0.3-0.3,1.2-0.6,1.9-0.7c0.1,0,0.1,0.3,0.1,0.3
				c-0.7,0.3-2.1,1.1-1.8,2.8c0.1,1.2,1.1,1.7,1.9,1.5c0.7-0.1,1.4-0.3,1.8-1.5l0.7-1.5c0.4-0.8,1.1-1.8,2.2-1.9
				c1.4-0.1,2.6,0.7,2.9,2.6c0,0.4,0,1,0,1.4c0,0.1,0,0.4,0,0.6c-0.3,0.1-1.1,0.4-1.7,0.6c-0.1,0-0.1-0.3-0.1-0.4
				c0.7-0.3,1.5-0.8,1.4-2.2c-0.3-1.4-1.2-1.5-1.8-1.5c-0.8,0.1-1.4,1-1.5,1.5l-0.7,1.5c-0.4,1-1.1,1.9-2.5,2.2
				C85.9,47,84.6,46,84.4,44.1z"/>
		</g>
		<g>
			<path class="st0" d="M13.5,60.3c1-0.4,1.2-0.6,1.1-1.1l-0.1-0.4c0-0.1,0.3-0.1,0.3-0.1c0.3,0.7,0.7,1.7,1.2,2.9
				c0.3,0.8,0.6,1.7,0.4,2.5c-0.1,0.7-0.4,1.4-1.4,1.7c-1,0.4-1.7,0-2.4-0.7c-0.1,0-0.1,0.1-0.1,0.3c0.1,0.8-0.1,2.1-1.7,2.6
				s-3-0.1-4-2.6c-0.1-0.4-0.4-1.1-0.6-1.7C6,63,5.9,62.5,5.7,62.1c0-0.1,0.3-0.1,0.3-0.1l0.1,0.3c0.4,0.7,0.6,0.7,1.9,0.1
				L13.5,60.3z M8.9,63.2c-0.6,0.1-1.1,0.4-1.4,0.8c-0.3,0.4-0.1,0.8,0,1.2c0.4,1.2,1.4,1.9,2.6,1.4c1.1-0.4,2.1-1.4,1.4-3.6
				c-0.3-0.7-0.4-0.7-0.7-0.7L8.9,63.2z M12.1,61.9c-0.4,0.1-0.4,0.1-0.1,0.8c0.6,1.4,1.2,1.9,2.5,1.5c1.4-0.6,1.5-1.7,1.1-2.8
				c-0.1-0.3-0.3-0.6-0.3-0.6c-0.1-0.1-0.1-0.1-0.4,0L12.1,61.9z"/>
			<path class="st0" d="M17.9,70.4c1.2-1,1.4-1.1,1-1.8l-0.1-0.1c0-0.1,0.3-0.3,0.3-0.1c0.4,0.6,0.7,1,1,1.4l1.7,2.2
				c0.6,0.7,1.1,1.4,1.2,1.5c-0.1,0.3-1,1-1.4,1.4c-0.1,0-0.3-0.1-0.3-0.3c0.4-0.6,0.7-1,0.4-1.7c-0.1-0.3-0.4-0.7-0.8-1.2l-0.7-0.8
				c-0.3-0.4-0.3-0.3-0.7,0l-2.2,1.5c-0.3,0.3-0.3,0.3,0,0.7l0.6,0.7c0.4,0.6,0.7,0.8,0.8,1c0.1,0.1,0.3,0.1,0.6,0l0.6-0.3
				c0.1,0,0.3,0.1,0.3,0.3c-0.3,0.3-0.8,0.6-1.2,0.8c-0.4,0.3-0.8,0.7-1.1,0.8c-0.1,0-0.3-0.1-0.3-0.3l0.4-0.4
				c0.1-0.1,0.3-0.4,0.1-0.7c-0.1-0.1-0.3-0.6-0.6-1l-0.6-0.7c-0.3-0.4-0.3-0.4-0.6-0.1l-1.7,1.2c-0.6,0.4-1,0.8-1.1,1.1
				c0,0.3,0,0.6,0.8,1.7c0.7,0.8,1,1.2,1.2,1.4c0.3,0.1,1,0.1,1.8,0c0.1,0,0.1,0.3,0.1,0.4c-0.4,0.3-1.5,0.6-2.1,0.7
				c-0.7-1.1-1.5-2.1-2.4-3.2l-0.8-1.1c-0.4-0.6-0.7-0.8-1.2-1.5c0-0.1,0.1-0.3,0.3-0.3l0.3,0.4c0.6,0.6,0.8,0.6,1.9-0.4L17.9,70.4z
				"/>
			<path class="st0" d="M25,78.4c0.8-1.1,1-1.4,0.6-1.8l-0.4-0.3c0-0.1,0.1-0.3,0.3-0.3c0.7,0.4,1.5,1,2.6,1.8
				c0.7,0.6,1.4,1.1,1.7,1.8c0.4,0.7,0.4,1.5-0.3,2.4c-0.8,1.1-2.1,1.1-2.9,0.8c-0.1,0-0.1,0.1-0.1,0.3c-0.1,2.2-0.3,3.6,0.1,4.8
				c0,0.3,0.3,0.7,0.6,1c0,0,0,0.1-0.1,0.1s-0.3-0.1-0.6-0.3c-1-0.7-1.4-1.5-1.4-3.2c0-0.7,0.1-1.8,0.1-2.6c0-0.4-0.1-0.7-0.6-1
				c-0.6-0.4-0.6-0.4-0.7-0.1l-1.1,1.5c-1,1.2-1,1.4-0.4,1.9l0.3,0.3c0,0.1-0.1,0.3-0.3,0.3c-0.6-0.4-0.8-0.7-1.4-1.1s-1-0.7-1.5-1
				c0-0.1,0-0.3,0.1-0.3l0.3,0.1c0.7,0.4,0.8,0.3,1.8-1L25,78.4z M24.7,80.8c-0.1,0.3-0.3,0.3-0.3,0.4c0,0,0.1,0.3,0.8,0.7
				c0.4,0.3,1,0.6,1.4,0.6c0.6,0,1.1-0.3,1.7-1c0.7-1,0.7-2.2-0.6-3.2c-0.7-0.6-0.8-0.6-1-0.1L24.7,80.8z"/>
			<path class="st0" d="M39.6,92.2c-0.1,0.6-0.1,1,0,1.1v0.1c-0.1,0-0.4-0.1-0.7-0.1c-0.8,0-1.8-0.1-2.6-0.4c-1.7-0.6-3-1.5-3.7-2.9
				c-0.6-1.1-0.6-2.2-0.3-3.5c0.4-1.1,1.1-2.2,2.4-2.9s2.8-0.8,4.8-0.1c0.8,0.3,1.5,0.7,1.7,0.8c0.3,0.1,0.7,0.4,0.8,0.4
				c-0.1,0.4-0.3,1.2-0.4,2.1c-0.1,0.1-0.3,0-0.4-0.1c0.1-1.7-0.8-2.5-2.2-2.9c-2.6-0.8-4.4,0.7-5.1,2.8c-0.8,2.6-0.1,5.1,2.6,6.1
				c0.8,0.3,1.4,0.3,1.7,0.1c0.1-0.1,0.3-0.3,0.4-0.7l0.1-0.6c0.4-1.1,0.4-1.2-0.4-1.7l-0.6-0.3c-0.1-0.1,0-0.3,0.1-0.3
				c0.4,0.1,1.1,0.4,1.9,0.7c0.6,0.1,1,0.3,1.5,0.4c0.1,0.1,0,0.3-0.1,0.4h-0.3c-0.6-0.1-0.7,0.3-1,1L39.6,92.2z"/>
			<path class="st0" d="M47,87.3c0-1.5,0-1.7-0.8-1.8h-0.3c-0.1,0,0-0.3,0-0.4c0.7,0,1.1,0,1.7,0h2.8c1,0,1.8,0,1.9,0
				c0.1,0.3,0.1,1.2,0.3,1.9c0,0.1-0.3,0.1-0.4,0c-0.3-0.7-0.3-1.2-1.1-1.4c-0.3-0.1-0.8-0.1-1.4-0.1h-1.1c-0.4,0-0.4,0-0.4,0.6v2.9
				c0,0.4,0,0.4,0.4,0.4h0.8c0.6,0,1.1,0,1.2-0.1c0.1,0,0.3-0.1,0.4-0.6l0.1-0.6c0.1-0.1,0.3-0.1,0.4,0c0,0.4,0,1,0,1.5
				c0,0.6,0,1.1,0,1.4c0,0.1-0.3,0.1-0.4,0L51,90.4c0-0.3-0.1-0.4-0.4-0.6c-0.1,0-0.6-0.1-1.1-0.1h-0.8c-0.4,0-0.4,0-0.4,0.4v2.1
				c0,0.8,0,1.2,0.3,1.5c0.1,0.1,0.4,0.3,1.8,0.3c1.1,0,1.5,0,1.8-0.3c0.3-0.1,0.7-0.7,1-1.4c0.1-0.1,0.3,0,0.4,0.1
				c-0.1,0.6-0.4,1.7-0.7,2.1c-1.2,0-2.6,0-3.9,0h-1.2c-0.7,0-1.1,0-1.9,0c-0.1,0-0.1-0.3,0-0.4h0.4c0.8-0.1,1-0.3,1-1.8L47,87.3z"
				/>
			<path class="st0" d="M66.9,84.9c-0.3-0.7-0.8-2.4-0.8-2.9c0-0.1,0.3-0.3,0.7-0.6l0.1-0.1c0-0.1,0-0.3-0.1-0.3
				c-0.4,0.1-0.8,0.3-1.4,0.6c-0.6,0.1-1,0.4-1.7,0.6c-0.1,0.1,0,0.3,0.1,0.4h0.3c0.6-0.1,0.8-0.1,1,0c0.4,0.3,1.1,2.1,1.4,2.8
				l1.1,2.9c0.1,0.3,0.1,0.6,0.1,0.6l0,0c-0.8-0.4-1.8-1-3.2-1.7L62.5,86c-0.7-0.3-2.9-1.5-3.5-2.1c-0.1,0.1-0.4,0.1-0.6,0.3
				c-0.3,0.1-1,0.4-1.5,0.6c-0.1,0.1,0,0.3,0.1,0.4h0.3c0.3-0.1,0.7-0.1,1,0c0.4,0.1,0.6,0.6,0.7,0.8l1.5,3.9
				c0.3,0.7,0.8,2.4,0.8,2.9c0,0.1-0.1,0.3-0.6,0.6l-0.4,0.1c0,0.1,0,0.3,0.1,0.3c0.4-0.1,0.8-0.4,1.4-0.6s1-0.4,1.7-0.6
				c0.1-0.1,0-0.3-0.1-0.4L63,92.4c-0.4,0.1-0.7,0.1-0.8,0c-0.4-0.3-1.1-2.1-1.2-2.8l-1.1-2.9c-0.1-0.4-0.3-0.7-0.3-1l0,0
				c0.4,0.1,1.8,1,2.2,1.2l4.4,2.4c1.7,1,2.2,1.2,2.5,1.4c0.1,0,0.1-0.1,0.1-0.3c-0.1-0.3-0.8-1.9-1-2.4L66.9,84.9z"/>
			<path class="st0" d="M78.3,84.6c-1,0.8-1.8,1-2.1,1.1c-0.3-0.1-1.1-0.8-1.7-1.2c0-0.1,0.1-0.3,0.3-0.3c0.7,0.4,2.1,1.1,3.3,0
				c1-0.8,0.8-1.8,0.3-2.5c-0.4-0.6-1-1-2.2-0.8L74.5,81c-0.8,0.1-2.1,0-2.8-1c-0.8-1.1-0.8-2.6,0.7-3.9c0.3-0.3,0.8-0.6,1.1-0.7
				c0.1-0.1,0.4-0.1,0.4-0.3c0.3,0.1,1,0.7,1.4,1.2c0,0.1-0.1,0.3-0.3,0.3c-0.6-0.4-1.5-0.8-2.6,0c-1.1,1-0.7,1.8-0.3,2.4
				c0.6,0.7,1.5,0.7,2.1,0.6l1.4-0.1c1.1-0.1,2.4-0.1,3.2,1C79.9,81.7,79.8,83.4,78.3,84.6z"/>
			<path class="st0" d="M79.9,71.9c-1.2-0.8-1.5-1-2.1-0.4l-0.3,0.3c-0.1,0-0.3-0.1-0.3-0.3c0.4-0.6,0.7-1,1.1-1.5
				c0.3-0.4,0.6-0.8,1-1.5c0.1,0,0.3,0.1,0.3,0.1l-0.1,0.3c-0.4,0.7-0.3,1,1,1.8l4.2,3c1.2,0.8,1.4,1,2.1,0.3l0.3-0.3
				c0.1,0,0.3,0.1,0.3,0.3c-0.4,0.6-0.7,1-1.1,1.4c-0.4,0.6-0.7,1-1,1.5c-0.1,0-0.3,0-0.3-0.1l0.1-0.3c0.4-0.7,0.3-0.8-1-1.8
				L79.9,71.9z"/>
			<path class="st0" d="M91.8,65.8c-0.4,1.1-1.1,1.7-1.2,1.9c-0.4,0-1.4-0.1-2.1-0.4c-0.1-0.1,0-0.3,0.1-0.3c0.8,0,2.4,0,2.9-1.5
				c0.4-1.1-0.1-1.9-1-2.4c-0.6-0.3-1.2-0.4-2.4,0.4l-1.4,1c-0.7,0.6-1.8,1-2.9,0.6c-1.2-0.6-1.9-1.9-1.2-3.6
				c0.1-0.4,0.4-0.8,0.7-1.2c0.1-0.1,0.3-0.3,0.3-0.4c0.4,0,1.2,0.1,1.8,0.4c0,0.1,0,0.3-0.1,0.4c-0.7,0-1.8,0-2.2,1.2
				c-0.6,1.4,0.3,1.9,1,2.2c0.8,0.3,1.7-0.1,2.1-0.6l1.1-0.8c0.8-0.7,1.9-1.2,3.2-0.7C91.8,62.5,92.5,64,91.8,65.8z"/>
		</g>
	</g>
	<path class="st0" d="M49.5,0.6c-27.1,0-49,21.9-49,49s21.9,49,49,49s49-21.9,49-49S76.6,0.6,49.5,0.6z M49.5,97.2
		c-26.3,0-47.6-21.3-47.6-47.6S23.2,2,49.5,2s47.6,21.3,47.6,47.6S75.8,97.2,49.5,97.2z"/>
	<g>
		<path class="st0" d="M61.1,73.4c-1,0.7-1.7,1.8-2.1,2.8c1,0.7,3,1.7,6.5,2.2c1.5-0.8,2.8-1.7,4.2-2.8c-1.2-0.3-2.5-1-3.3-1.4
			C64.8,73.3,62.9,71.9,61.1,73.4z"/>
		<path class="st0" d="M38.1,66.9c-1.2-0.3-1.8-0.3-3.6,0.3c-3,1-7.9,6.4-7.9,6.4c1.4,1.4,3,2.6,4.7,3.7c1.4-1.7,4.8-5.7,8.2-5.7
			c1.8,0,2.8,0.7,4.2,1.7c0.1-0.1,0.3-0.4,0.4-0.6C41.4,71.2,38.1,66.9,38.1,66.9z"/>
		<path class="st0" d="M48.5,71.6C47,71.8,46,73,45.3,74.2c2.8,1.9,5.3,4.2,8.9,5.1c2.8,0.8,3.9,1.1,6.8,1.2c1.2-0.4,2.5-1,3.7-1.7
			c-1.8-0.3-4.2-1.1-6.1-1.9C55.3,75.4,51.5,71.2,48.5,71.6z"/>
	</g>
	<path class="st0" d="M40.1,73.3c-4.2,0-5.8,3.5-7.1,5c4.8,2.8,10.5,4.4,16.5,4.4c3.2,0,6.2-0.4,9.1-1.2c-1.8-0.1-4.2-0.6-6.1-1.4
		C47.9,78.1,43.1,73.3,40.1,73.3z"/>
	<path class="st0" d="M69.5,70.4c-2.8-3.5-4.8-4.2-6-3.9s-0.8,1.1-2.1,2.5c-1.1,1.4-3.7,2.9-4.3,3.2c0.4,0.4,1,1.1,1.1,1.2
		c1.2-1.2,3-2.4,4.6-2.4c2.9,0,3.7,2.4,7.6,3.7c0.8-0.7,1.7-1.4,2.4-2.1C73,72.9,71.1,72.4,69.5,70.4z"/>
	<g>
		<path class="st0" d="M63,42c-0.1-0.1,0-0.4-0.1-0.6c-0.1-0.6-0.4-1.1-0.4-1.8c-0.1-0.4,0.3-0.6,0.6-0.7c0.1-0.4,0.1-0.8,0-1.1
			c-0.1-0.6-1-0.7-1-1.4c0-0.4-0.3-0.8-0.3-1.4c-0.3-0.7-0.1-1.5-0.3-2.2c-0.1-0.8-0.1-1.7-0.3-2.5c-0.1-1-0.3-1.9-0.6-2.9
			c-0.1-0.8-0.4-1.7-0.8-2.4c0-0.6-0.6-1-0.3-1.5c0.4-0.7,0.8-1.4,1.1-2.1c0.3-0.4,0.1-1,0.3-1.5c0-0.4,0.1-0.8,0-1.2
			c-0.1,0-0.1,0-0.1,0c-0.1,0.7-1,1-1.5,1.4c-0.8,0.3-1.7,0.1-2.6,0.3c-0.6,0-1,0.6-1.7,0.1c-0.3-0.1-0.6-0.3-1-0.4
			c-0.7,0-1.4,0-1.9,0c-1,0-1.7-0.6-2.6-0.4c-1.2,0-2.2,0.6-3.5,0.4c-1.1-0.3-2.2,0.1-3,0.6c-0.3,0-0.7-0.3-1.1-0.3
			c-1-0.4-2.2,0.3-2.9-0.4c-0.4-0.4-0.7-0.8-0.7-1.4C38.1,18.7,38,18.9,38,19c-0.3,0.4-0.4,0.8-0.4,1.2c-0.1,0.6,0,1.2,0.1,1.8
			c0.1,1,0.8,1.8,0.7,2.8c-0.1,0.4-0.4,1-0.6,1.4c-0.4,0.4-0.3,1.1-0.4,1.8c-0.4,1.1-0.1,2.2,0,3.5c-0.4,1.4-0.6,2.8-0.7,4.2
			c-0.1,1,0,1.9-0.4,2.8c-0.6,0.6-1,1-0.8,1.8c0,0.4,0.3,0.7,0.4,1c0.1,0.7,0.1,1.5,0,2.2c0,0.6-0.6,0.8-0.7,1.2
			c-0.1,0.6,0.3,0.8,0.6,1.1c0.1,0.3,0.1,0.8,0.3,1.1c0.1,1,0.3,1.8,0.4,2.8c0.3,1.4,0.4,2.8,0.7,4c0.3,1.7,0.7,3.2,1.1,4.7
			c0.6,1.1,0.7,2.4,1.1,3.5c0.3,1,0.8,1.8,0.8,2.8c0,0.1,0,0.3,0.1,0.3c0,0.7-0.6,1.1-0.4,1.8c0,0,2.1,3.6,4.4,5.1
			c1-1.1,2.4-2.1,4.2-2.1c2.9,0,5.5,2.9,8.3,5.1c0.1-0.3,0.4-0.4,0.7-0.7c-1-1.2-5-6-8.3-6.5c0,0,0.3-0.7,0-1
			c-0.3-0.4-0.3-0.7-0.3-1.1c0-0.1-0.1-0.6,0-0.7c0.6,0.1,0.7,0.7,1,1.1H50c0,0,0.1,0,0.1-0.1c0-0.6,0.7-0.8,1-1.1
			c0.1,0,0.1,0,0.3,0.1c0.1,0.6,0,1.2,0.4,1.7c0.1,0.1,0,0.3-0.1,0.4c0,0.4-0.3,0.3-0.3,0.3c2.5,1.2,3.9,2.6,5.3,4.3
			c1-0.7,4.4-2.9,4.3-5.1c0-0.7-0.4-0.7-0.6-1.1c-0.3-0.3-0.6-0.6-0.7-1c-0.4-0.7-0.7-1.5-0.6-2.5c0.3-0.7,0.3-1.4,0.6-2.1
			c0.4-1.2,0.7-2.5,1-3.7c0.4-1.7,1-3.5,1.1-5.3c0.3-0.6,0.3-1.2,0.4-1.9c0.3-0.6,0.1-1.4,0.3-2.1c0.1-0.6,0-1.1,0.3-1.5
			c0.1-0.3,0-0.6,0.1-0.8c0-0.4,0.4-0.3,0.4-0.7c0.3-0.1,0.4-0.6,0.6-0.7C64,42.8,63.5,42.4,63,42z M61.5,37.2
			c0.3,0.1,0.6,0.1,0.7,0.4c0.3,0.1,0.3,0.4,0.4,0.7c0,0.1,0,0.4-0.1,0.4c-0.6,0-1-0.3-1.2-0.6C61.1,37.7,61.4,37.4,61.5,37.2z
			 M58.6,43.9c0,0.8,0,1.7-0.1,2.5c-0.1,0.1,0,0.3,0,0.4c-0.1,0.8,0,1.8-0.1,2.6h-0.1c-0.3-0.4-1-0.6-1-1.1c0.4-1.4,0.3-3,0.4-4.6
			c0.1-1.2,0.1-2.6,0-3.9c0,0,0-0.1,0.1-0.1c0.4,0.1,0.6,0.6,1,0.7C58.6,41.7,58.5,42.7,58.6,43.9z M39.6,33c-0.4,0-0.4-0.4-0.6-0.7
			C39,32.2,39,31.9,39,31.8c0.1-0.1,0.1-0.3,0.1-0.4c-0.1-0.1-0.4,0-0.4-0.3s-0.1-0.7,0.3-0.8c0.3-0.1,0.7,0,1.1-0.3
			c0,0,0-0.1-0.1-0.1c-0.4,0-0.7,0.1-1,0.3c-0.1,0-0.1-0.1-0.1-0.3c0-1-0.1-1.8,0.1-2.5c0-0.1-0.1-0.4,0-0.6c0.4-0.1,0.6,0.6,1,0.4
			l0,0c-0.3-0.3-0.6-0.6-0.8-0.6c-0.1-0.3,0-0.7,0-1c0.1-0.1,0.1-0.3,0.3-0.1c0.3,0.1,0.4,0.4,0.7,0.6c0.1,0,0.1-0.1,0.1-0.3
			c-0.3-0.4-1.1-0.4-0.7-1.1c0-0.3,0.1-0.6,0.4-0.6c0.3,0.1,0.4,0.4,0.7,0.6h0.1c-0.3-0.3-0.4-0.6-0.3-0.8c0.1-0.1,0.4,0.1,0.6,0.1
			l0.3,0.1c0.3,0.1,0.7,0.3,0.7,0.7c0.3,0.4,0.3,0.8,0.7,1.1c0.1,0.3,0.3,0.4,0.4,0.6c-0.1,0.1-0.3,0.1-0.3,0
			c-0.3-0.3-0.4-0.6-0.7-0.8c-0.1,0-0.1,0-0.1,0.1c0.1,0.3,0.1,0.7,0.4,1V27c-0.4,0-1-0.4-1.2-0.7c0,0-0.1-0.1-0.3,0
			c-0.1,0.1,0,0.3,0,0.3c0.3,0.4,0.4,0.8,0.8,1c0.1,0,0.1,0.3,0,0.3c0,0.3-0.3,0.1-0.4,0.1c-0.3-0.3-0.6-0.6-0.8-0.7h-0.1
			c0,0.3,0.3,0.4,0.3,0.6c0.3,0.4,0.8,0.4,0.7,1c0,0.1,0,0.3-0.1,0.3c-0.7-0.1-1.7-0.4-2.2,0.3c0,0.1,0,0.1,0.1,0.1
			c0.7,0,1.2,0,1.8,0.4c0.1,0.1,0.3,0.3,0.1,0.4c-0.1,0-0.3,0-0.4,0.1c-0.1,0.1-0.4,0.3-0.7,0.4v0.1c0.3-0.1,0.7-0.3,1-0.4
			c0.1,0,0.3,0,0.3,0.1s-0.1,0.1-0.3,0.3c0-0.4-0.6-0.3-0.6,0.1h0.1c0.4,0,0.7-0.7,1.1-0.6c0.1,0,0.1,0.1,0.1,0.3
			c-0.6,0.4-1.4,0.7-1.5,1.5v0.1c0.1,0,0.1-0.1,0.3-0.3c0.6-0.4,1-0.8,1.7-1c0,0,0.1,0,0.1,0.1c0,0.3-0.6,0.6-0.6,0.8
			c-0.1,0.3-0.1,0.6-0.3,0.8c0,0,0.1,0.1,0.1,0c0.3-0.4,0.6-1.1,1.1-1.4c0,0.1,0.1,0,0.3,0.1c0.3,0,0.7,0.1,0.8,0.4
			c0,0.7-0.3,1.5,0,2.1c0.1-0.1,0-0.3,0.1-0.4c0-0.6,0.3-0.8,0.4-1.4c0-0.1,0.3-0.1,0.3-0.1c0.3,0.1,0.3,0.4,0.6,0.6
			c0.1-0.1,0-0.6,0-0.7c0.1-0.1,0.3-0.1,0.4-0.1c0,0,0.1,0,0.3,0c0.1-0.1,0-0.3,0-0.3c0.3-0.3,0.4-0.8,1-0.7l0.1,0.1
			c0,0.3,0,0.7-0.1,1c-0.1,0-0.1-0.3-0.4-0.1c-0.1,0.1,0,0.3,0,0.4c0.1,0.3,0.3,0.6,0.4,0.8c0,0.1,0.1,0.1,0,0.3
			c-0.4,0-0.6-0.4-0.7-0.6c-0.1-0.1-0.3,0-0.3,0.1c-0.1,0.4,0.3,0.8,0.6,1.1c0.1,0,0.3,0.1,0.3,0.1c0,0.1-0.1,0.3,0,0.4l0.1,0.3
			c-0.1,0.1-0.4,0-0.7-0.1c-0.4-0.3-0.8-0.8-1-1.4c0,0-0.1-0.1-0.1,0c-0.1,0.4,0,0.7,0.3,1c0.3,0.1,0.4,0.4,0.4,0.7
			c-0.1,0.1-0.3,0.1-0.4,0.1c-0.4-0.3-0.4-0.8-0.4-1.2c0,0-0.1-0.1-0.1,0c-0.1,0.3-0.1,0.6-0.1,0.7c0,0.3,0.1,0.6-0.1,0.7
			c-0.3,0.1-0.6,0-0.8,0.1c-0.3-0.1-0.3-0.6-0.3-0.8c0-0.1-0.1,0-0.1,0c-0.3,0.1-0.3,0.8-0.7,0.7c-0.3-0.1-0.7-0.3-1-0.7
			c-0.1-0.4,0.3-0.6,0.3-1c0.1-0.3,0.4-0.4,0.6-0.8c-0.1-0.1-0.4,0.1-0.6,0.3c-0.3,0.4-0.6,0.8-0.7,1.2c0,0.1-0.1,0.1-0.3,0.1
			c-0.4-0.4-1.4-0.7-1.2-1.4c0.1-0.1,0.1-0.3,0.3-0.4C39.9,32.6,39.8,32.9,39.6,33z M49.3,34.5h0.1c0.1-0.3,0.1-0.8,0.1-1.1
			c0-1,0.1-1.9,0.3-2.8c0-0.1,0-0.3,0.3-0.4c0.3,0,0.7,0.1,0.8,0.4c0.1,1.2,0,2.6-0.4,3.7c-0.1,0.6-0.6,1-0.8,1.5
			c-0.1,0.1-0.1,0.6-0.6,0.6c-0.8-1.1-1.4-2.5-1.4-4c0-0.6-0.3-1.4,0.1-1.8c0.4-0.1,0.7-0.6,1.1-0.4v0.1
			C49.3,31.6,48.9,33.1,49.3,34.5z M52.9,38.5c-0.7-0.3-1.4-1-1.4-1.8c0-0.1,0.1-0.1,0.1,0l0.7,0.7c0.6,0.3,1.1,0.7,1.4,1.2
			c0,0.1,0.1,0.4-0.1,0.6c-0.3,0.3-0.6,0.4-1,0.4C52,39.5,51.3,39,51,38.4c-0.1-0.4-0.1-1,0-1.4c0.3,0,0.1,0.3,0.3,0.4
			c0.3,0.6,0.8,1.4,1.5,1.5C53.1,38.7,52.9,38.5,52.9,38.5z M52.7,32c-0.1,0.1-0.3,0.3-0.4,0.4c-0.1-0.3,0.1-0.4,0.1-0.7v-0.1
			c-0.1-0.1-0.3,0-0.3-0.3c0-0.1,0-0.1,0-0.3h0.3c0.3,0.3,0.7,0.7,1.1,1c0,0.3,0,0.6-0.1,0.8c0,0.3-0.3,0.6-0.3,0.8
			c0,0.1,0.1,0.1,0.1,0c0.3-0.4,0.4-0.8,0.8-1.2c0.4-0.1,0.8,0,1.2,0c0.3,0.1,0.1,0.6,0.3,0.8c0,0.1,0,0.4,0.1,0.6
			c0.3,0,0.3-0.4,0.3-0.6c0.1-0.4,0-0.7,0-1.1c0,0,0-0.1,0-0.3c0.1-0.1,0.3-0.1,0.4,0c0.3,0.1,0.4,0.6,0.7,0.7c0.1,0,0-0.1,0-0.3
			c0-0.3-0.4-0.6-0.4-0.8c0-0.1,0.1-0.1,0.3-0.1c0.3,0.1,0.1,0.6,0.4,0.7c0.1,0,0-0.1,0-0.3c-0.1-0.3-0.3-0.6-0.3-0.8
			c0.1-0.1,0.3,0,0.3,0c0.4,0.1,0.7,0.3,1.1,0.6c0.4,0.3,0.4,0.8,0.6,1.2c-0.1,0.4,0.3,1-0.1,1.2c-0.3,0.1-0.6,0.4-0.8,0.6
			c-0.1-0.1-0.1-0.3-0.3-0.4c-0.3-0.3-0.4-1-0.8-0.8c-0.1,0.1,0.1,0.4,0.1,0.7c0,0.4,0.4,0.8,0.1,1.2c-0.4-0.1-0.6,0.4-1,0.3
			c-0.4-0.1-0.8,0.7-1.2,0c0-0.6,0-1.1-0.1-1.8c0-0.1-0.1-0.4-0.3-0.6c-0.1,0.1,0,0.4-0.1,0.7c0,0.6-0.1,1.1-0.4,1.5
			c-0.1,0.1-0.3,0.3-0.4,0.1c0,0-0.1,0-0.1-0.1c0-0.3,0.1-0.6,0.1-0.8c0-0.1-0.1,0-0.1,0c-0.3,0.4-0.7,1-1.2,0.8
			c-0.1-0.1-0.1-0.1-0.3-0.1c0.1-0.3,0.6-0.6,0.6-0.8c-0.3,0-0.4,0.3-0.7,0.4c-0.1-1,0.8-1.5,1-2.5C52.8,32,52.7,32,52.7,32z
			 M52.7,27.5c0.4-0.6,1.1-0.7,1.8-0.8c0.7,0,1.5,0.1,1.9,0.7c0.6,0.7,0.7,1.7,0.4,2.5c-0.4,0.8-1.2,1.5-2.2,1.5
			c-0.4,0.1-0.7-0.1-1.1-0.3c-0.6-0.3-0.7-0.8-1-1.2C52.1,29,52.2,28.2,52.7,27.5z M59.9,38.5c0,0,0.1-0.1,0.3-0.1
			c0.3,0,0.4,0,0.7,0.1c0.1,0.3,0.3,0.7,0.1,1c-0.4,0.1-0.7,0-1-0.3C59.7,39,60,38.7,59.9,38.5z M60.1,38c-0.4-0.1-0.8-0.6-1.1-1
			c-0.1-0.4-0.4-0.7-0.4-1.1c0-0.3-0.1-0.6,0-0.8l0,0c0.3,0.7,0.8,1.1,1.4,1.8c0.1,0.1,0.4,0.1,0.6,0.4C60.5,37.6,60.4,37.8,60.1,38
			z M56.8,46.6c-0.4,0.1-0.7-0.4-1.1-0.6c-0.4-0.6-0.8-1.1-0.8-1.8c0,0,0.1-0.1,0.1,0c0.3,0.4,0.6,1,1.1,1.1c0.1,0,0.1,0,0.1-0.1
			c-0.1-0.4-0.4-0.8-0.3-1.2c0.3,0,0.4,0.4,0.8,0.4c0.1,0.1,0.1,0.6,0.1,0.7C56.8,45.5,56.9,46.1,56.8,46.6z M56.7,55.6
			c0-1.1,0.3-2.4,0.3-3.5c0.1-0.1,0.4-0.3,0.7-0.3c0,0.1,0,0.4,0,0.7c0,1.1-0.1,2.2-0.1,3.5c0,0.4-0.1,1-0.1,1.4
			c-0.1,0.3-0.1,0.6-0.1,1c0,1-0.3,1.8-0.4,2.6c-0.1,0.1-0.1,0.6-0.4,0.6c-0.3-0.3-0.1-0.7-0.1-1c0.1-0.3,0-0.7,0.1-1
			C56.4,58.2,56.8,56.9,56.7,55.6z M56.4,63.6c0.3,0.6,0.3,1.1,0.4,1.5c0,0.3,0.1,0.6-0.1,0.7c-0.7-0.1-1.2,0.1-1.8,0.6
			c-0.1,0-0.3,0-0.4-0.1c-0.1-0.3,0-0.6,0-0.8c0.1-0.3,0-0.7,0.3-1c0.1-0.1,0.4-0.1,0.4-0.4c-0.3-0.1-0.7,0-0.8-0.3
			c-0.3-0.4-0.6-0.8-0.6-1.4c0.4-0.4,1.1-0.6,1.7-0.4c0.1,0.1,0.4,0.1,0.4,0.3C56.3,62.9,56.3,63.3,56.4,63.6z M55.4,66.9
			c0.1-0.4,0.6-0.4,0.8-0.6c0.1,0,0.3,0,0.3,0.1c-0.1,0.8-0.3,1.7-0.8,2.4c0,0.1-0.1,0.1-0.3,0.1c-0.1,0,0-0.1,0-0.3
			C55.7,68.2,55.7,67.5,55.4,66.9z M54,68.3c-0.6-0.1-1.2-0.6-1.2-1.2c0-0.1-0.1-0.3-0.1-0.4c0.3-0.3,0.7-0.3,1.1-0.3l0.1,0.1
			C53.8,67,53.6,67.9,54,68.3z M53.2,65.9c-0.3,0-0.6,0.3-0.8,0.3c-0.1-0.3-0.1-0.6-0.3-0.8c-0.1-1,0-1.9,0.8-2.5
			c0.1-0.1,0.3,0,0.4,0c0.3,0.3,0.4,0.7,0.6,1c0.1,0.3,0.3,0.4,0.4,0.8c0.1,0.4,0,0.8,0,1.2C53.9,66.1,53.5,65.8,53.2,65.9z
			 M46.8,67.3c0.3-0.1,0.6-0.4,1-0.1c0.3,0.3,0.3,0.6,0.3,0.8c-0.3,0.6-0.8,1.1-1.4,1.2c0,0-0.1,0-0.1-0.1c0-0.4,0.3-0.7,0.1-1.1
			C46.6,67.7,46.7,67.6,46.8,67.3z M47.9,66.8c-0.3,0-0.6-0.1-0.7-0.3c-0.3,0-0.3,0.3-0.6,0.4c-0.1,0-0.1,0.1-0.3,0.1
			c-0.1-0.3-0.1-0.6-0.1-0.8c-0.1-0.3,0-0.7,0.1-1c0.3-0.1,0.4-0.4,0.7-0.4c0.1-0.1,0.1-0.1,0.1-0.3c-0.1-0.1-0.4-0.1-0.6-0.1
			c-0.3,0.1-0.4,0.3-0.7,0.6c-0.3-0.4-0.3-0.8-0.3-1.4c0-0.4,0.1-1,0.6-1.1c0.3,0.1,0.8,0.1,1,0.6c0.6,0.7,1.1,1.4,1.2,2.4
			c0,0.6,0.1,1.1-0.1,1.7C48.1,67,48.1,66.9,47.9,66.8z M46.3,61.5c-0.8-0.4-1-1.4-0.8-2.2c0-0.1,0-0.4,0.3-0.4
			c0.1,0.1,0.1,0.3,0.3,0.4c0.4,0.8,1.4,1.4,2.1,2.1c0.6,0.3,0.8,1,0.8,1.7c0.1,0.1,0,0.4,0,0.6c0,0-0.1,0-0.1-0.1
			C48.1,62.6,47.3,61.8,46.3,61.5z M42.3,37.4c0.3-0.1,0.4-0.4,0.7-0.6c0.3-0.3,0.4-0.6,0.7-0.8c0.1,0,0.3,0,0.3,0.1
			c0,0.4-0.1,0.7-0.3,1.1c-0.4,0.8-1,1.7-1.9,1.8c-0.3,0-0.6-0.1-0.7-0.3c0-0.4-0.1-0.7-0.1-1c0-0.7,0.6-1.2,1-1.9
			c0.1-0.1,0.4-0.3,0.4,0c-0.1,0.4-0.1,1-0.1,1.4C42.3,37.3,42.3,37.4,42.3,37.4z M44.3,42.6c0.6-0.4,1-1.1,1.4-1.5h0.1
			c0,1-0.6,1.8-1.2,2.6c-0.4,0.4-1.1,0.7-1.7,0.6c-0.4,0-0.6-0.6-0.7-0.8c0-0.4,0.1-0.7,0.3-1c0.6-0.4,1.2-0.8,1.5-1.4
			c0-0.1,0.1-0.1,0.3,0c0,0.7-0.4,1.2-0.7,1.8C44.1,42.8,44.2,42.7,44.3,42.6z M45.9,38.8c0.6-0.1,0.8-0.6,1.1-1
			c0-0.3,0.3-0.4,0.4-0.7c0,0,0,0,0.1,0c0,1-0.4,1.9-1.2,2.6c-0.1,0.1-0.4,0.1-0.6,0.1c-0.3-0.1-0.7-0.3-0.7-0.6
			c0-0.7,0.1-1.2,0.7-1.5c0.1-0.1,0.3-0.4,0.6-0.4c0,0.4-0.1,0.8-0.3,1.1C46,38.5,45.7,38.7,45.9,38.8z M48.5,48.4
			C48.6,48.4,48.6,48.4,48.5,48.4c0.3-0.1,0.1-0.4,0.3-0.6c0.1-0.1,0.3,0,0.3,0c0.4,0.3,0.1,0.8,0.3,1.2c0,0.4-0.1,1-0.3,1.4
			c0.1,0.1,0.3,0,0.3,0c0.4-0.6,0.3-1.1,0.4-1.8c0-0.1,0-0.3,0.1-0.4c0.1,0,0.1,0,0.1,0.1c0,0.4,0,0.8,0,1.2h0.1
			c0.4-0.6,0.1-1.2,0.4-1.9c0.1-0.3,0-0.7,0.1-1.1c0.3,0,0.3,0.3,0.3,0.6s0.1,0.4,0.3,0.6c0.1,1.4,0.6,3.3-0.8,4.2
			c-0.4,0.3-1.1,0.1-1.5,0c-0.4-0.1-0.6-0.7-0.7-1c-0.3-0.8-0.6-1.7-0.4-2.6c0.1-0.8,0.3-1.8,0.7-2.5c0.1,0,0,0.3,0,0.4
			C48.5,47,48.4,47.7,48.5,48.4z M52.5,45.5c-0.1-0.3-0.1-0.7-0.3-1.1c0-0.3,0.3,0,0.3,0.1c0.3,0.8,1.5,1,1.5,1.9
			c0.1,0.3,0.1,0.6,0,0.8c-0.3,0.3-0.7,0.4-1.2,0.4c-0.7-0.3-1.1-1-1.7-1.5c0-0.4-0.4-0.7-0.1-1.1c0.1,0,0.3,0.1,0.3,0.1
			c0.4,0.4,0.8,0.8,1.2,1.1c0.1,0,0.1,0,0.3-0.1C53.1,45.9,52.7,45.7,52.5,45.5z M51.8,53.5c-0.1-0.3-0.6-0.6-0.6-0.8
			c0-0.1-0.1-0.3,0.1-0.4c0.7,0.3,1.2,0.7,1.7,1.2c0.1,0.4,0.1,1,0,1.2c0,0.1-0.1,0.4-0.3,0.4c-0.1,0.1-0.4,0.1-0.7,0.1
			c-0.7-0.4-1.1-1.2-1.2-2.1H51c0.3,0.3,0.4,1,1,0.7C52,53.9,52,53.6,51.8,53.5z M53.1,52c-0.4-0.6-0.8-1.1-0.8-1.9
			c0,0,0.1-0.1,0.1,0c0.1,0.1,0.1,0.3,0.1,0.4c0.1,0.3,0.3,0.7,0.7,0.7c0.1,0,0-0.3,0-0.3c0-0.4-0.3-0.7-0.1-1.1l0,0
			c0.6,0.6,1.2,1.1,1,1.9c0,0.3-0.3,0.4-0.4,0.4C53.5,52.1,53.3,52.1,53.1,52z M46,51.1c0.4-0.4,0.7-0.8,1-1.2c0.1,0,0.1,0,0.1,0.1
			c0.1,1.1-0.4,1.9-1.2,2.5c-0.3,0.1-0.6,0.1-0.7,0.1c-0.1-0.1-0.3-0.4-0.4-0.6c-0.1-0.8,0.1-1.5,0.7-2.1c0.3-0.3,0.3-0.6,0.6-0.7
			c0.3,0.1,0.1,0.7,0.1,1c0,0.4-0.3,0.6-0.3,1C45.7,51.4,45.9,51.1,46,51.1z M46.7,52.8c0.1-0.4,0.6-0.6,0.8-1c0.1,0,0.3,0,0.3,0.1
			c0,0.7-0.4,1.2-0.7,1.8c0.1,0.1,0.3-0.1,0.6-0.1c0.4-0.3,0.4-0.8,0.7-1.2c0.1,0,0.3,0.1,0.3,0.1c0.4,1-0.1,1.8-0.6,2.5
			c-0.3,0.6-0.8,0.3-1.2,0.4c-0.3,0-0.6-0.1-0.6-0.4C46,54.2,46.6,53.5,46.7,52.8z M47.9,44.8c0,0.4-0.1,0.7-0.3,1.1L47.5,46
			c0.1,0.1,0,0.3,0,0.4c-0.1,0.8-0.8,1.4-1.7,1.5c-0.3,0-0.6-0.1-0.8-0.3c-0.4-0.3-0.3-0.8-0.3-1.4c0.3-0.8,0.8-1.7,1.4-2.5
			c0,0,0.1-0.1,0.1,0c0.1,0.8,0,1.5-0.3,2.2c0,0.1,0,0.3,0.1,0.4c0.3-0.1,0.3-0.4,0.6-0.6v-0.1c0.3-0.6,0.7-1.1,0.8-1.8
			c0-0.1,0.1,0,0.1-0.1C48.1,44.2,47.9,44.5,47.9,44.8z M43.8,40.5c-0.3,0.3-0.7,0.6-1.1,0.6c-0.1,0-0.3-0.1-0.3-0.3
			c-0.1-0.8,0.6-1.2,0.7-1.9c0.1-0.1,0.3-0.4,0.4-0.4c0.1,0.4-0.1,0.8-0.1,1.4c0.1,0.1,0.3-0.1,0.4-0.3c0.3-0.6,0.6-1.2,0.7-1.8
			c0-0.1,0.1,0,0.1,0C44.6,38.8,44.2,39.6,43.8,40.5z M42.3,45.6l0.7-0.7c0.1,0,0.1,0,0.1,0.1c0.1,0.4-0.1,1-0.3,1.2
			c0,0.1-0.1,0.4,0,0.6c0.3,0,0.4-0.3,0.6-0.4c0.3-0.4,0.6-0.8,1-1.1h0.1c0,0.7-0.4,1.2-0.7,1.8c-0.3,0.6-0.8,1-1.5,0.8l-0.1-0.1
			C42,47.1,41.9,46.1,42.3,45.6z M44.6,53.9c0.1-0.1,0.1-0.3,0.3-0.3c0,0.3-0.3,0.4-0.3,0.7c-0.1,0.3-0.3,0.6-0.3,0.8
			c0.1,0.1,0.3,0,0.4,0c0.3-0.3,0.6-0.6,0.8-0.8v0.1v0.1c-0.3,0.6-0.6,1.4-1.4,1.5c-0.3,0-0.6,0-0.7-0.1c-0.1-0.4,0-1,0.3-1.4
			C44.1,54.5,44.2,54,44.6,53.9z M44.5,59.3c0,0.6,0.1,1.2-0.1,1.7c-0.1,0.1-0.3,0.3-0.4,0.1c-0.3-0.1-0.3-0.3-0.3-0.6
			c0-0.6-0.1-1.1,0.1-1.7c0.1-0.4,0.1-0.7,0.3-1.1c0-0.3,0.1-0.6,0.1-0.8c0.1,0.1,0,0.4,0.1,0.6C44.5,58.2,44.2,58.7,44.5,59.3z
			 M43.5,63.5c0.1-0.3,0.3-0.7,0.6-1c0.1-0.3,0.6-0.1,0.8-0.3c0.3,0.1,0.8-0.1,0.7,0.3c-0.3,0.6-0.6,1.2-0.3,1.8
			c-0.1,0.3-0.8,0-0.7,0.4c0.3,0.4,0.7,0.1,0.8,0.6c0.1,0.4,0.1,1,0.3,1.4c0,0.1-0.1,0-0.1,0c-0.4-0.3-0.8-0.6-1.2-0.3
			c-0.3,0.1-0.4,0.4-0.7,0.7c-0.1,0.1-0.1-0.1-0.1-0.1C43.1,65.8,43.2,64.4,43.5,63.5z M47,59.9c-0.3-0.4-0.4-1-0.7-1.4
			c0-0.6-0.1-1,0-1.5c0-0.1,0-0.3,0.1-0.4l0,0c0,1.1,0.7,1.8,1.2,2.6c0.4,0.4,1.4,0.6,1.2,1.4c0,0.4,0.3,0.7,0,1.1
			c-0.1,0-0.1,0-0.1-0.1C48.4,60.8,47.5,60.4,47,59.9z M49.1,58.5c-0.6-0.6-1-1.2-0.7-2.1c0-0.6,0.3-1.1,0.7-1.4
			c0.1-0.1,0-0.4,0.3-0.4c0.1,0.1,0,0.3-0.1,0.3c0.1,0.6,0.4,1.4-0.1,1.8c0,0.1,0,0.3,0.1,0.3c0.6,0.1,0.4-0.6,0.7-0.7
			c0,0.4-0.3,0.8-0.6,1.1c0,0.1,0.3,0.1,0.3,0.3c0.3,0,0.4-0.4,0.6-0.6c0.1-0.7,0.1-1.2-0.3-1.8c0-0.1-0.1-0.4,0.1-0.7
			c0.4,0,0.6,0.4,0.7,0.7c0.3,0.6,0.4,1.4,0.1,1.9c0.1,0.7-0.6,0.8-0.8,1.2C49.7,58.5,49.3,58.7,49.1,58.5z M50.4,59.9
			c0-0.3,0.3-0.4,0.4-0.7c0.3-0.7,0.6-1.2,1-1.8c0.3-0.3,0.1-0.7,0.3-1.1c0.1,0,0.1,0.3,0.3,0.4c0.1,0.7,0.1,1.5-0.1,2.1
			c-0.4,0.8-1.1,1.5-1.4,2.2c-0.1,0.1-0.1,0.4-0.3,0.6C50.2,61.1,50.2,60.4,50.4,59.9z M50.9,62.5c0.1-0.7,0.6-1.2,0.8-1.8
			c0.6-0.7,0.8-1.4,1.1-2.1c0-0.1-0.1-0.3,0-0.4c0.3,0.4,0.4,1,0.3,1.5c0,1.4-1.5,2.2-1.7,3.5c-0.1,0.1-0.3,0.4-0.4,0.6
			C50.9,63.5,51,62.9,50.9,62.5z M54.2,59.7c0-0.8,0.3-1.5,0.3-2.4c0-0.1,0.1-0.3,0.1-0.1c0.1,0.8,0,1.7,0.3,2.4
			c0,0.6,0.1,1.2-0.4,1.5c-0.1,0.1-0.3,0-0.3-0.1C53.9,60.5,54.2,60.1,54.2,59.7z M55.3,55c-0.1,0.1-0.3,0.3-0.6,0.1
			c-0.8-0.3-1.1-1.1-1.2-1.8c0.1,0,0.3,0.3,0.4,0.3c0.3,0.1,0.4,0.7,0.8,0.4c0-0.4-0.4-0.6-0.6-1c0-0.1-0.1-0.3-0.1-0.4
			c0.1,0,0.1,0.3,0.4,0.4c0.4,0.1,0.8,0.6,1,1C55.6,54.3,55.6,54.7,55.3,55z M53.8,43c-0.6-0.4-0.7-1-0.8-1.7c0-0.1-0.1-0.4,0-0.6
			c0.1,0,0.1,0.1,0.1,0.1c0.3,0.3,0.6,0.8,1,1c0.1,0.1,0.1,0.1,0.1,0.3c0.1,0,0.3,0,0.3-0.1c0-0.1-0.1-0.4-0.3-0.6
			c-0.1-0.4-0.6-0.7-0.4-1.2c0.1-0.1,0.3,0.1,0.6,0.3c0.6,0.1,1.4,0.6,1.5,1.2c0,0.4,0,1-0.3,1.2C54.9,43.2,54.2,43.1,53.8,43z
			 M55.4,38.8c0.1,0.1,0.3,0.3,0.4,0.3c0.3,0.3,0.6,0.7,0.4,1.1c-0.1,0.1-0.1,0.4-0.3,0.6c-0.4,0-0.7-0.4-1-0.7s-0.4-0.6-0.3-1
			c0-0.1,0.1,0,0.3,0c0.3,0.1,0.4,0.6,0.7,0.3C55.6,39.2,55.3,39.1,55.4,38.8z M55.8,38.5c-0.4-0.7-0.8-1.2-0.8-2.1h0.1
			c0.3,0.4,0.7,1.1,1.4,1.1c0.1-0.1-0.1-0.4-0.1-0.6c0-0.3-0.1-0.4-0.1-0.7c0.1,0,0.1,0.1,0.3,0.3c0.4,0.3,0.8,0.6,1,1.1
			c0,0.4,0,1-0.4,1.4C56.5,39,56.1,38.8,55.8,38.5z M51.4,43.8c-0.4,0.6-1.2,1.1-2.1,1.1c-0.4-0.1-0.8-0.1-1.1-0.6
			c0-0.3-0.4-0.4-0.3-0.8c-0.3-0.7-0.6-1.4-0.4-2.2c-0.1-0.8,0.1-1.8,0.3-2.6c0.1-0.1,0.3-0.6,0.4-0.3c0,0.8-0.3,1.5,0.1,2.2
			c0.1,0,0.1,0.1,0.3,0.1c0.3-0.1,0-0.6,0.1-0.8c0.1-0.1,0.1,0,0.3,0.1c0.1,0.8,0,1.8,0.4,2.5c0.1,0.1,0.3,0.3,0.4,0.1
			c0.1-0.1,0-0.1,0.1-0.3c-0.4-1.1-0.4-2.5,0-3.6c0.1,0,0.1,0,0.1,0.1c0.1,0.7-0.1,1.5,0.1,2.1c0.3-0.1,0.3-0.4,0.4-0.7
			c0.1-0.7,0-1.5,0.1-2.2c0.1,0,0,0.1,0.1,0.1C51.4,40.1,52.5,42.1,51.4,43.8z M48.1,28c0-0.1,0.1-0.4-0.1-0.4
			c-0.1,0-0.4,0.1-0.6,0.1l-0.1-0.1c0,0,0,0,0-0.1c0.3-0.3,0.7-0.4,1-0.6c0.1-0.1,0.3-0.3,0.4-0.1C48.8,27.3,48.4,27.7,48.1,28
			C48.1,28.2,48.1,28.2,48.1,28z M47.1,26.9c-0.3,0-0.6,0.1-0.8-0.1c0.1-0.3,0.4-0.1,0.6-0.3c0.4-0.1,0.7,0.3,1,0.3c0,0,0,0,0,0.1
			C47.7,26.9,47.4,26.8,47.1,26.9z M47.9,24.7c-0.1,0-0.1-0.3-0.3-0.3c-0.1-0.1-0.1-0.1-0.3-0.1c-0.1,0.1-0.3,0.4-0.4,0.7v0.1
			c-0.3,0-0.3-0.3-0.6-0.4c-0.1-0.4,0.3-0.7,0.4-1c0.3,0,0.7,0.1,0.8,0.4C47.8,24.1,48.1,24.3,47.9,24.7z M46.8,25.5
			c-0.1,0.4,0.4,0.3,0.6,0.4v0.1c0,0.1-0.3,0.1-0.4,0.1c-0.4-0.1-0.8,0-1.1,0.1c-0.1,0-0.3,0-0.4-0.1c0-0.3,0.4-0.1,0.6-0.1
			c0.1-0.1,0.3-0.1,0.4-0.3c-0.4-0.3-1,0-1.4,0c-0.3,0.1-0.7,0.1-1,0c0,0,0-0.1,0.1-0.1c0.4,0.1,0.7-0.3,1.1-0.3
			c0.3-0.1,0.7,0,1.1,0C46.6,25.4,46.7,25.5,46.8,25.5z M45.7,24.8c-0.7,0-1.2,0.4-2.1,0.3c0,0-0.1,0-0.1-0.1s0.1-0.1,0.1-0.1
			c0.1-0.3,0.6-0.1,0.7-0.3c0.1,0,0.4,0,0.6-0.1c0.4,0,1,0,1.2,0.4V25C46,25,45.9,24.8,45.7,24.8z M43.9,26.8c0.8-0.3,1.7,0,2.2,0.4
			c0.6,0.7,0.7,1.8,0.3,2.6c-0.3,0.6-0.7,1.2-1.4,1.2c-0.8,0.4-1.7,0-2.4-0.6c-0.4-0.6-0.8-1.2-0.6-1.9C42.3,27.9,43.1,27,43.9,26.8
			z M41.3,40.2C41.3,40.2,41.3,40.3,41.3,40.2c0,1.7,0.1,3.2,0.3,5c0.1,1.5,0.1,3,0.3,4.4c0,0.3-0.3,0.4-0.4,0.7
			c-0.1,0.1-0.3,0.4-0.6,0.4c-0.3-0.4-0.1-1-0.3-1.5c-0.1-2.4-0.4-5-0.4-7.5c0.1-0.3,0.3-0.6,0.4-1C40.9,40.8,41.2,40.5,41.3,40.2z
			 M42,50L42,50c0.4-0.4,0.8-0.8,1.1-1.1h0.1c-0.1,0.7-0.3,1.4-0.8,2.1c0,0.1,0,0.1,0.1,0.1c0.3-0.4,0.6-0.7,1-1.1
			c0.3-0.3,0.4-0.6,0.7-0.8c0.1,0.3,0,0.6,0,0.7c-0.1,1.1-0.6,2.1-1.7,2.6c-0.4,0-0.6,0.3-1,0.1c-0.3,0-0.6-0.3-0.7-0.6
			C40.9,51.4,41.4,50.7,42,50z M41.4,53.2l0.4-0.1c0,0,0.1,0,0.1,0.1c0.1,1.2,0.1,2.5,0.3,3.7c0,1,0.1,1.7,0.3,2.6
			c0.1,0.6,0,1.2,0.3,1.8c0.3,0.6-0.1,0.8-0.3,1.2c-0.4,0,0-0.6-0.3-0.8c-0.4-1.7-0.8-3.2-1-5c-0.1-0.8-0.1-1.7-0.3-2.5
			c-0.1-0.4,0-0.8-0.1-1.2C41.2,53.1,41.3,53.2,41.4,53.2z M41.2,65.1c0-0.6,0.1-1.1,0.4-1.5c0-0.3,0.3-0.3,0.6-0.4
			c0.3,0,0.6-0.3,0.8,0c0,0.1,0.3,0.3,0.1,0.6c-0.1,0.3-0.3,0.6-0.7,0.8c-0.1,0-0.4-0.1-0.4,0.1c0,0.4,0.6,0.1,0.7,0.4
			c0,0.3,0.1,0.7,0,1c-0.3,0-0.7,0-1,0.1c-0.1,0.1-0.3,0.3-0.4,0.1C40.9,66.1,41,65.5,41.2,65.1z M41.9,66.5c0.3-0.1,0.6-0.1,0.8,0
			c0,0.3-0.1,0.7-0.1,1c0,0.4,0.3,0.8,0.7,1l0,0c-0.3,0.1-0.6-0.1-0.8-0.3c-0.4-0.3-0.4-0.7-0.6-1C41.9,67,41.6,66.6,41.9,66.5z
			 M44.6,66.8c0.3,0,0.6,0,0.8,0.3c0,0.3-0.1,0.6-0.1,1c0,0.4,0,0.8,0.3,1.1v0.1c-0.3,0-0.6-0.3-0.7-0.4c-0.4-0.4-0.8-0.8-0.8-1.4
			C44.1,67,44.3,66.9,44.6,66.8z M57.6,66.5c-0.1,0,0-0.1,0-0.3c0.3-0.4,0.7-0.1,1.1-0.3l0,0c0.1,0.4-0.4,0.7-0.6,1.1
			c-0.1,0.1-0.1,0.3-0.1,0.3c-0.3,0.3-0.4,0.6-0.7,0.8h-0.1C57.4,67.7,57.9,67.2,57.6,66.5z M58.9,65.5c-0.1,0.1-0.1,0.1-0.3,0.1
			c-0.4-0.1-0.7,0.1-1.1,0.1c-0.1-0.3-0.3-0.7-0.3-1c0.3-0.3,0.6-0.4,0.7-0.7c0-0.1,0-0.1-0.1-0.1c-0.3,0-0.6,0.6-0.8,0.1
			c-0.1-0.3-0.3-0.7-0.4-1.1c0.3-0.1,0.6,0,0.7,0.1l0.4,0.1c0.7,0.1,0.7,1,1.1,1.4C58.9,64.8,59.3,65.3,58.9,65.5z M57.4,51.5
			c-0.8,0.1-1.7-0.3-2.2-0.8c-0.3-0.4-0.6-0.8-0.6-1.4c0-0.1,0.1-0.1,0.3-0.1c0.4,0.4,1,0.8,1.5,1l0.1-0.1c0.1,0,0.1,0.3,0.3,0.1
			c0,0,0.1-0.1,0-0.1c-0.7-0.6-1.1-1.2-1.2-1.9c0-0.1,0.1-0.1,0.3-0.1c0.7,0.4,1.4,1,2.1,1.5c0.3,0.4,0.6,0.8,0.4,1.2
			C57.9,51.1,57.6,51.4,57.4,51.5z M57.8,38c0-0.1,0.1,0,0.1,0c0.3,0.3,0.4,0.6,0.7,0.8c0.6,0.4,1,1,1.7,1.1
			c0.1,0.3,0.6,0.3,0.7,0.4c0,0.3-0.1,0.6-0.4,0.6c-0.8,0-1.2-0.6-1.8-1.1C58.3,39.4,58.1,38.7,57.8,38z M61,36.7
			c-0.1,0-0.4,0-0.6-0.1c-0.6-0.3-0.3-0.8-0.4-1.4c0-0.4-0.1-0.8,0.1-1.1c0.1,0,0.1,0.1,0.1,0.1C60.5,35.1,61,35.8,61,36.7z
			 M60.4,31.3c0,0.1-0.1,0-0.3,0c-0.1-0.3-0.6-0.4-0.7-0.8c0-0.1-0.3-0.1-0.3,0c0,0-0.1,0.1,0,0.1c0.4,0.6,0.6,1.1,1,1.7
			c0,0.3-0.3,0.6-0.4,0.8h-0.1c-0.3-0.1-0.3-0.4-0.4-0.7c0-0.1-0.1-0.4-0.1-0.6c0.1-0.6-0.4-0.8-0.6-1.2c-0.3-0.3-0.7-0.3-0.8-0.6
			c0-0.1,0-0.3,0.1-0.3c0.4-0.4,0.8,0.1,1.2-0.1c0.1,0.1,0.4,0,0.6,0c0.3,0.1,0.6,0.4,0.8,0.4c0.3,0.1,0.3,0.4,0.3,0.7
			C60.5,31.1,60.4,31.2,60.4,31.3z M59.7,26.2c0,0.1-0.1,0.4,0,0.6c0.1,0.1,0.4,0.3,0.4,0.4s0,0.3-0.1,0.3c-0.4,0-0.8,0.1-1.1,0.6
			c0,0.1,0,0.1,0.1,0.1c0.3,0,0.3-0.4,0.7-0.4c0.3,0,0.4-0.1,0.7,0c0,0.3,0.3,0.4,0.3,0.6c-0.1,0.4,0.1,1-0.1,1.4
			c-0.6,0-1-0.6-1.5-0.1c-0.3,0-0.7-0.3-1-0.1c-0.3-0.1-0.4-0.6-0.3-0.8c0.1-0.3,0.4-0.1,0.6-0.4c0.1,0,0.4,0.1,0.4,0
			c0-0.3-0.4-0.1-0.6-0.1c-0.1,0-0.3,0.1-0.6,0.1c-0.1-0.1-0.1-0.3-0.1-0.6c0.3-0.6,1-0.7,1.4-0.8c0,0,0.1-0.1,0-0.1
			c-0.6-0.4-1.2,0.1-1.7,0.4c-0.1,0-0.1,0-0.1-0.1c0.1-0.4,0.3-0.8,0.7-1l0.1-0.1c-0.1-0.1-0.3,0-0.4,0c-0.1,0.1-0.4,0.4-0.7,0.6
			c0-0.3,0.4-0.6,0.6-1c0,0,0-0.1-0.1-0.1c-0.4,0.3-0.7,0.7-1.2,1c-0.1,0-0.3,0-0.4,0c-0.1,0,0-0.1,0-0.3c0.3-0.4,0.7-0.8,0.8-1.2
			c0.3-0.8,1.2-0.7,1.8-1.2c0.3,0.1,0.6-0.1,0.7,0.1c-0.3,0.3-0.4,0.3-0.6,0.4c-0.3,0.3-0.8,0.4-1,0.8c0.3,0.1,0.3-0.1,0.6-0.3
			c0.1-0.1,0.3-0.3,0.4-0.1c0.3,0.3,0.4-0.4,0.6,0.1c-0.1,0.3-0.4,0.3-0.6,0.4c-0.1,0.1-0.4,0.4-0.4,0.7c0,0.1,0.1,0,0.3,0
			c0.3-0.3,0.6-0.6,1-0.6C59.6,25.4,59.7,25.8,59.7,26.2z M54.9,22.2c0.3-0.4,0.8-0.3,1.1-0.6c1-0.3,1.9,0.1,2.8-0.6l1-0.7
			c0.4,0,0.6-0.4,0.8-0.6c0.1,0,0.3,0,0.3,0.1c-0.1,0.4-0.3,0.8-0.4,1.4c-0.1,0.7-0.8,0.8-1.4,1.2c-0.3,0.3-0.7,0.3-1.1,0.3
			c-0.8,0-1.5,0.4-1.9,1.1c0.1,0.3-0.1,0.4-0.3,0.4c-0.1,0.1-0.4,0.1-0.6,0.3c0.1,0.1,0.3,0,0.3,0.3c-0.4,0.4-1.1,0-1.5,0.4
			l-0.1,0.1c0.1,0.1,0.4,0,0.4,0.1c-0.3,0.3-0.8,0.1-1.1,0.4c0,0.1,0,0.1,0.1,0.1c0.1,0,0.3-0.1,0.4,0c0,0.1-0.1,0.1-0.3,0.3
			c-0.4,0.1-0.8,0-1.1,0.3c0.1,0.1,0.4,0.1,0.6,0.3c-0.4,0.3-1,0.3-1.2,0.6c-0.3,0.3,0.1,1-0.4,0.7c-0.3-0.3-0.4-0.6-0.6-1
			c0.1-0.1,0-0.6,0.1-0.4c0.3,0.1,0.3,0.4,0.4,0.6c0.1,0,0.3-0.1,0.4-0.3c-0.3-0.4,0.4-0.4,0.6-0.7c0-0.4,0.4-0.3,0.6-0.4
			c0.4-0.1,0.7-0.1,1.1-0.3c0,0-0.1,0-0.1-0.1h-0.1c0,0,0,0,0-0.1c0.4-0.6,1.1-0.4,1.7-0.6c0-0.1-0.3-0.1-0.1-0.3
			c0.4-0.3,1.1-0.1,1.2-0.7c0-0.1,0.1-0.3,0-0.3c-0.3,0.1-0.4,0.4-0.7,0.6c-0.3,0.3-0.6,0.4-0.8,0.6c0-0.1,0.1-0.3,0.3-0.4
			c0.4-0.4,0.7-1,1-1.7c0-0.1-0.1,0-0.3,0c-0.4,0.4-1,0.7-1.4,1.1c-0.1,0-0.3,0.1-0.3,0c-0.1-0.3,0.3-0.3,0.3-0.6
			C54.3,22.8,54.6,22.5,54.9,22.2z M50.3,24.7c-0.1-0.1-0.1-0.4-0.1-0.7H50c-0.1,0.1-0.3,0.4-0.3,0.6h-0.1c-0.1-0.4,0-0.8,0.1-1.1
			c0.1-0.1,0.3-0.3,0.4-0.3c0.1,0.1,0.3,0.3,0.4,0.4C50.6,24,50.6,24.4,50.3,24.7z M51.7,24.1c-0.1-0.1-0.3,0.1-0.4,0.1
			c-0.1,0.1-0.3,0.4-0.4,0.6c-0.1,0-0.1,0-0.1-0.1c0-0.4,0.1-0.7,0.3-1.1c0.1-0.3,0.6-0.3,0.7-0.6c0.1-0.1,0.6-0.3,0.6,0.1
			c0,0.3,0.1,0.6,0.3,0.8c0,0.3-0.3,0.6-0.3,0.8c0,0-0.1,0.1-0.3,0.1C52,24.7,51.8,24.4,51.7,24.1z M52.1,21c0-0.4,0.4-0.3,0.7-0.4
			c0.4,0,1,0,1.2,0.4c0.1,0.1,0.1,0.3,0.1,0.6c-0.3,0.1-0.1,0.6-0.4,0.7c-0.4-0.1-0.3-0.6-0.6-0.8c-0.4-0.3-0.7,0.1-1.1,0.3
			C51.8,21.4,52.1,21.1,52.1,21z M52.5,21.8c0.1,0,0.1,0,0.3,0.1c0,0.6,0.7,1,0.1,1.4c-0.4,0-0.3-0.4-0.4-0.7
			c-0.3-0.3-0.6,0.3-0.8,0.1c-0.1,0-0.3-0.1-0.1-0.3C51.5,22.1,52.1,21.9,52.5,21.8z M49.6,21c0.3-0.6,0.8-0.6,1.4-0.6
			c0.3,0.3,0.3,0.6,0.6,0.7c0,0.1,0,0.4-0.1,0.6c-0.1,0-0.3-0.3-0.4-0.3c-0.3-0.3-0.6-0.3-0.8-0.3c-0.1,0-0.3,0.3-0.4,0.1
			C49.6,21.2,49.6,21.1,49.6,21z M50.2,21.6c0.3-0.1,0.4,0.3,0.6,0.6c0,0.1,0.4,0.3,0.3,0.6c-0.1,0.1-0.1,0.3-0.3,0.3
			c-0.3-0.1-0.4-0.6-0.7-0.4c-0.1,0.1-0.3,0.3-0.4,0.3c-0.1-0.1-0.1-0.4-0.1-0.6C49.7,21.9,49.9,21.8,50.2,21.6z M49.5,27
			c0.3-0.1,0.6,0.1,0.7-0.1l0,0c0,0.3,0.3,0.7,0.1,1c0,0.1,0.1,0.3,0.1,0.6c-0.1,0-0.1-0.3-0.3-0.4c0-0.1-0.1-0.3-0.3-0.3
			c-0.3,0-0.1,0.7-0.4,0.3c-0.1-0.3,0.1-0.6-0.1-0.7c-0.1,0.3-0.3,0.4-0.4,0.7c-0.1,0-0.3-0.1-0.3-0.3c0.4-0.1-0.1-0.7,0.4-0.8
			C49.2,26.9,49.3,26.9,49.5,27z M49.2,24.3c-0.1,0-0.1-0.1-0.1-0.3c0-0.1-0.1-0.3-0.3-0.1c-0.1,0.1-0.1,0.3-0.1,0.6l0,0
			c-0.3-0.3-0.4-0.6-0.3-1c0-0.3,0.3-0.4,0.4-0.6c0.1,0,0.3,0.1,0.4,0.3C49.3,23.6,49.3,24,49.2,24.3z M48.2,22.6
			c0,0.1-0.1,0.3-0.3,0.4c-0.1,0-0.3-0.1-0.3-0.1c-0.1-0.1,0-0.3,0-0.4c0.1-0.3,0.3-0.7,0.6-0.8c0.3,0,0.6,0.4,0.8,0.4
			c0.1,0.1,0.1,0.3,0.1,0.4C48.8,22.6,48.4,22.2,48.2,22.6z M48.2,20.3c0.1,0,0.4,0,0.6,0.1c0.1,0.1,0.1,0.4,0.4,0.7
			c0,0.1,0,0.3-0.1,0.3c-0.6,0.1-0.6-0.6-1.1-0.4c-0.1,0.1-0.4,0.4-0.6,0.7c-0.1,0-0.1,0.1-0.3,0.1c-0.1-0.1-0.3-0.3-0.3-0.4
			C47.1,20.8,47.5,20.3,48.2,20.3z M47.1,22.5c0,0.1,0.1,0.4,0,0.6c-0.3,0-0.7,0-0.8,0.4c-0.1,0.1-0.1,0.4-0.4,0.6
			c-0.1-0.1-0.3-0.3-0.4-0.6c0.1-0.3,0.3-0.7,0.4-1l0.1-0.1C46.6,22.3,46.8,22.6,47.1,22.5z M45.3,20.8c0.3,0,0.6,0,0.8,0.3
			c0.1,0.1,0.3,0.4,0.4,0.4c0.1,0,0.1,0.1,0.1,0.3c-0.1,0.1-0.3,0-0.4,0c-0.3,0-0.7-0.4-1,0.1c-0.1,0.1-0.1,0.4-0.3,0.4
			c-0.1-0.1-0.3-0.4-0.3-0.7C44.9,21.4,45,21,45.3,20.8z M38.3,21c0-0.4,0-0.7,0-1.1l0.1-0.1c0.4-0.1,0.3,0.4,0.6,0.6
			c0.1,0.4,0.6,0.8,1,0.8c0.8,0,1.7-0.1,2.5,0.1c0.6,0.1,1.1,0.6,1.5,1.1c0.1,0,0.1-0.1,0.3-0.1c0.1,0.1,0.6,0.3,0.4,0.6
			c0.4,0,0.6,0.6,1,0.8c-0.3,0.3,0.7,0.7-0.1,0.7c-0.6-0.3-1.1,0.1-1.7,0.1c-0.1,0-0.3,0-0.4-0.1v-0.1c0.3-0.3,0.7-0.4,1.1-0.4
			c0.1,0,0-0.3,0.3-0.1c0.1,0.1,0.1,0.3,0.3,0.3v-0.1c-0.3,0-0.3-0.4-0.6-0.4c-0.3,0-0.4,0-0.6-0.3c-0.1-0.4-0.6-0.6-0.8-0.7
			c-0.1-0.1-0.3-0.1-0.4-0.1c-0.1,0.1-0.1,0.1-0.1,0.3c0.3,0.4,0.6,0.8,1,1.1l0,0c-0.4,0-0.7-0.6-1-0.4c0,0-0.1,0.1,0,0.3
			c0.1,0.3,0.6,0.6,0.3,0.8c-0.3,0-0.4-0.3-0.6-0.4c0-0.4-0.4-0.4-0.7-0.6c-0.3-0.1-0.6,0-1,0c-0.3-0.1-0.6,0.1-0.8-0.1
			C39,22.8,38.3,21.9,38.3,21z M38,36.3c0.1-0.6,0-1.1,0.4-1.5c0.3,0,0.1,0.4,0.1,0.6c0.1,0.4,0.1,1,0.3,1.4
			c-0.1,0.3-0.4,0.4-0.7,0.4C37.8,37,38,36.6,38,36.3z M40.3,35.6c0.1-0.1,0.3-0.1,0.3,0c0,0.4-0.1,0.8-0.3,1.2
			c-0.4,0.6-0.6,1.2-1,1.8c-0.3,0.1-0.6,0.6-1,0.6c-0.1-0.3-0.4-0.6-0.4-1C38.8,37.4,39.8,36.6,40.3,35.6z M38.7,40.8
			c-0.1,0.1-0.3,0.3-0.6,0.1c0-0.3-0.1-0.8,0.1-1c0.1-0.1,0.4-0.4,0.6-0.1C39,40.2,39,40.6,38.7,40.8z M39.2,40.6
			c0.4-0.6,1-1,1.2-1.7l0.1-0.1c-0.1,1.1-0.6,2.2-1.2,3c-0.3,0.4-0.8,0.6-1.2,0.7c-0.1,0-0.3-0.1-0.3-0.3c0-0.1-0.1-0.3-0.1-0.4
			C38.3,41.6,38.8,41.2,39.2,40.6z M36.3,40.1c0-0.4,0.1-0.7,0.6-1c0.1-0.1,0.4-0.3,0.7-0.3l0.3,0.4c0,0.6-0.6,0.7-1,1.1
			c-0.1,0-0.1,0.1-0.3,0.1C36.3,40.3,36.3,40.2,36.3,40.1z M36.6,45.5c-0.1,0-0.3-0.1-0.4-0.1c-0.1-0.1-0.3-0.4-0.3-0.7
			c0.1-0.3,0.6-0.4,0.7-0.7c0.4-0.3,0.7-0.7,1.1-1.1c0.1,0,0.4-0.1,0.6,0C38,43.8,37.4,44.6,36.6,45.5z M39.1,58.5
			c-0.6-1.8-1.1-3.6-1.4-5.5c-0.3-1.7-0.4-3.3-0.7-5c0.1-0.7,0-1.5,0-2.2c0.1-0.3,0.4-0.4,0.7-0.6h0.1c0,1.2,0.3,2.4,0.3,3.6
			c0.1,1,0.3,1.9,0.3,2.8c0,1,0.1,1.9,0.1,2.9c0.1,1.1,0.3,2.1,0.4,3C39,57.9,39.1,58.2,39.1,58.5L39.1,58.5L39.1,58.5z M39.5,57.1
			c-0.1-0.8-0.1-1.8-0.3-2.6C39,52.8,39,51,38.8,49.3c-0.1-0.4-0.1-1-0.1-1.5c-0.1-1.1-0.1-2.2-0.3-3.2c-0.1-0.7,0.1-1.2,0.3-1.7
			c0.1-0.1,0.4-0.4,0.6-0.3c0.1,1.1,0,2.2,0.1,3.3c0.1,0.4,0.1,1,0.1,1.4c0.1,1.8,0.1,3.5,0.4,5.1c0.3,2.4,0.6,4.7,0.8,7.2
			c0.1,0.8,0.3,1.7,0.4,2.6c0,0-0.1,0.1-0.1,0C40.2,60.7,39.8,58.9,39.5,57.1z M59,57.6c-0.3,1.2-0.4,2.5-0.8,3.7
			c0,0.4-0.1,0.8-0.3,1.1h-0.1c0-1,0.4-1.7,0.4-2.5c0.1-0.7,0.1-1.4,0.3-2.1c0.1-1,0.1-1.8,0.1-2.8c0.1-0.3,0.1-0.7,0.1-1
			c-0.1-0.7,0.1-1.4,0.1-2.1c0.1-0.7,0.3-1.5,0.3-2.2c0.1-1.4,0.3-2.6,0.3-4c0.1-0.4,0-1,0.1-1.2c0-0.4,0-0.7,0-1.1
			c0.1-0.3-0.3-1,0.3-1.1c0.1,0.1,0.4,0.3,0.6,0.4c0,0.4-0.1,0.8-0.1,1.2c0,0.7-0.1,1.4-0.1,2.2c0,1.1,0,2.1-0.1,3
			c-0.1,1.2-0.3,2.5-0.4,3.6C59.6,54.5,59.3,56,59,57.6z M62.1,44.5c-0.1,0.8,0,1.5-0.1,2.4c0,0.7-0.3,1.4-0.3,2.1
			c0,1.1-0.4,2.1-0.4,3.2c-0.1,1.1-0.4,2.1-0.7,3.2c-0.3,1.2-0.7,2.5-1.1,3.6h-0.1c0.1-1.1,0.4-2.4,0.6-3.5c0.3-1.4,0.6-2.9,0.8-4.3
			c0.1-1.1,0.1-2.2,0.3-3.3c0.1-1.4,0.3-2.8,0.4-4c0.1-0.1,0.4,0.1,0.6,0.1C62.1,44.1,62.1,44.2,62.1,44.5z M62.9,43.8
			c-0.7-0.6-1.4-1-1.8-1.7c-0.1-0.1-0.3-0.4-0.3-0.7c0.1-0.1,0.1-0.3,0.3-0.1c0.3,0,0.4,0.4,0.8,0.4c0.1,0,0.1,0.3,0.1,0.4
			c0.3,0.3,0.7,0.7,1,1c0.1,0.1,0.3,0.3,0.1,0.6C63.2,43.7,63,43.9,62.9,43.8z"/>
		<path class="st0" d="M39.1,21.2c0.3,0.3,0.7,0.3,1.1,0.3c0.4,0.1,0.8,0,1.1,0.3c0.1,0.1,0.4,0.3,0.4,0.7l0,0
			c-0.8-0.4-1.8,0-2.5-0.7c-0.3,0-0.4-0.3-0.4-0.6c0-0.1,0-0.1,0-0.3C39,21,39,21.2,39.1,21.2z"/>
		<path class="st0" d="M60.3,21.1c0,0.1-0.1,0.4-0.4,0.6c-0.7,0.4-1.7,0.7-2.6,0.6v-0.1c0.6-0.1,1.2-0.3,1.8-0.6
			C59.3,21.4,59.7,21.1,60.3,21.1L60.3,21.1z"/>
		<path class="st0" d="M43.4,27.9c-0.1,0-1.1,1.5-0.1,2.4c1.2,1.1,2.8-0.8,2.5-1.2c-0.1,0-0.6,1.1-1.7,0.8
			C42.8,29.5,43.5,27.9,43.4,27.9z"/>
		<path class="st0" d="M53.5,30c0,0.4,1.5,1.1,2.4,0c1-1.5-0.4-2.4-0.8-1.9c-0.1,0.1,0.8,0.6,0.4,1.5C54.7,30.6,53.5,29.7,53.5,30z"
			/>
	</g>
</g>
</svg>
