<svg width="100%" height="100%" viewBox="0 0 659 663" version="1.1" xmlns="http://www.w3.org/2000/svg" xmlns:xlink="http://www.w3.org/1999/xlink" style="fill-rule:evenodd;clip-rule:evenodd;stroke-linecap:round;stroke-linejoin:round;stroke-miterlimit:1.5;">
	<g id="eye">
		<circle id="eyeball" cx="336.704" cy="317.664" r="146.134" style="fill:#fff;stroke:#000;stroke-opacity:0;stroke-width:3.54px;" />
		<ellipse id="pupil" cx="336.704" cy="306.372" rx="62.74" ry="63.006" />
		<path id="shine" d="M300.097,277.949c-11.639,7.649 -13.12,24.43 -7.627,32.813c5.479,8.361 9.077,-7.517 16.21,-13.423c6.429,-5.322 18.697,-3.05 14.779,-11.51c-3.863,-8.339 -13.249,-14.527 -23.362,-7.88Z" style="fill:#fff;" />
		<path id="viewport" d="M327.525,6.847c176.32,0 319.47,143.15 319.47,319.471c0,176.321 -143.15,319.471 -319.47,319.471c-176.321,-0 -319.471,-143.15 -319.471,-319.471c-0,-176.321 143.15,-319.471 319.471,-319.471Zm-130.04,331.199c-0.276,15.703 60.773,42.399 108.989,49.297c44.802,6.41 88.519,-1.638 107.596,-6.108c18.554,-4.347 71.38,-28.19 56.396,-49.663c-18.502,-26.515 -72.926,-58.023 -133.288,-60.225c-60.362,-2.202 -139.343,46.833 -139.693,66.699Z" style="fill:#dbffe4;stroke:#000;stroke-width:12.5px;" />
		<g id="lines">
			<path id="eyebrow" d="M104.565,248.328c40.668,-16.345 152.887,-53.576 222.656,-45.013c103.561,12.711 163.237,53.205 163.237,53.205l65.915,-63.792c0,-0 -111.717,-47.347 -189.166,-49.421c-145.514,-3.897 -303.31,121.365 -262.642,105.021Z" style="stroke:#000;stroke-width:3.13px;" />
			<path d="M184.441,378.442c0,0 73.83,45.049 164.511,42.032c93.204,-3.101 141.357,-41.835 141.357,-41.835c-55.461,62.8 -113.599,94.679 -283.344,77.67" style="fill:none;stroke:#000;stroke-width:12.5px;" />
			<path d="M83.822,312.54c-0,0 65.329,6.603 107.315,-22.757" style="fill:none;stroke:#000;stroke-width:10.42px;" />
			<path d="M56.211,346.685c-0,0 26.021,6.899 53.654,2.89c27.633,-4.009 45.16,-32.256 59.3,-43.102c14.141,-10.845 81.256,-61.885 150.413,-62.741c65.86,-0.815 119.267,10.214 207.658,87.035" style="fill:none;stroke:#000;stroke-width:10.42px;" />
		</g>
	</g>
</svg>
