<svg id="Layer_1" data-name="Layer 1" xmlns="http://www.w3.org/2000/svg" xmlns:xlink="http://www.w3.org/1999/xlink" viewBox="0 0 1920 134.46"><defs><style>.cls-1{fill:none;}.cls-2{clip-path:url(#clip-path);}.cls-3{fill:#e8e5d1;fill-rule:evenodd;}</style><clipPath id="clip-path"><polyline class="cls-1" points="0.87 77.77 0.63 124.63 1920.12 134.46 1920.81 -0.03 1.32 -9.85 0.87 77.77"/></clipPath></defs><g id="svgg"><g class="cls-2"><path class="cls-3" d="M1380.43-152.95a33.31,33.31,0,0,0-6.24.72c-.68.28-4.8.44-9.14.36s-22.5-.13-40.34-.14c-42.21,0-40.92,0-45.74-.32-2.29-.15-8.65-.29-14.13-.29-73.24-.15-121.43,0-153.45.6-22.79.39-40.13.6-74.44.88-2.75,0-25.2-.34-49.9-.8s-45.94-.78-47.19-.71c-5,.28-7.66.3-28.07.21-16.34-.08-55.15.12-61.14.31-.45,0-10.93-.24-23.28-.57s-24.7-.57-27.44-.54-11.35,0-19.13,0-16.2,0-18.71,0-7,.06-10,0-15.14-.19-27-.28l-31.52-.26c-5.45-.05-10.62-.49-11.51-1-1.1-.6-2.78-.58-5.5.06-2.55.59-15.61.87-37.57.77-18.51-.07-40.4-.13-48.63-.11s-29.38-.19-47-.45-33.33-.46-34.93-.46l-29.94,0c-23.12,0-91.61-.87-128.9-1.66-6.18-.13-15.72,0-21.21.39a168.87,168.87,0,0,1-23.21-.44c-10.24-.83-15.33-.86-22.46-.14-15.26,1.55-18,1.58-27.83.27a81.57,81.57,0,0,0-18.7-.57c-5.1.37-38.26.37-73.71,0-73.69-.81-66.91-.79-78-.13-5.45.32-8.54.85-8.56,1.45s-.41.28-.88-.53c-.71-1.24-1.61-1.4-5.58-1-2.6.25-12.65.53-22.33.63s-18,.44-18.56.76-5.35.73-10.69.89-13.09.47-17.21.68-10.85.33-15,.29c-6.93-.09-7.66.07-9.77,2l-2.28,2.11.38,13.5c.81,28,.8,36.07,0,39.7-1.49,6.41-1.78,42.52-.43,51.48a60.26,60.26,0,0,1,.64,13.72c-.31,3.25-.55,9.45-.54,13.8s-.07,11.27-.17,15.39c-.16,7.1-.14,9.31.17,19.13A66.18,66.18,0,0,1-26.86,26c-.77,5.59-.85,8.59-.8,29.94,0,8.23-.1,20.58-.26,27.45a167.59,167.59,0,0,0,.46,18.3c.95,7.54.87,31.35-.12,36.17-2.37,11.46,8.67,14.55,42.1,11.76,11.07-.92,10.69-.92,30.36-.22,14.55.53,38.63.91,42.83.68,1.15-.06,5.07-.06,8.73,0s11-.06,16.22-.29,24.91-.53,43.66-.67,35-.27,36.18-.29l31.61-.63c52.43-1,84.07-1.2,144.72-.78,32.7.22,60.4.36,61.54.32s7.13-.2,13.31-.35,15.35-.52,20.38-.81,19.45-.62,32-.72c86.21-.71,101.37-.79,104-.57,1.6.13,4.78.21,7.07.17s14.07,0,26.19.06,27.28.1,33.69.06c15.67-.12,14.11-.14,36.17.46,21.3.57,90.49,1,121,.73,26.14-.23,101.32-.1,144.71.25,19.66.16,73.74.29,120.17.3,98.41,0,103.8,0,119.76.19,6.63.06,17.49,0,24.12-.24s12.62-.36,13.31-.35l47,.77c25.15.42,47.6.77,49.89.8s49.07,0,104-.06,103.36,0,107.7.09c17.53.39,29,.41,74,.1,25.84-.18,96.82-.24,157.72-.13,83.86.14,111.18,0,112.6-.8a9.55,9.55,0,0,1,4.87-.55,69.55,69.55,0,0,0,10.38-.08c5-.35,8.12-.18,9.74.5a10.69,10.69,0,0,0,4.68.71c1.28-.16,2.78-.31,3.34-.34,3.12-.16,6.28-40.3,3.72-47.22a4.77,4.77,0,0,1,.68-4.22c1.3-2.23,1.28-2.57-.41-6.1-2.18-4.58-2.18-4.57,0-8.52a8.74,8.74,0,0,0,1.21-6.41,14.74,14.74,0,0,1,.4-6c.67-2,.68-3.88,0-6.88-1.26-5.74-1.18-16.8.14-20.67a21.08,21.08,0,0,0,.63-8.31c-1.12-12-.14-57.75,2-92.81a80.71,80.71,0,0,0-.71-12.89,62,62,0,0,1-.65-11.24c1.32-12.88,1.86-44.54.89-51.84-1.38-10.51-4.48-13.16-16-13.69-10.09-.47-14.56-.85-19-1.63-2.24-.39-3.93-.28-4.66.32s-5.22,1.16-10.2,1.42c-10.28.55-10.09.55-15.72-.1-3.84-.45-22.39-.8-42.41-.83-4.57,0-14.86-.23-22.87-.5s-23-.46-33.26-.42c-24.18.09-65.68-.15-75.27-.44-4.11-.12-13.28-.24-20.37-.27s-23.18-.16-35.76-.31-29.23-.21-37-.13c-27.48.29-53.38.29-82.34,0-10.52-.11-20.25-.19-21.62-.19s-15.22-.11-30.77-.25-40.62-.25-55.72-.23-28.38-.14-29.52-.36a44.09,44.09,0,0,0-7.07-.17m24.47,12.87,14.13,0c5.72,0,25.56.29,44.08.62s36.86.57,40.75.55c13.73-.07,48.92.26,70.69.66,12.12.23,23.29.15,24.82-.17a11.22,11.22,0,0,1,5.12.24c1.48.53,6.71.59,14.27.18,6.57-.36,17.54-.38,24.4-.06s16,.33,20.37,0a89.77,89.77,0,0,1,17.44.63c5.24.66,10.22,1,11.06.73,3.13-1,64.7-1.76,73-.93a43.75,43.75,0,0,0,7.07-.43,23.29,23.29,0,0,1,9,.4c2.76.71,4.54.78,5.59.23s3.26-.54,6.15-.07a118.72,118.72,0,0,0,15.2.57l36-.56,27-.42c.91,0,11.12.06,22.69.16s21.89,0,23-.28c2.89-.71,10.43,2.81,11.36,5.29.69,1.86.46,24.35-1,90.87-1.5,71-1.72,73.7-5.85,71.46-3.17-1.71-14.07.48-14.08,2.82,0,1.92-5.55,4.62-8.31,4-1.92-.39-3.86.31-9.12,3.31a73.79,73.79,0,0,1-7.16,3.8,11.51,11.51,0,0,0-2.75,1.54c-4.42,3-10.87,3.76-15.43,1.77a24.16,24.16,0,0,0-5.06-1.77c-.57,0-5-3.95-9.94-8.78-12.19-12-13.61-12.06-26.68-.45-3.67,3.26-8.45,7.21-10.63,8.78s-4,3.14-4,3.5c0,2.24-4.35,3.45-6.17,1.72-2.26-2.14-3-2.17-5.58-.21a15.47,15.47,0,0,1-4.07,2.17,37.52,37.52,0,0,0-6.67,3.69c-7.64,5.05-16.94,7-18.8,4a17.28,17.28,0,0,0-3.53-2.76,103.42,103.42,0,0,1-9.82-8.28c-10.48-9.78-14.15-10.22-22.43-2.65s-14.17,10.33-16.52,7.7a5,5,0,0,0-2.65-1.68c-.63,0-2.78-1.69-4.77-3.76-4.71-4.9-8.25-4.72-21.56,1.08-1.9.82-5.69,2.42-8.44,3.56-4.43,1.82-5,2.31-4.86,4.25.11,1.57-.93,3.35-3.7,6.32-4.25,4.57-5.52,4.84-2.9.63,2.36-3.78,1-6.19-8.29-14.81-8.1-7.51-8.86-7.79-11.4-4.26-2.17,3-2.83,3.07-5.94.42-9.17-7.79-18.35-7.86-23.16-.18-1.25,2-2.44,2.93-3.79,2.92a3.27,3.27,0,0,0-2.5.87c-.52.83-3.33-.56-5.94-2.93-.54-.5-2.53-2-4.42-3.41a18.17,18.17,0,0,1-5.45-6.81c-4.24-9.08-9-10.39-19-5.3-4,2-7.76,3.34-9.36,3.31-2.69-.07-7.51,3.44-13.69,10-2.79,2.93-3.88,2.94-4.5,0-3.89-18.25-19-25.4-27.45-13-1.64,2.41-3.62,3.43-3,1.52,2.06-6.05-8.82-7.31-14.62-1.69-.9.86-1.52.85-3.33-.1q-12.48-6.46-19.83,5.89a11.47,11.47,0,0,1-10.2,5.93,12.25,12.25,0,0,0-4.82,1.24c-3.86,2-8.4.82-12.44-3.29-9.93-10.1-12.23-11.19-18-8.51-2.81,1.32-3.8,1.9-9.54,5.56a13.58,13.58,0,0,1-6.36,2.24c-3.72,0-8.18,1.9-9.53,4.1-1.61,2.62-7.25,1.52-16.33-3.16-8.16-4.21-20.5-7.9-28.34-8.48-5.7-.42-14.82,1.7-14.26,3.31.35,1,1,1,4.79.12,1.62-.37,3.34.32,7.22,2.93,2.8,1.88,5.9,3.42,6.89,3.42,3.66,0,9.74,3.58,10.21,6,.35,1.84,1.66,2.88,6.87,5.52,4.82,2.43,6.55,3.76,6.92,5.29s.94,2,2.52,1.79c1.11-.14,3.49-.32,5.28-.38,3.47-.14,4.62-1.49,3-3.49-1.17-1.43-.5-1.57,1.75-.35,3.5,1.9-1,8.51-5.28,7.68-1.83-.36-2.51.1-4.34,3-2,3.2-4,4.1-7.49,3.42-.42-.08-3.22-.32-6.23-.53-7.37-.53-13.21-2.74-14.65-5.54a12.48,12.48,0,0,0-4.07-4c-1.63-1-3.19-2.43-3.47-3.24a10.85,10.85,0,0,0-1.55-2.72,85.2,85.2,0,0,1-4.52-7.93c-1.92-3.67-3.83-7.11-4.26-7.66-1.31-1.69-16.68-10.11-19.64-10.75a73.46,73.46,0,0,1-10-4c-9.09-4.27-12.87-4.47-19.22-1-14.07,7.66-16.18,9.1-20.61,14.09-6.47,7.3-8.65,8.19-19.59,8-9.93-.15-9.38.11-15.73-7.6-4-4.82-8.43-7.88-11.58-7.94a12.22,12.22,0,0,1-4.56-1.29c-3.62-1.91-9-1.62-13.06.71-3.47,2-13.81,6.23-20.15,8.25-4.23,1.36-15.79,1.48-18.15.18-1-.54-4.17-.92-7.06-.84a17.48,17.48,0,0,1-9.68-2c-6.55-3.14-10.08-1.9-18.14,6.42-6.24,6.45-8.47,7.54-9.39,4.62a5,5,0,0,0-2.13-2.54c-.89-.49-2.78-3-4.19-5.5-5.32-9.55-12.63-10.3-19.86-2-6.11,7-6.75,7.2-11.39,4.09-6.55-4.38-10.14-3.35-18.12,5.21-6,6.42-10,5.75-20.93-3.52-2.35-2-4.85-3.63-5.55-3.63a2.29,2.29,0,0,1-1.78-.84c-1-1.62-6-.92-8.58,1.21-4.72,3.92-4.34,4.4-18.05-23.17-5.58-11.21-8.58-12.32-16.47-6.1a98,98,0,0,1-9.6,6.2,120.61,120.61,0,0,0-10.17,6.51c-17.93,13.48-16.5,12.82-18.89,8.72-3-5.11-8.14-4.54-16.65,1.83-1.67,1.26-4.68,3.52-6.67,5-3.42,2.58-3.82,2.69-6.76,1.79-4.13-1.26-9.25-1.23-12.2.06-3.52,1.54-13.83,8.4-15.66,10.41s-3.22,2.15-9.65.33c-6-1.71-9.28-1-16,3.52a23.27,23.27,0,0,1-8.61,3.66,46.09,46.09,0,0,0-10.07,3.54c-4.79,2.34-6.37,2.75-8.32,2.17A69.26,69.26,0,0,1,840,53.72c-3.57-2.8-3.95-2.9-8.86-2.47a22.51,22.51,0,0,1-8.31-.62A34.24,34.24,0,0,0,818,49.34c-.91-.13-4-.86-6.95-1.64s-6-1.23-6.87-1a10.77,10.77,0,0,1-4.92-.93c-5.82-2.31-12.35,3-19.14,15.59-2.85,5.28-4,6.46-6.33,6.48-.9,0-3.78.24-6.4.53-4.55.48-5,.34-10.43-3-7.22-4.42-10.47-4.59-14.1-.8-5,5.29-9.31,8.2-11.13,7.62-2.06-.67-10.74.77-18.24,3a22.85,22.85,0,0,1-9.25,1.15c-2.1-.25-4.17-.12-4.59.29s-2.58.46-5.1,0A80.18,80.18,0,0,0,682,76.39c-7.52.32-8.48.19-10.51-1.43a8.31,8.31,0,0,0-3.32-1.79,9,9,0,0,1-3.53-2.1c-3.3-2.8-3.4-2.77-9,2.53L646,82.7c-2.6,2.46-5.1,4.47-5.55,4.47S638,88.45,636.15,90a23.82,23.82,0,0,1-4.9,3.3c-.81.25-2.91,2.35-4.66,4.68l-3.2,4.23-3.87-.65c-2.12-.35-11.61-.74-21.09-.85s-17.48-.48-17.8-.8c-1-1-5.39-.65-8.39.76-2.46,1.15-3.52,1.21-6.77.38-5.54-1.39-32.83-1.81-34.39-.52-.9.74-6.73.93-22,.74-11.4-.15-21.53,0-22.52.35-1.44.49-2.48-.07-5.08-2.73-1.8-1.83-4.35-3.56-5.66-3.84s-3.64-.84-5.15-1.25c-2.8-.76-6.26.12-20.68,5.28-2.87,1-5.59,1.54-6.17,1.17a3.89,3.89,0,0,0-2.89,0,10.5,10.5,0,0,1-11-3.1c-1.21-1.54-2.67-2.81-3.24-2.81s-2.48-1.32-4.24-2.93c-5.14-4.68-8.15-5.59-16.65-5a38.64,38.64,0,0,1-11.81-.6c-2.46-.61-5.22-1.19-6.13-1.3-7-.81-10.7-2-12.34-4-4.41-5.4-9.56-6-20.24-2.43l-5.16,1.74-3-2.78c-5.95-5.5-11.36-7.8-15.49-6.57a41.51,41.51,0,0,1-6.5,1.35,26,26,0,0,0-6,1.56c-2.14.89-5.79,1.27-11.84,1.24a67,67,0,0,0-12.35.9c-4.46,1.17-7.52.45-8.64-2A8.08,8.08,0,0,0,283,70.38a44.67,44.67,0,0,1-5.4-3.54c-13.73-10.59-26.14-11.34-34.8-2.09-4.08,4.36-10.84,5.59-10.82,2,0-1.23-5.43-6.82-7.37-7.58-2.42-.94-5.73,1-12.48,7.41-3.28,3.12-5,4.14-6.26,3.85-1-.22-4.95-.83-8.84-1.35a55.73,55.73,0,0,1-12.75-3.41,42.43,42.43,0,0,0-6.69-2.47,11.21,11.21,0,0,1-3.8-2.09c-3.59-2.68-7.69-2.74-11.6-.19-3.5,2.29-16.17,10.35-19.39,12.33-1.53,1-5,1.53-10.83,1.84-11.61.61-19,6.5-30.92,24.76-4.69,7.18-4.43,7-8.32,6.29-3.2-.58-5.75-3.46-8-9A13.43,13.43,0,0,0,82,92.9a42.12,42.12,0,0,1-4.61-6.12c-3.51-5.47-5.71-7.47-8.29-7.51a12.53,12.53,0,0,1-4.45-1.36c-2.06-1.07-3.42-1.18-7.21-.54a20.83,20.83,0,0,1-5.61.41c-.52-.2-3.11.58-5.75,1.73a25.9,25.9,0,0,1-6.48,2.09c-1,0-3.31,1.82-5.53,4.27a72.2,72.2,0,0,1-5.5,5.59,56.45,56.45,0,0,0-4.24,4c-1.43,1.48-3.43,2.69-4.45,2.68s-3.58,1.6-5.79,3.65c-3.7,3.42-4.28,3.66-9.12,3.84l-5.18.18-5.44-5.27c-11.44-11.11-11.42-11-10.53-39.59.22-7.32.44-14.43.48-15.8.08-3.06.51-65.55.46-69,0-1.37,0-4.37.09-6.65s0-5.1,0-6.24c-.2-2.45-.15-49,0-53.23.08-1.6.18-3.56.22-4.36.13-2.4.11-10.19-.1-26.11-.16-12.89,0-15.32,1.14-16.63A11.14,11.14,0,0,0-12-140c.43-1.18,1.94-1.38,10.32-1.39,5.41,0,20.88-.22,34.37-.49,23.41-.45,105.57,0,195,1.12,23.21.28,42.19.18,43-.22s2.47-.27,4.48.58a13.11,13.11,0,0,0,6.93.84c5.19-.64,35-.65,97.81,0,11,.1,28.94.2,39.92.21,16.11,0,56.57.3,66.12.47,5.66.1,34.93.34,37.84.31,1.82,0,7.44,0,12.47.09s10.65.07,12.48,0c13.8-.48,26.95-.47,28.69,0,1.14.32,6.75.32,12.48,0,12.51-.68,23.87-.71,50.31-.1,11,.25,26.13.41,33.68.35s16.72,0,20.38.09c11.9.36,14.09.29,17-.52,1.78-.49,11.66-.59,25.36-.23,12.36.33,38,.61,57,.65,40.73.07,41.12.07,63.62.65,9.6.24,22.31.14,28.22-.24s17.72-.63,26.21-.56c58.71.44,81.38.36,94.92-.35,15.53-.81,40.5-1,79.78-.67,11.66.1,30.19.19,41.17.21s21.64,0,23.7.07,8.79.11,15,.16,12.53.11,14.14.14,10.21.06,19.13.08,17.71.13,19.54.24c4.38.24,3.44.24,46.57-.05,63.13-.44,101.31-1,104.8-1.61,1.83-.31,9.5-.4,17-.21s15.41.34,17.47.35M1015.64,18.6c.6,1.49,1.92,5,2.91,7.71s2.19,5.94,2.66,7.08c1.34,3.32,6,18.72,6,19.87,0,.92.63,2.55,4.09,10.54.4.92,1.17,3.17,1.71,5s1.29,4.28,1.65,5.42,1.06,4.15,1.52,6.67,1.08,5.6,1.35,6.86c.77,3.53-1.17,2.77-2.14-.84a26.58,26.58,0,0,0-2.4-5.7,19.61,19.61,0,0,1-2.11-5.41c-.31-1.57-1-4.53-1.67-6.59s-1.92-6.56-2.91-10-2.27-7.37-2.85-8.75a27.14,27.14,0,0,1-1.48-4.58,98.93,98.93,0,0,0-4.26-14.7,13.22,13.22,0,0,1-1.18-4.26,7.44,7.44,0,0,0-1.5-3.62c-2-2.63-2.67-4.64-2.08-6.16.74-1.9,1.5-1.5,2.73,1.47m-14.09,1.34c0,1.22-3.43,6.87-5.57,9.2-1.93,2.08-4.77,7-9.18,15.72a33.42,33.42,0,0,1-4.77,7,21,21,0,0,0-3.67,5.24c-.65,1.51-1.65,2.61-2.2,2.42-1.85-.62-1.57-4.46.52-7a40.74,40.74,0,0,0,4.11-6.55c2.59-5.15,6.57-11.06,12.2-18.14a8.48,8.48,0,0,0,1.89-3.87c0-.81,1-2.25,2.21-3.2,2.31-1.8,4.47-2.24,4.46-.91m7.48,3.12c0,1.48-1.07,3.19-3.2,5.18-4,3.74-8.69,10.65-8.37,12.34.38,2,2,2.1,3.83.18,2.06-2.19,2.77-1.19,1.85,2.57-1.09,4.44-3.1,8.54-5,10.28a69.88,69.88,0,0,0-6.41,8.47C988,67.58,986.65,69,985,69c-3.69,0-2.6-3.66,3-9.84,6.85-7.63,8.3-12,3.47-10.51-2.11.65-1.07-3.37,2-7.81a39.86,39.86,0,0,0,3-5.05c5-11,12.57-18.73,12.55-12.7M1312,28c-.3.75-2.55,5-5,9.51s-4.48,8.89-4.49,9.82c0,2,1.85,2.23,3.39.39,1-1.19,1.17-1.13,1.75.48.73,2,3.05,2,4,0q5-10.57,5-3.73c0,4.15,2.64,3.83,3.37-.4.87-5,4.88-11.11,7-10.63,1,.23.62,1.65-2.09,7.32-5.67,11.88-2.87,19,3,7.66a44,44,0,0,1,4.38-7,21.78,21.78,0,0,0,2.65-3.72c.82-1.57,1.23-1.74,2.21-.91s1,1.23-.08,2.76a28.19,28.19,0,0,0-2.29,3.82,52.81,52.81,0,0,1-3.46,5.54c-2.46,3.49-2.56,6.07-.25,6.08,1.4,0,4.16-3.56,5.12-6.63,1.53-4.84,7.11-9.69,7.09-6.17,0,1.59-3,7.56-4.19,8.26-2.35,1.44-.88,5.32,2.66,7a37,37,0,0,1,9.55,6.12,14.33,14.33,0,0,0,5,2.78c4,.88,10.91,4.67,12,6.63,2,3.53,13.37,5.17,19.11,2.72,5.91-2.5,5-.92-5.6,9.64-7,7-8,8.26-7.2,9.69,1.08,2,1.1,2.82.09,2.18-.43-.26-5.2-.06-10.61.46s-11,.85-12.32.76a69,69,0,0,0-9.31.72c-8,1.06-10.2.35-5.78-1.9,2.2-1.11,3-2.08,3.05-3.5a11.65,11.65,0,0,1,1.27-4.34c3.86-7.31.22-13.41-5.57-9.33-5.3,3.73-14.8,2.57-11.47-1.4,1.48-1.76-.28-4-5.67-7.19-10.45-6.18-11.84-6.85-14.81-7.13-1.7-.17-5.87-.53-9.24-.82a73,73,0,0,1-8-1c-1.42-.36-3.46,1-9.28,6-10,8.75-18.65,15.1-20.46,15.09a2.54,2.54,0,0,0-1.93.71c-1,1.55-16.12,9.88-18.43,10.14a4.17,4.17,0,0,0-3.45,2.25c-1.23,2.44-13.92,3.33-16.7,1.18-1.92-1.49-.22-2.81,3.62-2.81a8.76,8.76,0,0,0,4.57-1.53,38.48,38.48,0,0,1,4.91-3C1236.25,87,1255,66.52,1255,62.28c0-1.74,1.61-4.4,2.65-4.39.49,0,.69.75.45,1.66-1.56,5.86,2.47,1.46,4.34-4.72,1.44-4.77,1.48-4.81,5.15-5.33a46.11,46.11,0,0,0,5.7-1.14c2.2-.68,2.19-.28,0,5.12-2.5,6.1,5.23,8.22,8.19,2.24,2-4,3-5.88,4.7-8.91.79-1.37,2.39-4.43,3.56-6.79,1.87-3.76,8.39-12,7.69-9.77-.24.78-8.17,16.33-10.55,20.69-2.29,4.17,1,6.2,3.78,2.37,1.36-1.85,1.87-2.07,2.88-1.22,1.86,1.55,3.75.38,4.85-3a17.07,17.07,0,0,1,2-4.28c.56-.69,2.84-4.6,5-8.71s4.4-7.93,4.85-8.49c1.18-1.51,2.32-1.27,1.69.35m-7,.87a14.22,14.22,0,0,1-1.67,3.11c-.89,1.36-3,5.18-4.61,8.48s-3.36,6.22-3.79,6.48c-1.63,1-.65-3.67,1.34-6.35a51.94,51.94,0,0,0,3.58-5.72c2.8-5.41,3.61-6.63,4.41-6.63.45,0,.78.28.74.63m228.44,1.73c.53,1.39-3,7.69-6.28,11.14-1.25,1.32-3.91,4.58-5.92,7.26s-5.6,7.1-8,9.83-6.31,7.84-8.74,11.36a55.79,55.79,0,0,1-8.19,9.44,34,34,0,0,0-6.24,7c-2.48,4-5.2,5.74-6.66,4.26s.84-5.12,6.9-11.21a99.14,99.14,0,0,0,9.14-10.59,100.15,100.15,0,0,1,8.7-10.26c3-3.1,5.51-6,5.51-6.45a10.87,10.87,0,0,1,2.16-3.42c4.48-5.44,7.55-9,9.79-11.26a21.28,21.28,0,0,0,3.57-5.35c1.28-3,3.42-3.93,4.23-1.77m390.76,1.6c.65,1.06-2.25,2.52-5,2.51-4.42,0-1.65-2.28,3.94-3.21a1.28,1.28,0,0,1,1,.7M987.29,30.51a50,50,0,0,1-2.9,4.35,52,52,0,0,0-3.57,6.64,31.61,31.61,0,0,1-5.13,7.83l-2.57,2.42V49a7.4,7.4,0,0,1,1.42-4.32c1.07-1.18,1.17-1.77.42-2.52-1.34-1.37-1.19-4.09.36-6.28s5-2.6,4.2-.58c-.28.68-.74,1.8-1,2.49-1.32,3.22,2.06.74,4.69-3.43,2.91-4.64,4.75-6.92,5.56-6.92.24,0-.42,1.41-1.46,3.11m329.67,0a19.78,19.78,0,0,1-2,3.52,72.21,72.21,0,0,0-3.63,6.37c-2.16,4.23-3.58,5.82-4.43,5-.24-.24,1.17-3.36,3.14-6.93,4.9-8.91,5.23-9.4,6.4-9.39.61,0,.81.58.48,1.46m196,1.72c0,.73-1.23,3.21-2.72,5.5l-2.73,4.16-.47-3.59c-.42-3.15-.21-3.83,1.69-5.48,2.55-2.23,4.24-2.47,4.23-.59m321,5.05a54,54,0,0,1-10.85,15.17c-11.58,11.4-16,17.19-13.81,18,.89.3,13.5-12.83,18.79-19.59,4-5.14,11.69-13.62,12.6-14,2.77-1-4.63,9.41-12.28,17.26-6.84,7-14.59,17.5-14.6,19.7,0,3.48,2.63,1.77,5.87-3.77,1.68-2.87,6.81-9.21,11.41-14.08s8.82-9.7,9.37-10.72c2-3.75,4.73-4.74,7.5-2.74a10,10,0,0,0,3.29,1.75c.46,0,1.56.92,2.43,2,1.16,1.49,2.55,2.11,5.23,2.31,10.16.79-2.72,19-18,25.5-6.56,2.77-6.4,2,1.21-6.17,9-9.65,6-9.12-3.65.63-8.85,9-12,11.07-20.06,13.37-7.08,2-12.33,4.48-11.93,5.61.49,1.42,3.23.9,10.44-2,3.51-1.4,7.56-2.52,9-2.47,1.66.05,2.81-.4,3.13-1.21.39-1,1.23-1.16,3.74-.73,3.72.65,9.62-1.77,10.43-4.29.26-.8,3.66-3.85,7.56-6.76a93.32,93.32,0,0,0,12.24-11.27c5-5.78,11-8.72,13.17-6.49,1.09,1.11-22.93,21.76-31.67,27.23l-8.06,5.09c-2.38,1.51-5.2,2.74-6.29,2.73-2.41,0-10.4,2.69-11.67,3.95-2,2,2.09,2.07,7.14.15a33.88,33.88,0,0,1,9.27-2c5.87-.11,5.65,0,7.88-4a16,16,0,0,1,5.31-5.59c3.06-1.8,6.84-4.83,15.69-12.59,2-1.78,6.12-5.27,9.11-7.77s5.79-4.87,6.22-5.25.43-1.08-.2-1.71c-1.65-1.67-1.28-2,7.15-6.08,6.24-3,9.11-4,12.32-4s4.66-.53,6-1.89c2.69-2.67,5.37-2.46,4.65.36-1,4,3.74,4.89,10,1.91,5.06-2.43,6.35-1.74,6.32,3.39,0,6.78-3.78,10-11.55,10-5.87,0-10.33,2.38-19.72,10.56A97.63,97.63,0,0,1,1886.2,73a171.89,171.89,0,0,0-13.36,11.48c-5.27,4.92-9.88,8.94-10.23,8.94a62.24,62.24,0,0,0-7.7,4.63c-6.56,4.32-7.34,4.62-11.45,4.42-2.43-.12-16.67-.32-31.66-.43-25.38-.2-32.75-.91-24.24-2.36,3.66-.62,3.42-2.73-.69-6.14-2-1.67-4.08-3-4.61-3-2.33,0-7.74-6.42-10.9-12.93-3.92-8.06-6.64-10.15-12.18-9.44l-3.36.43,1.31-2.26c1.31-2.25,1-5-.57-5-.45,0-1.28.84-1.83,1.86C1752.11,68,1741.9,77.92,1740,77.44c-1.48-.38-3.68,1.1-10.71,7.18-4.86,4.21-9.93,8.4-11.25,9.31-3,2.08-3.51,3.17-2.14,5.06,1,1.42,1.27,1.35,4.13-1.14s4.66-3.31,4.66-2.27c0,1.84-2.36,4.72-4.12,5.06-1.18.22-3.08.68-4.23,1-2.92.88-10,.14-10-1,0-.53,2.7-3.56,6-6.74s7.34-7.22,9-9,4.22-4.34,5.71-5.72c3.14-2.88,3.4-3.89,1.05-3.91s-.2-3.07,9.47-13.7c6.31-6.93,7.32-8.44,7.13-10.64-.32-3.48,1.71-3.75,5-.66l2.57,2.42L1744,61.29c-8.17,8.43-10.2,11.6-8.49,13.33,1.89,1.91,9.36-4.41,9.38-8,0-.52,2.23-3.12,5-5.79l5-4.85,6.69,6.1c6.31,5.76,6.77,6,8.21,4.73a8.48,8.48,0,0,1,4.78-1.37,13,13,0,0,0,5.35-1.19c2.88-1.63,3.16-1.53,2.69.85-.24,1.23,0,2.07.54,2.08s1.37,1,1.89,2.09c1.47,3.28,4,2.66,7.34-1.81s13.15-11.52,14.3-10.37c.93.94-2.33,5.33-6.74,9.06-3.27,2.77-4.34,5.42-2.61,6.5,1.34.84,4.18-1.16,4.19-3,0-1.06,4-5.62,10.7-12.18,7-6.86,11.37-11.88,12.64-14.47a16.76,16.76,0,0,1,4-5.39c1.13-.78,3.06-2.22,4.29-3.21,3-2.41,3.2-1.87,1,2.82m-819.3-4c1.66,3.9,2.53,6.8,5.84,19.24.79,3,2.06,7.1,2.83,9.16,1.3,3.5,2.68,8,5.85,19.16,2.19,7.75,2.3,8.58,1,8.17-.64-.2-2-2.79-2.93-5.73s-2.3-6.49-3-7.87c-2.61-5.55-4.93-11.85-5.5-15a37.63,37.63,0,0,0-1.53-5.67,19.37,19.37,0,0,1-.95-5.83,21.78,21.78,0,0,0-2.45-8.46c-2.33-4.75-3.3-11.27-1.68-11.26.4,0,1.51,1.84,2.46,4.09m480.76,1.66c1.5,1-.45,5.58-4.2,10-4.86,5.67-5.46-.88-.68-7.41,2.6-3.56,3-3.77,4.88-2.56m93.17,1.56c-.06,1.69-12.09,16.75-13.63,17-2.1.39-1.69-1.41.9-3.88a85.66,85.66,0,0,0,9.68-11.93c1.52-2.38,3.1-3,3-1.23M1484.7,40.66a16.28,16.28,0,0,0-1.73,4.57c0,1.85-2.58,4.09-3.56,3.1-1.22-1.24,1.92-9.13,4.4-11.07,2.71-2.1,3.06-.78.89,3.4m54.88-2.92c.75,1.42.5,2.18-1.45,4.46-1.29,1.51-5.55,7.15-9.47,12.54s-9,12.05-11.3,14.82-5.69,7.25-7.53,9.94c-6.31,9.23-15.37,18-18.31,17.68-4-.42-3.7-2.66.92-7.66,3.84-4.17,6.74-7.46,13.13-15a47.84,47.84,0,0,0,4.23-5.8,51.6,51.6,0,0,1,10-12.43,70.36,70.36,0,0,0,7.07-7.86c9.07-12.4,11-14,12.75-10.71m-318.72-.65c.14.71-1.28,3-3.14,5.16s-3.39,4.22-3.39,4.66c0,1.93,3,.47,6-2.93,4.48-5,9.53-5,5.53,0a54,54,0,0,0-4.07,6.52c-6.74,12.62-8.58,15.83-10.55,18.4-2.68,3.46-2.47,5.91.46,5.53,2.65-.34,3.32-1.08,6.88-7.58,5.28-9.66,6.39-12,7.31-15.35,1.59-5.83,5.16-9.23,8.29-7.91,3.74,1.57,3.36,3.88-1.92,11.9a61,61,0,0,0-5.51,9.89c-1,3.21-6.22,8.45-10,10.06a33.25,33.25,0,0,0-4.29,2.35c-6,4.06-25.17,6.12-36.77,4a137.62,137.62,0,0,0-16.83-1.27c-12.42-.26-12.56-.34-8.35-5,1.61-1.76,2.93-3.7,2.93-4.31,0-3.68-3.71-1.65-8.1,4.41-4,5.57-6.41,7.39-9.89,7.54-6.3.28-19.37,6.83-18.45,9.25.81,2.15,3.1,1.62,8.75-2,4.84-3.13,5.58-3.36,9.2-2.86,5.43.75,11.4-.46,13.22-2.69s10.88-2.93,14.46-1.13c1.2.6,7.37,1.73,13.71,2.51,15.28,1.88,14.47,1.72,17.6,3.36,1.51.8,3.38,1.25,4.15,1,5.33-1.6,10.77-4.1,12.6-5.8a29.32,29.32,0,0,1,5.49-3.7,50.8,50.8,0,0,0,8.77-6.91c5-4.83,7-7.39,12.6-16.89,4.05-6.83,8-9.76,10.43-7.74a4.18,4.18,0,0,0,3.3.48c2.7-.67,3.55,1.23,1.71,3.83a9.43,9.43,0,0,0-1.35,4.64c0,4.53-7.21,14.65-14.23,20-3.22,2.47-5.85,4.77-5.85,5.11,0,1.44-10.14,6.72-16.68,8.68-3.9,1.17-8.54,2.63-10.31,3.24-2.26.76-3.7.84-4.79.25-2.86-1.55-20.77-.87-26.31,1-2.2.74-3.55.63-7.06-.58-3.1-1.07-5-1.28-6.4-.75a10.6,10.6,0,0,1-5.22,0,7.85,7.85,0,0,0-6.27.82c-2,1-5.58,1.68-10,1.9-5.65.29-7.22.69-8.86,2.2-1.88,1.75-2.26,1.8-7,.85a20.5,20.5,0,0,0-9.17-.13,38.77,38.77,0,0,1-9.66.33c-5.7-.56-6.38-1.21-4.63-4.45,2-3.7-1.46-5.63-3.8-2.1-2.12,3.21-3.3,2.5-5.23-3.15-1-2.86-2.27-6.33-2.88-7.71a53.53,53.53,0,0,1-2.12-6.24c-.55-2.06-1.3-4.5-1.66-5.42s-1.23-3.53-1.93-5.83-1.82-6-2.5-8.22-1-4.41-.77-4.83c.78-1.25,2.65.87,3.7,4.18a48.46,48.46,0,0,0,2.4,6A101.57,101.57,0,0,1,1089.88,77c.88,3.44,2.77,5.83,4.61,5.84,1.33,0,1.59-.32,1.12-1.44a44.14,44.14,0,0,1-1.41-4.8,30.5,30.5,0,0,0-1.44-4.63c-3.42-7-10-25.74-9.33-26.74,1-1.52,2.68-.54,3.63,2,.56,1.49,2.07,5.34,3.37,8.55a85.37,85.37,0,0,1,3.35,10c1.06,4.41,2.73,7.08,4.43,7.09s2.11-2.61.53-5.29a38.82,38.82,0,0,1-3-7.61,77.12,77.12,0,0,0-3-8.56c-2-4.47-2-6,0-6,2.3,0,4.06,2.47,5.13,7.11,1.75,7.69,4.58,11.88,6.64,9.84.51-.51-.14-2.82-1.79-6.42-2.18-4.71-2.45-6-1.68-7.63,1.05-2.26,2.64-2.69,2.63-.72,0,2.47,2.48,6.2,4.15,6.21,2,0,2.11-2,.42-5-2.4-4.24-.66-7.92,2.13-4.53,1.63,2,3.42,1.14,5.33-2.5,2.32-4.4,3.79-4.46,7.09-.31l2.75,3.46-1.4,7.64a91.92,91.92,0,0,0-1.41,9.84c0,4.07-1.82,10.44-3.09,10.92-2.75,1-4.68-1.12-4.1-4.6s-.64-4.53-1.49-1.2c-.61,2.34-3.76,5.57-4.81,4.91-1.21-.76-.76-2.93.9-4.36,1.92-1.65,4.65-11.74,3.49-12.9-.49-.5-1.11,0-1.68,1.53a20.23,20.23,0,0,1-2.92,4.7,14.27,14.27,0,0,0-2.61,6.31,30.44,30.44,0,0,1-2.52,7.68,29.86,29.86,0,0,0-2.5,7.47c-.7,4.39.23,3.78,2.52-1.65s4.44-7.61,6.33-6.59a12,12,0,0,0,4.48.82c2.66,0,3.25.44,5.24,3.75,2.17,3.62,5.19,5.44,3.86,2.33s-1.36-6.94-.06-8.36,3.41-10.77,3.1-13.45c-.07-.69-.18-3-.23-5.17-.14-5.41,2.71-8,3.21-3,.1,1,.24,2.19.29,2.53.3,1.76,4.56.25,8.64-3.08,6.84-5.57,8.5-5,3.53,1.18a19.85,19.85,0,0,0-2.92,4.3c0,1.26,1.56,1.64,2.44.59,2.61-3.09,8.6-12.23,9.75-14.88,1.36-3.12,3.26-4.55,4.14-3.11.65,1.06,0,2.9-4.34,13.1a97.75,97.75,0,0,0-3.7,9.35c0,1.89,2.39.48,3.31-1.94,1.14-3,8.28-17.12,9.36-18.5.86-1.11,8.4-.24,8.81,1,.16.51-1.21,2.75-3.06,5-9,10.8-13.39,18.54-10.54,18.56a1.31,1.31,0,0,0,1.25-1.35,6.24,6.24,0,0,1,1.89-3.21c1-1,3.15-3.41,4.69-5.32,2.65-3.27,2.9-3.39,4.32-2.09s1.59,1.22,2.94-1.39a33.43,33.43,0,0,1,3.34-5,17,17,0,0,0,2.28-3.31c.93-2.57,1.5.37.6,3.07-1.93,5.76,1.37,7.13,3.74,1.54,1.39-3.27,2.91-3,2.89.59,0,3,1.31,3.9,3.29,2.12s2.87-.43,2.13,3.38c-.54,2.85,1.82,5.52,2.67,3a1.37,1.37,0,0,1,1.1-1c1.2,0,.87,1.82-.64,3.47-1.14,1.25-1.22,1.9-.43,3.64,2.56,5.72-5,11.47-8.57,6.52-.55-.76-2.79-1.49-5.48-1.79a24.77,24.77,0,0,1-6-1.23c-2.61-1.39-3.4-.89-2.88,1.8.46,2.36.36,2.5-1.36,1.9-3.25-1.16-7.68-.88-7.68.47,0,3.52,34.14,4.76,37.94,1.38,1.73-1.55,1.78-1.54,3,.31,3.33,5,4.55.71,2-7.08-2.66-8.09-2.9-12-1-15.72,2.43-4.69,4.33-6.14,4.32-3.26,0,3.39,2.7,2.83,4.51-.92,3.15-6.55,9.74-12.35,10.34-9.12m-192,1.2a24.19,24.19,0,0,0,3.26,6.57c5,6.93,5.48,8.52,10.32,31.47a112.06,112.06,0,0,0,3.42,13.13c.72,1.72,1.07,3.38.77,3.67-.85.84-3.86-2.33-3.85-4.07a16.41,16.41,0,0,0-1.3-4.65,108.54,108.54,0,0,1-3.3-11A82.15,82.15,0,0,0,1034.55,62c-1.83-3.83-2.46-5.76-5.26-16.12-1-3.89-2.16-7.92-2.49-9s-.22-1.87.33-1.87,1.28,1.45,1.74,3.21m258.69-1.07c0,3.19-7.52,16.62-9.28,16.61-2.44,0,1.09-10.21,4.3-12.47a8.63,8.63,0,0,0,2.91-3.31c.54-1.67,2.08-2.29,2.07-.83m148,.66c0,.9-4.63,7.25-5.81,8s-1.14,3.52.08,4.28c.57.36,1.37,0,1.88-.85,6.08-10,8.2-12.23,9.92-10.5.67.68,0,1.88-2.6,4.48-3.53,3.56-4.69,7.22-2.3,7.23.68,0,2.14-1.39,3.24-3.1,2.73-4.25,5-6.16,6.67-5.51s1.79,1.66.62,2.37c-.88.54-4.28,6.81-4.29,7.91,0,2.1,8.39.61,9.79-1.74,1.71-2.86,4.71-3.08,7.38-.55,2.32,2.21,6.31,1.18,9.18-2.36,2.54-3.11,4.49-1.49,3,2.46-.55,1.43-.8,2.94-.54,3.35,1.18,1.94-9.59,8.11-14.13,8.09-1.32,0-4.28,2.16-9,6.57l-7,6.59-1.23-2.66c-1.57-3.35-8.53-5.62-19.32-6.29-7.5-.46-9.32-1.63-5.6-3.6,1.83-1,2.26-2.48.7-2.49a4.6,4.6,0,0,0-2.29,1.14c-4.59,4-6.29,2-2-2.31,2.78-2.75,3-3.25,2-4.81-1.13-1.83,4.59-9,7.18-9,1.87,0,1.17,1.56-2,4.43-2.86,2.59-3.52,5.53-1.27,5.54,1.38,0,5.52-4.79,7.64-8.85,3-5.77,10.06-11.25,10-7.82m139.83,6.06a73.92,73.92,0,0,1-5.94,6.76c-1.72,1.63-2.57,3.23-2.58,4.87,0,3.16-4.12,8.66-12.61,16.88a77.55,77.55,0,0,0-9.2,10.46c-1.71,2.7-3.51,4.39-5.62,5.24-5.63,2.3-9.71,8.56-5.57,8.58,3.11,0,8.35-5.32,30-30.51,5.69-6.63,8.34-8.16,9.38-5.41.3.8-.48,2.32-2,3.93-3.48,3.66-11.93,14.77-11.94,15.7,0,1.82-3.84,5.87-6.6,7-5.59,2.27-8.79,7-5.6,8.2,2.75,1.08,12.67-8.24,16.32-15.31.91-1.75,2.18-3.39,2.83-3.63A4.3,4.3,0,0,0,1568,74c.32-1.24,2.46-4.16,4.75-6.48,3-3,4.06-4.69,3.77-5.89s.62-3,2.48-5.4c1.58-2.05,3.79-5,4.9-6.62,3.82-5.49,6.88-8.58,7.88-7.95,1.68,1,1.07,3.13-2.21,7.48-5.73,7.62-8.75,12.88-8.23,14.28.34.89-.85,2.91-3.47,5.92-2.2,2.51-6.51,7.72-9.59,11.57s-8.1,9.61-11.16,12.79l-5.57,5.79-8.44-.18c-7.77-.15-18.83.74-23.61,1.92s-4.1-1.23,2.86-9.36c2.45-2.87,4.47-5.53,4.47-5.9,0-.79,17.31-19.39,18.39-19.77.41-.15,1.19,1.27,1.74,3.12s1.23,3.39,1.54,3.39c1.41,0,5.21-5,4.74-6.21-.73-1.94,3.17-9,6.23-11.31a59.2,59.2,0,0,0,5-4.29c1.3-1.29,2.82-2.78,3.38-3.32s3.09-3,5.65-5.48c5.58-5.43,6.76-4.3,2,1.87M954.06,37.21c-.49.91-1.22,1.66-1.62,1.65s-1.5,1.21-2.46,2.69c-2.29,3.56-3.44,5.31-6,9.32-1.2,1.83-3.19,5.38-4.44,7.89-3.58,7.22-5.82,11.1-8.16,14.16a22.65,22.65,0,0,0-2.7,4.28,2.17,2.17,0,0,1-1.81,1.45c-.71,0-3,1.57-5.18,3.51s-3.65,2.87-3.33,2a8.64,8.64,0,0,0,.58-2.22,9.8,9.8,0,0,1,2-3,89.49,89.49,0,0,0,6.38-10.63,102.5,102.5,0,0,1,5.46-9.54,44.37,44.37,0,0,0,3.57-6.63c2.29-5,9.3-12.43,11.7-12.42a12.7,12.7,0,0,0,3.55-2.06c3.42-2.5,3.65-2.53,2.5-.4m257.79.27a19.08,19.08,0,0,1-2.92,3.94c-3.41,3.92-3.94,2.43-.59-1.71,2.17-2.71,3.59-3.59,3.51-2.23m290.86,2.25c.33.88-.17,1.93-1.39,2.9-3.51,2.82-5.46,1.24-3.33-2.7,1.07-2,4-2.09,4.72-.2m67.36,1a8.67,8.67,0,0,0-1.56,2,40.68,40.68,0,0,1-5.65,4.73,36.87,36.87,0,0,0-9.47,10.4c-4.05,6.28-6.58,8.18-8.64,6.45-1.29-1.08-17.78,16.19-24.23,25.38-7.72,11-9.14,12.19-13.65,11.5-8.84-1.35-8-5.76,3.17-17.86,5.3-5.72,12.49-14.14,15.47-18.11,1.82-2.45,3.93-5.06,4.68-5.82,1.53-1.53,3-3.49,7.22-9.82,3.21-4.78,4.71-5.37,6.06-2.37,1,2.13-1.5,6-12.93,20.33-2.69,3.38-6.62,8.49-8.73,11.36A139.57,139.57,0,0,1,1512.4,90c-5.66,5.93-6.26,7-4.71,7.91s4.65-1.78,8-6.71c3.54-5.19,14.27-18,15.43-18.42a1.26,1.26,0,0,0,.74-1.11c0-.79,4.45-6.87,10.33-14.14,1.39-1.71,3.12-3.11,3.86-3.1s3.83-1.86,6.89-4.13,5.89-4.13,6.31-4.13a16.42,16.42,0,0,0,4.23-2.47,17.34,17.34,0,0,1,4.19-2.47,3.49,3.49,0,0,0,1.8-1.26c.58-.7,1.24-1.08,1.45-.87s-.18,1-.89,1.67m-185.63,1.53a8.05,8.05,0,0,0,3.53,1.33c2.19,0,3.51,1.66,3.5,4.34,0,1.76-.41,2.33-1.62,2.33-1.86,0-3-1.39-2.95-3.7,0-1.21-1.46-2.21-6-4.08-3.31-1.36-6-2.79-6-3.17,0-.9,7,1.25,9.56,3m-183.86,2.66c-3.86,6.66-4.86,7.08-2.09.9,1.79-4,2.43-4.85,3.61-4.84.43,0-.26,1.78-1.52,3.94m315.67-1.55c0,.89-3.49,3.5-4,3-.18-.18.1-1.1.62-2.05.93-1.74,3.37-2.41,3.37-.94M1011,43.28c2.37,4.65,1.65,6.63-1.24,3.36-2.47-2.79-3-4.22-1.92-5.28s1.91-.53,3.16,1.92M1846.49,47A280.72,280.72,0,0,1,1827.3,68c-6.63,6.48-8.21,9.64-4.07,8.07,1.93-.73,26.5-28.86,26.5-30.35,0-1.26-1.69-.62-3.24,1.21m-795.33-3.22c1.21,1.31,1.61,2.51,1.26,3.81-.28,1.06.11,4.23.87,7.06,2.33,8.66,3.88,14.13,5.12,18.05,5.16,16.33,6.12,21.66,3.94,21.65-1.92,0-3.77-3.45-3.76-6.94A9.07,9.07,0,0,0,1057,82a7.51,7.51,0,0,1-1.64-3.41,46.94,46.94,0,0,0-2.08-7.4c-1.45-4.26-1.92-7-1.54-8.93a8,8,0,0,0-.44-4.64c-5.73-10.84-5.8-20-.1-13.91m143.5-.53c.64,1.11-1,4.36-2.25,4.36-2.05,0-3.39-2.32-2.18-3.76s3.8-1.67,4.43-.6m433.53,6c5.2,2.72,5.28,4.76.41,9.94-2.81,3-3.43,2.89-8.85-1.21-5.11-3.86-5.08-3.82-3.36-5.65.68-.72,2.45-2.75,3.94-4.51,2.64-3.13,2.73-3.16,4-1.54a14.13,14.13,0,0,0,3.83,3m-699.44-6c.52,1.35-1.18,5.13-7.11,15.83-2.28,4.11-5.57,10.08-7.31,13.27a67,67,0,0,1-5.12,8.14,9.59,9.59,0,0,0-2,3.1c0,.42-2.39,3.84-5.32,7.61s-5.77,7.68-6.31,8.71c-1.08,2-3.08,2.47-3.66.81s.66-4.2,4-9c1.63-2.34,3-4.67,3-5.16a7.7,7.7,0,0,1,2-3c1.09-1.16,3.94-5.79,6.32-10.28,4.91-9.24,6.33-11.59,9-14.87a45.85,45.85,0,0,0,4.08-6.63c4-8,7.36-11.31,8.41-8.52m578.18,2.94c-.14.63-2.72,3.87-5.71,7.18-7.56,8.38-20.62,23.06-24.91,28-2.28,2.63-4,4-4.8,3.67-2.15-.83-1.32-2.4,4.32-8.24,3.05-3.14,6.64-7.19,8-9s5.63-6.54,9.52-10.51,7.07-7.46,7.07-7.73c0-.89,4.56-4.5,5.7-4.52a.85.85,0,0,1,.82,1.14m-157.82.63c.82,1.53.58,2.14-1.68,4.36-3,3-4.74,1.94-3.25-1.9,1.71-4.44,3.44-5.3,4.93-2.46M935.72,45.06c0,2.16-10.4,21.92-14,26.58a10.46,10.46,0,0,0-2,3.39c0,.46-1.58,3.22-3.5,6.14s-5.41,8.85-7.76,13.19c-3.93,7.24-4.49,7.9-7,8.13-2,.18-2.69-.09-2.69-1.1,0-1.4,6.06-10.71,7.56-11.62.47-.29,2-2.83,3.45-5.65a70.44,70.44,0,0,1,5.79-9.27,47.46,47.46,0,0,0,5-8.29A27.45,27.45,0,0,1,924,60.75a45.42,45.42,0,0,0,4.24-6.62c5.57-10.17,7.55-12.56,7.53-9.07m18.81,0c.51,1.36-.95,3.84-6.4,10.85-6.57,8.46-11,16.07-10.74,18.43.15,1.3-.21,2.31-.9,2.55-3.13,1,.88-8.55,10.31-24.64,4.65-7.94,6.71-9.86,7.73-7.19m8.86,3.46a26.2,26.2,0,0,1,2.23,5.65,16.7,16.7,0,0,0,1.66,4.37,81.76,81.76,0,0,1,3.65,9.54c2.5,7.93,6,17.55,6.47,18.08,1.9,1.92,7.29-3.21,6.67-6.35-.4-2.07,0-3,2.55-5.47a26.61,26.61,0,0,0,4.66-6.64c1.54-3.43,5.17-5.6,3.89-2.34a10.08,10.08,0,0,0-.52,2.91c0,.88-1.27,3-2.81,4.7-3.52,3.89-5.34,8.86-3.89,10.62,1.57,1.91,3.21,1.45,3.78-1,.81-3.6,1.07-4.09,1.14-2.13.07,2.44,1.72,3.35,3,1.65,1.6-2.16,2.76-1.61,3.68,1.76,1.23,4.52,1.09,5.16-1.3,6.06-2.79,1-3.68.41-3.66-2.6s-2.22-3.43-2.64-.64c-.23,1.48-1.18,2-5.27,2.83-7.86,1.61-9.58,1.46-9.56-.85a5.25,5.25,0,0,0-1.51-3.34c-1.63-1.48-4.71-8-5.41-11.41a8.34,8.34,0,0,0-2.94-4L964.72,68v1.84c0,2.87,4.92,15.91,6.82,18,1.25,1.38,1.46,2.13.77,2.81-.89.88-6-8.74-6-11.29a41.13,41.13,0,0,0-3-6.76c-3.26-6.4-6.06-14-6.05-16.38s1.48-1.76,3,1.39c.75,1.6,1.66,2.73,2,2.5.78-.48-.45-5.58-2.14-8.9-1.46-2.86-1.49-7.32,0-7.32.59,0,2.08,2.08,3.3,4.61m156.28-1.86c-1.22,2.86-1.29,4.72-.15,4.72s1.83-2,1.47-4.7l-.31-2.36-1,2.34m-75.89,3.71c4.31,12.18,4.94,14.31,5.42,18.4s1.26,7,4,14.29c1.51,4.11,1.67,9,.28,8.54-2.57-.86-5.82-9-8.4-21-1-4.6-4.67-18.3-5.44-20.25s.27-5.15,1.67-5.14c.38,0,1.51,2.34,2.52,5.21m551.93-.09c-1.84,3.45-8.78,10.76-8.82,9.3,0-1.05,2.33-4.35,7.53-10.55,1.62-1.93,2.52-1,1.29,1.25m-198.09,2.63c-1.11,1.77-3.08.23-3.35-2.62l-.27-2.91,2.06,2.35c1.14,1.31,1.84,2.73,1.56,3.18m12.46-3c-.76,2-2.64,2.14-4.65.44l-1.9-1.6H1407c2.69,0,3.39.26,3,1.17m100.3.37c0,1.86-14.5,19.95-20.39,25.47a67.53,67.53,0,0,0-8.56,9.73c-2.91,4.48-4.21,5.28-5,3.09-.65-1.73,1.56-4.86,7.84-11.08a55,55,0,0,0,6.24-7c3-5.45,19.94-22.67,19.91-20.2m143.43,1.56c.83,1.2,1,2,.4,2.17-.88.29-3.2-2.17-3.25-3.43s1.59-.55,2.85,1.26m48.82.27a58.4,58.4,0,0,0,6.33,4.7c6.22,4,5.15,6.19-5.82,11.7-6.4,3.21-6.59,3-2-2.41,4.13-4.8,4.59-6.34,2.12-7.13a2,2,0,0,1-1.44-2.26c.57-5-6.59,1.08-33.64,28.46C1656.55,97,1654.94,98,1653.36,94.42c-1-2.24-.11-3.46,11.71-15.94,4.5-4.76,5.3-5.22,4.61-2.63-1.41,5.3,3.32,1.93,7.83-5.57,1.94-3.23,10.09-11,11.52-11,.31,0,2.82-2,5.57-4.53,5.76-5.25,5.39-5.13,8-2.66m-99.49-.69c.29.48-2.32,3.83-5.81,7.44-5.92,6.13-7.51,9.1-5.55,10.33.45.28,2-1.37,3.41-3.66,3-4.76,5.62-6.88,10.86-8.66,3.93-1.32,6.88-.33,3.2,1.08-2.35.9-5.34,4-8.92,9.22a44.89,44.89,0,0,1-5.15,6.15c-1.42,1.34-2.59,3.21-2.6,4.15s-1.46,2.79-3.94,4.61a22.3,22.3,0,0,0-5.22,5.2c-3.47,6.23-11.73,13-13.41,10.91-1.2-1.47,3.89-8.38,15.71-21.29,4.67-5.11,4.77-8,.19-5.62-.89.47-5,4.85-9.16,9.72s-8.8,10.2-10.34,11.82a17.57,17.57,0,0,0-3.37,4.67c-.52,1.6-2.68,2.7-5.36,2.71-1.7,0-1-1.15,4.08-6.37a70.14,70.14,0,0,0,6.21-7.26,57.66,57.66,0,0,1,5.37-6.48,71.52,71.52,0,0,0,6.35-7.89c1.64-2.48,3.49-4.17,5.13-4.7a10.29,10.29,0,0,0,6.78-5.72c3.41-6.51,10.18-12.59,11.54-10.36m281.1,1.36a5,5,0,0,0,0,2.93c.66,2.7-5.31,8.69-17.21,17.27-10.43,7.52-19.88,14.7-22.07,16.76a10.79,10.79,0,0,1-5.83,2.73c-5.55.71-4.59,3,1.15,2.7,5.4-.27,8.38-1.51,9.66-4a16.75,16.75,0,0,1,4.35-4.31,22.1,22.1,0,0,0,4.1-3.55,40.49,40.49,0,0,1,6.16-4.93,54,54,0,0,0,6.65-5.21,33.52,33.52,0,0,1,5.59-4.2c2.43-1.53,4.42-3.09,4.42-3.46s2.63-2.86,5.85-5.56,5.85-5.34,5.85-5.87c0-1.63-7.77-2.75-8.7-1.25m-824.32-2.31a19.1,19.1,0,0,1,1.72,6,33.39,33.39,0,0,0,1.84,7.07c2.2,5.2,2.57,6.28,3,8.85a63.34,63.34,0,0,0,2,7.49c2.38,7.14,4.45,16.81,3.82,17.8-1.14,1.84-2.76-.21-3.74-4.74-.56-2.61-1.32-5.69-1.69-6.83a47.37,47.37,0,0,1-1.19-5.41c-.6-3.93-4.8-16.91-7-21.66-3.41-7.39-2.42-14.37,1.21-8.52M1490.5,54.8c-4.13,5.16-10.13,9.94-10.12,8.07,0-.17,2.66-3,5.91-6.3,6.2-6.29,8.65-7.32,4.21-1.77m-476.69.6c0,3.1-.11,3.21-1.24,1.7-1.25-1.68-1.62-5.59-.62-6.58s1.89,1.41,1.86,4.88m-26.35-1.6a33.7,33.7,0,0,1-2.93,5.09,7.37,7.37,0,0,0-1.48,3c0,.6-1.13,1.63-2.51,2.31-3,1.46-3.06,1.06-.6-2.91,5-8.11,6.46-9.82,8.76-10.58a16.71,16.71,0,0,1-1.24,3m19.85,2.08a107.76,107.76,0,0,1,3.22,10.73,115.71,115.71,0,0,0,3.6,11.61c2.36,6.12,2.57,8.23.85,8.88-3.29,1.24-7.4-7.75-8.42-18.44a31,31,0,0,0-2.43-9c-1.86-3.76-1.89-4.1-.62-6.52,1.59-3,1.64-3,3.8,2.7M1354,54.61c1,2,.14,4.6-1.58,4.59-1.14,0-2.63-3.52-2.13-5.05.71-2.21,2.4-2,3.71.46m127.6-.69c.63,1-3.4,4.54-4.45,3.88-1.24-.78-1.11-1.78.42-3.3s3.35-1.69,4-.58m169.67,3.7c5.94,4.71,5.39,8.54-1.49,10.21a6.1,6.1,0,0,0-3.57,3c-1.4,2.69-3.72,3.06-7,1.13-1.14-.66-3.65-2-5.57-3.07-4.73-2.53-4.89-3.58-1.24-8,6.61-8,11.78-8.87,18.89-3.23m78.55-1.75c-3.71,4.47-6.86,7.94-12.43,13.74a92.18,92.18,0,0,0-8.5,10c-1.23,1.91-5.93,7-10.46,11.34l-8.23,7.87h-6.86q-6.85,0-6.86-.92c0-1.13,13.35-17,14.28-17a10.14,10.14,0,0,0,3-1.92,58.48,58.48,0,0,1,5.64-3.86c3.46-2.08,3.43-1.89-.52,3.89-1.3,1.9-2.37,4-2.37,4.77,0,2.09,2.32,1.52,3.86-1a62.32,62.32,0,0,1,5.77-6.84c2.39-2.5,6.15-6.78,8.36-9.51a41.32,41.32,0,0,1,6.5-6.63c7.79-5.18,11-6.64,8.81-4m7.59.11c0,1.09-11.63,14.18-13.45,15.14-3,1.59-2.6.37,1.53-4.68,7.22-8.82,11.93-13,11.92-10.46M799.73,53.09c.69,1.14-2,5.14-3,4.5s-1-3.2.22-4.39,2.07-1.25,2.77-.11m883.61,4.39c0,2.43-3.19,4.57-5.33,3.59-3-1.41-2.76-3.36.55-3.75l3.74-.45c.57-.08,1,.2,1,.61M1075.3,60a60.62,60.62,0,0,0,3,9.42,75.09,75.09,0,0,1,3.13,9.16,95.62,95.62,0,0,0,3,9.16c2.61,6.67,2.88,8.34,1.35,8.33-1.68,0-3.89-2.27-3.88-4a47.09,47.09,0,0,0-2.1-7.52c-1.15-3.41-1.88-6.74-1.63-7.4s-.27-2.67-1.17-4.46a15.61,15.61,0,0,1-1.66-5.16,9.83,9.83,0,0,0-1.2-4c-1.24-2.21-1.67-9.55-.51-8.82.38.23,1.15,2.6,1.71,5.25M1920,59.66c.6,1-9,10-14.14,13.33a88.24,88.24,0,0,0-9.28,7.68,119,119,0,0,1-12.53,10c-10.91,7.31-13.37,10.34-9,11,1.22.19,3.6-1.46,7.87-5.44a78,78,0,0,1,7.55-6.48c2.34-1.26,8.91-6.92,15.34-13.26a66.66,66.66,0,0,1,7.72-6.83,44.11,44.11,0,0,0,5.58-4.21c5.4-4.62,6.25-4.39,6.22,1.68l0,5-9,8.94a153.62,153.62,0,0,1-14.61,12.91c-3.1,2.19-5.64,4.46-5.64,5.06,0,4.06,7.58-.49,14.59-8.75,2.77-3.24,12.65-11.47,13.78-11.47.77,0,.9.94.48,3.46-.74,4.51-.28,4-8.93,10.32-4.83,3.54-7.43,6-7.27,6.84.51,2.73,2.94,1.66,9-4,3.41-3.17,6.41-5.45,6.65-5.06.74,1.21.22,11.77-.61,12.6-1.33,1.32-45.41,2.34-47.39,1.1-.45-.28-4-.58-7.82-.66-7.92-.18-11.78-.72-11.41-1.63.3-.73,16.45-14.36,21-17.71a86.49,86.49,0,0,0,6.77-5.79c16.8-16,31.82-24,35.12-18.61M807.6,54.47a48.61,48.61,0,0,1-3.15,5.93c-1.73,3-4.09,7.1-5.25,9.2-4,7.21-5.79,9.2-8.4,9.19-2.83,0-5.24,3-4.84,5.95.34,2.49,4.28,3.12,6.59,1.05,1.34-1.2,1.92-1.27,3.5-.41,1.85,1,3.35,1.13,11.85,1,5.55-.11,6.59-.84,6.36-4.47-.2-3.21,1.25-4.16,1.67-1.09s3,2.81,4.53-.45a20.61,20.61,0,0,1,5.36-5.87c2.17-1.65,4.45-4.2,5-5.68a20.84,20.84,0,0,1,4.33-5.7l3.24-3,3.27,2.16c6.57,4.36-.48,18.91-13,26.74-3.27,2.06-5.48,5.79-3.43,5.8.93,0,7-3.31,7.45-4.09a11.44,11.44,0,0,1,3.42-2.18,9.77,9.77,0,0,0,3.76-2.92A3.43,3.43,0,0,1,842.85,84a2.82,2.82,0,0,0,2.56-1.23,2.67,2.67,0,0,1,2.41-1.24c1.54,0,2.41-1,4.31-4.94,2.12-4.42,4-6.52,5-5.5s-1.9,7.25-3.63,8.38A6.8,6.8,0,0,0,851,83.87a14.3,14.3,0,0,1-2.59,5.5c-5.42,6.43-5.52,10.95-.13,5.8s8.35-9.91,8.11-13,5.17-11.38,7.31-11.37c1.5,0,1.48.94-.07,3a7.38,7.38,0,0,0-1.26,3.71,15.85,15.85,0,0,1-1.72,5.37c-2.06,4-2.11,5.08-.24,6.14,1.34.75,1.27,1-.74,3.15-3.43,3.64-4.44,6-2.86,6.6,1.16.45,1.14.64-.18,1.63-1.77,1.33-13.61,1.52-14.89.24-.57-.58-1.33-.32-2.38.82-1.81,2-3.78,2.08-9.12.45-2.54-.78-4.63-1-5.84-.51a5,5,0,0,1-4.16-.5c-2.89-1.52-4.18-1.51-6.54,0-1.08.7-4.57,1.36-8.09,1.55s-10.68.68-16.17,1.14c-13.83,1.15-21.91,1.19-25.64.16a10.81,10.81,0,0,0-5.82-.12c-5.76,1.68-25.51-.21-25.5-2.43,0-2.49,5-10,5.14-7.75s.34,4.85.55,6.5c.08.64.92,1,2,.84,1.78-.24,1.87-.62,2-8.18.17-9.62,1.39-15.58,4-19.72,3.61-5.65,4.14-5.76,8.73-1.84,4,3.42,4.16,3.47,11.2,3.69,3.91.12,7.39.49,7.72.83,1,1,4.23.67,5.32-.63,1.31-1.56,2.52-1.55,5.52,0,5,2.66,8,1.57,9.4-3.45.53-1.92,1.3-3.7,1.71-4,.92-.56,7.58-10.35,7.58-11.14,0-1,1.94-2.56,3.09-2.56.59,0,1.08.25,1.08.56m86.49.34c0,1.08-4.3,8.67-6.13,10.84a34.1,34.1,0,0,0-3.52,5.3c-.83,1.59-3.18,5.42-5.23,8.49C873,88.86,869.66,96,871,97.38c1.65,1.7,2.4.83,5-5.85A36.58,36.58,0,0,1,880.67,83a65.1,65.1,0,0,0,5.88-9.12c6.3-11.51,13.39-20,15.17-18.21.78.79-2.45,8.78-4.2,10.39a41.22,41.22,0,0,0-4.87,7.22c-1.73,3.08-3.83,6.5-4.66,7.58a9.77,9.77,0,0,0-1.55,5.48,10.72,10.72,0,0,1-2.54,7c-5.26,7.19-7.57,8.51-12.85,7.37-1.86-.4-5.25-.93-7.53-1.2a22.77,22.77,0,0,1-4.43-.76c-.58-.59,2.44-4.34,4.27-5.31,1-.55,2.81-2.7,3.92-4.78a16.76,16.76,0,0,1,4-5,4.06,4.06,0,0,0,1.94-2.53,9.59,9.59,0,0,1,1.92-3.85,38.36,38.36,0,0,0,3.49-6.1c.89-2,2.51-4,3.7-4.56a5.15,5.15,0,0,0,2.58-2.67c.48-1.74,2.86-5.62,4.94-8.08,1.11-1.32,4.29-2,4.29-1m20.14,1a7.25,7.25,0,0,1-2.7,2.27c-1.38.69-2.25,2.18-3,5.12-1.09,4.54-4.21,10.43-8.52,16.09-1.53,2-2.79,4-2.81,4.56-.07,2-9.7,16.66-11.08,16.92-2.22.42-1.82-3.17.74-6.54,2.81-3.7,6.22-11,6.23-13.28,0-1,1.7-4.58,3.78-8a46.87,46.87,0,0,0,3.78-6.87c0-2,6.85-9.16,8.69-9.15a4.37,4.37,0,0,0,3-1.24c1.4-1.66,2.8-1.6,1.85.08m154.52,2a10.61,10.61,0,0,1,.63,4.78l-.27,3.09-1.44-2.14c-2.15-3.19-2.81-7.45-1.14-7.44a3.11,3.11,0,0,1,2.22,1.71m546.13,2.44c.16.46-5,6.77-11.51,14-12.59,14.1-14.22,16.39-12.72,17.9s3.45.09,5.49-4.44a27.63,27.63,0,0,1,6.71-8.69,128.78,128.78,0,0,0,9.37-9.65c5.45-6.31,6.5-6.85,8.7-4.46s3.13,1.39-12.66,17.27c-12.65,12.74-14.75,14.52-18.16,15.39-6.83,1.74-12.36-.21-8.83-3.11a3.3,3.3,0,0,0,1.26-1.87c0-.47,2.56-3.31,5.7-6.32a137.65,137.65,0,0,0,10.58-11.67c9.16-11.68,15.19-17.07,16.07-14.38m-824-2.59c-.9,2.36-5.89,8.61-6.87,8.62-1.31,0-.54-1.61,1.88-4a17.06,17.06,0,0,0,3.33-4.62c.45-1.18,1.2-2.14,1.66-2.14s.55.73,0,2.14M813.4,58c0,3.45-12.29,24.14-14.32,24.13-1.68,0-1.69-2.52,0-5.58,1-1.73,2.25-4.46,2.89-6a36.09,36.09,0,0,1,4.15-6.74A60,60,0,0,0,810,58.2c1.18-2.19,3.4-2.3,3.38-.17M952.29,58a31,31,0,0,1-1.68,5,24.07,24.07,0,0,0-1.71,7c0,2.77-3.24,6.25-5.77,6.24s2-12.78,6.4-17.61C951,57,952.3,56.7,952.29,58M821,58.59c1.48,1.49-11.35,22.79-13.72,22.78-2.14,0-1.86-1.36,1.45-7.07,1.58-2.73,3.5-6.09,4.27-7.45,3.16-5.67,6.83-9.45,8-8.26m538,3.66c1,1.16.9,1.3-.46,1a2.6,2.6,0,0,1-1.9-1.35c-.49-1.48,1-1.28,2.36.32M825.87,65.17c-1.71,5-5.34,9.61-7.62,9.6-1.81,0,2.84-9.85,6.48-13.74,2.95-3.14,3.24-2.07,1.14,4.14m191.25.33c0,1.11,1,4.35,2.31,7.2,3,6.71,4.59,12.67,3.89,14.46-1.12,2.89-3-1-5.41-10.94-1.29-5.4-2.74-10.21-3.22-10.7a5.75,5.75,0,0,1-.84-3.43l0-2.54,1.63,2a7.47,7.47,0,0,1,1.61,4M1673.73,65c-1.66,1.82-2.57,1.62-1.79-.39a2.2,2.2,0,0,1,1.91-1.28c1.28,0,1.27.16-.12,1.67m23.57.77a75.61,75.61,0,0,1-5.6,5.56,28.64,28.64,0,0,0-5.68,7.49,52.88,52.88,0,0,1-7.23,9.87c-2.86,3.11-5.41,6.44-5.66,7.4-.51,2-5.23,2.8-7.46,1.34-2.76-1.81,11.41-18.88,21.7-26.13l7.3-5.16c4.64-3.27,5.17-3.36,2.63-.37M794.65,62c-.35.81-1.11,2.76-1.69,4.35-1.36,3.66-4.58,6.1-4.57,3.45,0-3.66,3.46-9.26,5.67-9.25.83,0,1,.46.59,1.45m82.77.63a61.11,61.11,0,0,1-3.28,7.67c-1.8,3.77-3.85,8.22-4.57,9.87-1.27,3-6.42,7.53-6.41,5.68,0-1.29,4-7.91,5.49-9.15.67-.55,1.22-2.38,1.23-4.08a6.16,6.16,0,0,1,2.11-5,6.35,6.35,0,0,0,2.09-3.33,3.23,3.23,0,0,1,.57-1.93c.85-.84,2.77-.64,2.77.29m593,3.31c0,1.6-10.79,13.81-12.19,13.8-1.76,0-1.46-1.17,1.32-5.24,4.27-6.27,10.88-11.47,10.87-8.56m-467.45.46a25.88,25.88,0,0,1,.84,5.61,42.66,42.66,0,0,0,2.13,9c2.45,7.5,1.83,9.8-1.73,6.42-1.48-1.41-2.19-3.2-2.59-6.61a57.72,57.72,0,0,0-2-9.19c-1-3.12-1.22-5.1-.7-6.45,1.14-2.94,3.09-2.37,4.06,1.19m475.76.42c0,.61-1.6,2.37-3.56,3.9-3.49,2.75-3.13,1.75,1-2.74,2.38-2.59,2.61-2.69,2.6-1.16m-520.62.86c1.31,4,.37,4.62-1.22.76-1.5-3.64-1.51-3.74-.51-3.74.42,0,1.2,1.35,1.73,3M1670,69a5.28,5.28,0,0,1-1.67,2.2c-1.9,1.7-2.51-.08-.66-1.92,1.17-1.15,2.34-1.3,2.33-.28m-597.73,4.14.47,3.32-1.62-2a8.34,8.34,0,0,1-1.55-5.42c.06-4.33,1.9-1.57,2.7,4.06m60.82-4.7c-2.44,3.68-5.35,11.6-4.56,12.39,1.22,1.24,2.84-.71,4.54-5.46a36,36,0,0,1,2.72-6c1.44-2.12,1.42-2.93-.11-2.94-.67,0-1.84.92-2.59,2m153.86-.24c-1.46,2.56-4.74,6.5-5.1,6.14s1.17-3.76,2.91-5.73c1.46-1.66,3.08-2,2.19-.41m5.78,3c-5.07,7.77-9.53,12.27-9.52,9.6,0-.79,7.77-12.26,8.76-12.92,1.8-1.21,2.3,1,.76,3.32m10.09-3.1c.52.86-1.67,4.18-8.57,13-3.57,4.55-6.62,7.44-13.42,12.74-2.81,2.18-1.7,3.08,1.78,1.44s16.4-13,16.4-14.34,3.42-5.54,4-5c.23.24-.38,1.77-1.36,3.41-2.2,3.68-2.24,4.55-.21,4.56,1,0,1.9-.89,2.46-2.46,1.24-3.51,5.32-8.31,7-8.3,2.08,0,1.79,1.41-.59,3-2.14,1.38-5.48,7.33-5.5,9.74,0,2.77,2.29,1.34,3.7-2.29,1.86-4.8,5.8-8.24,8-7,2.09,1.13,2,1.33-.91,4.66a8.81,8.81,0,0,0-2.53,5.3c0,3,1.85,3.29,3.18.4.53-1.14,1.34-2.07,1.81-2.07,1.24,0,1,.91-.63,2.73a7.92,7.92,0,0,0-1.47,4.62c0,2.53-.34,3.07-2.1,3.42a15.31,15.31,0,0,0-4.34,1.94c-3.07,2.06-5.86,1.18-5.13-1.62.61-2.4-.64-2.16-5.64,1.08-3.2,2.07-7.38,2.27-8,.37-.19-.57.81-1.69,2.22-2.48,3.13-1.76,4-3.52,1.74-3.53-.9,0-3.09,1.3-4.87,2.89-5,4.44-7.92,5.34-15.51,4.73l-6.52-.53,2-1.57c1.1-.86,4.51-4,7.56-6.9,4.23-4.07,6.11-5.33,8-5.32,2.52,0,6.47-4.27,11-11.92,2.69-4.55,5.32-6.45,6.44-4.63m111.85,1.59c0,.46-.59.6-1.31.32a8.19,8.19,0,0,0-1.71-.51c-.22,0-.17-.36.1-.8.6-1,2.93-.17,2.92,1m11.86-.53c-.32,1.23-4.59,1-5-.3-.26-.79.41-1,2.43-.81,1.54.15,2.7.65,2.58,1.11m-576.32,2.5c-1.29,2.38-2.73,5-3.18,5.87-.83,1.54-2.94,2.16-2.93.86s5.14-10.57,6.51-11.58c2.3-1.7,2.15.18-.4,4.85m553.66-1.94c0,.6-1.14,1.91-2.52,2.92s-2.51,2.29-2.51,2.86c0,1.22-13.33,15-13.94,14.37-1.13-1.15,1.41-4.73,7.68-10.82,3.8-3.68,7.17-7.54,7.49-8.57.63-2,3.8-2.64,3.8-.76m252,1c0,.46-.95,1.43-2.1,2.17-1.59,1-2.08,2.07-2.09,4.4,0,2.68-.77,3.77-6.29,9.21-5.83,5.72-7.76,9.1-5.22,9.12s15.35-14.84,16.2-19c.61-3,1.36-3.14,3.63-.86s2.29,2.11-3.16,7.83c-2.64,2.79-6.34,6.89-8.2,9.13l-3.4,4.07-6.13-.2c-7.65-.24-7.57-.13-3.37-4.87,2.66-3,3.38-4.39,3-5.84-.56-2.28,1.64-6.88,3.28-6.88.64,0,3.68-2,6.76-4.54,5.55-4.49,7.07-5.3,7.06-3.73m-26.62.75c1,.72.87,1.14-1.09,2.69A96.22,96.22,0,0,0,1621,81c-13.21,13.77-14,14.47-16.76,14.46-3.39,0-3.36-.17,1.35-5.25,14.71-15.87,20.74-20.64,23.59-18.71m-281.79-.4c-2.13,2.53-3,10.56-1.16,10.56,1.15,0,6.94-9.29,6.5-10.44-.55-1.46-4.15-1.54-5.34-.12m413.13,2.23c1.17,1.42,0,6.33-2.27,9.73-6.82,10.07-10.5,14.76-11.93,15.2a5.2,5.2,0,0,0-2.55,2.13c-1,1.9-3.31,2.13-3.3.35a1.25,1.25,0,0,1,1.24-1.25c.67,0,1.79-1.07,2.49-2.4a18.15,18.15,0,0,1,2.36-3.53,57.33,57.33,0,0,0,3.92-5.25,45.88,45.88,0,0,1,5.25-6.42c2.61-2.45,2.78-4.45.5-5.91-1.15-.72-1.91-.44-3.87,1.41-1.75,1.65-2.62,2-3.07,1.31-1.81-3,9-8.14,11.23-5.37M978.7,70.39c1.39,2.71,2,10.4.75,10s-3.81-5.54-4.49-9c-.56-2.85,2.39-3.62,3.74-1m328.65,1.5c0,1.34-2.23,2.6-3.08,1.75-.58-.6,1.3-3,2.35-3,.4,0,.73.58.73,1.28m-1055.49-4c-1.33,2.45-9.14,12.57-9.94,12.88-3.48,1.33-.77-5.27,4.44-10.83,4-4.23,7.37-5.5,5.5-2m1202.68,6.77c-.89,1.64-3.34,2.33-3.33,1,0-.55,2.64-2.23,4-2.55.12,0-.17.7-.67,1.6M266.11,68.53c0,.41-2.55,4.43-5.65,8.91s-6.59,10-7.75,12.26-2.59,4.24-3.16,4.42c-1.19.37-1.42-2.38-.31-3.59.68-.74,5.25-8.79,8.65-15.22,2.81-5.33,8.23-9.8,8.22-6.78m1169.41,7.68a6.87,6.87,0,0,1,1.53,3.42c0,.83,1.07,2.29,2.39,3.24,2.5,1.81,3.34,1.48,4.51-1.78.6-1.65,3.92-2,3.91-.4,0,1.89-3.69,5.4-9.61,9.2a75.5,75.5,0,0,0-7.52,5.33c-2.56,2.42-5,2.86-7.84,1.39-2.1-1.1-3.08-1.15-6.07-.33-4,1.11-18.37,1.56-26.23.82-7.3-.69-6.94-1.73,4.65-13.29l9.82-9.79,14.47.14c14,.13,14.51.19,16,2m105.17,2.25a68.69,68.69,0,0,1-8.75,7.3c-4.88,3.3-6.78,6.76-3.69,6.78,1.88,0,3.63-1.33,5.4-4.13,2.46-3.91,9.3-10.77,10.74-10.76s2.74-1.92,1.85-2.82-1.47-.53-5.55,3.63m180.14-1.13c1.42,3.18-20.28,24.36-24.33,23.74-3.58-.54-2.89-1.48,11.23-15.27,2.76-2.69,6.3-6.18,7.86-7.74,3.4-3.4,4-3.48,5.24-.73M168.35,70a18.68,18.68,0,0,1-3,4.77,74.94,74.94,0,0,0-6.24,10.36c-4.72,9.18-9.69,18-11.17,19.73-2.5,3-4.63-.72-2.32-4a15.34,15.34,0,0,0,1.73-3.49c.81-2.55,5.17-9.55,10-16,2.21-3,5.12-7.16,6.47-9.33,2.6-4.15,5.59-5.5,4.55-2.05m56.43,2.39a22.21,22.21,0,0,1-2.34,4.33c-.59.68-3.25,5.35-5.93,10.37-7.34,13.74-12.14,19.81-12.12,15.3,0-3.42,13.5-26.68,18.56-32,2.51-2.64,3.38-1.68,1.83,2M1637.5,77.31c.74,1.41.51,2-1.44,3.72-1.29,1.12-5.75,5.21-9.91,9.09-7.28,6.76-9.42,7.88-12,6.25-.94-.6-.62-1.44,1.66-4.34,11.39-14.5,19-19.69,21.65-14.72M214.14,75.42c-1.64,2.12-3,4.34-3,4.94a3.68,3.68,0,0,1-1.4,2.22c-.76.62-3.54,5.51-6.17,10.86-5.57,11.34-6.24,12.25-8.87,12.24-2.41,0-2.43-.42-.29-4.79a20.89,20.89,0,0,0,1.68-4.19c0-.42,1.45-2.39,3.21-4.4a67.72,67.72,0,0,0,6.44-9.37c3.45-6.14,10.43-14,11-12.35.19.54-1,2.71-2.62,4.84m57.77-3.25c0,1-10.11,16.47-12.58,19.29a33.8,33.8,0,0,0-3.61,7c-2.24,5.61-4.23,7.18-5.18,4.12-.59-1.88,1-6.63,2.21-6.63.39,0,1.71-1.95,2.93-4.35a41.91,41.91,0,0,1,5-7.46c1.55-1.71,2.83-3.62,2.83-4.24,0-1,2.56-4.69,5.91-8.62a1.32,1.32,0,0,1,2.45.85m1195.47,7.1c-1.44,2.17-2.9,2.82-2.89,1.3,0-1.08,3.36-4.4,3.9-3.86.22.23-.23,1.37-1,2.56m343.1-.23c-7.35,2.38-9.06,2.62-11.74,1.67-3.82-1.35-6,.57-3.7,3.19s4.84,2.23,16.88-2.14c5.66-2.06,4.32-4.58-1.44-2.72M255.27,71.9c0,1.43-8.45,15.75-9.28,15.74-1.69,0-.61-4,2.19-8.1a44.33,44.33,0,0,0,3.76-6.42c.78-2,3.34-2.94,3.33-1.22m1025,5.86a25.12,25.12,0,0,0-1.15,4.75c-1,6.54-24.32,22.16-24.3,16.28,0-1,5.9-6.4,8.86-8.15a74.47,74.47,0,0,0,13.08-10.82c3.75-3.85,4.47-4.27,3.51-2.06M171,77.81a158.4,158.4,0,0,1-9,15.27c-.79,1.17-2.61,4.41-4,7.2s-3,5.33-3.5,5.63c-1.41.86-2.08-.37-1.07-2a16,16,0,0,0,1.51-4.09c.33-1.45,2.45-5.36,4.72-8.67a54.44,54.44,0,0,0,4.14-6.6,58.37,58.37,0,0,1,4.37-7c4.7-7,6.45-6.82,2.91.27m12.33-5.43c.29.46-1,2.66-2.88,4.88a25.21,25.21,0,0,0-3.41,4.59,16.87,16.87,0,0,1-2.46,3.61A113.48,113.48,0,0,0,167.82,96c-4.91,8.48-5.39,9.09-6.56,8.36s3.31-10.16,8.54-17.76a85.83,85.83,0,0,0,5.48-8.86c2.51-5.72,6.3-8.23,8.06-5.34M961.47,87.7c2.15,5.88,2.17,6.11.64,6.92-2.75,1.45-4.18.17-4.16-3.77a22.07,22.07,0,0,0-1.5-7.19,48.76,48.76,0,0,1-2.1-6.12l-.58-2.49,2.73,3.29a38.7,38.7,0,0,1,5,9.36m311.75-9.8c0,1.49-5.5,6.26-12.76,11.09-8.45,5.62-9.63,6.78-8.27,8.16,1.88,1.9.87,2.3-5.73,2.26l-6.68,0,2.75-2.37c3-2.55,7.47-5.06,9.07-5.06.55,0,2.54-1.24,4.43-2.76s5.49-4.09,8-5.68a39.64,39.64,0,0,0,6.18-4.67c1.69-1.86,3-2.27,3-.94M1737.46,83c-1.46,1.44-2.94,2.32-3.29,1.94s.06-1.1.93-1.62A15,15,0,0,0,1738,81c.7-.79,1.48-1.24,1.7-1s-.78,1.6-2.23,3M1075.3,81.73c3.16,10.56,3.89,14,3.16,14.7-1.7,1.7-5.72-9.41-5.69-15.71,0-3.75,1.27-3.25,2.53,1m693,.61c.6,1.68-1,4.1-5.36,8.15s-5.12,6.55-2.74,9.2c1.31,1.46,1.17,1.52-3.33,1.5-6.13,0-6.19-1.39-.36-8.45,8.57-10.37,11-12.55,11.79-10.4m-1493-2.17c-1.36,2.58-2.9,5.64-3.42,6.77-4.82,10.44-13.46,20.21-13.43,15.17,0-2.12,11.74-20.69,16.8-26.6,2.26-2.65,2.29.35.05,4.66m1472.78,3.19c0,4.64-17,20.61-18.81,17.68-.39-.63,8.79-10.9,12.49-14,.88-.73,2.38-2.13,3.34-3.1,2.14-2.19,3-2.36,3-.61M197.33,75.56c.22.34-1.63,3.24-4.1,6.42a47,47,0,0,0-4.54,6.47,21.39,21.39,0,0,1-2.5,4.23,60.52,60.52,0,0,0-4.58,8.24c-1.69,3.78-3.86,6.19-3.85,4.28,0-.76,4.2-9.2,6.49-13.06C193.84,76,196,73.31,197.33,75.56m767.28,7.82c0,2.29-1.39.62-2.08-2.47-.53-2.39-.51-2.42.75-.82a6.55,6.55,0,0,1,1.33,3.29m-237-2.9a8.82,8.82,0,0,1-2.1,4.47,48.83,48.83,0,0,0-4.47,6.9c-3.93,7.37-6.87,11.59-7.72,11.06-1.55-1-.75-3.45,2.14-6.57,1.61-1.74,2.93-3.69,2.94-4.35,0-1.81,2.41-6.1,5.62-10,3.34-4.09,3.6-4.2,3.59-1.5m12.48-.81a8,8,0,0,1-1.68,3.24,7.65,7.65,0,0,0-1.7,3.22c0,1.63-5.16,12.38-7.28,15.24-3,4-3.58.47-.85-4.91,1.19-2.34,2.84-5.94,3.67-8,3.05-7.57,7.85-13,7.84-8.79m204,2c7.35,4.15,11.19,11.41,8.33,15.73-2.74,4.13-1.17,4.26,10.73.87a30.09,30.09,0,0,1,5.65-1.15A15.65,15.65,0,0,0,974,95.34c3.17-1.66,4.84-1.85,17.65-2,7.77,0,18.25-.24,23.29-.42,8-.27,10.33,0,18.4,2.06a129.1,129.1,0,0,0,15.79,3c3.59.33,7.4,1.17,8.48,1.86a5.41,5.41,0,0,0,3.53.84c.86-.22,1.58-.06,1.57.37,0,1.45-4.56,2.52-8.32,2-5.74-.86-32.33-1.2-37-.47a39.82,39.82,0,0,1-10.47-.29,42.09,42.09,0,0,0-11.23-.25,51.28,51.28,0,0,1-10.31.1,24.89,24.89,0,0,0-9.57.55c-7.51,2.07-69-.21-65.37-2.43a3.94,3.94,0,0,1,2.68-.25,3.38,3.38,0,0,0,4.08-3A15.24,15.24,0,0,1,919,92.32c1-1.82,2.6-4.78,3.56-6.58l1.77-3.28,7.4-1A47.84,47.84,0,0,0,939.55,80c.59-.59.33-.68,4.59,1.73m164.4,1.82a59.34,59.34,0,0,0-1.43,6.85c-.75,5.32,1.41,3.16,2.7-2.71a45.46,45.46,0,0,1,1.59-5.79c.45-1,.26-1.46-.66-1.46s-1.65,1.22-2.2,3.11M187.88,77c0,.24-2.28,4.4-5.07,9.25s-6.28,11.38-7.77,14.5c-2.51,5.28-2.88,5.66-5.4,5.67-3.39,0-3.37-.22.5-7.15,5.15-9.2,7.46-12.46,10.17-14.37,1.4-1,2.55-2.29,2.55-2.88,0-1.35,3.21-5.44,4.26-5.44.42,0,.76.19.76.42m16.05,1.12c-.77,2-4.14,7.3-7.83,12.27a89.25,89.25,0,0,0-5.79,9.12c-2.77,5.13-4.86,6.5-4.36,2.85.43-3.1,3.52-9,7.07-13.56a27.83,27.83,0,0,0,3.15-4.55c0-.93,6.57-7.59,7.46-7.59.46,0,.59.66.3,1.46M331.67,80c-6.11,11.64-13.81,23-15.57,23-3.22,0,.5-8.81,7.4-17.47,5.48-6.87,10.74-10.44,8.17-5.54m331.85.87c-.18,2.5-10.53,21-11.89,21.2-2.44.44-1.69-1.82,3.17-9.66a67.83,67.83,0,0,0,4.61-8.18c0-1.14,2.52-4.41,3.39-4.4.44,0,.76.47.72,1m7.92-.24c1.14,1.86-10.52,22.05-12.36,21.4-1.53-.55-.72-4.81,1.54-8.08a50.79,50.79,0,0,0,3.82-7c2.26-5.18,5.76-8.31,7-6.27m783.88,4.08a.83.83,0,0,1-.82.83c-.45,0-1.58,1.47-2.51,3.29a11.34,11.34,0,0,1-3.58,4.23c-1,.52-3.8,2.23-6.15,3.81-2.53,1.69-5,2.75-6.12,2.58-2.44-.39,9.21-12.17,12.7-12.85a6.61,6.61,0,0,0,3.24-1.59c1.1-1.32,3.24-1.52,3.24-.3m-1172.64-4c0,2.43-4.11,11.3-7.53,16.29-1.4,2.06-2.55,4.38-2.56,5.19,0,1.06-.69,1.45-2.51,1.44-3.58,0-2.21-4.84,3.57-12.56,1.15-1.54,3.37-4.94,4.93-7.57,3.06-5.15,4.11-5.87,4.1-2.79m435,6.79A14.56,14.56,0,0,1,715,91.33c-.51.3-1.63,2.2-2.51,4.21-1.41,3.26-3.57,5.29-4.56,4.31-.52-.54,3.75-10.6,6-14.11,4.1-6.42,7.18-5,3.71,1.7m620.77-2.58c.7,1.15-5.61,13.33-6.9,13.33-2,0-2.11-2.58-.29-5,2.06-2.77,2.27-4.12.64-4.13-1.13,0-5.29,4.32-8.29,8.61-1.43,2-4.21,2.87-5,1.5-1-1.66,8.73-10.28,15.33-13.56,3.42-1.69,3.91-1.78,4.55-.73M227.78,80.43c0,1.22-2.8,6.48-4.65,8.76a91.88,91.88,0,0,0-4.65,8.17c-3.41,6.52-5.16,8.5-6.39,7.25-.29-.29.37-2.11,1.46-4s2.25-4.07,2.59-4.77c5.39-10.88,11.67-19.16,11.64-15.37m75.1-.29c.48.48-2.43,7-3.12,7a12.57,12.57,0,0,1-2-3c-1.88-3.24-1.85-3.26,4.16-4.43a1.34,1.34,0,0,1,1,.43M340,81.26c0,.8-1.89,4.07-4.15,7.26s-5.29,7.76-6.73,10.15c-2,3.39-3.08,4.35-4.69,4.35h-2.06l3.05-5.74a60.85,60.85,0,0,1,5.79-8.91,38.21,38.21,0,0,0,4.14-5.87c1.54-2.95,4.73-3.78,4.65-1.23m338.53,1.4a21.07,21.07,0,0,1-2.19,5.19c-2.18,4.07-7.76,14.26-8.5,15.5-.21.37-.87.26-1.46-.24-1.32-1.09.76-7.11,4.16-12.06a13.49,13.49,0,0,0,2.14-4.14c0-1.56,3.33-5.38,4.66-5.38a1.17,1.17,0,0,1,1.19,1.13m53.22-.35A11.59,11.59,0,0,1,730.55,85c-.66,1.21-2.33,4.68-3.71,7.71s-2.9,5.76-3.39,6.07c-1.76,1.07-.88-2.73,1.74-7.56,1.45-2.67,3.18-5.88,3.84-7.14,1.07-2,2.75-3.11,2.74-1.77m-410-1a1.7,1.7,0,0,1-.79,1.26,17.94,17.94,0,0,0-2.72,4.33,42.66,42.66,0,0,1-5.5,7.77c-2,2.16-3.55,4.7-3.56,5.66,0,1.2-.54,1.75-1.67,1.75-2.3,0-2.12-1,1.41-7.35,5.9-10.61,12.86-17.9,12.83-13.42m45.56,1.22c.26,1.37-2,5.14-6.09,10.07-1.22,1.47-3.42,4.53-4.89,6.82-4.9,7.59-7.64,3.76-3-4.23,3.57-6.17,8.29-13.07,9.48-13.83,1.54-1,4.24-.3,4.51,1.17m337.29,2.24a45.51,45.51,0,0,1-2.14,5.75,26.2,26.2,0,0,0-1.77,7.89l-.23,4.43-6.38.19c-7.2.21-7.79-.19-6.16-4.12,2.26-5.4,2.53-8.18.8-8.19s-3.49,3.49-4.34,8.71c-.43,2.62-.94,3.38-2.42,3.58-2.42.33-2.36-.23.74-7,5.27-11.51,6.65-13.65,6.63-10.3,0,2.35,2.15,2.18,3.79-.29,2.35-3.56,12.36-4.09,11.48-.62m8-1.85c0,1.49-5.46,10.55-6.76,11.25-3,1.55-1.47-3.68,2.54-9,1.72-2.27,4.23-3.62,4.22-2.28M310.32,85.55c-1.28,2.32-3,5.4-3.74,6.84-1.9,3.53-4,5.53-5.82,5.52s-1.23-4.38,1.13-7.39a7.62,7.62,0,0,0,1.55-2.9c0-2.92,3.4-6.32,6.26-6.31l2.94,0-2.32,4.22m344.93-.92c0,.86-1.92,4.12-4.26,7.25s-4.46,6.72-4.72,8c-.31,1.49-1,2.29-2,2.29-2.79,0-2.62-1.76.63-6.4,1.78-2.55,3.88-5.86,4.67-7.35,1.17-2.21,4.36-5.34,5.44-5.33.12,0,.22.7.22,1.55M1773.66,89.8c1.65,1.67,1.13,2.79-2,4.26-4.73,2.23-6.41-.36-2.31-3.55,2.56-2,3-2.06,4.3-.71M1323.9,88.07c0,1-2.46,2.91-3.05,2.31-.85-.85.44-3.06,1.78-3,.7,0,1.27.33,1.27.74M142.1,87.83a44.68,44.68,0,0,0-4.53,7.72c-2.61,7.13-7.24,13.94-7.22,10.65,0-2.66,4.46-11.7,7.13-14.49a58.24,58.24,0,0,0,5.25-6.43c1.17-1.75,2.3-3,2.5-2.79s-1.2,2.61-3.13,5.34M346.7,84.5c0,3.15-11.82,18.76-13.16,17.41-1.53-1.54,9.14-18.76,11.61-18.75a1.45,1.45,0,0,1,1.55,1.34m1121.05,5.44c0,2-3.07,5-4.47,4.5-1.8-.7-1.7-1.89.33-3.89,1.87-1.85,4.18-2.2,4.14-.61M355,85c0,.53-1.35,3-3,5.4a82.34,82.34,0,0,0-5.1,9c-2.08,4.51-4.07,5.78-5,3.25C340.85,99.87,351,84,353.79,84A1.13,1.13,0,0,1,355,85m-65.7.26a13.73,13.73,0,0,1-1.89,3.53c-1,1.54-2.39,3.77-3,5-1.81,3.48-5,7-5.64,6.35s.47-3.23,5-10.37c2.88-4.52,5.54-6.66,5.53-4.46m85.35,1.82c1.45,3.83-6.72,15.32-11.77,16.58-4.87,1.21-5.26.55-2.34-4,6.82-10.62,12.83-16,14.11-12.57m432.06,2.14c.15.77.65,1.37,1.11,1.35,1.24-.06,1-1.92-.27-2.36-.7-.23-1,.14-.84,1m-749-1.9c-1.1,2-12.29,17.13-14.71,19.88-1.3,1.48-2.51,1.27-2.5-.43,0-2.2,4.27-8.37,11.15-16.16,5.19-5.88,8.41-7.64,6.06-3.29m174.17.63c0,.6-1.33,3.27-2.95,5.91S226,99.14,226,99.72c0,2.23-2,5.28-3.49,5.27-2.21,0-1.93-1.41,1.86-9.41,4.2-8.83,7.53-12.23,7.51-7.64M680.17,89.4c0,1.25-1.5,2.57-2.16,1.9s.58-3.11,1.42-3.1c.42,0,.75.54.74,1.2M64,91.05a77.61,77.61,0,0,1-6.13,7.34c-2,2.08-4.62,5.06-5.84,6.62-2,2.58-4.66,3-2.77.41.45-.6,2.75-3.85,5.1-7.23C59,91.59,65.71,85,66.21,86.55c.18.53-.81,2.55-2.18,4.5m1388.75,3.33c0,1.72-2.39,4.41-3.9,4.41-1.66,0-1.35-1.73.71-3.89s3.2-2.44,3.19-.52m20.79-.42c0,2.39-3.75,5.77-6.37,5.75-4,0-4.23-1.52-.57-3a9.89,9.89,0,0,0,3.86-2.46c.78-1.34,3.08-1.55,3.08-.27m155.1,1.58c0,.81-1,1.34-2.71,1.51-2.84.25-3.4-.5-1.66-2.22,1.37-1.36,4.38-.86,4.37.71M240.84,92c3.47,8.62,4.48,12.44,3.52,13.39-1.44,1.42-2.46-.3-3.15-5.3-.52-3.84-.92-4.59-2.49-4.83-1.9-.28-2.53-3.24-1.32-6.32.85-2.19,1.61-1.52,3.44,3.06m54.1-.47c.23,3-2.54,10.13-4.47,11.53-3.34,2.42-7.3-1-4.15-3.54a3.35,3.35,0,0,0,1.26-1.78c0-1.65,5.31-9.88,6.18-9.6.51.18,1.05,1.7,1.18,3.39m541.24-.15a1,1,0,0,0,.38,1.41c1.27.8,2.09-.28,1-1.35-.59-.61-1.06-.62-1.41-.06M39,91.56c-2,2.71-2.32,2.86-4.15,1.7-1.42-.92.81-3.92,3.74-5,2.35-.88,2.51.39.41,3.31m9.15-3c0,2.3-7.78,11.36-8.83,10.3-.45-.47,2.3-5,5.52-9.14,1.93-2.47,3.32-2.95,3.31-1.16M146,92a24.76,24.76,0,0,0-2.61,4.09c-2,3.88-3.15,3.32-1.68-.82,1.58-4.38,4.83-8.13,5.25-6A3.77,3.77,0,0,1,146,92m236.44-1.08c0,.93-1.89,3.68-4.19,6.09s-4.18,5-4.18,5.75-.36,1.37-.79,1.36c-1.66,0-1.65-1.64,0-4.29,1-1.52,2.85-4.54,4.19-6.7,2.53-4.11,5-5.19,4.94-2.21m1398.94,7.35c-1.08,1.06-2.15.23-1.36-1a1,1,0,0,1,1.41-.37c.57.35.55.81-.05,1.41M128.17,90.38c-.53,2-1.91,3-1.91,1.44,0-.93,1.55-3.12,2.19-3.12a4.36,4.36,0,0,1-.28,1.68m5.28.64a27.64,27.64,0,0,0-1.7,3.73,2.12,2.12,0,0,1-1.83,1.45c-1.64,0-1.14-1.65,1.55-5,2.41-3,3.59-3.12,2-.16m258,.59c-1.95,4.11-9.7,13.36-11.21,13.35-3.16,0-3-2.36.33-5.74,1.72-1.73,4.3-4.51,5.74-6.18,2.23-2.58,6.2-3.69,5.14-1.43M837,95.34c-3.21,3.45-4,6.43-1.58,6,2.18-.41,6.64-7.09,5.49-8.25-.69-.7-1.71-.11-3.91,2.27m544.26,1c0,.7-.74,1.24-1.66,1.24-1.66,0-2.17-.9-1.11-1.94s2.78-.57,2.77.7m392.21,1.72c.87,1.42-2.09,3.19-5.31,3.17-3.61,0-3.21-1.72.72-3.07,3.65-1.25,3.88-1.25,4.59-.1M116.61,91.76a11.07,11.07,0,0,1-2,3.95,71.31,71.31,0,0,0-4.52,6.42c-4.83,7.54-7.56,6.2-3-1.47,4.44-7.52,10.63-13.27,9.57-8.9m1343.1,5.83c-.5,1.31-2.8,1.75-2.79.55a2,2,0,0,1,2.2-1.79c.62,0,.87.53.59,1.24m-1059-4.69c0,.62-1.14,2.54-2.51,4.26s-2.52,3.62-2.52,4.23c0,1.39-2.09,2.5-6.06,3.22s-4,.3,1.7-6.15c6.09-7,9.41-8.92,9.39-5.56m10.81.51a6.27,6.27,0,0,1-1.23,2.19,6.36,6.36,0,0,0-1.26,3c0,2-3.28,4-6.47,4-3.4,0-3.39-.13.34-5.15,3.51-4.74,8.64-7.13,8.62-4m-291.29.75c-.55,1.2-1.14,1.74-1.31,1.22-.43-1.33.46-3.39,1.48-3.39.53,0,.46.81-.17,2.17M1198.61,98c3.94,1.53-2.9,3.37-8.75,2.35-4.17-.73-3.3-1.86,1.75-2.27,2.06-.17,4.18-.37,4.72-.45a5.67,5.67,0,0,1,2.28.37M77.18,94.72c0,1.12-9.74,12.8-10.67,12.79-1.54,0-1.38-.36,2.78-6,4.41-6,7.9-9,7.89-6.78m342,2.67c3,2.73,1.95,4.45-2.66,4.43s-5.11-.81-2.1-3.79c2.43-2.4,2.78-2.45,4.76-.64m736.7,3.27c.73,0,.46.38-.62.81-2.06.81-4.37.25-4.36-1.07,0-.46.84-.61,1.87-.33a18.39,18.39,0,0,0,3.11.59M125.39,96c0,1-5.93,8.69-6.34,8.27s4.93-8.86,5.74-8.88a.59.59,0,0,1,.6.61m-58.58.8c.31.5-.16,1.41-1,2a23,23,0,0,0-4,4.5c-2.23,3.18-4.63,4.46-4.62,2.45,0-1.12,7.47-9.86,8.42-9.86a1.82,1.82,0,0,1,1.22.9m168.34,7.45c0,1.37-5.72,2.31-6.88,1.13-.28-.28,0-1.68.65-3.11s1.38-3.35,1.67-4.25c.5-1.53,4.57,4,4.56,6.23m1436.49,2.24a21.22,21.22,0,0,0,6.13.34c1.51-.28,2.45,0,3,1,.86,1.56,4.43,1.86,5.32.45.4-.65,2.9-.75,8.16-.35,4.16.31,12.44.55,18.39.52s17.73.1,26.19.29,18,.33,21.21.31,9.93,0,15,.07c9.56.1,25.19.15,51.15.16,8.46,0,16.88,0,18.71.06s11.58,0,21.69,0c11.41-.06,19,.23,20,.76,1.87,1,15,1.41,28.42.86l9.35-.39-.56,11.81c-.71,15.1-1.81,20.09-15.67,19.34-8.93-.49-36.64-1.86-101.07-2.64-.45,0-15.5-.41-27.74-.66-18.43.25-34.68-3.88-44.28-4.15-.92,0-15.89.17-33.27.44-33.42.52-116.94.36-158.85-.3-8.69-.14-19.54-.19-24.12-.11-11.58.19-17.55.18-36.18-.08-8.92-.13-23.32-.11-32,0s-46.87.29-84.84.34c-74.81.1-90,.36-94.31,1.63a13,13,0,0,1-6.4,0c-2.78-.64-41.87-2.23-47.74-2-.69,0-24.45.16-52.82.27s-69.52.31-91.48.43-86.52.12-143.47,0-125.24-.15-151.78-.06-96.32.15-155.11.11-109.67.08-113.11.25-46.84.36-96.47.39c-113.63.08-129.83.16-144.72.75-6.63.26-30,.58-52,.71s-54.15.43-71.53.67c-25.49.36-51.58.4-61.75.08-4.6-.15-29.66.36-38.89.78-19.62.91-56,.06-59.66-1.38-2.47-1-2.69-2.39-2.26-14.67.23-6.69.6-7.62,3.24-8.34,5.75-1.57,55.68-1.3,61.82.33a21.47,21.47,0,0,0,7.07-.36c4.59-.87,32.49-1.49,33.24-.72.5.51,46.9.41,47.73-.09s13.17-1.38,16.66-1.24c1.15,0,8.44,0,16.22,0,18.93-.11,38.88,0,44.49.37,10.58.59,27.36.51,33.27-.16,2.06-.23,13.85-.58,26.2-.77s28.63-.6,36.19-.93,15.22-.3,17.05,0a20.64,20.64,0,0,0,6.74-.11c3-.65,8.49-.54,28.18.59,3.2.18,20.6.64,38.67,1s33.46.87,34.2,1.1,4.48-.12,8.32-.77c6.23-1.05,15-1.27,41.07-1.06,3.66,0,16.19-.05,27.86-.18,19.16-.21,88-.27,105.63-.08a72.1,72.1,0,0,0,11.23-.72c3.52-.68,9.88-.59,29.51.38,1.61.07,9.23-.1,16.94-.39,9.11-.34,15.16-.22,17.26.36,2.34.64,4.7.62,8.44-.07,3.31-.61,11.83-.83,23.49-.61,20.52.39,20.19.39,34.52-.17,5.72-.22,13.2-.36,16.63-.31,17.79.3,22,.21,31.61-.7a109.58,109.58,0,0,1,15.8-.47c13.08,1.28,17.95,1.38,24.77.56,4.8-.59,26.82-.71,65-.4,31.79.27,59.67.46,62,.44,20.17-.17,53.3,0,68.8.45,13.55.36,20,.23,22.87-.5,5.15-1.31,11.07-1.71,21.86-1.47,31.53.71,65.63.92,72.36.45,4.34-.29,16.5-.69,27-.88s23.43-.57,28.7-.86,10.5-.53,11.65-.51c23,.36,33.06.4,46.56.17,30.45-.51,37.85-.43,41.77.49s22.45.88,68.43-.12c11.44-.25,31.46-.49,44.5-.56s25.76-.16,28.28-.21,7.94.1,12.06.35,14.37.75,22.8,1.1,16.22,1,17.32,1.41a4.23,4.23,0,0,0,2.72.33c.39-.24,5.51-.62,11.37-.84l15.22-.57a44.24,44.24,0,0,0,8.31-1.23c3-.85,4.9-.85,9.75,0a56.09,56.09,0,0,0,12.07.59c3.33-.26,15-.65,26-.88s20.07-.52,20.21-.67c.6-.59,54.14.7,57.74,1.4M116.16,101.25c-.66,1.23-1.18,1.54-1.4.87-.35-1.09,1.44-3.82,2.09-3.17.2.2-.11,1.24-.69,2.3m-84.83.52c-.86,1.84-3.94,4.33-4.58,3.68-.36-.35,4.34-5.6,5-5.59.25,0,0,.85-.43,1.91m49.14-.8c0,1.82-2.61,5.78-3.79,5.77-.67,0-1.49,0-1.83.05-1.46.15-.87-1.55,1.41-4,2.47-2.68,4.22-3.43,4.21-1.8m-43.79,3.38c-1.47,3.05-2.82,3.94-2.81,1.87,0-1.29,3.36-5.78,3.91-5.23.19.19-.3,1.71-1.1,3.36M-13,102.59a3,3,0,0,1-.54,2c-1.06,1.65-3-.16-2.2-2.1a1.42,1.42,0,0,1,2.74.08m36.67-.09c-.61,1.8-5.64,4.27-6.64,3.26-.62-.62-.05-1.38,1.95-2.58,3.18-1.92,5.21-2.21,4.69-.68m1807.74,9.92c-7.14.7-10.14,4.84-5.38,7.43,1.78,1,2.25,4.52.72,5.45-.5.31-1.83.06-3-.55-3.74-2-5.17,3.15-1.54,5.56,2,1.35,2.16,1.3,6.21-2.45,2.27-2.1,4.85-3.82,5.74-3.82,1.94,0,2.6-1.4,2.06-4.34-.43-2.26,2-3.52,8.09-4.12,1.43-.14,2.08-.71,2.09-1.83,0-1.82-5.21-2.29-15-1.33m21.19,3.34c-1.52,1.5-2.25,2.91-2,3.73.69,1.82,2.49,1.66,4.58-.41,3.21-3.18,3.73-.61,1.11,5.47-1.87,4.33-2.15,5.69-1.34,6.49,1.12,1.12,1.29.94,5.06-5.18,1.13-1.83,2.39-3.33,2.79-3.33a8.43,8.43,0,0,0,2.87-1.65c3.74-2.91,4.89-1.52,1.88,2.27-4.7,5.91,3.14,11.75,9.32,6.95a19.52,19.52,0,0,1,4.27-2.45c2.28-.85,3-2.94,1.16-3.59-.57-.2-2.42.32-4.13,1.16-6.11,3-8.06,1.64-4.38-3.13,4.38-5.68,2.07-8.86-4.7-6.46-3.69,1.31-4.23,1.31-6.31.11-4.55-2.64-7.55-2.63-10.23,0m-14,11.43a2,2,0,0,0,3.85,0c.21-1.09-.27-1.46-1.92-1.47s-2.13.36-1.93,1.45m44.5,1a2.65,2.65,0,0,0,.79,4c1.75.68,3-.54,2.64-2.53-.3-1.59-2.39-2.48-3.43-1.46M-11.41,129.27c-.95.95.29,2,2.4,2a15.33,15.33,0,0,1,5.32,1.69c4.87,2.52,5.66,2.05,2-1.2-3.1-2.76-8.15-4-9.74-2.47"/></g></g></svg>