<svg id="Layer_1" data-name="Layer 1" xmlns="http://www.w3.org/2000/svg" viewBox="0 0 1920 125.5"><defs><style>.cls-1{fill:#e8e5d1;fill-rule:evenodd;}</style></defs><g id="svgg"><g id="svgg-2" data-name="svgg"><path id="path1" class="cls-1" d="M813.86,22.61c2.11.43,8.59,1.35,14.39,2s12.93,1.61,15.84,2.05c7.95,1.22,19.36,2.32,32.63,3.15,15.57,1,38.24,3.39,39.12,4.17s-5.74,7.73-9.24,9.31a10,10,0,0,0-4.12,3.39c-1.48,2.77-6.68,6.75-8.81,6.75a11.78,11.78,0,0,0-4.25,1.29c-1.67.87-4.5,1.27-8.5,1.24a27.14,27.14,0,0,0-9.21,1.22c-3,1.21-3.32,1.2-5.28-.35-3.44-2.71-9.83-.41-10.31,3.7-.14,1.17-.72,2.27-1.27,2.45s-.84-.14-.53-.95a1.3,1.3,0,0,0-.83-1.78c-1.45-.56-6.15,1.11-6.15,2.19s-6,7.58-11.28,12.51L831.71,79l-11.07.29c-6.09.16-15.38.33-20.65.37l-9.58.08-3-3.4c-9.42-10.66-35.51-11.94-46-2.27l-4,3.72L719,77.32c-26.28-.73-25.57-.74-44.68.55-29,1.95-31.66,1.72-28.57-2.46a8.86,8.86,0,0,0,1.77-3.79c0-1.46,3-5.16,4.22-5.16.37,0,.45.9.17,2-.76,3.06,1.78,3.67,4,1a11.25,11.25,0,0,1,4-2.94c4.64-1.69,2.34-4.49-4.26-5.19-2.46-.26-7.39-1-11-1.7-20.08-3.79-46.21-5.58-59.9-4.11l-5.48.59-6.13,6.13c-4.72,4.7-6.34,5.9-7.08,5.16-1.33-1.34-.07-3.14,4.36-6.26,6.45-4.54,5.31-6.92-3.46-7.23-8.07-.29-8-.27-8-1.61,0-2.27,3.54-3.15,13.4-3.33,16.83-.3,29.53-1.21,32.76-2.35A51,51,0,0,1,614.74,45a157.15,157.15,0,0,0,17.8-3.28c16.46-3.94,27.62-6.06,34.1-6.43a124.5,124.5,0,0,0,12.59-1.61,81.67,81.67,0,0,1,11.37-1.32,45.89,45.89,0,0,0,8.12-.88c2-.45,6.21-1.18,9.34-1.61s7.51-1.16,9.75-1.61,10.08-1.55,17.46-2.43,16.5-2,20.3-2.49,9.46-1.19,12.58-1.55c7.15-.83,40.58-.2,45.71.86m-561,1.51c6.2,1.52,10.83,3.48,11.75,5a3.44,3.44,0,0,0,2.49.81c1.09,0,2,.35,2,.77s.91.45,2.36-.06a5.26,5.26,0,0,1,4.68.33c3.36,1.68,12.87,3.79,20.67,4.59,3.74.38,9.55,1.26,12.9,2s9.38,1.88,13.4,2.63a92.77,92.77,0,0,1,9.08,2A59.67,59.67,0,0,0,342,43.31c4.39.27,12,1,16.91,1.7a332.11,332.11,0,0,0,39.25,3.14c8.34.27,16.07.65,17.19.86,11,2,38.47,3.74,40.39,2.55.83-.51,28.12-.77,58.69-.55,11.12.08,21.51-.22,23.55-.68,11.34-2.57,20-1.59,17,1.93-1.09,1.31-4.05,1.66-4.05.48,0-.4-.54-.94-1.19-1.19-1.44-.55-8.55,2.46-8.55,3.62,0,.45-1.15,1.87-2.55,3.14-3,2.76-2.77,5.25.44,4.44,2.37-.6,2.16,2.51-.23,3.27a6.09,6.09,0,0,0-2.55,2.39,81.44,81.44,0,0,1-6.77,7.79L524,82l-5.81-.59c-3.2-.32-12-.57-19.61-.54s-17-.28-20.93-.67a54.28,54.28,0,0,0-11.77.05c-9.52,1.51-50.9,2.18-56,.9a51.28,51.28,0,0,0-9.95-.62c-3.8.08-10.14-.17-14.1-.55a55.61,55.61,0,0,0-15.63.64c-4.64.73-8.83,1.08-9.3.78-1.42-.87-20.93-.38-23.33.58-2.59,1-40.11,1.3-43.17.3l-2-.64,1.87-1.53A7.28,7.28,0,0,1,298,78.64c1.16,0,1.94-.48,1.94-1.19,0-2.2-2.78-2.81-10.23-2.23a157.51,157.51,0,0,1-29.87-.7c-5.69-.73-7.61-.7-9.14.11s-3.47.73-11.47-.84c-7.24-1.42-13.16-2-24.56-2.18-8.26-.16-19.59-.77-25.18-1.34-18.57-1.9-38-1.3-42.44,1.32s-4.66,2.59-4.66,1a1.25,1.25,0,0,0-1-1.31,11.74,11.74,0,0,0-6.75,1.29,6,6,0,0,1-3.77.67c-1.16-.22-4.42.34-7.27,1.25-3.91,1.25-8.16,1.75-17.61,2-10.25.33-12.74.64-14,1.79s-2.23,1.3-8.89.39c-5-.69-7.66-.74-8.35-.17s-11.7,1-28.84,1.31l-27.83.48-1.58-3.56c-1.44-3.26-1.51-4.42-.79-13.63.43-5.53.79-10.85.8-11.82,0-2.6,2.2-3,15.45-2.71,33.58.67,58.19.44,62.12-.6,4.48-1.16,8.92-1.64,21.12-2.27,16.22-.83,18-1,24.36-1.88a74.71,74.71,0,0,0,10.17-2.15,73.83,73.83,0,0,1,12.18-2c11.56-1,37.69-5.22,50.74-8.16l5.62-1.24a12.53,12.53,0,0,0,4.37-2.07A7.53,7.53,0,0,1,226,26.63a27,27,0,0,0,5.77-2c5.57-2.45,12.56-2.61,21.14-.51m683.76-1.06a7.61,7.61,0,0,1-.83,2c-1.25,2.34-2.54,1.93-1.45-.46.82-1.79,2.28-2.81,2.28-1.57m763.57,3.14c8.2,3.77,10.22,4.52,12.15,4.52a14.85,14.85,0,0,1,5.15,1.66,56.18,56.18,0,0,0,8.58,3.17,54.94,54.94,0,0,1,7.8,2.76c8,4.14,42.49,3.85,55.46-.46a12.18,12.18,0,0,1,4.39-.72,6.58,6.58,0,0,0,3.44-.79,3.78,3.78,0,0,1,4-.06,10.55,10.55,0,0,0,3.42.94c1.59,0,14,5.71,14,6.44s-8.14,2.5-11.62,2.5c-2.85,0-3,.11-2.16,1.68,1,1.78.55,4-.74,4-1.12,0-3.57-7.64-2.55-8,2.44-.82-.71-4.82-4.09-5.2-1.59-.18-1.93.1-1.71,1.4a27.06,27.06,0,0,1,.27,3.66,7.15,7.15,0,0,0,1.85,4.06,8.87,8.87,0,0,1,1.94,9.4c-.79,2.16-.79,3,0,3.75a4,4,0,0,1,1,2.44c0,3.11,5.88.83,7.42-2.87a28.12,28.12,0,0,1,4.44-6.19c1.88-2,4.16-4.6,5.06-5.72,1.57-1.94,1.71-2,3.1-.61s1.34,1.53-1,3.78c-6.83,6.66-11.75,12.92-11.75,15,0,2.21,2.22,1.51,3.08-1,.44-1.27,3.49-5,6.76-8.22,5.48-5.46,5.95-6.19,6.08-9.52.23-5.74,2.25-5.11,3.18,1,.48,3.16.39,3.3-6.91,10.51-5.82,5.75-7.34,7.72-7.15,9.27.35,2.86,2.17,3.05,3.11.34.8-2.3,10.47-11.64,12-11.64,2.26,0,1.38,7.56-1.24,10.62-1.15,1.35-1.46,4.18-.56,5.08s2.67-1.22,3.22-4.2a14.28,14.28,0,0,1,1.66-4.6c.81-1.17,1-2.92.59-6.31l-.53-4.7,3.25.52c2,.33,3.46.18,3.81-.38s-.07-.9-1-.9c-4.71,0-9.22-4.12-8.13-7.42.44-1.29,46.22-1.29,50.34,0a149,149,0,0,0,21.14,3.83c6.39.62,7.49,1.5,6.26,5-1.14,3.27-1.86,3.48-13.66,3.93-10.79.41-14.45,1.37-12,3.15,1.79,1.31,1.72,2.27-.26,4.07-2.24,2-2,2.84.69,2.84a5.8,5.8,0,0,1,3.77,1.62c2.52,2.77,5.49,1.8,6.24-2,.23-1.16.87-1.57,2.32-1.43,1.1.1,4.2.24,6.88.31,5.63.14,6.9.87,6.9,4,0,3.74-1.34,4.15-13,4-9.13-.11-10.86.07-11.48,1.17a2.44,2.44,0,0,1-1.65,1.31,4.92,4.92,0,0,0-2.36,1.32c-2.24,2-5.25.92-5.21-1.9l0-2.26-5.28.23c-9.77.44-11.25.86-11.53,3.29l-.25,2.17-8.12-.12c-4.46-.07-12.78-.16-18.47-.2-10.69-.08-11.19-.26-9.49-3.44.63-1.17.61-1.94,0-2.73-.91-1.1,1.92-6.81,4-8.11,1.06-.66,1.12-2.87.06-2.87-1.94,0-8.88,8.53-9.39,11.55-.79,4.66-2,5.44-8.73,5.52-3.23,0-8.06.16-10.73.25a19.79,19.79,0,0,1-7.11-.87c-1.61-.76-6.82-1-18.67-1-20.8,0-62-.62-68.43-1.09-9.07-.67-19.6-.81-20.46-.27-.48.29-9,.71-19,.93s-20,.62-22.23.87c-8.64,1-25.85.9-28.78-.14-1.59-.57-6.27-1.05-10.39-1.07a68.32,68.32,0,0,1-11-.83c-3.17-.72-17.53-2-30.67-2.71-15.3-.85-20.37-1.45-25.18-3a90.93,90.93,0,0,0-10.42-2.5,54.83,54.83,0,0,1-8.12-1.94c-9.3-3.46-11.78-4.61-14.55-6.75a27.54,27.54,0,0,0-5.89-3.43,27.15,27.15,0,0,1-5.68-3.27,44.16,44.16,0,0,0-4.67-3.15c-1-.54-1.83-1.52-1.83-2.17,0-1.23.28-1.28,9.75-1.6,2.9-.1,8.93-.76,13.4-1.46s16.12-1.48,26-1.73,21.07-.89,25-1.43a66,66,0,0,1,16.24-.13,223.92,223.92,0,0,0,59.3-3.08c4.56-.91,10.85-2.14,14-2.73a147.38,147.38,0,0,0,19.08-4.86,61.19,61.19,0,0,1,11.2-2.3c2.81-.22,5.55-.75,6.09-1.17,3.82-3,11.25-3.31,17-.65M240.67,28.73c-1.58,1.9.17,3.1,4.69,3.22,6,.15,9.79,3.12,5.29,4.1-4,.88-6.58,2.11-7.08,3.41-1.3,3.4,3.63,3.7,10,.62s11.51-4.12,14.76-3c2.82,1,4.07.66,4.07-1.05,0-2.11-4.27-4-8.77-3.92-3.72.08-4.62-.23-6.73-2.28-2.9-2.84-14.13-3.62-16.2-1.12M947.81,34c1.52,1.87,1.23,2.6-.79,2-2.68-.8-4.15-2.49-3.55-4.06s2-.76,4.34,2.06m-18.45-2c0,1.48-2.56,6-4.36,7.62-3.7,3.42-2.53-2,1.35-6.23,1.56-1.71,3-2.38,3-1.39M937,33.36c-1.8,3-7,10.4-7.61,10.76a18.74,18.74,0,0,0-2.52,4.27,60.53,60.53,0,0,1-6.37,9.39c-2.48,3-5.61,7.25-7,9.35-4.88,7.67-11,13.76-11,11,0-1.07,3.61-6.5,6.12-9.23,3.2-3.44,10.93-14.64,10.93-15.81,0-.45,1.75-2.66,3.88-4.89a41.08,41.08,0,0,0,5.76-7.72c2.19-4.26,5.62-8.12,7.21-8.12.67,0,.87.4.51,1m480.46,1.85a20.84,20.84,0,0,1-1.91,3.45c-1.06,1.67-2.9,4.75-4.09,6.87a100.12,100.12,0,0,1-6,8.93c-3.74,4.95-12.38,19.08-13.4,21.94-.48,1.34-3,2.07-3,.87,0-1.48,4.07-8.85,9.34-16.9,3.21-4.92,8.09-12.37,10.84-16.56s5-7.94,5-8.32.73-.71,1.63-.71,1.62.2,1.62.43M942.11,36.9c.33,1-5.3,7.23-5.94,6.59s.35-3.43,2.25-5.84c1.62-2.06,3.15-2.38,3.69-.75m18.11,2c0,1.4-1.54.83-2.47-.9-.83-1.54-.76-1.61.78-.78.93.49,1.69,1.25,1.69,1.68m739.55-.3c-2.85,2.85,1.85,6,9,6,8.17,0,12.45,1.07,16.56,4.05,6.29,4.56,7.55,2.21,2.21-4.16l-3.32-4h-7a55.76,55.76,0,0,1-11.49-1.21c-5.17-1.38-5.24-1.39-6-.68M984,41.33a162.25,162.25,0,0,0,35.33,4c6.37,0,12.49.43,13.59.86a9.53,9.53,0,0,0,4.44.28,27.77,27.77,0,0,1,7.52.41c9.33,1.63,38.56,2.35,72.9,1.8,6.93-.11,22.64-.15,34.93-.1s24,0,26-.18,9,0,15.42.33,29.5.81,51.17,1,44.5.78,50.75,1.24c13.58,1,43.62.34,68.22-1.47,11.14-.83,25.18-.78,26,.08.32.32-1.21,1.32-3.39,2.23s-4.89,2.16-6,2.78c-8,4.45-27.06,9.28-38.57,9.79-5.4.24-14.1,3.78-21.11,8.61-3.66,2.51-9.65,2.38-16.14-.35-5-2.1-13.49-.85-24.47,3.58-2.43,1-24.64,1.61-51.16,1.47-6.7,0-13.28-.07-14.62-.06-5.69,0-26.78.84-36.57,1.42-14.42.84-19.52.17-21.06-2.8a8.3,8.3,0,0,0-3.67-3.3,8.09,8.09,0,0,1-3.08-2c-2.11-3.63-17.82-14.21-21.09-14.21a18.22,18.22,0,0,1-5.52-1.72c-4.43-2.09-7.22-2.2-9.26-.35a23.61,23.61,0,0,1-6.44,2.92c-7.56,2.35-10.62,4.23-16.34,10.08-10.83,11.06-12.34,11.48-36.14,10-16.7-1-29.44-1.21-37.52-.49-8.71.77-10,.46-10-2.45,0-1.59-1.52-3.62-5.81-7.83-3.2-3.13-7.68-7.56-10-9.85a36.92,36.92,0,0,0-7.7-6c-4.12-2.08-11.46-8.66-11.46-10.29s2-1.39,10.77.57m442.38.78c0,1.75-5.61,11.85-7.63,13.73-2.93,2.73-2.78.62.31-4.26,1.34-2.1,3.17-5.28,4.08-7.06,1.55-3,3.24-4.29,3.24-2.41m34.92.64c0,.81-1.09,2.53-2.43,3.81s-2.44,2.72-2.44,3.21a12.92,12.92,0,0,1-2,3.77,38.89,38.89,0,0,0-3.63,8A28.29,28.29,0,0,1,1447.1,69a10.09,10.09,0,0,0-2.06,3.21c0,1.24-4.38,7.5-4.65,6.66S1447,63,1449.06,60a15.61,15.61,0,0,0,2.1-5.21,7.56,7.56,0,0,1,2.91-4.8c1.29-.95,2.34-2.11,2.35-2.59,0-1.38,3.13-6.14,4-6.14.46,0,.83.67.83,1.47m-1193,.56A19.75,19.75,0,0,1,263,44.47c-7.07.17-5.72,4.93,1.41,4.93,2.57,0,4.91.39,5.2.87.57.91-2.61,4.81-3.91,4.81-1.59,0-5.46,3.44-5.46,4.84,0,1.57,3.66,2.78,5.42,1.79,4.68-2.63,11.63-10.19,11.63-12.65,0-5.3-3.78-7.73-8.93-5.75m676.48-.12c0,1.18-4.11,6.93-8.87,12.39-3.08,3.53-9,12.66-9,13.87,0,.4-1.86,2.53-4.14,4.75l-4.14,4,2.72-5.42c4.67-9.31,23.43-33,23.43-29.62m497.81.73c0,1.67-2.3,6.87-5.29,12a9,9,0,0,0-1.19,3.35,3.74,3.74,0,0,1-1.3,2.39c-.71.6-3.07,4.61-5.24,8.93-3.94,7.87-5.37,9.33-8.2,8.44-3-1-.94-6.81,5.34-15A46.69,46.69,0,0,0,1434,51.84c2.81-7,8.66-12.32,8.64-7.92m7.46,2.84c-1.31,2.57-5.37,10.76-9,18.21-6.19,12.6-8,15.18-9.88,14-1.44-.89-.65-3.28,2.92-8.89a122.74,122.74,0,0,0,6.14-11,119.47,119.47,0,0,1,6.3-11.14c4.66-7.18,7-8,3.54-1.25M933.92,48.39C932.15,51.87,925.34,60,924.18,60c-.55,0,7.12-11.89,9-14,2.36-2.61,2.7-1.46.72,2.44M1429,52.9c-1.76,2.77-4.07,6.49-5.14,8.26s-2.4,4-2.95,4.88-2.2,4.1-3.65,7.11c-2.36,4.87-4.68,7.14-4.68,4.57,0-1.64,8.91-19.12,10.46-20.52a17,17,0,0,0,3-4.78,25,25,0,0,1,3.57-5.72c3.58-4,3.18.28-.58,6.2M919.31,47.17c-.72,1-1.92,2.92-2.65,4.26a63.93,63.93,0,0,1-4.1,6.09c-1.51,2-5.52,7.43-8.9,12s-6.67,8.58-7.31,8.83c-3.05,1.17-2.11-2.74,1.44-6a23.1,23.1,0,0,0,3.93-5.1,53.13,53.13,0,0,1,5.43-7.45c2.16-2.54,4.85-6,6-7.62,2.75-4.07,5.41-6.86,6.56-6.86.61,0,.48.64-.37,1.83m-9.14,2.11c-.84,1.32-3.64,5.18-6.22,8.6s-5.51,7.63-6.5,9.36c-2.63,4.61-10.29,12.56-11.22,11.63s4.17-8.76,12.14-18.82c8.22-10.38,16.13-17.6,11.8-10.77m747.42-2.64c-.27.27-7.36.6-15.77.72-15.92.24-20,.85-20.4,3.09-.53,2.71,9.77,3.46,14.39,1,2.35-1.24,4-1.37,11.37-.94,4.73.27,10.2.59,12.16.69,4.38.23,6.48-1.93,3.79-3.92-1.6-1.19-4.65-1.56-5.54-.68M301.18,48.07a24.49,24.49,0,0,1-6.07,2.16c-2.46.59-5,1.65-5.69,2.38a49.59,49.59,0,0,1-6,4.47c-5.24,3.46-7.06,6.16-5.49,8.06s8.52,3.26,10.52,2.19c2.29-1.22,8-1.07,11.9.32,5.5,2,6.69,1.67,8.56-2.31,2.91-6.18,4.63-7.25,9.16-5.71,5.42,1.85,17.9.43,17.43-2-.56-2.94-4.41-3.62-19.93-3.55-2.34,0-4.26-.33-4.26-.75,0-3.57-7.23-7.31-10.17-5.28m1514,.73c.16.82-.23,1.41-.91,1.41-1.45,0-3.19-2-2.42-2.73,1-1,3-.15,3.33,1.32m-400.69.89c-.28.74-.85,1.34-1.26,1.34s-.35-.77.14-1.7c1-1.93,1.9-1.66,1.12.36m49,1a12.75,12.75,0,0,1-2.4,5.17,20.41,20.41,0,0,0-3,5c-.56,1.51-1.52,3.84-2.12,5.18a62.61,62.61,0,0,0-2.36,7c-1.6,5.79-7,10.42-7,6,0-1.51,4.52-11.6,6-13.35a27.66,27.66,0,0,0,2.6-4.91c4.23-9.93,9.2-16,8.24-10.12m7.56-1.42a14.61,14.61,0,0,1-1.68,4.67c-.92,1.77-2.43,5.23-3.36,7.69a67.21,67.21,0,0,1-3.51,7.71,39.79,39.79,0,0,0-2.83,6.5c-1.24,4-2.13,5.08-3.29,3.92s2.79-13.76,6.18-19c1.5-2.32,3.75-6.18,5-8.58,2.35-4.48,3.5-5.44,3.5-2.9M943.68,56.08a51.41,51.41,0,0,1-5.74,7.08c-1.6,1.54-2.9,3.13-2.9,3.53,0,1.06-5.68,10.12-7,11.26-3.13,2.59-2.9-1,.28-4.4a68.39,68.39,0,0,0,6.8-9.57c4.55-7.75,10.83-15.33,11.18-13.5.15.72-1,3.24-2.58,5.6m535.12-5.61c.48,1.24-6,12.74-7.15,12.74-.44,0-.53-.62-.19-1.43s1.11-2.83,1.74-4.56c2.51-6.93,4.57-9.42,5.6-6.75M973.33,53.71c.92,1.77.92,1.77-.81.24a5.41,5.41,0,0,1-1.75-2.28c0-1.15,1.52.07,2.56,2m622.12-2.14c-1.59.64.43,2.71,2.64,2.71s3.08-.81,2-2.16c-.92-1.11-2.69-1.31-4.6-.55M1809.59,53c1.32,1.59.35,3.43-2.76,5.27-4.2,2.48-5.07.29-1.55-3.9,2.35-2.79,3-3,4.31-1.37m42-.56c-.31.31-2.48.46-4.81.35-3.49-.18-4.06,0-3.2.85.58.59,2.83,1.07,5,1.07s4.45.47,5,1a3.9,3.9,0,0,0,2.38,1c1.61,0,2.89,1.41,3.31,3.66.37,2,7.54,2.54,14.32,1.06,5.5-1.2,4-2.25-3.16-2.27-4.41,0-5.62-.31-6.9-1.73-2.44-2.71-10.8-6.22-12-5m-453.68.88a26.1,26.1,0,0,1-2.67,4.68c-1.48,2.24-4.8,7.62-7.39,12s-5.08,8.13-5.52,8.4c-2.45,1.52-2.8-3.93-.4-6.33,1.36-1.35,9.18-11.73,12.12-16.06,2-3,3.86-4.25,3.86-2.65M954.53,57c0,.45-.73.15-1.62-.66A4.83,4.83,0,0,1,951.28,54c0-.44.73-.15,1.63.66A5,5,0,0,1,954.53,57M304.85,54.71c0,1-2.62,4.33-3.72,4.76s-1,.14-.25-1.35c1.65-3.19,4-5.17,4-3.41M1389,56.3c-.57.69-1.23,1.08-1.45.86s.06-1,.63-1.66,1.23-1.08,1.45-.86-.06,1-.63,1.66m-424.92.41c.81,1.3.81,1.62,0,1.62a3.3,3.3,0,0,1-2-1.62c-.81-1.31-.81-1.63,0-1.63a3.32,3.32,0,0,1,2,1.63M1484,55.47c0,2.32-6,12.51-10.66,18.17-1.16,1.39.36,5,2.11,5,.7,0,2.27-2.17,3.67-5.08,2.56-5.34,8.11-13.58,9.15-13.59,1.25,0,.53,2.23-2,6.12-3,4.73-5.78,11.51-5.12,12.6,1.15,1.85,2.75.35,5.59-5.26,5.48-10.8,8.47-12,5.27-2.1-3.39,10.47-5.83,12.25-13.88,10.1a35.35,35.35,0,0,0-6.55-1.16c-2.77,0-2.78.08.27-6.42C1478.2,60.41,1484,51.57,1484,55.47M547.67,57.06c0,.67-2.56,2.9-3.33,2.9-.48,0-.45-.64.08-1.63.74-1.37,3.25-2.35,3.25-1.27m10.56.41c0,1-1.58,2-2.17,1.41s.44-2.17,1.4-2.17a.77.77,0,0,1,.77.76m34.11,1.11a3.38,3.38,0,0,1-1,2c-2.1,2.12.17,1.74,3.63-.59a17.7,17.7,0,0,1,4.56-2.48c1.69,0,.93,3.28-.93,4a9.86,9.86,0,0,0-3.24,2.41c-1.73,2.09-3.44,2.17-4.83.23a6.63,6.63,0,0,0-2.55-2c-1.9-.71-1.39-2.3,1.14-3.59s3.19-1.28,3.19,0m395.79,1.93a34.23,34.23,0,0,1,4.92,5.38c3.44,5.26-2.82-.13-8.54-7.35-1.59-2,.35-1,3.62,2m417.55,6.43c-3.9,8.34-5.64,10.89-7.46,10.89s-1.15-3.46,1.58-7.82c9.34-14.9,12.07-16.32,5.88-3.07m380-8.51c-.76,1.23,1.25,2.4,3.7,2.14a2.44,2.44,0,0,0,2.29-1.63c.32-1.65-5-2.11-6-.51M25.52,60.29a2.8,2.8,0,0,1-2.47,2.1c-2.18,0-3,2.23-1.4,3.82,1.41,1.41,2.44,1.45,28.2,1.2,24.15-.24,38.9.26,40,1.36,1.47,1.47,3.42,1.1,5.41-1,2.88-3.07,2-4.85-2.78-5.51-2.23-.32-6.4-.94-9.26-1.39-3.53-.54-5.71-.53-6.76,0-2.33,1.24-8.52,1.11-14-.31-3.38-.86-9.28-1.28-19.29-1.36-7.93-.06-14.95-.33-15.62-.58s-1.48.27-2,1.66m540.83-.83c0,1.2-6.63,7-8,7-2,0-1.57-1.81,1.17-4.84,3-3.3,6.84-4.52,6.84-2.16m381.69.8a4.46,4.46,0,0,1-1.33,3,22.9,22.9,0,0,0-3.28,4.19,55.91,55.91,0,0,1-4.83,6.27c-2.66,2.95-3.05,4.88-1,4.88.48,0,2.37-1.55,4.22-3.45,7.85-8,10.39-7.4,3.64.9-3.3,4-3.52,4.17-7.62,4.17-7.47,0-7.21-1.83,1.7-12.07a80,80,0,0,0,5.28-6.8c2.31-3.52,3.22-3.84,3.22-1.13m24.72-.84c2.25,1.64,1.3,3.32-1,1.72-1.8-1.26-2.44-2.81-1.17-2.81a5.7,5.7,0,0,1,2.14,1.09M1387.38,59a15.17,15.17,0,0,1-2.47,3.82c-1.37,1.71-4.17,5.78-6.24,9s-4.24,5.93-4.83,5.93c-1.76,0-1.24-2,1.54-5.77,1.45-2,3.5-4.84,4.56-6.38,3.66-5.3,7.44-8.68,7.44-6.64m29.24.35a16.84,16.84,0,0,1-2.32,4.72,44.13,44.13,0,0,0-3.73,7.88,18.73,18.73,0,0,1-2.75,5.59c-3.13,3.14-1.73-2.3,2.73-10.66,4.24-7.92,6.07-10.2,6.07-7.53M581.18,61.13a20.75,20.75,0,0,1-3.38,3.37c-3.14,2.63-2.52.31,1-3.5,1.69-1.86,3.53-1.76,2.43.13M607,60c0,.48-2.42,3.13-5.37,5.89s-5.86,5.46-6.44,6a3.89,3.89,0,0,1-1.54,1c-1.41,0,.06-2.55,3.71-6.49,5.53-6,9.64-8.69,9.64-6.43m272.86.27c0,.63-1.15,2.18-2.56,3.45a59.66,59.66,0,0,0-9.66,10.53c-2.21,3.16-4.57,4.89-5.47,4-.22-.22.75-1.7,2.15-3.3s2.55-3.24,2.55-3.66,1.06-1.31,2.36-2a12.59,12.59,0,0,0,4-3.88c3.24-5.23,6.63-7.87,6.63-5.16m-572.56.26c0,.86-2.07,3.46-2.7,3.46-.88,0-.57-2,.45-3.09s2.29-1.28,2.25-.37m245,.68a7.45,7.45,0,0,0-.49,2c0,.4-.73.74-1.62.74-2,0-2.05-.63-.29-2.58s3.07-1.94,2.4-.2m70.83.95c.28,2,1.7,2.39,3.16.92a1.57,1.57,0,0,1,1.8-.34c1.07.66-11.79,15.06-13.45,15.06-2.14,0-1.07-2.51,2.54-6,4-3.84,4.66-5.66,1.86-5.26-1,.15-3.1,2-4.81,4.26-3.49,4.62-5,5.64-7.21,4.93-2.45-.78-2-2.37,1.7-5.38,1.82-1.51,5-4.43,7.1-6.49,4.14-4.11,6.88-4.75,7.31-1.73M892.53,62c-.26.68-.87,1.25-1.35,1.25s-.58-.52.05-1.7c1-1.88,2.06-1.52,1.3.45m484.43.69a6.61,6.61,0,0,0-1.76,2.73c0,.47-1.13,2.27-2.51,4a44.84,44.84,0,0,0-4.08,6.2c-1.68,3.29-3.16,4-3.16,1.51s11.86-17.74,12.88-16.72c.22.22-.4,1.25-1.37,2.27m529.84-1.76c.89,1.45-2.08,3.13-5.51,3.13s-4.25-1.68-1.67-3.19c1.93-1.12,6.47-1.08,7.18.06m-1293.35.45c0,.56-11.31,11.61-11.88,11.61-1.47,0,.57-3.15,4.7-7.23,4.42-4.39,7.18-6.07,7.18-4.38m341.86,4.18c-1.33.44-4.21-3-3.49-4.15.32-.52,1.33.06,2.54,1.47,1.44,1.67,1.71,2.43.95,2.68M1114.51,62c0,1.35-3.62,7-3.92,6.12-.41-1.25,2.21-6.5,3.24-6.5.38,0,.68.17.68.38m4.41,3.6c-1.74,5.05-3.14,7.51-5.54,9.75-2.77,2.59-2.66,1.87.57-3.78,6.2-10.83,7-11.75,5-6m8.59-2.7c0,1.58-6.32,13.51-7.6,14.33-2.6,1.67-3-1.33-.57-4.4a41.45,41.45,0,0,0,3.61-6.61c1.94-4.38,4.56-6.29,4.56-3.32m765.89.57c-1,1-2.09.24-1.32-1a1,1,0,0,1,1.37-.37c.55.34.54.8,0,1.37M637,63.66a3.58,3.58,0,0,0,2.91,1c2.92-.39,2.2.93-4.2,7.67-5.73,6-7.77,7.29-8.91,5.46-.51-.83,3.88-5.41,7.53-7.87,2.16-1.45,2.46-4.29.45-4.29-.75,0-2.39,1-3.64,2.18-3.39,3.24-3.52,1.85-.19-2,3.12-3.66,4.42-4.11,6-2.13m281.75,5.57c-1.78,3.32-3.23,6.76-3.23,7.65,0,1.91-1.48,2.63-3.39,1.66-1.37-.71,3.06-8.52,7.67-13.51,2.56-2.77,2.45-2.32-1.05,4.2m451.55-5.64c0,.66-9.45,13-10.85,14.14-2.12,1.76-1.72-.75.65-4,1.09-1.52,3-4.49,4.19-6.61,1.89-3.3,6-5.68,6-3.48M585.84,64.68c0,1-4.8,5.36-5.36,4.81-.76-.76,2.86-5.47,4.2-5.47.64,0,1.16.3,1.16.66m282.61.06a9.5,9.5,0,0,1-2.29,3c-3.62,3.68-8.26,9.72-8.26,10.74,0,.51-.73.93-1.63.93-3,0-1.71-3,4.14-9.26,5.18-5.54,8-7.48,8-5.45m265.56.94a25.66,25.66,0,0,1-2.64,5c-1.45,2.37-3,5-3.51,5.86a4.43,4.43,0,0,1-1.83,1.87c-1.2.4-1.27-2.77-.08-3.51.49-.3,1.61-2.24,2.5-4.31,2.33-5.44,5.56-8.31,5.56-4.95M857.13,67.19a9.08,9.08,0,0,0-1.67,3.63c0,3.32-9,10.53-10.83,8.69-.64-.65,1-2.78,6.11-7.79,7.27-7.15,9.27-8.57,6.39-4.53m21.21,4c-5.48,7.19-7,8.67-8.25,7.91s2.53-5.68,6.89-9.4a29.87,29.87,0,0,0,3.89-3.8,2.17,2.17,0,0,1,1.46-1c.45,0-1.35,2.84-4,6.31m590.4-.53a63.91,63.91,0,0,0-2.87,7.42c-.32,1.28-1.11,2.23-1.86,2.23-2.36,0-.62-6.31,3.07-11.2,4.15-5.49,4.61-5,1.66,1.55m-879.81-4c1.47,1.48,1.16,3.39-.75,4.58-2.1,1.31-4.13,0-2.5-1.66a4,4,0,0,0,1-2.43c0-1.7.89-1.88,2.28-.49m770.84-.21c0,2.94-7.68,13-9.92,13s-.24-3.83,6.64-12c1.57-1.87,3.28-2.43,3.28-1.06M981.33,69.09c0,.45-.54.36-1.22-.2a3.22,3.22,0,0,1-1.22-1.82c0-.45.55-.37,1.22.2a3.22,3.22,0,0,1,1.22,1.82M1106.4,66.9c0,1.59-2.8,5.49-3.06,4.27-.35-1.62,1.14-4.71,2.27-4.71.43,0,.79.2.79.44M968.67,72.33c2.52,2.79,4.25,5.18,3.84,5.32-.75.25-8-6.94-9.29-9.25-1.56-2.72,1.2-.73,5.45,3.93m537.13-4.45c-.36.8-4.69,7.84-6.78,11.05-1.74,2.68-4.07,3.66-5.42,2.3q-.81-.81,2.47-5.15a38.32,38.32,0,0,0,4.12-6.58c.68-1.77,1.37-2.23,3.37-2.23,1.39,0,2.4.27,2.24.61m-931.33,1c0,.46-1.39,2.38-3.1,4.26s-3.92,4.63-4.93,6.08c-1.59,2.3-4.15,3.61-4.15,2.13a42.13,42.13,0,0,1,3.59-5.55c4.25-6,8.59-9.45,8.59-6.92m523.9,1.84c-.67.66-.91.57-.91-.34,0-1.62,1.09-2.71,1.5-1.5a2,2,0,0,1-.59,1.84m-454.06.85c0,2-5.9,7.85-7.89,7.85s-1-2,2.78-5.86c4.32-4.39,5.11-4.69,5.11-2m238.32,4.19c-3,3.62-5.25,4.71-5.25,2.52,0-.62,1.74-2.85,3.86-4.94,4.84-4.78,5.84-3,1.39,2.42m98.89-.88c1.73,2.09,1.79,2.92.23,2.92s-5.87-4.09-6.54-6.42l-.56-2,2.73,1.88a24.74,24.74,0,0,1,4.14,3.57m360-3.58a5,5,0,0,1-2.19,1.62c-.39,0-.32-.73.16-1.62a3,3,0,0,1,2.18-1.63c1.17,0,1.15.19-.15,1.63m7.71-.53a4.5,4.5,0,0,1-1.55,2.49,8,8,0,0,0-2,3.37,2.22,2.22,0,0,1-2.16,2c-2.26,0-1.41-2.76,1.94-6.3,2.69-2.83,3.81-3.28,3.81-1.54m161.62.5c0,1.94-3.75,9-5.54,10.38-2.76,2.2-2.62-.58.31-6.19s5.23-7.44,5.23-4.19m8.48.16c2.65,1.21,2.62,1.41-.8,6.75s-7.68,6.6-7.68,2.1c0-1.31.37-2.62.84-2.91a17.56,17.56,0,0,0,2.85-3.7c2.28-3.61,2-3.5,4.79-2.24m-892,.57c0,.91-4.07,5-5,5q-1.87,0,1.53-3.33c2.35-2.29,3.46-2.82,3.46-1.65m218,1.13c-3.47,4.16-5.57,6.29-6.19,6.29-1.48,0-.47-1.74,2.79-4.82,3.73-3.52,5.88-4.45,3.4-1.47m296.85-.82c0,1.37-3.84,6-4.44,5.36-.26-.27.31-1.81,1.27-3.43,1.73-2.93,3.22-3.85,3.17-1.93m190.82,2.55c-2.13,3.61-4.51,5.72-5.19,4.62s5.21-8.3,6.15-7.71c.35.21-.08,1.6-1,3.09m-1151.6-.83a3.28,3.28,0,0,0,2.94.71c4.22-.8,2.23,2.85-2.44,4.48-1.34.47-3.12,1.12-3.95,1.46-1.34.54-1.42.41-.59-1.14,1.32-2.46-1-2.34-5.2.26-3.37,2.08-6.09,2.64-6.09,1.27,0-.81,7.89-6.14,10.89-7.36,2.45-1,3.4-.93,4.44.32m582.37-.33c0,1.26-4.33,4.91-5.83,4.91-2.44,0-2.36-1.42.21-3.58s5.62-2.83,5.62-1.33m764.07,5c-1.64,3-6.38,5.72-6.38,3.68,0-.81,4.44-8.33,5.23-8.86,2.38-1.6,3.1,1.63,1.15,5.18m-772.37-4c-.45,1.33-2.87,2.76-3.55,2.08s1.22-3,2.68-3c.65,0,1,.44.87,1m246.91.94c.19.94-.12,1.2-1,.86-1.51-.58-1.76-3-.26-2.55a2.34,2.34,0,0,1,1.27,1.69M138.77,77.57c-4.22,3.87-12.55,5.42-20.6,3.81-4.07-.82-2.93-1.93,2-1.93a18.47,18.47,0,0,0,7-1.3,8.67,8.67,0,0,1,5.35-.85,5.47,5.47,0,0,0,4.86-1.13c3.73-2.93,4.86-1.79,1.39,1.4M155.43,75a11.1,11.1,0,0,1-2.58,2.64c-5.74,4.88-8.79,6.08-8.79,3.48,0-1.21,1.28-2.32,4.66-4.05,4.56-2.33,6.71-3,6.71-2.07m10.42,1.09c-1.42,2.26-8.94,6.58-11.48,6.58-4.9,0-.81-4.45,5.93-6.43L164.77,75c1.79-.54,2-.31,1.08,1.17M195.39,76c1.43,1.29,1.67,1.29,4-.09,4.29-2.54,4.23-.22-.08,2.6-4.69,3.07-4.9,3.12-4.9,1,0-2-1.78-2.09-4.53-.29-3.19,2.09-3.49.38-.37-2.23s3.84-2.83,5.88-1m356.34-.74c0,.35-1.18,1.32-2.64,2.16l-2.64,1.52,2-2.15c1.94-2.14,3.31-2.76,3.31-1.53m24.54,3.22c1.49,1.83,0,5.31-2,4.77a15.38,15.38,0,0,0-2.81-.49c-1.68,0-1.14-2.53,1.21-5.61,1.94-2.54,2.26-2.71,2.53-1.3a6.93,6.93,0,0,0,1.11,2.63m4.89-.44c-1,1-1.81,1.31-2.15.76s.27-1.68,1.27-2.67c1.28-1.28,1.9-1.5,2.15-.76.2.58-.38,1.78-1.27,2.67m191.46-2.73A5.13,5.13,0,0,1,771,77.42c-1.85,1.67-2.45-.06-.65-1.87,1.13-1.13,2.27-1.28,2.27-.29m317.87-.06a7.89,7.89,0,0,0-1.81,2.22c-.68,1.2-.92,1.3-.94.37,0-1.45,1.52-3.22,2.78-3.2.57,0,.56.21,0,.61m-870.91,1c0,1.18-4.12,4.11-5.79,4.11-2.29,0-1.83-1.28,1.12-3.11s4.67-2.17,4.67-1m315.15,1.9c-1.05,1-1.61,1.26-1.26.59,1.14-2.14,2.24-3.31,2.7-2.84.25.24-.4,1.26-1.44,2.25m22.95-1.58,2.08,1.07-1.57,2.58c-1.09,1.8-2.18,2.58-3.61,2.58-2.38,0-2.45-.42-.81-4.37,1.41-3.37,1.19-3.27,3.91-1.86m207.93.14c-.49,1.27-2.73,1.71-2.73.54A2,2,0,0,1,765,75.39c.6,0,.85.52.59,1.22m188.95,0c1.38,1.66.25,2.69-3.26,3-2.12.17-2.87-.11-3.09-1.19s.21-1.43,1.34-1.43a2.84,2.84,0,0,0,2.14-.81q1.06-1.73,2.87.44m369.92.32a2.37,2.37,0,0,1-1.91.84c-1.21,0-1.18-.17.19-1.21,1.67-1.27,2.6-1.06,1.72.37M1537,79.17a5.07,5.07,0,0,1-2.92,3.07c-3,1.08-3.72-.11-1.24-2.22a10.08,10.08,0,0,0,2.64-3.35c.38-1.11.78-1.31,1.41-.68s.62,1.63.11,3.18m9.52-1.79c0,2.31-1.91,5.32-3.38,5.32-1.85,0-2-2.23-.24-4.69,1.43-2,3.62-2.42,3.62-.63M282.84,78.56c.89.58.78.89-.57,1.61-2.31,1.24-4.21,1.13-4.21-.25,0-1.82,2.78-2.62,4.78-1.36m313.56,0c0,1-2.37,1.84-3.33,1.25a.88.88,0,0,1-.29-1.22c.6-1,3.62-1,3.62,0m961.93,1.37c0,1.22-.68,1.61-3.13,1.82-3.57.29-3.81-1.18-.46-2.89,2.47-1.25,3.59-.92,3.59,1.07m342.3-.88c0,.76-.77,1.22-2,1.22-2.12,0-2.76-1.19-1-1.9,1.93-.78,3-.53,3,.68m-1655.88.41c0,.44-1,.81-2.22.79-1.75,0-2-.18-1-.79,1.59-1,3.24-1,3.24,0m1340.59.2c-.19.56-1.31,1.13-2.5,1.28-1.69.19-2.06,0-1.68-1,.59-1.52,4.68-1.77,4.18-.26m-1330,.61c0,.45-.52.82-1.16.82a2.16,2.16,0,0,1-1.68-.82c-.27-.45.25-.81,1.17-.81s1.67.36,1.67.81m15,0c-.28.45-1.58.82-2.89.82s-2.39-.37-2.39-.82,1.3-.81,2.89-.81,2.69.33,2.39.81m464.52,2.79c11.54,0,15.92.33,17.4,1.17,2,1.12,72.56,1.56,100.15.63a137.53,137.53,0,0,1,15.31.24,61.8,61.8,0,0,0,12-.29c7.38-.93,11.36-.93,38.29,0,20.26.71,22.61.7,32.89,0,20.08-1.42,79.65-1.87,112.88-.87,12.06.37,27.78.62,34.92.57s19.39-.06,27.21,0,19.51.07,26,.08l28.84,0c9.37,0,18.33,0,19.89,0,34.78-.9,76.17-1.14,97.45-.56,8.27.23,26.35.32,40.2.21,45.71-.36,100.59.07,107.6.86a92.11,92.11,0,0,0,14.22.19,104.76,104.76,0,0,1,14.61.07c6.48.59,44.21,1,70.25.87,5.14,0,10.62-.06,12.18-.07l17.35-.07c8,0,14.84.15,15.23.4s2.65.07,5-.38,13-1,23.58-1.26,20-.75,20.71-1.13c2.4-1.18,52.24-1.58,70.41-.56,8.15.46,18.38.68,66.59,1.46,8.94.14,23.28.42,31.87.63l15.63.36-.49,2.63c-.63,3.42,1.65,4.63,3.67,2,1.07-1.43,1.84-1.67,4-1.24,3.61.72,4,1.69,1.5,4.25-1.39,1.47-1.94,2.75-1.64,3.88.46,1.8-1.48,4.36-3.31,4.36-.58,0-1.26-.76-1.51-1.7-.5-1.91-2-1.76-3.33.34-2.87,4.55,6.05,5.91,10.05,1.53a11.49,11.49,0,0,1,4.42-3.06c1.73-.43,2-.87,1.61-2.48-.69-2.72.85-4.2,5-4.83,8.21-1.22,6.5-4.49-1.94-3.68-4.19.39-6.36.27-7.31-.42-1.94-1.42-.56-2.32,3.37-2.2l10.71.26c8.78.19,9.84.77,7.71,4.27-1.45,2.39-1.48,3.86-.08,3.86.35,0,1-.92,1.56-2s1.53-2,2.27-2c2,0,1.11,7.54-1.21,10.42a33.59,33.59,0,0,0-3.07,4.75c-.51,1-3.56,2.69-6.28,2.84-7.28.39-318.15,0-342-.49-11.17-.21-22-.35-24-.33-11,.14-67.83,0-86.49-.15l-43.85-.4c-17.42-.15-32-.28-32.49-.3s-8.48.3-17.86.7c-18,.77-273,0-295.61-.94-1.78-.07-9.27-.06-16.64,0s-38.26,0-68.63-.27c-78.24-.61-207.35-1.27-216-1.09-9.78.19-10.9.19-20.31,0-8.34-.21-95.2-.23-104,0-4.91.12-32.71.09-35.73,0-1.27,0-143.95.83-159.58,1-2.92,0-115.82-1-123.44-1.13-9.82-.16-157.71,1-182.31,1.41-55.25.95-55,.95-57.94-.21-1.88-.74-3.17-.83-4.21-.28-3.29,1.77-3.49,1.23-3-7.91.63-11.16.11-10.78,14.74-10.83,6.27,0,13.78-.22,16.68-.45,9.93-.79,22.47-.52,59.28,1.27,11,.52,26,.92,33.35.87s14.37.26,15.52.7c1.33.5,4.24.52,8.08,0,9.59-1.22,29.51-1.72,66.09-1.67,55.71.08,65.71.24,67.23,1.06,1.82,1,32,1.43,34.53.53,4-1.41,66.41-2.17,76.17-.92,4.8.61,34.36.61,58,0,21.88-.57,42.39-.62,49.53-.12a96.49,96.49,0,0,0,14.18-.29c4.68-.5,8-.49,9.34,0,3.64,1.39,37.84.72,48.23-.93a118.31,118.31,0,0,1,14.79-.76c9.74.06,29.83-.43,49.49-1.21,5.81-.23,15.86-.41,22.34-.4s13,0,14.61,0l12.59-.09a84.41,84.41,0,0,0,12.59-.76,12.42,12.42,0,0,1,4.87-.21c1.12.26,9,.51,17.46.53m1158.61,2.11c15.06.09,14.17-.56,14.11,10.29-.06,10.2.23,9.92-10.79,10.35-9.21.36-11.19-.17-10.6-2.87.51-2.35-2.44-1.59-3.29.84s-1.12,2.48-5,2.48c-4.68,0-5.85-2.59-1.39-3.1a4.43,4.43,0,0,0,3.09-1.87,6.13,6.13,0,0,1,2.84-2.36c2.23-.84,2.64-3,.71-3.77-.81-.31-2.23.57-4,2.47-2,2.18-3.35,2.95-5.22,2.95-3,0-3,0-1-3.9,2.47-4.91,2.72-6.37,1.29-7.8s-4.63-1.07-6.76.61c-1.61,1.28-4.47-3-3-4.44.21-.21,4-.28,8.33-.17s13.68.24,20.69.29m-25.75,12.36a21.66,21.66,0,0,0-.7,4.9c-.1,3.38-1.34,4.61-4.66,4.63-5.16,0-4.88-3.74.61-8.31,4.22-3.51,5.64-3.88,4.75-1.22m-27.19,4.21a1.67,1.67,0,0,0,2.41,1.69c1.08-.66.1-2.85-1.27-2.85a1.16,1.16,0,0,0-1.14,1.16m67.19-55.56c-6.16-.81-17.07-1.73-23.69-3.57-6.35-1.77-12.61-2.33-28.47-2.53-28.22-.36-35.6-1.26-43.52-5.34-7-3.61-19.36-5.42-23.48-3.45-6.16,3-38,4.75-45.88,2.59-3.46-.95-8.12-2.36-14.44-4.36a26.74,26.74,0,0,0-5.94-1.23c-1.12,0-4.26-1.09-7-2.43a27.3,27.3,0,0,0-6.12-2.44c-.67,0-3.28-1.13-5.81-2.52-8.66-4.77-22.24-5.66-27-1.77a6.31,6.31,0,0,1-3.43,1.05,23.61,23.61,0,0,0-5.83,1.25,32.75,32.75,0,0,1-6.49,1.47,8.55,8.55,0,0,0-4.4,1.67c-.94.84-3.73,1.7-6.79,2.08a29.42,29.42,0,0,0-6.76,1.46c-2.36,1.22-17.71,4.32-29.17,5.89-14.17,1.93-18,2.11-25.59,1.2-4.55-.55-34.26-.52-47.5.05-4,.17-9.4.3-12,.29s-5.37.36-6.25.83-4.1,1-7.14,1.19c-7.63.45-31.29,2.85-32.5,3.29-.55.21-2.87-.19-5.18-.88s-5-1.05-5.91-.81c-1.11.28-3-.43-5.34-2-4.85-3.25-6.47-3.55-12.42-2.26-8.93,1.93-22.88,1.24-25.88-1.28a10,10,0,0,0-3.26-2.09,9,9,0,0,1-3-1.66c-3.3-2.44-8.5-1.14-12.17,3.05-5.65,6.44-7.14,7.77-10.8,9.63-3,1.53-4.28,1.77-6.31,1.19-1.41-.4-14.46-.56-29.13-.33s-31.51.34-37.53.26c-13-.16-17.17-.14-21.53.1-7,.39-26.93-.66-28.5-1.5-2-1.06-11.06-1.36-17.38-.56s-10.65.66-19-.51c-5.37-.75-7.82-.78-9.75-.1-3.6,1.27-26.07,1.46-30.4.26-1.91-.53-3.86-.72-4.33-.43-.83.51-75.34,1.45-85.59,1.08-5.83-.21-11.27-.23-17.87-.08-6.42.15-32.48-.56-40.2-1.08-9.17-.62-12.23-.71-16.24-.45a27.4,27.4,0,0,1-7.13-.67c-3.57-.93-13.78-1.62-30.34-2.06-5.2-.13-9.89-.51-10.43-.85a24.84,24.84,0,0,0-5.58-1.27c-2.52-.36-6.58-1.08-9-1.59a22.07,22.07,0,0,0-6.5-.54c-1.71.33-2.6-.29-5.3-3.69-3.11-3.91-6.56-6.7-12-9.75a27.67,27.67,0,0,1-5.51-4.66c-6.21-6.79-11.3-4.52-20.52,9.18-1.65,2.44-8.06,3.21-14.73,1.76-8.12-1.76-22.49-3-36.14-3.22-19.45-.26-31-1.27-33.08-2.89s-10.69-3-21.33-3.5a19.1,19.1,0,0,1-6.42-1.58c-3.65-1.85-6.71-1.77-8.4.21-1.35,1.58-1.44,1.58-4,.11-5.91-3.33-25-4.14-28.35-1.19a8,8,0,0,1-4.47,1.11c-1.73,0-6.24.29-10,.73s-9.93,1-13.63,1.36-6.92.88-7.15,1.26-2.71.69-5.49.69a42,42,0,0,0-9.49,1.26c-9.53,2.71-19,4.66-22.31,4.59-3.44-.08-25.28,2.42-27.2,3.11A51.54,51.54,0,0,1,661,29.43c-10.09.54-19.88,2.33-22.66,4.16a14.41,14.41,0,0,1-6.09,1.7,62.94,62.94,0,0,0-14.29,2.77c-9.72,2.8-23.42,4.81-36.48,5.33-5.78.24-11.15.76-11.93,1.19a4.32,4.32,0,0,1-3.41,0c-1.08-.41-5.21-.55-9.19-.31s-12,.53-17.77.65-11.1.26-11.77.32-6.34,0-12.59-.15a124.85,124.85,0,0,0-14.33.27,30.23,30.23,0,0,1-7.57-.09c-5.48-.74-22.79-1-34.13-.43-4.47.21-10.32.34-13,.27L436.82,45a41.66,41.66,0,0,1-6.91-.7,84.55,84.55,0,0,0-10.55-.94c-4.24-.16-13.2-.89-19.9-1.63a151.9,151.9,0,0,0-19.89-1c-7,.34-8.33.15-13.89-1.9-5.34-2-7.4-2.27-15.45-2.34-5.1,0-10.5-.42-12-.85a80.78,80.78,0,0,0-10.94-1.31c-5.63-.37-9-1-10.67-2a21.84,21.84,0,0,0-6.9-2,53.45,53.45,0,0,1-6.91-1.28c-1.34-.4-7.05-1.28-12.69-2s-11.31-1.79-12.59-2.46a10.58,10.58,0,0,0-3.7-1.22,2.45,2.45,0,0,1-1.92-.89c-.33-.54-1.64-.68-3.34-.36-2.35.44-3.23.14-5.51-1.86-10.5-9.22-33.36-9.27-43.14-.09a5.92,5.92,0,0,1-3.33,1.57,12,12,0,0,0-4.77,2.11c-2.4,1.63-3.75,2-5.89,1.66a7,7,0,0,0-4.51.65c-1,.61-4.3,1.35-7.43,1.65A30.61,30.61,0,0,0,185.2,30a8.77,8.77,0,0,1-5.68,1.11,33.3,33.3,0,0,0-8.66.68c-3.35.64-7,1.22-8.12,1.29-14,.87-19.44,1.46-20.39,2.24-2.37,1.95-8.49,2.8-19.93,2.78-9.68,0-12.74.26-16.76,1.58A38.07,38.07,0,0,1,95.4,41.3c-2.94,0-8.66.36-12.7.78-7.66.82-22,1-49.49.63L17,42.5s-10.85,0-11.42,2.64c-1.1,5-1.47,9.76-1.1,21.25.12,3.76.33,7.41.72,8.12s.24,2.58-.45,4.54c-1.3,3.71-1.36,5.17-1,22.2L4,113.71l2.44,2c2.87,2.31,3.84,2.4,6.53.64a3.67,3.67,0,0,1,4.23-.4c2.13.88,7.25.92,90.75.63,8.93,0,19.6,0,23.71.18a96.86,96.86,0,0,0,13.4-.62c3.26-.46,19.94-1.08,37.06-1.37s32-.77,33.14-1.07a43.31,43.31,0,0,1,9.07.06c10.58.89,124.36,1.08,165,.27,31-.61,165.61-.55,166.63.07,2.59,1.6,14.13,1.74,15.82.18s1.84-1.56,3.87-.23c1.61,1,3,1.25,5.56.83a99.16,99.16,0,0,1,12-.46l11,.15a31.65,31.65,0,0,0,6-.79,10.94,10.94,0,0,1,5.93,0,9.21,9.21,0,0,0,5.87-.16c2.76-.77,6.14-.77,15.53,0,6.6.54,13.35.76,15,.5s7.52-.47,13.07-.46,10.8,0,11.69,0,4.73,0,8.52.07,7.83,0,8.94,0c2.38-.11,3-.11,62.53.4,25.24.21,50.27.47,55.63.57,14.34.27,29.54.42,33.7.35,2,0,9.5.25,16.65.63,14.11.76,14.32.77,30.46.52,6-.09,33.25.09,60.5.39s55,.48,61.71.37,21.87-.36,33.71-.56c35.53-.61,85.49-.58,101.92.06,8.48.33,28.58.54,44.66.46s31.06-.08,33.3,0c8.73.27,30.36.28,36.13,0,3.36-.15,19.25,0,35.33.37,28.93.65,49.62.81,64.56.51,18-.36,187.83.56,221.71,1.2,20.32.39,39.69.63,43,.53s31.49-.33,62.53-.54c54.39-.37,66-.42,80-.39,11.24,0,51.84-.94,54.81-1.32,1.57-.2,21.3-.55,43.86-.79l41-.44,1.86-3.54c1.4-2.67,1.68-4,1.13-5.48-.41-1.07-.54-6.34-.3-11.7s.47-17.6.52-27.2-.68-19.37-1.64-20"/></g></g></svg>