<svg id="Layer_1" data-name="Layer 1" xmlns="http://www.w3.org/2000/svg" viewBox="0 0 1920 125.5"><defs><style>.cls-1{fill:#3b3630;fill-rule:evenodd;}</style></defs><g id="svgg"><path id="path1" class="cls-1" d="M814.72,21.59c2.12.43,8.59,1.35,14.39,2S842,25.23,845,25.68c8,1.21,19.36,2.31,32.63,3.14,15.58,1,38.24,3.4,39.12,4.18s-5.74,7.73-9.24,9.31a10,10,0,0,0-4.12,3.38c-1.48,2.78-6.68,6.76-8.81,6.76a11.78,11.78,0,0,0-4.25,1.29c-1.67.86-4.49,1.27-8.5,1.23a27.18,27.18,0,0,0-9.21,1.22c-3,1.22-3.32,1.2-5.28-.35-3.44-2.7-9.82-.4-10.31,3.71-.14,1.16-.71,2.26-1.27,2.44s-.83-.13-.52-.94a1.31,1.31,0,0,0-.83-1.78c-1.46-.57-6.16,1.1-6.16,2.18S842.21,69,836.92,74L832.57,78l-11.07.29c-6.09.16-15.38.32-20.64.37l-9.58.08-3-3.4c-9.42-10.66-35.51-12-46-2.28l-4,3.72-18.3-.51c-26.28-.73-25.57-.74-44.68.55-29,2-31.66,1.73-28.57-2.45a8.82,8.82,0,0,0,1.77-3.8c0-1.46,3-5.16,4.22-5.16.38,0,.45.91.17,2-.76,3.06,1.79,3.67,4,1a11.13,11.13,0,0,1,4-2.93c4.63-1.7,2.33-4.5-4.27-5.19-2.46-.27-7.39-1-11-1.71-20.07-3.78-46.2-5.58-59.9-4.1l-5.48.58-6.12,6.13c-4.72,4.71-6.35,5.9-7.09,5.16-1.32-1.33-.07-3.13,4.36-6.25,6.45-4.54,5.31-6.93-3.46-7.24-8.07-.28-8-.26-8-1.61,0-2.27,3.54-3.14,13.4-3.32,16.83-.3,29.54-1.21,32.77-2.35a50,50,0,0,1,9.53-1.65,158.63,158.63,0,0,0,17.8-3.27c16.46-4,27.63-6.06,34.11-6.44a124.32,124.32,0,0,0,12.58-1.61,83.39,83.39,0,0,1,11.37-1.32,47,47,0,0,0,8.13-.87c2-.46,6.21-1.19,9.34-1.62s7.5-1.15,9.74-1.61,10.08-1.54,17.46-2.43,16.5-2,20.3-2.48,9.46-1.19,12.59-1.55c7.14-.83,40.57-.21,45.7.85M253.77,23.11c6.19,1.52,10.82,3.48,11.74,5a3.39,3.39,0,0,0,2.49.82c1.09,0,2,.34,2,.77s.92.45,2.37-.06a5.21,5.21,0,0,1,4.67.32c3.37,1.68,12.88,3.79,20.67,4.59,3.74.38,9.55,1.26,12.9,2S320,38.35,324,39.1a91.82,91.82,0,0,1,9.08,2,60.24,60.24,0,0,0,9.75,1.15c4.38.27,12,1,16.9,1.7A332.29,332.29,0,0,0,399,47.13c8.34.27,16.07.66,17.19.87,11,2,38.47,3.73,40.39,2.54.83-.5,28.12-.76,58.69-.54,11.12.07,21.51-.23,23.55-.69,11.34-2.57,20-1.59,17,1.93-1.08,1.31-4.05,1.66-4.05.48,0-.4-.54-.93-1.19-1.19C549.15,50,542,53,542,54.16c0,.45-1.15,1.86-2.55,3.14-3,2.76-2.77,5.24.44,4.43,2.37-.6,2.16,2.51-.23,3.27a6.21,6.21,0,0,0-2.55,2.39,80.94,80.94,0,0,1-6.77,7.8L524.82,81,519,80.43c-3.19-.32-12-.56-19.61-.54s-17-.28-20.93-.67a54.93,54.93,0,0,0-11.77,0c-9.51,1.51-50.9,2.18-56,.9a51.28,51.28,0,0,0-9.95-.62c-3.8.08-10.14-.17-14.1-.54a55.17,55.17,0,0,0-15.62.64c-4.65.73-8.84,1.08-9.31.78-1.42-.87-20.92-.39-23.33.58-2.59,1-40.11,1.3-43.17.3l-2-.65,1.87-1.52a7.33,7.33,0,0,1,3.82-1.52c1.16,0,1.94-.47,1.94-1.18,0-2.21-2.77-2.81-10.22-2.23a158.43,158.43,0,0,1-29.88-.71c-5.69-.73-7.61-.7-9.14.12s-3.46.73-11.47-.84c-7.24-1.42-13.15-2-24.56-2.18-8.26-.17-19.59-.77-25.17-1.35-18.57-1.89-38-1.3-42.45,1.32s-4.66,2.6-4.66,1a1.26,1.26,0,0,0-1-1.31,11.74,11.74,0,0,0-6.75,1.3,6,6,0,0,1-3.77.66c-1.16-.22-4.42.35-7.26,1.25-3.92,1.26-8.17,1.75-17.62,2.06-10.25.32-12.73.64-14,1.78s-2.22,1.3-8.89.39c-5-.69-7.66-.74-8.35-.17s-11.7,1-28.84,1.31L19,79.28l-1.58-3.55C16,72.46,15.88,71.3,16.6,62.1c.43-5.53.79-10.85.8-11.83,0-2.59,2.2-3,15.45-2.71C66.43,48.23,91.05,48,95,47c4.47-1.17,8.92-1.65,21.11-2.28,16.22-.83,18-1,24.36-1.88a76.47,76.47,0,0,0,10.17-2.14,71.92,71.92,0,0,1,12.18-2c11.56-1,37.69-5.22,50.74-8.17l5.62-1.24a12.66,12.66,0,0,0,4.38-2.07,7.46,7.46,0,0,1,3.31-1.61,26.39,26.39,0,0,0,5.78-2c5.56-2.45,12.55-2.62,21.14-.51m683.76-1.06a8,8,0,0,1-.84,2c-1.25,2.33-2.53,1.92-1.45-.46.82-1.8,2.29-2.81,2.29-1.57m763.56,3.13c8.2,3.77,10.22,4.53,12.15,4.53a14.89,14.89,0,0,1,5.16,1.66,56.1,56.1,0,0,0,8.57,3.16,53.53,53.53,0,0,1,7.8,2.77c8,4.14,42.49,3.85,55.46-.47a12.38,12.38,0,0,1,4.39-.71,6.73,6.73,0,0,0,3.45-.79,3.76,3.76,0,0,1,4-.07,10.65,10.65,0,0,0,3.43,1c1.58,0,14,5.71,14,6.43s-8.13,2.5-11.62,2.5c-2.84,0-3,.11-2.15,1.68,1,1.79.54,4-.75,4-1.12,0-3.57-7.64-2.55-8,2.44-.82-.71-4.82-4.09-5.21-1.59-.17-1.93.11-1.71,1.41a24,24,0,0,1,.27,3.65,7.15,7.15,0,0,0,1.85,4.06,8.87,8.87,0,0,1,1.94,9.4c-.79,2.17-.79,3,0,3.76a3.91,3.91,0,0,1,1,2.43c0,3.11,5.88.84,7.42-2.87a28.36,28.36,0,0,1,4.44-6.19c1.88-2,4.16-4.6,5.07-5.72,1.56-1.94,1.7-2,3.09-.6s1.34,1.52-1,3.77c-6.83,6.67-11.75,12.93-11.75,15,0,2.21,2.22,1.52,3.08-1,.45-1.27,3.49-5,6.76-8.22,5.48-5.45,6-6.19,6.08-9.51.23-5.74,2.25-5.11,3.18,1,.48,3.17.4,3.3-6.9,10.51-5.83,5.76-7.34,7.72-7.16,9.28.35,2.85,2.17,3,3.11.33.8-2.29,10.47-11.63,12-11.63,2.26,0,1.38,7.56-1.24,10.62-1.15,1.35-1.46,4.17-.56,5.07S1830,71,1830.53,68a14.36,14.36,0,0,1,1.66-4.59c.81-1.17,1-2.93.59-6.32l-.53-4.7,3.26.53c2,.32,3.46.18,3.81-.38s-.08-.91-1-.91c-4.71,0-9.22-4.12-8.12-7.42.43-1.28,46.22-1.28,50.33,0s14.89,3.22,21.14,3.83,7.5,1.5,6.26,5c-1.14,3.28-1.85,3.48-13.66,3.93-10.79.41-14.45,1.37-12,3.15,1.79,1.31,1.72,2.28-.26,4.07-2.23,2-2,2.85.69,2.85a5.76,5.76,0,0,1,3.78,1.62c2.51,2.77,5.48,1.8,6.23-2,.23-1.17.88-1.57,2.33-1.44,1.09.1,4.19.25,6.87.31,5.63.14,6.9.88,6.9,4,0,3.74-1.34,4.15-13,4-9.12-.11-10.86.07-11.48,1.18a2.41,2.41,0,0,1-1.64,1.3,5,5,0,0,0-2.36,1.32c-2.25,2-5.26.93-5.21-1.89l0-2.26-5.28.23c-9.77.43-11.25.85-11.52,3.28l-.25,2.17-8.13-.12c-4.46-.06-12.78-.15-18.47-.2-10.69-.08-11.18-.26-9.49-3.44.63-1.16.61-1.93,0-2.73-.92-1.1,1.91-6.81,4-8.11,1.07-.65,1.12-2.86.07-2.86-2,0-8.89,8.53-9.4,11.55-.79,4.65-2,5.43-8.73,5.51-3.22,0-8,.16-10.73.26a19.56,19.56,0,0,1-7.11-.88c-1.6-.76-6.82-1-18.67-1-20.8,0-62-.62-68.43-1.08-9.07-.68-19.6-.82-20.46-.28-.47.29-9,.71-19,.94s-20,.61-22.22.86c-8.64,1-25.86.91-28.79-.14-1.59-.56-6.26-1-10.39-1.06a68.42,68.42,0,0,1-11-.83c-3.17-.72-17.53-2-30.67-2.72-15.3-.85-20.37-1.44-25.17-3A91.86,91.86,0,0,0,1524.82,67a56.3,56.3,0,0,1-8.13-1.94c-9.3-3.46-11.78-4.61-14.54-6.75a28.1,28.1,0,0,0-5.89-3.44,26.9,26.9,0,0,1-5.69-3.26,43.46,43.46,0,0,0-4.67-3.16c-1-.54-1.83-1.51-1.83-2.16,0-1.23.29-1.28,9.75-1.61,2.9-.1,8.93-.76,13.4-1.46s16.12-1.48,26-1.73,21.07-.88,25-1.42a65.92,65.92,0,0,1,16.24-.14,224.32,224.32,0,0,0,59.3-3.07c4.57-.91,10.86-2.15,14-2.74a146.21,146.21,0,0,0,19.09-4.85A61.17,61.17,0,0,1,1678,27c2.81-.22,5.55-.74,6.09-1.17,3.83-3,11.25-3.3,17-.65M241.53,27.72c-1.58,1.89.17,3.09,4.69,3.21,6,.16,9.8,3.12,5.29,4.11-4,.87-6.58,2.1-7.07,3.4-1.31,3.4,3.62,3.71,10,.63s11.52-4.12,14.76-3c2.83,1,4.07.67,4.07-1,0-2.11-4.27-4-8.76-3.92-3.73.09-4.63-.22-6.73-2.28-2.91-2.84-14.14-3.62-16.21-1.11M948.67,33c1.52,1.86,1.23,2.6-.79,2-2.67-.8-4.15-2.49-3.55-4.06s2-.76,4.34,2.07m-18.45-2c0,1.48-2.56,6-4.36,7.62-3.7,3.42-2.53-2,1.36-6.23,1.55-1.71,3-2.38,3-1.39m7.61,1.39c-1.8,3-7,10.39-7.6,10.75a17.92,17.92,0,0,0-2.52,4.28,62,62,0,0,1-6.37,9.38c-2.49,3-5.62,7.25-7,9.36-4.88,7.66-11,13.75-11,11,0-1.07,3.61-6.51,6.13-9.23,3.19-3.45,10.92-14.64,10.93-15.81,0-.46,1.74-2.67,3.88-4.9a42,42,0,0,0,5.76-7.72c2.18-4.26,5.61-8.12,7.2-8.12.68,0,.87.4.51,1m480.46,1.85a20.94,20.94,0,0,1-1.91,3.44c-1.06,1.67-2.9,4.76-4.09,6.88a99.79,99.79,0,0,1-6,8.92c-3.75,5-12.38,19.09-13.41,22-.48,1.34-3,2.06-3,.86,0-1.48,4.07-8.85,9.34-16.9l10.84-16.56c2.75-4.19,5-7.93,5-8.32s.73-.7,1.63-.7,1.62.19,1.62.43M943,35.88c.33,1-5.29,7.23-5.93,6.6s.35-3.44,2.24-5.84c1.63-2.07,3.15-2.38,3.69-.76m18.11,2c0,1.39-1.54.83-2.47-.9-.82-1.55-.76-1.61.79-.79.92.5,1.68,1.26,1.68,1.69m739.55-.3c-2.85,2.85,1.85,5.95,9,6,8.17,0,12.45,1.07,16.56,4,6.29,4.56,7.55,2.21,2.22-4.16l-3.32-4h-7a55.08,55.08,0,0,1-11.49-1.21c-5.16-1.38-5.24-1.39-6-.67M984.84,40.32a162.87,162.87,0,0,0,35.33,4c6.37,0,12.49.43,13.6.85a9.65,9.65,0,0,0,4.44.29,27.31,27.31,0,0,1,7.51.41c9.33,1.62,38.57,2.35,72.91,1.8,6.92-.11,22.64-.16,34.92-.11s24,0,26-.18,9,0,15.42.34,29.51.8,51.17,1,44.5.79,50.75,1.24c13.59,1,43.62.34,68.22-1.47,11.14-.82,25.18-.77,26,.09.32.31-1.2,1.32-3.39,2.23s-4.88,2.15-6,2.77c-8,4.45-27.07,9.29-38.58,9.79-5.4.24-14.1,3.79-21.11,8.61-3.65,2.52-9.64,2.39-16.14-.34-5-2.1-13.49-.86-24.46,3.57-2.43,1-24.65,1.62-51.17,1.48-6.7,0-13.27-.07-14.61-.07-5.7,0-26.79.85-36.57,1.42-14.42.85-19.53.17-21.07-2.8a8.31,8.31,0,0,0-3.66-3.29,8.06,8.06,0,0,1-3.09-2c-2.11-3.63-17.82-14.21-21.09-14.21a18,18,0,0,1-5.52-1.72c-4.43-2.09-7.22-2.19-9.26-.34a24,24,0,0,1-6.44,2.91c-7.56,2.35-10.62,4.24-16.34,10.08-10.83,11.07-12.33,11.49-36.14,10-16.7-1-29.44-1.2-37.52-.49-8.7.78-10,.46-10-2.44,0-1.59-1.51-3.62-5.81-7.83-3.2-3.13-7.67-7.57-9.94-9.86a37.56,37.56,0,0,0-7.71-6c-4.12-2.08-11.46-8.65-11.46-10.28s2-1.4,10.77.57m442.38.78c0,1.75-5.61,11.84-7.62,13.72-2.94,2.73-2.78.62.31-4.25,1.33-2.11,3.17-5.29,4.07-7.07,1.55-3,3.24-4.29,3.24-2.4m34.93.64c0,.81-1.1,2.52-2.44,3.8s-2.43,2.73-2.43,3.21a12.67,12.67,0,0,1-2,3.78,39.61,39.61,0,0,0-3.63,7.95A27.92,27.92,0,0,1,1448,68a9.88,9.88,0,0,0-2.06,3.21c0,1.23-4.37,7.49-4.65,6.65s6.56-15.9,8.67-18.85a15.37,15.37,0,0,0,2.1-5.22,7.51,7.51,0,0,1,2.91-4.79c1.29-1,2.35-2.12,2.35-2.59,0-1.39,3.13-6.14,4-6.14.46,0,.83.66.83,1.47m-1193,.56a19.27,19.27,0,0,1-5.36,1.15c-7.07.18-5.71,4.94,1.41,4.94,2.57,0,4.91.39,5.2.87.57.91-2.6,4.81-3.9,4.81-1.59,0-5.47,3.43-5.47,4.83,0,1.57,3.67,2.79,5.42,1.8,4.68-2.63,11.63-10.2,11.63-12.65,0-5.3-3.78-7.73-8.93-5.75m676.48-.12c0,1.17-4.11,6.92-8.87,12.38-3.08,3.53-9,12.66-9,13.88,0,.39-1.86,2.53-4.14,4.75l-4.14,4,2.72-5.42c4.67-9.31,23.43-33,23.43-29.61m497.81.73c0,1.66-2.3,6.86-5.28,12a8.76,8.76,0,0,0-1.19,3.35,3.77,3.77,0,0,1-1.31,2.4c-.71.59-3.07,4.61-5.24,8.92-3.94,7.87-5.37,9.34-8.2,8.45-3-1-.94-6.82,5.34-15a46.45,46.45,0,0,0,7.24-12.19c2.81-7,8.66-12.32,8.64-7.91m7.46,2.84c-1.31,2.57-5.37,10.76-9,18.2-6.19,12.61-8,15.19-9.88,14-1.43-.9-.65-3.28,2.93-8.89a125.21,125.21,0,0,0,6.13-11A120.88,120.88,0,0,1,1447.39,47c4.65-7.18,7-8,3.53-1.25M934.79,47.37C933,50.85,926.2,58.94,925,58.94c-.55,0,7.12-11.89,9-14,2.35-2.61,2.69-1.46.72,2.44m495.05,4.52c-1.76,2.76-4.07,6.48-5.14,8.26s-2.39,4-3,4.87-2.19,4.11-3.65,7.11c-2.35,4.87-4.68,7.14-4.68,4.57,0-1.63,8.92-19.11,10.46-20.51a16.91,16.91,0,0,0,3-4.78,24.85,24.85,0,0,1,3.57-5.73c3.58-3.94,3.19.28-.58,6.21M920.17,46.15c-.72,1-1.92,2.93-2.65,4.26a64.83,64.83,0,0,1-4.09,6.1c-1.52,2-5.53,7.42-8.91,12s-6.67,8.59-7.31,8.84c-3.05,1.16-2.11-2.75,1.44-6a22.62,22.62,0,0,0,3.94-5.1A52.89,52.89,0,0,1,908,58.8c2.16-2.53,4.84-6,6-7.61,2.75-4.08,5.41-6.87,6.56-6.87.61,0,.48.65-.37,1.83M911,48.26c-.83,1.32-3.63,5.19-6.22,8.61s-5.51,7.62-6.49,9.35c-2.64,4.62-10.3,12.56-11.23,11.64s4.17-8.77,12.14-18.83c8.22-10.37,16.13-17.59,11.8-10.77m747.42-2.63c-.27.27-7.36.59-15.76.71-15.93.24-20,.85-20.41,3.09-.52,2.71,9.77,3.46,14.39,1,2.36-1.23,4-1.37,11.37-.94,4.73.28,10.21.59,12.16.69,4.38.24,6.48-1.93,3.8-3.91-1.61-1.19-4.66-1.57-5.55-.68M302,47.05A23.78,23.78,0,0,1,296,49.21c-2.45.59-5,1.66-5.69,2.39a49.83,49.83,0,0,1-6,4.46q-7.85,5.2-5.48,8.07c1.48,1.79,8.52,3.26,10.51,2.19,2.29-1.23,8-1.07,11.9.31,5.5,2,6.69,1.67,8.57-2.3,2.9-6.19,4.62-7.26,9.15-5.72,5.42,1.85,17.9.44,17.43-2-.56-3-4.4-3.63-19.93-3.55-2.34,0-4.26-.33-4.26-.76,0-3.56-7.22-7.31-10.17-5.28m1514,.74c.16.81-.23,1.41-.91,1.41-1.45,0-3.19-2-2.42-2.74,1-1,3-.15,3.33,1.33m-400.68.89c-.29.73-.86,1.33-1.27,1.33s-.35-.76.15-1.69c1-1.93,1.89-1.66,1.12.36m48.94,1a12.81,12.81,0,0,1-2.4,5.17,20.48,20.48,0,0,0-3,5c-.56,1.51-1.51,3.84-2.12,5.18a60.43,60.43,0,0,0-2.35,7c-1.61,5.79-7,10.42-7,6,0-1.5,4.51-11.59,6-13.34a28,28,0,0,0,2.6-4.91c4.23-9.94,9.2-16,8.24-10.12m7.56-1.43a14.82,14.82,0,0,1-1.67,4.68,83.14,83.14,0,0,0-3.37,7.68,69,69,0,0,1-3.5,7.71,38.13,38.13,0,0,0-2.83,6.5c-1.24,4-2.14,5.08-3.3,3.92s2.8-13.75,6.18-19c1.5-2.33,3.75-6.18,5-8.58,2.34-4.49,3.49-5.44,3.49-2.91M944.54,55.07a52.64,52.64,0,0,1-5.74,7.08c-1.6,1.54-2.9,3.13-2.9,3.53,0,1-5.67,10.12-7,11.25-3.13,2.59-2.9-1,.28-4.39a68,68,0,0,0,6.8-9.58c4.55-7.75,10.83-15.33,11.19-13.5.14.73-1,3.25-2.59,5.61m535.12-5.62c.48,1.24-6,12.74-7.15,12.74-.44,0-.53-.62-.19-1.42s1.12-2.84,1.74-4.56c2.51-6.94,4.58-9.42,5.6-6.76M974.19,52.69c.93,1.78.92,1.78-.81.24a5.36,5.36,0,0,1-1.74-2.28c0-1.15,1.51.07,2.55,2m622.12-2.13c-1.59.64.43,2.7,2.64,2.7s3.08-.81,2-2.16c-.92-1.1-2.68-1.31-4.6-.54m214.14,1.38c1.32,1.59.35,3.43-2.76,5.27-4.2,2.48-5.06.29-1.55-3.89,2.36-2.79,3-3,4.31-1.38m42-.56c-.31.31-2.47.47-4.81.35-3.49-.18-4.06,0-3.19.85.57.59,2.82,1.07,5,1.07s4.44.48,5,1a3.91,3.91,0,0,0,2.38,1c1.62,0,2.89,1.42,3.32,3.66.37,2,7.53,2.55,14.31,1.07,5.5-1.2,4-2.26-3.15-2.28-4.42,0-5.63-.31-6.91-1.73-2.43-2.71-10.8-6.22-12-5m-453.68.88a25,25,0,0,1-2.67,4.69c-1.48,2.23-4.8,7.62-7.39,12s-5.08,8.13-5.52,8.4c-2.45,1.51-2.79-3.94-.4-6.33,1.36-1.36,9.18-11.74,12.12-16.06,2-3,3.86-4.25,3.86-2.66M955.4,55.94c0,.46-.74.16-1.63-.65A5,5,0,0,1,952.15,53c0-.45.73-.15,1.62.65a5.05,5.05,0,0,1,1.63,2.28M305.72,53.69c0,1-2.62,4.34-3.73,4.76s-1,.14-.24-1.35c1.64-3.18,4-5.17,4-3.41m1084.15,1.6c-.57.69-1.23,1.08-1.45.85s.06-1,.64-1.66,1.23-1.08,1.45-.85-.07,1-.64,1.66M965,55.69c.81,1.31.81,1.63,0,1.63a3.29,3.29,0,0,1-2-1.63c-.81-1.3-.81-1.62,0-1.62a3.25,3.25,0,0,1,2,1.62m519.93-1.23c0,2.31-6,12.51-10.66,18.16-1.16,1.4.36,5,2.11,5,.71,0,2.27-2.16,3.67-5.07,2.57-5.34,8.11-13.58,9.15-13.6,1.25,0,.53,2.23-2,6.13-3,4.72-5.78,11.51-5.11,12.59,1.14,1.85,2.74.35,5.58-5.26,5.49-10.79,8.48-12,5.27-2.09-3.38,10.46-5.82,12.24-13.88,10.09a34.23,34.23,0,0,0-6.55-1.15c-2.77,0-2.77.07.27-6.43,6.29-13.43,12.11-22.28,12.11-18.37M548.53,56.05c0,.67-2.56,2.89-3.33,2.89-.48,0-.44-.63.08-1.62.74-1.38,3.25-2.36,3.25-1.27m10.56.41c0,1-1.58,2-2.17,1.4s.45-2.17,1.41-2.17a.77.77,0,0,1,.76.77m34.11,1.1a3.37,3.37,0,0,1-1,2c-2.1,2.11.18,1.73,3.63-.6a17.54,17.54,0,0,1,4.56-2.47c1.69,0,.93,3.27-.93,4a9.9,9.9,0,0,0-3.24,2.42c-1.73,2.09-3.44,2.17-4.83.22a6.72,6.72,0,0,0-2.55-2c-1.9-.7-1.38-2.3,1.15-3.59s3.18-1.27,3.18,0M989,59.49a34.62,34.62,0,0,1,4.91,5.39c3.44,5.26-2.82-.13-8.54-7.36-1.59-2,.35-1,3.63,2m417.54,6.44c-3.89,8.34-5.64,10.88-7.46,10.88s-1.15-3.46,1.58-7.81c9.34-14.91,12.08-16.33,5.88-3.07m380-8.52c-.77,1.24,1.24,2.4,3.7,2.15a2.47,2.47,0,0,0,2.29-1.63c.31-1.66-5-2.12-6-.52M26.39,59.27a2.83,2.83,0,0,1-2.48,2.11c-2.18,0-3,2.22-1.39,3.82,1.4,1.4,2.43,1.44,28.19,1.19,24.15-.24,38.91.27,40,1.37,1.46,1.46,3.41,1.1,5.4-1,2.88-3.06,2-4.84-2.78-5.51-2.23-.31-6.39-.94-9.26-1.38-3.53-.55-5.71-.54-6.76,0C75,61.1,68.8,61,63.3,59.56,59.92,58.69,54,58.27,44,58.2c-7.93-.07-15-.33-15.63-.59s-1.48.27-2,1.66m540.82-.83c0,1.21-6.63,7-8,7-2,0-1.57-1.8,1.18-4.84,3-3.29,6.83-4.51,6.83-2.16m381.69.81a4.48,4.48,0,0,1-1.33,3,22.55,22.55,0,0,0-3.28,4.19,55.84,55.84,0,0,1-4.83,6.26c-2.66,3-3.05,4.88-1,4.88.47,0,2.36-1.55,4.22-3.45,7.84-8,10.38-7.39,3.63.91-3.3,4-3.51,4.17-7.62,4.17-7.47,0-7.21-1.84,1.7-12.07a80.35,80.35,0,0,0,5.29-6.81c2.31-3.52,3.21-3.84,3.21-1.12m24.72-.84c2.25,1.64,1.3,3.31-1,1.72-1.8-1.26-2.44-2.81-1.17-2.81a5.56,5.56,0,0,1,2.14,1.09M1388.24,58a14.81,14.81,0,0,1-2.47,3.82c-1.36,1.72-4.17,5.78-6.24,9s-4.23,5.92-4.83,5.92c-1.76,0-1.23-2,1.55-5.76,1.44-2,3.49-4.84,4.55-6.39,3.66-5.29,7.44-8.68,7.44-6.64m29.24.36a16.67,16.67,0,0,1-2.32,4.71,43.5,43.5,0,0,0-3.72,7.89,18.83,18.83,0,0,1-2.76,5.59c-3.12,3.14-1.73-2.3,2.73-10.66,4.24-7.93,6.07-10.21,6.07-7.53M582,60.12a21.16,21.16,0,0,1-3.38,3.37c-3.14,2.62-2.52.3,1-3.5,1.69-1.86,3.53-1.77,2.43.13M607.82,59c0,.49-2.42,3.14-5.37,5.89s-5.85,5.46-6.44,6a3.94,3.94,0,0,1-1.53,1c-1.42,0,0-2.56,3.71-6.5,5.53-6,9.63-8.69,9.63-6.43m272.86.28c0,.62-1.15,2.17-2.56,3.44a59.66,59.66,0,0,0-9.66,10.53c-2.2,3.16-4.57,4.89-5.46,4-.22-.21.75-1.7,2.15-3.3a13,13,0,0,0,2.54-3.65c0-.43,1.06-1.31,2.36-2a12.44,12.44,0,0,0,4-3.87c3.25-5.24,6.63-7.87,6.63-5.16m-572.56.26c0,.85-2.07,3.46-2.7,3.46-.88,0-.57-2.06.46-3.09s2.28-1.29,2.24-.37m245,.68a7.88,7.88,0,0,0-.49,2c0,.41-.73.75-1.62.75-2,0-2.05-.63-.29-2.58s3.08-2,2.4-.2m70.83,1c.28,2,1.7,2.38,3.17.92a1.57,1.57,0,0,1,1.8-.35c1.07.66-11.8,15.06-13.46,15.06-2.14,0-1.07-2.5,2.55-6,4-3.84,4.65-5.66,1.85-5.25-1,.15-3.1,2-4.81,4.25-3.49,4.62-5,5.65-7.21,4.93-2.45-.77-1.94-2.37,1.7-5.38,1.82-1.5,5-4.43,7.1-6.49,4.15-4.1,6.88-4.75,7.31-1.72m269.49-.24c-.27.69-.87,1.25-1.35,1.25s-.59-.52,0-1.7c1-1.88,2.06-1.52,1.31.45m484.43.7a6.72,6.72,0,0,0-1.77,2.72c0,.47-1.13,2.27-2.51,4a45.15,45.15,0,0,0-4.08,6.2c-1.68,3.28-3.16,4-3.16,1.5s11.87-17.73,12.88-16.71c.22.21-.39,1.24-1.36,2.27m529.83-1.76c.89,1.44-2.07,3.13-5.51,3.13s-4.25-1.68-1.67-3.19c1.94-1.13,6.47-1.09,7.18.06m-1293.35.44c0,.56-11.31,11.62-11.88,11.62-1.47,0,.57-3.16,4.7-7.24,4.42-4.38,7.18-6.06,7.18-4.38m341.86,4.19c-1.33.44-4.21-3-3.49-4.16.33-.52,1.33.07,2.54,1.47,1.44,1.67,1.71,2.43.95,2.69M1115.38,61c0,1.35-3.63,7-3.93,6.13-.41-1.25,2.21-6.51,3.24-6.51.38,0,.69.17.69.38m4.4,3.61c-1.74,5-3.14,7.51-5.54,9.75-2.77,2.59-2.66,1.87.57-3.78,6.2-10.84,7-11.75,5-6m8.59-2.71c0,1.58-6.32,13.52-7.6,14.34-2.6,1.67-3-1.34-.57-4.41a39.81,39.81,0,0,0,3.61-6.61c1.94-4.37,4.56-6.29,4.56-3.32m765.9.58c-1,1-2.1.24-1.33-1a1,1,0,0,1,1.37-.37c.56.34.54.8,0,1.38M637.9,62.64a3.54,3.54,0,0,0,2.9,1c2.92-.38,2.2.93-4.2,7.68-5.73,6-7.77,7.28-8.91,5.45-.5-.82,3.88-5.4,7.54-7.86,2.16-1.45,2.45-4.29.44-4.29-.75,0-2.39,1-3.64,2.17-3.39,3.25-3.51,1.85-.19-2,3.12-3.65,4.42-4.1,6.06-2.13m281.75,5.58c-1.78,3.31-3.23,6.75-3.23,7.64,0,1.91-1.49,2.63-3.39,1.66-1.38-.71,3.05-8.52,7.66-13.5,2.57-2.77,2.46-2.33-1,4.2m451.54-5.65c0,.67-9.45,13-10.85,14.14-2.12,1.77-1.72-.74.65-4,1.09-1.52,3-4.5,4.19-6.62,1.89-3.3,6-5.68,6-3.48M586.7,63.66c0,1-4.8,5.37-5.35,4.81-.77-.75,2.85-5.46,4.19-5.46.64,0,1.16.29,1.16.65m282.61.06a9.5,9.5,0,0,1-2.29,3c-3.62,3.68-8.26,9.71-8.26,10.73,0,.51-.73.93-1.63.93-3,0-1.71-3,4.14-9.25,5.18-5.55,8-7.49,8-5.46m265.56.94a25.91,25.91,0,0,1-2.64,5c-1.45,2.36-3,5-3.51,5.85a4.52,4.52,0,0,1-1.83,1.88c-1.2.4-1.27-2.78-.08-3.51.49-.3,1.61-2.24,2.5-4.32,2.33-5.43,5.56-8.31,5.56-5M858,66.17a9,9,0,0,0-1.68,3.63c0,3.33-9,10.54-10.82,8.69-.65-.64,1-2.77,6.11-7.78,7.26-7.16,9.27-8.58,6.39-4.54m21.2,4c-5.48,7.2-7,8.68-8.25,7.91s2.53-5.68,6.89-9.4a30.18,30.18,0,0,0,3.9-3.8,2.13,2.13,0,0,1,1.46-1c.44,0-1.36,2.83-4,6.3m590.41-.53a62.56,62.56,0,0,0-2.88,7.43c-.32,1.28-1.11,2.23-1.86,2.23-2.35,0-.62-6.32,3.08-11.21,4.14-5.49,4.6-5.05,1.66,1.55m-879.82-4c1.47,1.49,1.17,3.39-.74,4.58-2.11,1.32-4.14,0-2.51-1.65a4,4,0,0,0,1-2.44c0-1.69.88-1.88,2.27-.49m770.85-.21c0,2.94-7.68,13-9.92,13s-.24-3.82,6.63-12c1.57-1.88,3.29-2.43,3.29-1.07M982.19,68.07c0,.46-.54.37-1.21-.19a3.19,3.19,0,0,1-1.22-1.82c0-.46.54-.37,1.22.19a3.31,3.31,0,0,1,1.21,1.82m125.07-2.18c0,1.59-2.79,5.49-3,4.26-.35-1.62,1.13-4.71,2.27-4.71.42,0,.78.2.78.45M969.53,71.32c2.53,2.79,4.26,5.18,3.84,5.32-.75.25-8-7-9.29-9.25-1.56-2.73,1.2-.74,5.45,3.93m537.14-4.46c-.37.81-4.7,7.85-6.79,11.06-1.74,2.67-4.07,3.65-5.42,2.29q-.81-.81,2.47-5.15a37.69,37.69,0,0,0,4.12-6.57c.68-1.78,1.37-2.24,3.37-2.24,1.39,0,2.41.28,2.25.61m-931.34,1c0,.46-1.39,2.38-3.1,4.27s-3.92,4.62-4.93,6.07c-1.59,2.3-4.15,3.62-4.15,2.13a41.82,41.82,0,0,1,3.6-5.54c4.24-5.95,8.58-9.45,8.58-6.93m523.9,1.84c-.66.67-.91.58-.91-.34,0-1.61,1.1-2.7,1.5-1.49a2,2,0,0,1-.59,1.83m-454.06.85c0,2-5.9,7.85-7.88,7.85s-1-2,2.78-5.85c4.32-4.39,5.1-4.7,5.1-2m238.32,4.19c-3,3.63-5.24,4.72-5.24,2.52,0-.62,1.73-2.84,3.85-4.94,4.84-4.78,5.84-3,1.39,2.42m98.89-.87c1.73,2.09,1.8,2.91.23,2.91s-5.86-4.09-6.54-6.42l-.56-2,2.73,1.89a23.48,23.48,0,0,1,4.14,3.57m360-3.58a5,5,0,0,1-2.19,1.62c-.38,0-.32-.73.16-1.62a3,3,0,0,1,2.18-1.63c1.17,0,1.15.19-.15,1.63m7.72-.54a4.61,4.61,0,0,1-1.55,2.5,8,8,0,0,0-2,3.37,2.22,2.22,0,0,1-2.16,2c-2.26,0-1.41-2.76,2-6.29,2.68-2.84,3.81-3.29,3.81-1.55m161.61.51c0,1.93-3.75,9-5.54,10.38-2.76,2.19-2.62-.59.32-6.2s5.22-7.44,5.22-4.18m8.48.15c2.65,1.21,2.62,1.41-.79,6.76s-7.69,6.59-7.69,2.1c0-1.32.38-2.63.84-2.92a17.56,17.56,0,0,0,2.85-3.7c2.28-3.61,2-3.49,4.79-2.24m-892,.58c0,.91-4.07,5-5,5q-1.89,0,1.53-3.33c2.34-2.29,3.45-2.81,3.45-1.64m218,1.12c-3.47,4.16-5.56,6.29-6.19,6.29-1.48,0-.47-1.74,2.8-4.82,3.72-3.52,5.88-4.45,3.39-1.47M1143,71.33c0,1.37-3.83,6-4.43,5.35-.27-.26.3-1.8,1.26-3.42,1.74-2.94,3.22-3.85,3.17-1.93m190.82,2.55c-2.13,3.61-4.51,5.72-5.19,4.61s5.21-8.29,6.16-7.71c.34.22-.09,1.61-1,3.1M182.18,73a3.3,3.3,0,0,0,2.95.72c4.22-.81,2.22,2.85-2.45,4.47-1.34.47-3.12,1.12-4,1.46-1.34.55-1.41.41-.58-1.13,1.32-2.47-1-2.35-5.21.26-3.37,2.07-6.09,2.63-6.09,1.26,0-.81,7.89-6.14,10.89-7.35,2.46-1,3.41-.93,4.44.31m582.37-.32c0,1.26-4.33,4.9-5.83,4.9-2.44,0-2.36-1.42.21-3.58s5.62-2.82,5.62-1.32m764.08,5c-1.65,3-6.39,5.72-6.39,3.68,0-.81,4.44-8.32,5.24-8.85,2.37-1.61,3.1,1.63,1.15,5.17m-772.38-4c-.45,1.34-2.87,2.76-3.55,2.09s1.22-3,2.68-3c.65,0,1,.43.87,1m246.92.94c.18.94-.13,1.21-1,.86-1.5-.58-1.76-3-.26-2.55a2.39,2.39,0,0,1,1.28,1.69M139.64,76.55C135.42,80.43,127.08,82,119,80.36c-4.07-.81-2.93-1.93,2-1.93a18.24,18.24,0,0,0,7-1.3,8.76,8.76,0,0,1,5.36-.85,5.42,5.42,0,0,0,4.85-1.13c3.73-2.92,4.87-1.79,1.4,1.4M156.29,74a11.27,11.27,0,0,1-2.58,2.64c-5.74,4.87-8.79,6.07-8.79,3.47,0-1.2,1.28-2.32,4.67-4,4.55-2.34,6.7-3,6.7-2.07m10.42,1.08c-1.41,2.27-8.94,6.58-11.47,6.58-4.9,0-.81-4.44,5.92-6.43l4.47-1.32c1.79-.53,2-.3,1.08,1.17m29.54-.17c1.43,1.29,1.67,1.29,4-.08,4.3-2.54,4.23-.22-.08,2.59-4.69,3.08-4.9,3.12-4.9,1,0-2-1.78-2.09-4.52-.29-3.2,2.1-3.5.38-.38-2.22s3.84-2.84,5.88-1m356.34-.73c0,.35-1.18,1.32-2.64,2.16l-2.64,1.52,2-2.16c2-2.13,3.31-2.76,3.31-1.52m24.55,3.21c1.49,1.84,0,5.32-2,4.78a14.58,14.58,0,0,0-2.81-.5c-1.68,0-1.14-2.52,1.21-5.61,1.94-2.54,2.26-2.71,2.53-1.3a7.09,7.09,0,0,0,1.12,2.63M582,77c-1,1-1.81,1.32-2.15.77s.28-1.68,1.27-2.68c1.28-1.27,1.91-1.5,2.16-.76S582.91,76.09,582,77m191.47-2.72a5.09,5.09,0,0,1-1.63,2.16c-1.84,1.66-2.45-.07-.65-1.88,1.13-1.13,2.28-1.27,2.28-.28m317.86-.07a8.12,8.12,0,0,0-1.8,2.23c-.68,1.2-.93,1.29-1,.36,0-1.44,1.52-3.21,2.78-3.2.57,0,.56.22,0,.61m-870.91.95c0,1.19-4.12,4.12-5.79,4.12-2.29,0-1.82-1.29,1.12-3.11s4.67-2.18,4.67-1M535.59,77c-1.05,1-1.6,1.25-1.25.58,1.13-2.14,2.23-3.3,2.69-2.84.25.25-.4,1.27-1.44,2.26m23-1.59,2.07,1.08-1.56,2.57c-1.09,1.8-2.19,2.58-3.61,2.58-2.38,0-2.46-.42-.82-4.36,1.42-3.38,1.2-3.28,3.92-1.87m207.92.14c-.49,1.27-2.73,1.72-2.73.54a2,2,0,0,1,2.14-1.76c.6,0,.86.52.59,1.22m189,0c1.37,1.66.24,2.7-3.26,3-2.13.17-2.87-.11-3.1-1.19s.22-1.43,1.34-1.43a2.8,2.8,0,0,0,2.14-.8c.72-1.16,1.67-1,2.88.43m369.91.32a2.4,2.4,0,0,1-1.91.85c-1.2,0-1.18-.18.19-1.22,1.67-1.26,2.61-1.06,1.72.37m212.56,2.22a5.13,5.13,0,0,1-2.92,3.07c-3,1.07-3.71-.11-1.24-2.22a9.92,9.92,0,0,0,2.64-3.35c.38-1.12.78-1.31,1.41-.68s.62,1.63.11,3.18m9.52-1.79c0,2.31-1.91,5.31-3.38,5.31-1.85,0-2-2.23-.24-4.69,1.44-2,3.62-2.41,3.62-.62M283.7,77.54c.9.58.79.9-.56,1.62-2.32,1.24-4.22,1.13-4.22-.25,0-1.82,2.79-2.62,4.78-1.37m313.56,0c0,1-2.37,1.85-3.33,1.26a.89.89,0,0,1-.29-1.23c.6-1,3.62-1,3.62,0m961.93,1.38c0,1.22-.67,1.61-3.13,1.81-3.57.29-3.8-1.18-.46-2.88,2.48-1.26,3.59-.93,3.59,1.07M1901.5,78c0,.76-.78,1.22-2,1.22-2.12,0-2.76-1.2-1-1.9,1.93-.78,3-.54,3,.68m-1655.88.4c0,.45-1,.81-2.23.8-1.74,0-2-.18-1-.8,1.59-1,3.25-1,3.25,0m1340.58.21c-.18.56-1.31,1.13-2.5,1.27-1.69.2-2.06,0-1.68-1,.59-1.52,4.68-1.77,4.18-.25m-1330,.61c0,.44-.53.81-1.17.81a2.2,2.2,0,0,1-1.68-.81c-.27-.45.25-.82,1.18-.82s1.67.37,1.67.82m15,0c-.27.44-1.57.81-2.89.81s-2.39-.37-2.39-.81,1.31-.82,2.89-.82,2.69.33,2.39.82M735.72,82c11.54,0,15.93.33,17.4,1.17,2,1.11,72.57,1.55,100.16.62a137.4,137.4,0,0,1,15.3.24,61.8,61.8,0,0,0,12-.29c7.39-.92,11.36-.92,38.29,0,20.26.71,22.62.7,32.89,0,20.09-1.41,79.65-1.87,112.89-.86,12,.36,27.77.62,34.91.57s19.39-.07,27.21,0,19.51.08,26,.08l28.84,0c9.38,0,18.33,0,19.89,0,34.78-.91,76.17-1.14,97.45-.57,8.27.23,26.36.32,40.2.22,45.71-.37,100.59.07,107.6.85a89.67,89.67,0,0,0,14.22.19,104.76,104.76,0,0,1,14.61.08c6.48.58,44.22,1,70.26.87,5.13,0,10.61-.07,12.17-.07l17.35-.07c8,0,14.84.14,15.24.39s2.65.08,5-.38,13-1,23.59-1.26,19.94-.75,20.7-1.12c2.4-1.18,52.24-1.58,70.41-.57,8.15.46,18.38.68,66.59,1.46,8.94.15,23.28.43,31.88.63l15.63.36-.49,2.63c-.64,3.43,1.64,4.63,3.66,1.95,1.07-1.43,1.84-1.67,4-1.24,3.62.72,4,1.7,1.51,4.26-1.4,1.46-2,2.74-1.65,3.88.46,1.79-1.47,4.36-3.3,4.36-.59,0-1.27-.77-1.52-1.71-.5-1.91-2-1.75-3.33.34-2.87,4.55,6,5.91,10,1.54a11.6,11.6,0,0,1,4.42-3.07c1.73-.43,2-.86,1.61-2.48-.69-2.72.85-4.2,5-4.82,8.21-1.23,6.5-4.49-1.94-3.69-4.19.4-6.36.28-7.31-.42-1.93-1.42-.56-2.31,3.37-2.2,1.87.06,6.7.17,10.71.27,8.79.19,9.84.77,7.71,4.26-1.45,2.39-1.48,3.86-.07,3.86.35,0,1-.91,1.56-2s1.52-2,2.26-2c2,0,1.11,7.53-1.2,10.42a33.53,33.53,0,0,0-3.08,4.74c-.51,1-3.56,2.69-6.28,2.84-7.28.39-318.15-.05-342-.48-11.16-.21-22-.36-24-.33-11,.13-67.83,0-86.49-.15l-43.85-.4c-17.42-.15-32-.29-32.49-.3s-8.48.29-17.86.69c-18,.77-273,0-295.61-.93-1.78-.08-9.27-.06-16.64,0s-38.25,0-68.62-.27c-78.25-.61-207.36-1.26-216-1.09-9.78.2-10.89.19-20.31,0-8.33-.21-95.19-.23-103.95,0-4.91.11-32.71.09-35.73,0-1.26,0-143.94.83-159.58,1-2.92,0-115.82-1-123.43-1.12-9.82-.17-157.71,1-182.32,1.4-55.25,1-55,1-57.94-.2-1.88-.75-3.17-.84-4.21-.28-3.29,1.76-3.49,1.22-3-7.91.62-11.17.1-10.78,14.73-10.83,6.28,0,13.78-.23,16.69-.45,9.92-.8,22.46-.53,59.28,1.26,10.94.53,25.95.92,33.34.87s14.37.27,15.52.7c1.33.51,4.24.52,8.08,0,9.59-1.22,29.51-1.73,66.09-1.67,55.71.08,65.71.24,67.23,1.05,1.82,1,32,1.44,34.54.54,4-1.42,66.4-2.18,76.17-.93,4.8.62,34.35.61,58,0,21.88-.58,42.39-.63,49.54-.12a99.23,99.23,0,0,0,14.17-.29c4.69-.5,8-.5,9.34,0,3.64,1.38,37.84.72,48.24-.94a116.49,116.49,0,0,1,14.79-.75c9.73,0,29.82-.43,49.48-1.21,5.81-.24,15.86-.42,22.34-.41s13,0,14.61,0,7.23,0,12.59-.08a85.72,85.72,0,0,0,12.59-.76,12.44,12.44,0,0,1,4.87-.22c1.12.27,9,.51,17.46.54m1158.61,2.1c15.06.1,14.17-.55,14.11,10.3-.06,10.19.23,9.91-10.79,10.35-9.21.36-11.19-.18-10.6-2.88.52-2.34-2.44-1.59-3.29.85s-1.11,2.47-5,2.47c-4.68,0-5.85-2.58-1.39-3.1a4.39,4.39,0,0,0,3.09-1.86,6.15,6.15,0,0,1,2.84-2.37c2.23-.84,2.64-3,.71-3.76-.81-.31-2.23.56-4,2.46-2,2.18-3.36,3-5.23,3-3,0-3,0-1-3.9,2.47-4.9,2.72-6.36,1.29-7.8s-4.63-1.07-6.76.61c-1.61,1.28-4.47-3-3-4.44.21-.2,4-.28,8.33-.16s13.69.24,20.69.28M1868.59,96.5a21.21,21.21,0,0,0-.71,4.9c-.1,3.38-1.34,4.61-4.66,4.63-5.16,0-4.88-3.74.62-8.31,4.21-3.51,5.64-3.87,4.75-1.22m-27.19,4.22a1.67,1.67,0,0,0,2.4,1.69c1.08-.67.11-2.86-1.27-2.86a1.16,1.16,0,0,0-1.13,1.17m67.19-55.57c-6.17-.8-17.07-1.72-23.7-3.56-6.35-1.78-12.61-2.34-28.47-2.53-28.22-.37-35.6-1.27-43.52-5.34-7-3.61-19.36-5.43-23.47-3.46-6.17,3-38,4.75-45.89,2.59-3.45-1-8.11-2.36-14.44-4.35a26.74,26.74,0,0,0-5.94-1.23c-1.12,0-4.26-1.1-7-2.43a27.16,27.16,0,0,0-6.12-2.44c-.68,0-3.29-1.14-5.82-2.53-8.66-4.76-22.24-5.65-27-1.77a6.24,6.24,0,0,1-3.42,1,23.21,23.21,0,0,0-5.84,1.26,33.38,33.38,0,0,1-6.49,1.46,8.73,8.73,0,0,0-4.4,1.67c-.94.84-3.73,1.7-6.79,2.08a30,30,0,0,0-6.76,1.46c-2.36,1.22-17.71,4.33-29.17,5.89-14.17,1.94-18,2.11-25.59,1.21-4.55-.55-34.26-.52-47.5,0-4,.17-9.4.3-11.95.29a18.45,18.45,0,0,0-6.25.84c-.88.48-4.09,1-7.14,1.19-7.62.44-31.29,2.84-32.5,3.29-.54.2-2.87-.2-5.18-.88s-5-1.05-5.91-.81c-1.11.27-3-.44-5.34-2-4.85-3.25-6.47-3.55-12.42-2.26-8.92,1.94-22.88,1.25-25.88-1.28a9.84,9.84,0,0,0-3.26-2.08,9.2,9.2,0,0,1-3-1.66c-3.31-2.45-8.51-1.14-12.17,3-5.66,6.44-7.15,7.77-10.81,9.63-3,1.54-4.27,1.78-6.31,1.19-1.41-.4-14.46-.55-29.13-.33s-31.5.34-37.53.27c-13-.17-17.17-.14-21.53.1-7,.39-26.93-.67-28.5-1.51-2-1.06-11.06-1.35-17.38-.56s-10.65.67-18.95-.5c-5.37-.76-7.82-.79-9.74-.1-3.6,1.26-26.08,1.46-30.41.25-1.91-.53-3.86-.72-4.33-.43-.83.51-75.34,1.46-85.59,1.09-5.83-.21-11.27-.24-17.86-.08-6.43.14-32.49-.56-40.2-1.08-9.18-.63-12.24-.71-16.25-.46a27.43,27.43,0,0,1-7.13-.66c-3.57-.93-13.78-1.63-30.34-2.06-5.2-.14-9.89-.52-10.43-.85a24.28,24.28,0,0,0-5.57-1.27c-2.52-.37-6.59-1.09-9-1.6a22,22,0,0,0-6.5-.53c-1.72.33-2.61-.29-5.31-3.7-3.11-3.91-6.55-6.7-12-9.74A28.34,28.34,0,0,1,944,14.3c-6.2-6.79-11.3-4.51-20.52,9.19-1.65,2.44-8.06,3.2-14.72,1.76-8.13-1.76-22.5-3-36.15-3.23-19.45-.25-31-1.26-33.08-2.89s-10.69-3-21.33-3.5a19.1,19.1,0,0,1-6.42-1.58c-3.65-1.85-6.71-1.77-8.4.22-1.35,1.57-1.44,1.58-4,.1-5.91-3.33-25-4.13-28.35-1.19a7.86,7.86,0,0,1-4.47,1.11c-1.72,0-6.24.3-10,.73s-9.93,1.05-13.63,1.36-6.92.89-7.15,1.27-2.7.69-5.48.69a41.64,41.64,0,0,0-9.5,1.26c-9.53,2.7-19,4.65-22.3,4.58-3.45-.08-25.29,2.43-27.21,3.12a53.34,53.34,0,0,1-9.34,1.12c-10.09.53-19.88,2.33-22.66,4.16a14.41,14.41,0,0,1-6.08,1.7A62.9,62.9,0,0,0,618.78,37c-9.71,2.81-23.42,4.81-36.48,5.33-5.78.24-11.14.77-11.93,1.19a4.25,4.25,0,0,1-3.4,0c-1.09-.4-5.22-.55-9.2-.31s-12,.53-17.77.65-11.1.26-11.77.33-6.34,0-12.59-.15a122.49,122.49,0,0,0-14.33.27,30.64,30.64,0,0,1-7.56-.09c-5.48-.75-22.79-1-34.14-.44-4.47.21-10.32.34-13,.28l-8.93-.17a41.42,41.42,0,0,1-6.9-.7,85.24,85.24,0,0,0-10.56-.93c-4.24-.17-13.2-.9-19.9-1.64a153.43,153.43,0,0,0-19.89-1c-7,.33-8.32.15-13.88-1.9-5.35-2-7.41-2.28-15.45-2.34-5.11-.05-10.51-.43-12-.85a79.15,79.15,0,0,0-10.95-1.32c-5.63-.36-9-1-10.67-2a21.94,21.94,0,0,0-6.9-2,55.63,55.63,0,0,1-6.9-1.27c-1.34-.41-7.05-1.29-12.7-2s-11.3-1.8-12.59-2.46a10.85,10.85,0,0,0-3.7-1.23,2.45,2.45,0,0,1-1.92-.89c-.33-.53-1.64-.68-3.34-.36-2.35.45-3.23.15-5.51-1.86-10.5-9.21-33.36-9.26-43.13-.09a5.88,5.88,0,0,1-3.34,1.57,12.13,12.13,0,0,0-4.77,2.12c-2.4,1.62-3.75,2-5.89,1.66a6.94,6.94,0,0,0-4.51.65c-1,.6-4.3,1.34-7.42,1.64a30.26,30.26,0,0,0-8.8,2.14,8.86,8.86,0,0,1-5.69,1.11c-1.41-.27-5.31,0-8.66.68s-7,1.22-8.12,1.28c-14,.87-19.44,1.47-20.39,2.25-2.36,2-8.48,2.79-19.93,2.77-9.68,0-12.74.26-16.75,1.58a37.81,37.81,0,0,1-10.27,1.63c-2.94,0-8.66.36-12.7.79-7.66.81-22,1-49.49.63l-16.25-.22S7,41.53,6.4,44.13c-1.1,5-1.47,9.75-1.1,21.24.12,3.76.34,7.42.72,8.13s.24,2.57-.45,4.53c-1.29,3.71-1.36,5.17-1,22.2l.26,12.46,2.44,2c2.87,2.31,3.85,2.4,6.53.65a3.67,3.67,0,0,1,4.23-.4c2.13.88,7.26.91,90.75.63,8.93,0,19.61,0,23.71.17a97,97,0,0,0,13.4-.61c3.27-.47,19.94-1.09,37.06-1.37s32-.78,33.15-1.07,5.18-.27,9.06,0c10.58.89,124.36,1.08,165,.28,31-.62,165.61-.56,166.63.07,2.59,1.6,14.14,1.73,15.82.17s1.84-1.56,3.87-.23c1.61,1.06,3,1.26,5.56.83a97.55,97.55,0,0,1,12-.45l11,.14a31,31,0,0,0,6-.79,10.83,10.83,0,0,1,5.93,0,9.35,9.35,0,0,0,5.87-.16c2.75-.77,6.13-.77,15.52,0,6.6.53,13.35.75,15,.49s7.53-.47,13.07-.45,10.8,0,11.69,0,4.74,0,8.53.08,7.82,0,8.93,0c2.39-.11,3-.11,62.53.4,25.24.22,50.27.47,55.64.58,14.33.26,29.54.42,33.69.34,2,0,9.51.25,16.65.63,14.11.77,14.33.77,30.46.52,6-.09,33.25.09,60.5.4s55,.48,61.72.37l33.7-.57c35.53-.61,85.49-.58,101.92.07,8.48.33,28.59.53,44.67.46s31.06-.09,33.29,0c8.73.26,30.36.27,36.14,0,3.35-.15,19.25,0,35.33.38,28.92.64,49.61.8,64.56.51,18-.36,187.82.55,221.7,1.2,20.33.38,39.69.62,43,.53s31.49-.34,62.53-.54c54.4-.38,66-.43,80-.39,11.24,0,51.85-1,54.82-1.33,1.56-.19,21.29-.55,43.85-.79l41-.44,1.85-3.53c1.4-2.67,1.68-4,1.13-5.48-.41-1.08-.54-6.34-.3-11.7s.47-17.6.53-27.21-.68-19.36-1.65-20"/></g></svg>