<?xml version="1.0" standalone="no"?>
<!DOCTYPE svg PUBLIC "-//W3C//DTD SVG 20010904//EN"
 "http://www.w3.org/TR/2001/REC-SVG-20010904/DTD/svg10.dtd">
<svg version="1.0" xmlns="http://www.w3.org/2000/svg"
 width="700.000000pt" height="700.000000pt" viewBox="0 0 700.000000 700.000000"
 preserveAspectRatio="xMidYMid meet">
<metadata>
Created by potrace 1.14, written by Peter Selinger 2001-2017
</metadata>
<g transform="translate(0.000000,700.000000) scale(0.100000,-0.100000)"
fill="#000000" stroke="none">
<path d="M4145 4868 c-43 -15 -126 -79 -166 -128 -19 -23 -38 -47 -44 -54 -29
-32 -169 -252 -170 -266 -1 -11 -109 -200 -160 -280 -107 -167 -148 -311 -107
-375 12 -19 34 -36 59 -44 36 -12 44 -11 84 9 76 37 122 100 223 305 107 216
156 282 218 292 37 5 38 5 58 -39 26 -60 32 -102 32 -233 1 -153 -7 -245 -39
-434 -33 -205 -57 -257 -245 -543 -127 -194 -194 -314 -218 -393 -6 -22 -38
-96 -71 -165 -37 -78 -62 -145 -65 -176 -6 -46 -4 -54 25 -86 30 -34 54 -45
156 -67 17 -3 59 -6 93 -6 74 0 94 16 112 88 50 203 104 311 308 616 90 135
189 290 220 345 80 140 82 143 133 222 48 73 144 192 188 232 101 92 200 105
263 36 21 -24 21 -25 -9 -104 -26 -69 -70 -154 -177 -339 -109 -189 -141 -297
-133 -439 7 -113 13 -142 48 -232 48 -125 135 -224 239 -273 35 -16 64 -21
130 -21 145 0 190 24 270 144 108 164 141 202 190 222 15 6 63 7 120 2 244
-18 300 17 380 235 39 107 70 166 117 227 21 27 45 63 52 81 7 18 20 38 28 45
16 13 16 13 82 -72 33 -43 65 -62 105 -62 78 0 111 59 120 212 9 163 -145 351
-279 338 -86 -9 -128 -55 -230 -253 -112 -217 -182 -298 -296 -343 -30 -12
-120 -37 -200 -56 -158 -38 -245 -74 -325 -134 l-51 -39 8 44 c25 130 80 258
276 633 86 165 144 318 169 445 2 11 6 31 9 45 9 41 7 136 -4 178 -31 112
-143 203 -284 230 -62 12 -202 5 -262 -13 -109 -32 -132 -48 -254 -179 -97
-104 -147 -119 -205 -63 -24 22 -40 52 -56 102 -137 450 -291 644 -465 583z"/>
<path d="M975 4796 c-199 -51 -376 -187 -452 -345 -65 -134 -48 -252 51 -351
52 -53 154 -110 198 -112 92 -3 137 57 157 212 14 108 26 152 50 179 23 27 69
41 113 35 457 -62 709 -157 774 -292 39 -81 7 -169 -101 -278 -79 -80 -139
-123 -175 -125 -14 -1 -53 4 -87 11 l-62 14 -50 -34 c-27 -19 -59 -52 -71 -73
-41 -72 -34 -126 50 -359 42 -118 42 -163 -1 -233 -90 -149 -367 -367 -538
-425 -126 -42 -168 3 -121 130 12 30 23 62 26 70 3 8 31 29 62 47 109 61 143
106 137 183 -4 63 -27 105 -77 138 -37 24 -50 27 -127 27 -68 0 -97 -5 -138
-24 -61 -27 -131 -98 -166 -167 -121 -240 8 -595 245 -680 83 -29 150 -21 309
39 79 30 218 81 309 112 91 32 181 66 202 76 57 29 94 84 144 211 52 134 72
165 175 267 139 138 209 167 285 118 83 -54 169 -43 240 29 80 83 82 197 4
275 -8 8 -38 23 -66 33 -66 24 -84 38 -85 67 -1 26 60 219 85 268 22 42 93
113 144 145 87 54 267 101 467 122 33 3 63 8 66 10 3 2 46 6 95 9 102 8 153
19 206 46 140 71 221 257 162 371 -47 91 -185 80 -333 -25 -46 -33 -64 -37
-176 -41 -52 -2 -207 15 -305 34 -165 31 -424 34 -471 4 -27 -16 -263 58 -399
126 -106 53 -272 121 -348 141 -98 27 -331 35 -407 15z"/>
<path d="M2390 2987 c-46 -11 -96 -50 -117 -90 -14 -24 -18 -55 -17 -132 0
-89 3 -106 28 -158 85 -173 276 -193 356 -37 35 69 46 207 21 281 -32 96 -166
164 -271 136z"/>
<path d="M6452 2929 c-123 -61 -215 -277 -178 -422 3 -15 22 -45 42 -66 90
-100 246 -40 324 124 53 111 59 210 19 293 -44 87 -121 113 -207 71z"/>
</g>
</svg>
