<?xml version="1.0" standalone="no"?>
<!DOCTYPE svg PUBLIC "-//W3C//DTD SVG 20010904//EN"
 "http://www.w3.org/TR/2001/REC-SVG-20010904/DTD/svg10.dtd">
<svg version="1.0" xmlns="http://www.w3.org/2000/svg"
 width="700.000000pt" height="700.000000pt" viewBox="0 0 700.000000 700.000000"
 preserveAspectRatio="xMidYMid meet">
<metadata>
Created by potrace 1.14, written by Peter Selinger 2001-2017
</metadata>
<g transform="translate(0.000000,700.000000) scale(0.100000,-0.100000)"
fill="#000000" stroke="none">
<path d="M3457 6994 c-1 -1 -65 -4 -142 -7 -123 -5 -213 -14 -335 -33 -19 -3
-48 -8 -65 -10 -137 -21 -339 -72 -505 -126 -327 -107 -699 -298 -975 -501
-179 -132 -450 -383 -589 -546 -172 -201 -350 -471 -471 -711 -126 -250 -252
-616 -300 -865 -12 -66 -45 -283 -49 -330 -3 -27 -8 -81 -11 -120 -8 -85 -8
-386 -1 -475 3 -36 8 -96 12 -133 3 -38 7 -77 9 -86 2 -10 6 -42 10 -72 3 -30
8 -61 10 -69 2 -8 7 -31 10 -50 49 -290 165 -633 314 -930 248 -493 609 -921
1051 -1247 402 -296 866 -505 1350 -607 63 -13 133 -27 155 -30 22 -3 74 -10
115 -16 129 -19 248 -25 460 -25 191 0 391 9 422 19 7 3 33 7 58 10 191 24
429 81 638 152 1038 353 1856 1180 2199 2224 36 111 98 351 108 422 4 24 8 45
10 48 2 3 6 30 10 60 4 30 8 57 10 60 2 3 6 39 10 80 4 41 9 89 12 105 8 53
11 507 3 590 -17 173 -21 211 -25 225 -2 8 -7 35 -10 60 -4 25 -10 63 -15 85
-5 22 -12 56 -15 75 -3 19 -21 94 -40 165 -253 970 -929 1798 -1826 2242 -385
190 -724 289 -1189 347 -51 7 -408 24 -413 20z m318 -118 c22 -3 69 -8 105
-12 121 -11 264 -35 390 -66 47 -11 92 -21 101 -23 49 -10 242 -74 362 -121
540 -210 1037 -573 1404 -1025 55 -68 233 -314 233 -323 0 -1 23 -41 51 -87
190 -315 348 -732 415 -1099 20 -107 29 -175 39 -275 3 -33 8 -85 11 -115 7
-71 6 -407 -1 -485 -10 -112 -16 -170 -27 -240 -5 -38 -11 -80 -13 -92 -2 -12
-6 -34 -9 -50 -4 -15 -9 -41 -12 -57 -12 -71 -76 -301 -112 -406 -350 -1027
-1181 -1830 -2220 -2146 -252 -77 -470 -116 -762 -140 -98 -8 -409 -8 -478 0
-26 3 -72 8 -102 11 -149 15 -314 44 -465 81 -862 212 -1626 774 -2090 1539
-169 280 -312 623 -389 935 -28 118 -29 120 -56 280 -18 107 -23 151 -36 290
-6 74 -6 430 0 505 49 545 208 1046 470 1479 155 256 302 442 511 652 422 423
915 713 1486 874 212 60 461 104 655 116 55 4 100 7 102 9 5 5 398 -3 437 -9z"/>
<path d="M3277 6712 c-45 -4 -45 -21 0 -36 18 -6 34 -14 38 -17 6 -7 18 -296
19 -462 1 -109 -8 -127 -66 -127 -18 0 -28 -5 -28 -15 0 -12 18 -15 95 -16 52
-1 109 -2 127 -3 42 -1 47 20 7 28 -56 11 -59 18 -59 146 0 132 3 138 69 120
31 -8 44 -23 98 -107 68 -106 102 -147 148 -180 35 -24 112 -37 146 -25 22 9
22 10 -13 21 -20 7 -57 33 -82 58 -45 45 -176 239 -176 261 0 6 9 14 20 17 30
10 79 54 96 87 18 34 20 100 6 138 -13 34 -59 78 -102 97 -33 15 -235 24 -343
15z m283 -55 c49 -32 71 -75 71 -140 2 -103 -50 -151 -159 -150 -29 0 -55 2
-57 5 -2 2 -6 69 -9 148 -4 108 -2 146 7 152 27 17 113 8 147 -15z"/>
<path d="M2819 6646 c-2 -3 -20 -8 -39 -11 -28 -5 -327 -84 -378 -101 -17 -5
-9 -30 9 -26 26 6 56 -8 67 -33 10 -22 131 -466 137 -504 4 -27 -15 -52 -51
-67 -34 -14 -50 -42 -16 -29 9 3 105 31 212 62 107 30 213 60 235 66 l40 12 0
73 c0 83 -14 95 -31 27 -20 -76 -45 -94 -176 -130 -81 -22 -109 -16 -130 27
-26 56 -70 220 -60 230 12 12 151 40 171 33 9 -3 25 -18 34 -35 10 -16 23 -27
31 -24 11 4 10 17 -4 67 -10 34 -22 77 -27 95 -9 38 -29 40 -26 2 4 -60 -3
-67 -85 -89 -97 -26 -98 -26 -106 2 -4 12 -13 45 -21 72 -37 130 -42 153 -36
162 7 11 134 51 171 53 64 5 79 -2 115 -52 23 -34 29 -14 11 40 -17 52 -38 87
-47 78z"/>
<path d="M4394 6580 c-86 -19 -137 -83 -138 -176 -1 -66 14 -95 120 -226 66
-81 73 -147 24 -214 -55 -75 -186 -48 -237 49 -13 26 -19 52 -22 100 0 9 -7
17 -15 17 -10 0 -16 -19 -21 -65 -4 -35 -5 -71 -1 -80 7 -20 91 -73 136 -85
89 -25 193 0 232 54 27 38 42 106 34 158 -7 48 -28 83 -115 193 -80 101 -83
173 -10 223 74 51 193 -5 202 -96 4 -37 21 -60 31 -43 11 17 20 83 17 117 -1
15 -128 71 -171 76 -19 3 -49 2 -66 -2z"/>
<path d="M2023 6371 c-93 -59 -106 -76 -47 -65 18 3 35 1 38 -5 7 -10 70 -375
81 -470 5 -43 4 -52 -7 -45 -23 13 -352 247 -385 273 -39 30 -40 37 -12 67 41
44 1 31 -93 -29 -53 -34 -97 -68 -97 -74 -1 -9 6 -10 26 -2 15 5 38 7 52 4 39
-10 496 -323 560 -383 28 -27 30 6 7 118 -13 63 -27 146 -31 185 -4 38 -8 72
-10 75 -6 10 -26 167 -32 251 -5 84 -5 86 22 111 55 52 17 46 -72 -11z"/>
<path d="M5057 6303 c-4 -4 7 -21 24 -39 30 -31 30 -32 15 -67 -17 -42 -251
-433 -275 -460 -15 -18 -28 -18 -88 -1 -32 9 -29 -10 4 -25 15 -7 65 -37 111
-67 88 -57 123 -63 72 -13 -24 25 -29 36 -23 57 9 36 283 473 306 486 13 8 25
7 47 -6 19 -11 32 -13 36 -7 7 13 17 5 -91 68 -49 29 -99 59 -111 67 -11 8
-24 11 -27 7z"/>
<path d="M5619 5872 c-74 -41 -83 -66 -19 -50 54 14 89 -2 156 -71 30 -31 54
-59 54 -62 0 -5 -112 -113 -323 -310 -73 -67 -115 -99 -133 -99 -6 0 -23 12
-37 26 -14 14 -34 24 -43 22 -13 -2 11 -32 87 -112 72 -75 105 -104 107 -93 2
10 -6 29 -17 43 -38 49 -68 15 364 417 22 20 43 37 46 37 15 0 120 -127 130
-158 9 -27 7 -37 -11 -66 -32 -52 -8 -53 55 -1 31 25 60 45 65 45 6 0 10 5 10
10 0 6 -9 10 -20 10 -20 0 -44 22 -129 116 -24 27 -85 93 -135 148 -107 115
-128 145 -120 169 8 26 -13 21 -87 -21z"/>
<path d="M1260 5812 c-8 -9 -48 -52 -89 -94 -41 -43 -71 -81 -68 -85 4 -4 23
1 42 10 20 10 42 14 54 9 26 -10 399 -371 407 -394 3 -10 -4 -33 -16 -53 -20
-33 -20 -35 -3 -34 24 2 197 184 188 198 -4 8 -15 5 -32 -9 -35 -28 -64 -25
-102 9 -88 78 -363 347 -371 361 -6 12 -3 28 10 52 24 46 11 66 -20 30z"/>
<path d="M2701 5644 c-26 -62 -25 -131 5 -235 38 -136 39 -136 20 -197 -10
-31 -23 -70 -31 -87 -12 -29 -17 -59 -31 -185 -3 -30 -2 -78 3 -105 7 -35 6
-67 -3 -105 -20 -85 -42 -218 -49 -295 -10 -105 -23 -155 -50 -186 -35 -42
-39 -78 -17 -144 28 -83 22 -195 -13 -237 -14 -16 -25 -36 -25 -44 0 -18 18
-53 37 -72 7 -7 13 -19 14 -25 0 -7 2 -19 3 -27 2 -8 6 -40 10 -70 3 -30 8
-66 10 -80 3 -14 7 -45 10 -70 3 -25 8 -54 10 -65 2 -11 7 -42 10 -68 4 -27 9
-59 12 -70 2 -12 6 -34 9 -50 3 -15 12 -60 21 -100 8 -39 17 -81 19 -91 23
-108 122 -418 170 -529 32 -76 38 -144 18 -198 -17 -50 -17 -51 5 -92 53 -101
212 -282 276 -316 23 -13 28 -11 72 28 25 22 72 53 103 68 48 24 68 28 141 28
74 0 93 -4 150 -31 67 -31 145 -82 221 -144 23 -19 83 -68 131 -107 l89 -73
24 28 23 27 -21 30 c-39 55 -251 260 -317 307 -78 54 -150 92 -208 107 -34 10
-41 16 -40 34 1 13 -6 40 -16 60 -10 23 -16 54 -14 80 l3 42 26 -25 c14 -14
31 -35 38 -45 10 -17 13 -17 18 -5 11 25 62 72 76 68 6 -3 14 -24 17 -49 3
-24 11 -53 17 -63 8 -14 8 -26 0 -43 -5 -13 -8 -24 -6 -26 2 -2 40 -25 84 -52
50 -31 118 -87 182 -151 l103 -103 62 46 c143 105 234 218 242 301 4 43 -1 53
-59 120 -30 35 -67 131 -67 176 0 23 15 97 35 166 46 161 136 512 143 559 3
20 14 72 24 116 23 103 29 139 50 300 5 44 12 95 15 114 3 20 17 48 36 67 47
48 40 83 -30 166 -16 19 -50 139 -51 179 0 15 10 34 26 48 22 19 25 29 21 59
-4 19 -19 49 -35 66 -33 35 -71 171 -77 274 -4 76 -23 244 -36 314 -29 166
-36 193 -71 272 -16 38 -31 76 -32 84 -2 9 12 40 30 70 18 30 40 75 48 101 19
58 34 173 26 196 -5 15 -8 14 -23 -8 -9 -14 -36 -39 -60 -56 -44 -30 -69 -36
-193 -45 -33 -3 -72 -9 -86 -15 -19 -7 -35 -4 -69 11 -34 16 -68 21 -145 23
-55 1 -116 7 -135 13 -66 21 -120 20 -219 -5 -14 -3 -75 -7 -137 -9 -87 -2
-122 -7 -162 -24 -43 -19 -54 -20 -86 -10 -20 7 -78 14 -128 15 -106 4 -133
19 -158 84 l-15 42 -23 -57z m39 -28 c0 -8 15 -31 34 -50 33 -35 33 -36 117
-35 95 1 125 -8 177 -51 20 -17 43 -30 50 -30 7 0 20 -7 28 -15 9 -8 12 -15 8
-15 -4 0 5 -9 20 -21 22 -18 56 -67 56 -83 0 -2 -20 -4 -44 -4 -24 0 -54 -6
-66 -12 -12 -6 -29 -9 -38 -5 -13 5 -13 8 5 20 11 7 32 17 46 20 15 4 27 12
27 17 0 6 7 4 17 -3 15 -13 15 -12 2 9 -13 20 -22 26 -33 20 -3 -2 -20 11 -38
28 -47 44 -78 60 -89 43 -7 -12 24 -69 43 -77 4 -2 8 -8 8 -14 0 -6 -11 -3
-25 6 -35 23 -49 20 -31 -6 32 -46 15 -53 -24 -10 -21 23 -45 43 -52 43 -7 1
-35 1 -63 1 -59 0 -115 26 -144 66 -29 41 -45 111 -32 145 11 28 41 38 41 13z
m1580 1 c0 -8 -33 -104 -42 -123 -15 -32 -107 -82 -161 -88 -68 -8 -137 -50
-137 -83 0 -7 -12 -21 -27 -31 -16 -9 -28 -24 -28 -32 0 -10 -14 -17 -47 -20
-50 -6 -91 -30 -52 -30 19 -1 19 -1 0 -15 -11 -8 -31 -15 -45 -16 -23 0 -24
-1 -6 -9 17 -6 13 -9 -20 -15 -63 -11 -74 -16 -50 -25 19 -7 19 -7 -2 -18 -12
-7 -28 -12 -37 -12 -21 0 -48 -30 -42 -47 10 -25 -27 -10 -41 17 l-13 25 -1
-25 c-1 -14 -1 -32 0 -40 1 -8 -7 -2 -17 14 -18 25 -21 26 -30 11 -12 -23 -32
-11 -25 15 7 26 -13 26 -27 0 -6 -11 -16 -18 -22 -14 -7 4 -6 9 2 14 6 4 11
10 11 14 -1 3 -1 15 -1 26 0 18 3 19 21 9 12 -6 34 -8 50 -5 17 3 29 1 33 -7
2 -7 5 -2 5 11 1 27 12 28 36 2 13 -15 22 -17 29 -10 6 6 11 14 11 18 0 11 66
72 79 73 19 1 47 7 64 14 14 5 14 7 2 15 -11 7 -6 13 22 25 21 8 49 15 63 15
27 0 34 17 10 26 -12 5 -11 10 8 24 23 18 84 120 72 120 -8 0 -89 -63 -93 -72
-2 -5 -12 -8 -23 -8 -17 0 -16 4 9 48 36 61 97 92 193 98 78 5 107 14 153 49
18 14 37 25 43 25 5 0 18 9 28 20 15 17 45 28 45 17z m-874 -35 c6 -4 17 -18
23 -31 19 -34 1 -46 -37 -24 -31 18 -31 18 -60 -10 -32 -31 -38 -33 -45 -13
-3 8 3 27 15 41 29 38 78 55 104 37z m187 -22 c24 -40 15 -50 -30 -35 -24 8
-45 10 -61 4 -31 -12 -32 -12 -32 6 0 18 57 55 85 55 12 0 28 -12 38 -30z
m153 4 c11 -3 28 -19 38 -35 17 -29 17 -31 0 -57 -16 -24 -18 -25 -28 -8 -33
56 -40 60 -74 43 -35 -17 -47 -9 -37 24 10 30 55 45 101 33z m-500 -45 l29
-32 -42 7 c-36 5 -44 3 -58 -16 -15 -22 -17 -22 -30 -5 -10 14 -11 26 -3 48
14 42 63 41 104 -2z m181 -69 c-1 -9 -11 -14 -23 -12 -11 1 -29 -7 -39 -18
-23 -25 -32 -25 -40 0 -6 19 9 59 28 72 16 10 77 -25 74 -42z m141 -28 c-9
-10 -16 -9 -35 4 -18 11 -28 13 -36 5 -16 -16 -24 -14 -30 9 -4 14 4 25 27 40
l31 20 27 -33 c19 -23 24 -35 16 -45z m140 25 c7 -18 12 -41 12 -50 0 -26 -25
-20 -39 9 -8 18 -17 25 -29 21 -9 -2 -23 -6 -31 -8 -29 -8 -21 21 11 41 46 28
62 25 76 -13z m-424 -17 c17 -6 24 -14 20 -25 -3 -8 -10 -13 -14 -10 -12 7
-40 -5 -40 -19 0 -6 -8 -20 -16 -31 -15 -19 -16 -20 -29 -1 -12 16 -12 24 6
57 20 41 31 45 73 29z m150 -56 c9 -8 16 -30 16 -47 l0 -32 -19 24 -18 24 -10
-29 -11 -29 -11 29 c-9 23 -9 33 4 52 18 28 28 30 49 8z m223 -24 c10 -30 10
-46 1 -67 l-11 -28 -10 28 c-13 32 -43 36 -52 7 -9 -28 -36 -26 -31 3 3 12 5
26 5 30 1 12 64 67 76 67 5 0 16 -18 22 -40z m-772 7 c26 -15 46 -36 59 -62
10 -22 29 -53 42 -68 13 -16 24 -35 24 -43 0 -25 -34 -15 -63 18 l-28 33 16
-39 c8 -21 15 -43 15 -48 0 -12 -40 9 -72 40 -19 17 -28 21 -28 11 0 -20 37
-79 55 -85 19 -8 20 -34 1 -34 -7 0 -25 12 -40 27 -14 14 -29 24 -32 21 -3 -4
11 -22 30 -42 20 -19 36 -44 36 -55 0 -17 -6 -18 -64 -14 -49 4 -69 2 -87 -10
-26 -18 -21 -22 51 -32 42 -6 80 -28 80 -47 0 -4 -6 -8 -12 -8 -7 0 -24 -10
-38 -21 -20 -17 -21 -19 -5 -14 30 12 75 18 75 11 0 -3 -17 -21 -37 -40 -47
-43 -38 -57 13 -22 27 18 41 23 49 15 7 -8 4 -15 -9 -23 -39 -23 -84 -67 -89
-86 -4 -18 0 -16 29 10 48 41 87 60 104 50 12 -7 12 -12 -1 -27 -14 -16 -39
-75 -39 -92 0 -3 12 12 27 34 14 22 31 43 37 47 16 11 52 9 81 -4 25 -11 26
-14 20 -72 -3 -35 -1 -67 5 -76 8 -12 10 -10 10 10 0 30 30 110 41 110 5 0 18
-10 29 -22 l22 -23 -4 30 c-3 27 0 30 25 30 15 -1 27 4 27 9 0 15 42 56 57 56
8 0 13 -13 13 -36 0 -31 -3 -35 -20 -29 -25 8 -25 7 0 -55 15 -39 17 -50 6
-50 -7 0 -20 10 -29 23 -8 12 -18 19 -22 15 -13 -12 5 -59 32 -84 32 -30 42
-77 13 -66 -31 12 -71 52 -82 83 -5 16 -14 29 -19 29 -19 0 -8 -50 17 -79 24
-29 25 -51 2 -51 -16 0 -37 32 -38 57 0 20 -16 40 -25 32 -2 -4 -14 -71 -15
-91 0 -5 -18 -8 -40 -8 -28 0 -40 4 -41 15 -4 47 -11 50 -39 20 l-23 -24 -38
20 c-22 11 -39 26 -39 33 0 20 28 84 40 91 5 3 10 13 10 22 0 26 -32 -8 -59
-62 -12 -25 -26 -45 -31 -45 -5 0 -28 15 -52 33 -34 27 -43 40 -43 64 0 24 -3
29 -12 21 -19 -15 -46 55 -39 98 4 19 2 34 -4 36 -16 5 -20 45 -5 65 13 18 17
19 55 22 11 0 20 6 20 12 0 5 -4 8 -8 5 -5 -3 -21 -7 -36 -10 -21 -4 -29 0
-35 17 -11 29 -1 200 12 214 4 3 18 -2 33 -11 40 -27 40 -11 0 19 -36 27 -45
56 -27 84 9 14 22 11 53 -11 32 -23 32 3 0 32 -32 29 -32 30 -17 60 18 34 30
37 58 13 19 -17 20 -17 8 5 -11 21 -8 43 7 41 4 0 25 -10 47 -22z m651 -13 c9
-14 9 -25 1 -44 -10 -25 -10 -25 -14 -2 -5 25 -21 29 -29 7 -8 -21 -24 -19
-24 3 0 23 29 64 43 59 5 -1 16 -12 23 -23z m590 4 c3 -4 -15 -18 -39 -33 -42
-24 -68 -55 -48 -55 5 0 11 5 13 11 4 11 74 30 82 22 3 -3 -11 -20 -30 -38
-18 -18 -34 -38 -34 -44 0 -13 8 -9 53 23 l29 21 19 -24 c11 -14 19 -39 19
-62 0 -26 7 -46 20 -59 28 -28 25 -39 -9 -46 -32 -7 -69 -40 -57 -51 3 -4 15
3 26 15 28 30 53 28 68 -7 13 -30 14 -99 1 -107 -4 -2 -20 1 -36 7 -15 6 -54
12 -86 13 -64 3 -79 14 -75 56 2 18 12 28 38 38 l35 12 -47 -5 c-48 -6 -54 -2
-42 30 8 19 55 45 84 45 11 0 20 5 20 10 0 15 -54 12 -76 -5 -10 -8 -27 -15
-37 -15 -16 0 -16 2 -2 30 8 16 23 33 32 39 10 5 14 13 10 17 -4 4 -21 -2 -37
-15 -33 -24 -38 -18 -14 17 22 32 -2 28 -43 -8 -18 -16 -40 -30 -47 -30 -17 0
-29 27 -15 36 5 3 24 30 41 61 26 45 40 59 87 81 54 26 84 32 97 20z m-791
-25 c28 -31 32 -45 10 -37 -8 4 -15 10 -15 15 0 19 -20 8 -36 -21 -14 -22 -21
-27 -31 -18 -17 14 -16 39 3 66 20 29 38 28 69 -5z m-109 -48 c18 -14 17 -15
-16 -13 -19 1 -48 -2 -65 -5 -67 -15 -95 -17 -95 -8 0 6 19 15 43 21 23 6 47
13 52 15 24 9 63 4 81 -10z m41 -72 c3 -8 17 -19 32 -25 17 -7 21 -12 12 -16
-11 -3 -8 -9 9 -22 23 -17 23 -17 -23 -18 -53 -1 -72 14 -30 24 24 6 25 8 8
14 -11 4 -35 3 -54 -2 -22 -7 -37 -6 -44 1 -8 8 -4 11 14 11 13 0 30 4 37 9
22 13 -22 20 -65 10 -21 -5 -49 -8 -63 -8 -20 0 -16 4 20 19 53 22 139 24 147
3z m662 -91 c37 -27 60 -79 61 -135 0 -80 -44 -139 -122 -162 -47 -14 -56 -14
-111 0 -35 9 -84 74 -93 122 -15 78 28 175 82 188 10 3 35 8 54 13 43 10 95 0
129 -26z m-729 -12 c48 -34 66 -113 44 -189 -31 -106 -132 -144 -230 -86 -43
25 -84 90 -84 131 0 33 49 121 78 140 58 38 142 40 192 4z m195 -23 c-16 -39
-35 -57 -35 -33 0 9 -11 16 -27 18 -27 3 -26 4 22 36 27 18 51 29 53 24 1 -5
-4 -25 -13 -45z m817 -177 c47 -17 60 -45 39 -82 -9 -15 -19 -28 -23 -28 -3 0
-20 17 -37 37 -39 47 -39 38 0 -39 27 -53 29 -64 18 -84 -7 -13 -15 -24 -19
-24 -8 0 -39 67 -45 97 -6 33 -35 73 -66 88 -32 17 -43 31 -34 45 9 14 122 7
167 -10z m-773 -129 c-1 -123 7 -191 22 -191 5 0 9 3 10 8 0 4 2 16 4 27 2 11
7 49 10 85 12 134 22 200 30 200 20 0 55 -27 56 -44 4 -58 -3 -154 -15 -206
-12 -56 -89 -200 -106 -200 -18 0 -85 139 -94 198 -3 15 -8 66 -11 113 l-7 85
39 26 c59 39 63 32 62 -101z m646 50 c41 -23 65 -75 65 -138 0 -49 -2 -54 -32
-69 -30 -16 -33 -16 -43 1 -23 40 -58 76 -66 68 -5 -5 0 -31 10 -59 13 -33 16
-55 10 -65 -5 -8 -9 -10 -9 -6 0 5 -12 2 -27 -6 -42 -22 -109 -40 -121 -33 -6
4 -11 33 -11 65 0 33 -5 70 -12 83 -11 21 -13 19 -25 -39 -15 -74 -29 -103
-51 -103 -12 0 -14 7 -10 35 3 19 4 35 2 35 -2 0 -17 -13 -33 -30 -46 -46 -99
-39 -62 8 24 30 16 50 -11 26 -18 -16 -19 -16 -19 6 0 12 13 44 28 69 37 61
44 81 29 81 -7 0 -19 -6 -26 -12 -11 -11 -12 -7 -6 21 5 24 3 36 -6 42 -10 6
-11 11 -3 19 15 15 94 -55 94 -83 -1 -12 -7 -40 -15 -62 -20 -56 -11 -55 25 1
28 44 35 50 75 54 45 6 45 6 55 -30 5 -19 10 -41 10 -47 0 -7 7 -13 15 -13 15
0 17 9 19 95 1 34 4 39 20 37 11 -2 27 -13 37 -25 l18 -22 1 21 c0 12 -7 27
-15 34 -8 7 -15 16 -15 21 0 5 7 9 15 9 8 0 15 -4 15 -8 0 -5 7 -17 15 -28 13
-17 13 -14 0 25 -8 24 -15 46 -15 48 0 7 42 -8 75 -26z m183 -316 c21 -87 14
-110 -23 -75 -16 15 -21 34 -23 85 -5 116 16 112 46 -10z m-1580 -32 c10 -70
4 -93 -25 -93 -7 0 -16 7 -19 15 -8 19 15 145 26 145 4 0 12 -30 18 -67z
m1514 -59 c50 -53 56 -84 16 -84 -42 0 -98 87 -103 159 l-2 34 21 -29 c11 -16
42 -52 68 -80z m-1376 54 c-17 -88 -99 -218 -136 -218 -15 0 -40 37 -40 59 0
4 29 37 64 72 35 35 71 76 81 92 24 37 39 35 31 -5z m130 -6 c-12 -43 -15 -92
-5 -92 5 0 29 20 52 45 49 51 57 54 57 23 0 -80 -79 -188 -136 -188 -41 0 -54
11 -60 52 -8 45 8 94 47 148 29 39 55 46 45 12z m1064 -141 c-10 -58 -20 -66
-65 -51 -35 12 -64 46 -93 113 -22 50 -13 55 27 16 41 -41 79 -53 66 -21 -4 9
-9 31 -11 47 l-5 30 45 -46 c42 -44 44 -47 36 -88z m-373 86 c4 -6 34 -31 65
-55 71 -52 83 -85 45 -118 -74 -63 -204 44 -177 146 6 24 7 24 28 -17 19 -37
77 -93 95 -93 4 0 7 7 7 15 0 8 -4 15 -10 15 -16 0 -68 59 -79 91 -8 23 -7 29
4 29 8 0 18 -6 22 -13z m-331 -58 c-18 -111 -100 -186 -155 -142 -33 27 -20
84 30 137 l38 41 -9 -32 c-5 -18 -7 -33 -5 -33 3 0 0 -11 -5 -25 -5 -14 -6
-25 -2 -25 11 0 72 55 72 64 0 9 31 56 37 56 3 0 3 -18 -1 -41z m1059 -2 c11
-18 21 -39 22 -49 5 -34 -43 -28 -85 11 -21 20 -21 24 -7 51 18 36 44 31 70
-13z m-1265 -49 c-16 -117 -80 -203 -135 -182 -23 9 -18 37 15 103 32 62 49
82 51 59 2 -20 2 -21 -5 -50 -5 -22 -3 -26 9 -22 9 4 25 39 37 80 25 84 38 90
28 12z m1132 -122 c50 -25 56 -30 47 -47 -14 -27 -50 -23 -95 10 -75 54 -108
98 -129 171 -6 19 9 9 56 -41 40 -41 86 -76 121 -93z m-871 49 c-2 -63 10
-105 29 -105 6 0 10 11 10 24 0 29 20 46 21 19 4 -94 16 -158 34 -173 26 -21
33 -2 21 52 -14 61 -13 151 2 188 13 30 14 25 16 -62 0 -36 4 -69 8 -73 11
-11 30 64 33 132 2 36 6 67 8 69 3 3 21 -42 42 -100 43 -122 48 -192 19 -252
-24 -48 -80 -93 -126 -100 -41 -7 -103 18 -112 44 -3 9 -15 42 -26 72 -33 84
-32 229 2 313 16 40 21 26 19 -48z m893 44 c5 -15 6 -34 3 -43 -6 -14 -10 -15
-39 -3 -32 14 -36 25 -23 65 8 23 49 9 59 -19z m-1445 -41 c-23 -104 -68 -179
-126 -209 -79 -40 -100 3 -30 61 42 34 106 109 139 162 24 38 27 35 17 -14z
m1121 -34 c0 -60 -30 -71 -72 -26 -29 29 -47 82 -30 82 6 0 13 -4 16 -9 3 -5
15 -11 26 -14 16 -4 18 -2 10 13 -16 31 -12 32 20 3 17 -14 30 -36 30 -49z
m-1325 47 c8 -27 -1 -43 -40 -68 -19 -13 -37 -23 -39 -23 -11 0 -14 33 -5 58
18 49 72 71 84 33z m95 -64 c0 -33 -23 -62 -44 -54 -21 8 -21 35 1 59 22 25
43 23 43 -5z m1374 -16 l27 -28 -5 -199 c-2 -109 -7 -221 -10 -249 -4 -27 -8
-74 -9 -104 -2 -30 -8 -56 -14 -58 -15 -5 -74 53 -69 69 11 30 17 89 22 198 3
63 7 126 9 140 2 14 4 78 4 143 1 64 5 117 9 117 5 0 21 -13 36 -29z m-1199
-141 c4 -74 8 -164 10 -200 19 -350 19 -328 -6 -365 -32 -46 -49 -52 -50 -17
-1 15 -3 36 -4 47 -1 11 -5 70 -9 130 -3 61 -9 142 -12 180 -13 163 -12 249 4
280 14 28 55 84 59 81 1 -1 5 -62 8 -136z m1003 67 c23 -21 31 -88 13 -115
-21 -34 -138 -8 -163 36 -18 30 -40 112 -30 112 3 0 26 -23 52 -51 59 -65 79
-58 39 14 -16 28 -29 58 -29 65 0 14 79 -27 118 -61z m-787 -5 c-5 -16 -16
-43 -25 -61 -10 -18 -16 -35 -13 -37 8 -8 83 54 107 89 32 47 39 47 30 0 -14
-79 -82 -175 -134 -193 -69 -22 -119 18 -109 87 4 25 17 41 54 68 27 19 54 44
61 55 20 31 38 26 29 -8z m1297 -84 c32 -36 49 -63 46 -73 -9 -23 -28 -18 -76
21 -78 64 -113 116 -92 137 12 12 71 -29 122 -85z m-177 11 c19 -10 20 -18 14
-132 -9 -204 -16 -316 -20 -338 -3 -12 -7 -48 -10 -79 -3 -32 -9 -78 -13 -102
-5 -25 -10 -80 -11 -122 -1 -42 -4 -86 -6 -98 -3 -11 -7 -46 -10 -77 -4 -31
-15 -99 -26 -151 -10 -52 -21 -110 -24 -127 -9 -54 -44 -195 -50 -201 -9 -9
-6 51 5 88 16 53 23 116 35 305 4 55 9 111 11 125 11 59 33 303 40 425 2 44 6
94 8 110 2 17 7 107 11 200 4 94 9 173 12 178 6 9 11 9 34 -4z m-1558 -27 c8
-11 -27 -78 -70 -133 -41 -54 -69 -61 -84 -23 -6 18 4 34 61 93 66 68 83 80
93 63z m73 -80 c1 -118 17 -395 29 -517 3 -27 7 -72 10 -100 3 -27 7 -66 9
-85 3 -19 8 -57 11 -85 3 -27 8 -61 10 -75 2 -14 6 -54 9 -90 19 -196 27 -274
31 -280 2 -3 6 -26 10 -50 10 -72 -10 -36 -38 65 -34 121 -66 277 -72 350 -2
33 -7 80 -10 105 -6 50 -12 123 -20 250 -3 47 -8 94 -9 105 -5 26 -15 124 -21
205 -3 36 -8 91 -11 122 -8 67 1 121 22 143 31 30 39 18 40 -63z m1265 -35 c1
-7 0 -25 -1 -42 -1 -16 -3 -47 -4 -67 -2 -50 -9 -54 -48 -30 -40 25 -70 64
-88 114 -19 52 -7 57 33 14 19 -20 41 -36 50 -36 14 0 14 4 3 31 -7 18 -11 40
-9 50 5 18 7 18 34 -2 16 -11 29 -26 30 -32z m354 -21 c-2 -33 -7 -104 -10
-156 -8 -127 -11 -163 -24 -250 -6 -41 -13 -91 -15 -110 -13 -109 -120 -500
-133 -486 -2 2 3 53 12 113 9 59 18 122 20 138 2 17 9 53 14 80 6 28 12 64 15
80 2 17 8 57 14 90 6 33 13 101 17 150 3 50 10 115 15 145 5 30 11 80 15 110
20 183 16 170 45 163 18 -5 20 -12 15 -67z m-1105 16 c0 -22 -6 -60 -14 -85
-14 -46 -12 -57 9 -57 13 0 79 113 89 153 3 15 10 27 15 27 12 0 8 -41 -14
-133 -21 -87 -60 -140 -112 -150 -41 -9 -77 21 -81 67 -3 38 29 121 71 183 29
43 37 41 37 -5z m531 -84 c10 -9 21 -34 25 -54 6 -32 3 -40 -16 -56 -12 -10
-35 -18 -51 -18 -40 0 -113 68 -135 126 -19 50 -13 67 13 38 28 -31 93 -77 99
-71 3 3 -3 16 -15 28 -12 13 -21 30 -22 38 0 9 -3 29 -5 46 l-5 30 47 -45 c25
-25 55 -53 65 -62z m-771 33 c0 -11 -5 -32 -11 -48 -16 -42 -21 -73 -10 -73 5
0 27 22 48 49 69 90 83 65 25 -43 -28 -51 -65 -85 -98 -90 -28 -4 -34 11 -34
86 0 61 3 71 31 103 35 39 49 44 49 16z m-379 -48 c0 -27 2 -56 4 -65 2 -10 6
-68 9 -130 3 -62 8 -129 11 -148 5 -34 11 -111 20 -250 3 -36 7 -76 9 -90 9
-47 18 -135 13 -130 -9 9 -62 258 -72 335 -3 22 -7 47 -10 55 -2 8 -7 44 -10
80 -4 36 -9 74 -11 85 -2 11 -7 54 -10 95 -2 41 -7 97 -9 125 -3 36 0 54 12
67 29 32 43 22 44 -29z m768 -35 c-11 -58 -11 -138 0 -138 5 0 11 9 14 20 3
11 10 20 16 20 28 0 34 -82 11 -152 -10 -32 4 -48 19 -21 5 10 15 46 22 80 13
63 32 76 29 19 -3 -46 -1 -51 10 -40 5 5 12 27 15 49 4 22 11 57 16 78 5 20 8
41 5 45 -3 4 -1 14 3 20 12 20 42 -94 45 -173 5 -124 -35 -195 -115 -201 -57
-4 -90 30 -118 120 -25 81 -26 113 -6 203 23 101 52 161 34 71z m547 -146
c119 -80 148 -125 120 -181 -20 -38 -27 -42 -76 -43 -54 -1 -109 37 -137 94
-13 25 -23 53 -23 63 0 15 5 14 35 -9 40 -31 100 -58 108 -50 3 4 -4 16 -16
28 -33 32 -45 49 -62 89 -19 46 -7 48 51 9z m-920 -59 c-3 -10 -8 -31 -12 -48
-4 -16 -16 -45 -26 -63 -33 -55 -16 -45 41 24 29 35 58 64 63 64 10 0 6 -28
-14 -105 -13 -51 -71 -109 -125 -125 -36 -11 -46 -11 -68 4 -19 13 -25 25 -25
54 0 48 29 95 99 159 59 56 76 64 67 36z m179 -47 c-2 -17 -6 -46 -10 -63 -11
-47 5 -41 44 17 19 28 38 50 43 50 14 0 9 -60 -8 -95 -20 -43 -53 -73 -93 -85
-79 -22 -93 88 -23 182 38 50 52 49 47 -6z m586 -47 c24 -49 21 -78 -13 -95
-15 -8 -30 -15 -32 -17 -6 -3 -47 36 -58 57 -18 33 -26 73 -18 86 6 9 15 0 29
-29 12 -23 26 -39 31 -36 8 5 5 43 -5 73 -3 8 -2 18 1 24 8 13 42 -20 65 -63z
m-448 -114 c3 -8 -7 -39 -23 -69 -24 -45 -27 -54 -12 -49 29 10 42 25 57 61
32 75 60 -5 30 -84 -27 -72 -50 -94 -98 -94 -23 0 -47 4 -53 8 -35 22 -2 151
55 215 28 31 36 33 44 12z m703 -147 c-3 -90 -7 -174 -10 -188 -3 -14 -8 -56
-11 -95 -6 -80 -21 -168 -37 -207 -19 -50 -30 -19 -24 66 4 44 8 142 11 216 3
74 8 169 11 210 4 41 8 89 8 105 2 39 13 55 37 55 20 0 20 -5 15 -162z m-350
74 c21 -20 34 -43 34 -58 0 -36 -26 -81 -51 -89 -38 -12 -94 45 -114 115 -7
23 -5 23 24 -9 18 -18 34 -31 37 -28 14 13 9 45 -11 72 -19 26 -22 37 -16 61
2 9 61 -30 97 -64z m153 -7 c10 -3 26 -21 36 -39 16 -29 17 -38 5 -65 -22 -55
-73 -34 -114 46 -25 51 -19 60 18 24 39 -38 54 -29 25 15 -23 36 -26 63 -4 40
8 -8 23 -17 34 -21z m-915 4 c3 -4 8 -61 22 -239 5 -70 14 -152 19 -178 2 -11
6 -49 10 -83 4 -35 10 -70 15 -78 12 -24 12 -29 -6 -62 -17 -33 -25 -33 -30 3
-2 13 -12 57 -23 98 -37 135 -53 239 -67 440 -2 41 -7 82 -10 91 -3 13 3 16
31 14 20 -1 37 -4 39 -6z m183 -76 c-39 -77 -30 -92 28 -42 40 36 42 33 16
-19 -33 -65 -87 -95 -117 -64 -28 27 -11 81 37 125 47 42 57 42 36 0z m405
-40 c31 -35 40 -67 40 -131 0 -63 -1 -68 -36 -99 -51 -47 -85 -45 -120 8 -38
57 -36 133 6 192 20 28 22 29 29 11 12 -29 10 -89 -2 -101 -12 -12 -4 -33 11
-33 5 0 16 12 25 28 15 26 16 26 9 2 -3 -14 -13 -33 -22 -42 -13 -16 -13 -18
1 -24 9 -3 21 -3 26 1 18 11 28 68 19 110 -19 83 -20 95 -11 95 6 0 17 -8 25
-17z m143 -198 c-1 -71 -2 -75 -50 -147 -28 -40 -53 -80 -57 -89 -4 -10 -11
-20 -17 -24 -6 -3 -8 -11 -5 -17 4 -7 2 -8 -4 -4 -7 4 -12 28 -12 54 0 38 11
69 54 152 30 58 57 120 61 138 12 58 30 20 30 -63z m-405 36 c0 -40 72 -145
126 -182 43 -29 49 -41 57 -106 2 -23 -1 -33 -10 -33 -7 0 -13 4 -13 8 0 4
-32 34 -70 65 -55 45 -76 70 -95 113 -24 54 -32 115 -19 148 10 26 24 18 24
-13z m-165 -67 c2 -33 8 -79 13 -104 4 -25 5 -59 0 -77 -16 -61 -58 -30 -58
42 0 40 31 208 37 201 2 -2 5 -30 8 -62z m741 34 c0 -13 4 -66 8 -119 6 -84 5
-98 -11 -117 -12 -14 -23 -19 -31 -13 -11 6 -11 25 -3 92 5 46 12 93 15 104 2
11 5 32 5 48 1 32 17 37 17 5z m-1119 -40 c-3 -8 -6 -5 -6 6 -1 11 2 17 5 13
3 -3 4 -12 1 -19z m1001 -109 c-3 -47 -11 -66 -49 -120 -25 -35 -56 -86 -69
-112 -25 -55 -40 -48 -34 14 4 36 20 72 92 203 12 22 27 58 34 80 11 36 12 37
21 15 5 -13 7 -49 5 -80z m-422 -80 c52 -53 94 -100 95 -105 0 -5 3 -29 6 -54
l5 -45 -33 49 c-25 36 -52 59 -98 84 -77 42 -101 78 -101 148 0 57 10 76 23
42 4 -13 51 -66 103 -119z m621 -101 c7 -5 16 -24 21 -41 6 -18 20 -65 32
-104 28 -96 25 -116 -19 -119 -19 -2 -52 -10 -73 -20 -43 -19 -48 -17 -50 17
-2 58 4 81 27 103 31 29 31 36 1 36 -31 0 -68 49 -70 93 -1 28 3 33 34 43 35
13 75 9 97 -8z m-742 -33 c-4 -16 -9 -52 -12 -78 -3 -32 -10 -50 -22 -54 -34
-13 -36 -43 -2 -43 27 0 40 -21 46 -73 l6 -46 -28 14 c-34 18 -59 11 -95 -23
-15 -14 -30 -23 -33 -20 -26 26 -19 232 10 288 24 47 53 65 106 65 29 0 30 -2
24 -30z m167 -89 c43 -67 51 -86 53 -135 3 -62 -9 -98 -28 -83 -7 6 -28 14
-48 20 -32 8 -39 7 -54 -11 -23 -27 -33 -10 -31 56 1 48 4 53 39 76 31 20 35
26 22 33 -10 6 -25 2 -45 -12 l-30 -21 -9 23 c-13 33 -8 123 7 141 25 30 69
-1 124 -87z m698 70 c49 -14 80 -54 100 -129 14 -48 1 -62 -60 -62 -42 0 -45
2 -51 32 -5 26 -2 36 17 54 32 30 30 42 -5 34 -26 -5 -30 -3 -44 32 -8 21 -13
41 -10 46 5 9 -1 9 53 -7z m-1037 -14 c13 -15 14 -22 4 -42 -7 -14 -22 -29
-35 -35 -28 -12 -28 -23 0 -34 16 -6 22 -17 24 -44 2 -21 -1 -37 -6 -37 -18 0
-25 -2 -59 -16 -44 -18 -48 -18 -61 6 -7 13 -7 39 -1 81 11 68 47 125 83 132
13 2 26 5 29 6 3 0 13 -7 22 -17z m761 -44 c35 -63 39 -80 37 -130 -1 -26 -4
-28 -40 -28 -21 0 -52 -5 -70 -11 -18 -6 -34 -9 -37 -6 -10 9 -12 128 -3 159
10 35 46 78 65 78 7 0 29 -28 48 -62z m356 -178 c0 -5 -12 -32 -26 -62 -46
-92 -83 -120 -60 -45 7 23 11 55 9 71 -2 15 1 33 6 40 11 13 71 10 71 -4z
m-164 -76 c-15 -59 -29 -85 -52 -105 -15 -13 -16 -12 -8 11 10 31 7 85 -6 110
-11 20 0 33 41 48 34 13 41 -4 25 -64z m-980 8 c1 -36 7 -59 20 -74 l19 -22
-34 21 c-42 26 -83 109 -60 124 8 5 23 8 34 7 17 -3 20 -11 21 -56z m796 -2
c-3 -32 0 -55 8 -65 18 -21 3 -19 -31 6 -66 46 -68 109 -5 109 l33 0 -5 -50z
m-609 -5 c-5 -75 -3 -108 8 -121 8 -10 8 -14 0 -14 -27 0 -101 96 -101 130 0
21 34 41 64 38 28 -3 31 -6 29 -33z m185 -2 c16 -31 3 -67 -38 -105 -53 -51
-63 -49 -55 10 10 81 15 93 38 102 33 13 45 12 55 -7z"/>
<path d="M2730 5526 c0 -8 14 -26 30 -40 30 -24 52 -31 133 -41 21 -2 42 -7
47 -10 6 -3 10 0 10 8 0 25 -34 45 -89 52 -62 8 -96 19 -106 34 -9 16 -25 13
-25 -3z"/>
<path d="M4225 5518 c-11 -7 -54 -25 -95 -40 -68 -24 -72 -33 -15 -29 48 4
121 34 138 57 20 27 7 32 -28 12z"/>
<path d="M3946 5345 c-14 -13 -26 -26 -26 -29 0 -13 45 13 58 32 19 29 1 28
-32 -3z"/>
<path d="M3890 5031 c0 -6 5 -13 11 -16 23 -15 29 -55 14 -85 -18 -35 -53 -46
-95 -32 -39 14 -39 -3 0 -23 49 -25 94 -20 124 16 14 17 26 36 27 42 0 7 2 22
5 33 5 30 -32 74 -62 74 -13 0 -24 -4 -24 -9z"/>
<path d="M3051 5022 c-20 -37 -23 -89 -7 -119 18 -36 65 -58 102 -49 33 9 94
68 94 91 0 13 -8 10 -35 -14 -20 -17 -41 -32 -48 -32 -61 -6 -91 24 -91 91 0
27 -1 50 -3 50 -1 0 -7 -8 -12 -18z"/>
<path d="M882 5350 c-9 -18 -34 -61 -54 -95 -51 -86 -52 -114 -1 -55 13 17 32
30 40 30 16 0 162 -69 248 -117 149 -84 167 -96 154 -103 -11 -6 -57 -18 -144
-36 -5 -1 -59 -13 -118 -28 -60 -14 -123 -28 -140 -31 -18 -3 -66 -12 -107
-20 -41 -8 -92 -16 -114 -18 -34 -2 -41 -7 -63 -47 -14 -25 -31 -55 -39 -68
-24 -38 -5 -45 29 -12 44 43 70 37 220 -48 67 -39 145 -82 172 -97 59 -33 127
-79 149 -101 14 -14 14 -19 1 -51 -17 -41 -18 -43 -6 -43 9 0 121 193 121 209
0 20 -16 12 -38 -19 -30 -40 -56 -38 -149 10 -125 65 -333 184 -333 191 0 6
51 18 150 36 14 2 108 22 210 45 102 22 190 41 195 42 106 22 175 41 173 48
-4 11 -82 55 -268 149 -183 92 -264 147 -268 182 -2 14 2 35 7 46 8 13 8 22 1
26 -6 3 -18 -8 -28 -25z"/>
<path d="M5656 4901 c-3 -4 12 -45 34 -89 22 -45 40 -86 40 -92 0 -5 7 -10 14
-10 12 0 13 6 4 31 -6 16 -8 32 -5 35 9 9 78 22 158 29 l76 7 46 -93 c26 -52
47 -97 47 -101 0 -15 -166 -168 -183 -168 -9 0 -23 11 -29 25 -11 25 -20 30
-31 19 -3 -3 20 -55 50 -116 33 -64 59 -106 65 -100 5 5 5 19 0 33 -6 14 -6
35 0 50 5 14 77 91 160 170 367 351 335 317 313 334 -11 8 -25 19 -31 24 -7 5
-14 8 -17 5 -5 -5 -48 -10 -177 -18 -52 -4 -120 -9 -150 -11 -30 -3 -113 -7
-185 -11 -123 -5 -131 -4 -152 16 -13 11 -23 25 -23 30 0 12 -17 13 -24 1z
m553 -151 c-52 -49 -97 -89 -102 -90 -9 0 -83 147 -77 154 3 2 48 7 100 11 52
4 96 8 98 9 1 2 18 3 38 4 l36 1 -93 -89z"/>
<path d="M405 4398 c-10 -34 -36 -209 -33 -220 3 -7 15 9 26 36 l22 49 83 -6
c45 -4 93 -9 106 -11 13 -3 49 -8 80 -11 131 -14 205 -41 260 -95 81 -81 56
-247 -46 -307 -61 -35 -131 -37 -321 -6 -229 37 -241 42 -237 106 3 45 -28 30
-37 -18 -10 -58 -21 -155 -22 -192 -1 -41 16 -44 27 -4 15 59 32 59 331 0 201
-39 305 -9 360 106 84 175 23 345 -142 399 -26 9 -60 18 -77 20 -80 13 -101
17 -115 21 -8 2 -33 7 -55 10 -84 11 -150 30 -172 48 -7 5 -13 27 -13 48 0 37
-16 54 -25 27z"/>
<path d="M6478 4107 c-56 -13 -107 -72 -162 -185 -54 -110 -99 -152 -163 -152
-147 0 -174 213 -37 286 31 17 47 44 25 44 -12 0 -92 -28 -118 -41 -24 -13
-35 -57 -34 -134 2 -135 79 -227 189 -227 102 0 153 43 224 189 58 119 100
163 154 163 60 0 94 -25 113 -83 19 -56 6 -111 -34 -146 -18 -16 -39 -31 -46
-33 -18 -6 -2 -27 19 -23 81 15 102 26 103 53 1 15 2 41 3 57 3 37 -16 122
-34 155 -35 65 -121 98 -202 77z"/>
<path d="M1015 2870 c-3 -5 -3 -25 0 -43 5 -24 2 -37 -12 -49 -18 -16 -512
-198 -538 -198 -8 0 -22 11 -31 25 -9 14 -20 25 -25 25 -15 0 -10 -25 14 -71
13 -24 38 -85 56 -134 54 -154 128 -229 221 -228 109 2 197 95 183 196 -4 31
-5 31 57 -11 64 -44 154 -16 192 59 24 47 22 103 -6 190 -25 77 -95 249 -101
249 -2 0 -7 -4 -10 -10z m69 -219 c27 -46 26 -119 -2 -159 -22 -31 -85 -62
-125 -62 -40 0 -84 36 -112 94 -15 30 -25 61 -23 68 5 14 205 98 227 95 8 -1
24 -17 35 -36z m-293 -96 c49 -111 25 -205 -64 -250 -63 -31 -101 -32 -143 -3
-67 46 -97 149 -54 186 20 17 217 111 233 112 4 0 17 -20 28 -45z"/>
<path d="M5931 2739 c-111 -150 -86 -319 53 -357 71 -20 128 0 244 86 91 67
122 78 180 62 84 -22 113 -99 71 -186 -26 -54 -73 -84 -144 -91 -84 -9 -65
-33 39 -48 55 -9 66 -2 111 70 104 165 52 327 -110 340 -62 5 -104 -9 -177
-60 -114 -81 -146 -97 -188 -97 -94 1 -138 84 -95 176 22 47 50 66 111 74 26
4 49 12 51 18 3 10 -15 16 -108 40 -8 2 -25 -9 -38 -27z"/>
<path d="M4500 2283 c-28 -10 -51 -37 -81 -92 -49 -92 -136 -172 -298 -275
l-74 -48 43 -43 43 -44 66 50 c103 79 182 112 266 113 92 1 143 -19 280 -112
105 -71 195 -122 243 -136 16 -6 31 0 55 19 58 49 127 116 127 125 0 5 -14 11
-30 15 -48 11 -144 80 -196 143 -186 223 -341 323 -444 285z"/>
<path d="M2480 2257 c-119 -37 -212 -94 -346 -212 -74 -65 -254 -243 -254
-251 0 -15 169 -155 272 -225 l56 -38 38 47 c68 84 204 210 279 261 182 122
316 130 486 32 84 -49 84 -49 100 -28 16 20 15 21 -20 40 -84 45 -191 145
-368 345 -36 40 -41 43 -103 47 -50 4 -82 0 -140 -18z"/>
<path d="M1310 2169 c0 -6 5 -19 11 -30 17 -32 2 -55 -79 -119 -42 -33 -137
-107 -211 -165 -73 -58 -136 -105 -140 -106 -3 0 -13 -2 -23 -4 -9 -2 -30 11
-47 27 -30 30 -55 32 -36 3 42 -61 290 -397 296 -400 14 -10 134 40 137 57 3
14 -6 16 -61 12 -58 -3 -66 -1 -93 24 -47 43 -113 136 -120 168 -5 25 0 35 33
64 47 43 168 130 181 130 11 0 102 -130 102 -145 0 -5 -11 -23 -25 -39 -45
-53 -10 -56 45 -3 14 13 45 37 68 52 45 30 56 52 20 40 -61 -20 -80 -13 -130
50 -49 60 -59 89 -34 98 7 3 51 33 98 66 47 34 90 61 95 61 12 0 95 -105 117
-148 17 -33 14 -63 -9 -98 -17 -27 -19 -44 -5 -44 10 0 100 83 100 92 0 3 -46
66 -103 139 -56 74 -117 155 -135 182 -31 45 -52 59 -52 36z"/>
<path d="M5625 2118 c-94 -131 -134 -192 -129 -200 4 -5 18 2 33 16 15 14 35
26 44 26 14 0 328 -204 445 -289 46 -34 53 -61 27 -98 -12 -16 -12 -23 -3 -29
7 -4 16 0 22 10 6 10 39 58 74 107 34 49 62 92 62 94 0 14 -29 2 -48 -20 -25
-28 -34 -30 -65 -14 -64 34 -441 306 -449 325 -8 16 -6 30 5 53 18 37 5 51
-18 19z"/>
<path d="M3396 1923 c-22 -7 -54 -25 -73 -39 -39 -30 -113 -120 -113 -137 1
-7 26 -30 58 -51 372 -257 429 -286 687 -354 139 -37 158 -41 264 -48 73 -5
94 -3 138 15 91 36 205 92 199 98 -3 4 -46 17 -96 29 -149 38 -342 120 -449
192 -53 36 -98 68 -101 71 -9 11 -143 107 -204 146 -122 77 -233 105 -310 78z"/>
<path d="M4410 1841 c-46 -14 -85 -39 -121 -78 -48 -49 -112 -151 -104 -163
10 -16 113 -65 185 -88 80 -26 233 -62 264 -62 24 0 296 174 296 189 0 4 -17
13 -37 19 -21 7 -67 28 -103 47 -242 129 -315 156 -380 136z"/>
<path d="M2795 1809 c-159 -17 -249 -75 -388 -251 l-77 -97 43 -25 c153 -90
480 -212 641 -240 16 -3 52 -10 80 -15 205 -40 523 -47 726 -16 123 19 316 63
308 69 -1 2 -29 6 -61 10 -128 13 -305 65 -434 127 -44 21 -184 107 -310 191
-342 227 -412 260 -528 247z"/>
<path d="M5220 1642 c-153 -73 -210 -220 -124 -322 55 -64 63 -66 339 -58 61
2 75 -3 109 -32 30 -27 41 -50 52 -106 4 -23 -26 -73 -61 -100 -48 -36 -120
-39 -183 -8 -25 13 -45 18 -48 12 -7 -12 44 -67 84 -90 28 -17 31 -16 88 11
180 86 225 274 91 375 -61 45 -127 54 -238 30 -58 -12 -137 -6 -167 12 -37 21
-66 84 -57 125 7 32 49 77 85 91 35 14 85 11 119 -7 38 -19 41 -19 41 4 0 20
-66 82 -85 80 -5 0 -26 -8 -45 -17z"/>
<path d="M1765 1600 c-3 -5 -2 -10 4 -10 6 0 18 -11 27 -25 22 -34 16 -44
-167 -290 -160 -215 -177 -231 -223 -202 -22 15 -36 13 -36 -3 0 -3 15 -14 33
-25 17 -10 62 -43 100 -72 71 -57 102 -63 65 -12 -18 24 -20 34 -12 57 15 38
127 191 140 192 7 0 26 -13 43 -29 l30 -28 -1 -154 c-2 -169 7 -207 60 -262
26 -27 82 -61 82 -50 0 3 -9 20 -19 37 -29 46 -39 123 -35 263 2 69 6 128 8
130 2 2 31 5 64 7 98 5 162 58 177 146 14 84 -41 154 -209 269 -106 72 -120
79 -131 61z m189 -152 c94 -77 90 -188 -9 -264 -39 -29 -76 -33 -125 -12 -38
16 -100 65 -100 78 0 8 107 153 155 213 21 24 35 22 79 -15z"/>
<path d="M4630 1214 c-58 -24 -106 -48 -108 -54 -2 -6 14 -10 44 -8 53 2 62
-6 98 -87 44 -99 129 -335 123 -341 -10 -10 -480 240 -578 308 -12 8 -31 5
-80 -14 -35 -14 -72 -28 -82 -32 -32 -11 -9 -24 35 -19 28 2 49 -2 61 -11 19
-15 124 -279 178 -445 28 -88 29 -95 13 -112 -9 -10 -25 -21 -35 -24 -20 -7
-26 -25 -8 -25 26 0 219 84 216 94 -2 6 -22 10 -48 8 -43 -3 -45 -2 -66 36
-19 32 -141 351 -161 416 -5 20 8 14 158 -71 36 -20 128 -69 320 -170 58 -31
120 -65 138 -75 17 -11 36 -18 41 -16 5 2 -21 80 -56 173 -153 402 -161 427
-133 455 10 10 26 22 36 28 12 7 15 14 9 20 -6 5 -50 -8 -115 -34z"/>
<path d="M2537 1099 c-156 -38 -268 -187 -268 -356 0 -51 6 -78 29 -126 50
-104 126 -166 262 -213 69 -24 100 -30 192 -38 45 -4 48 -3 42 18 -6 24 28
136 52 174 15 24 50 30 56 10 3 -8 6 -7 10 4 5 12 -16 23 -109 53 -64 20 -122
39 -129 42 -8 3 -14 0 -14 -6 0 -6 20 -21 44 -33 25 -12 46 -28 49 -37 4 -17
-29 -121 -50 -156 -23 -39 -146 -12 -230 52 -91 69 -126 200 -92 339 48 195
196 288 372 234 102 -32 155 -91 160 -176 1 -19 8 -36 14 -38 12 -5 19 14 40
109 l9 40 -71 37 c-126 65 -269 91 -368 67z"/>
<path d="M3250 954 c0 -8 9 -14 20 -14 11 0 29 -9 40 -20 19 -19 20 -33 20
-277 0 -142 -3 -268 -6 -280 -6 -23 -35 -37 -86 -42 -5 -1 -8 -7 -8 -13 0 -10
58 -13 256 -13 l257 0 24 64 c16 44 21 67 14 74 -12 12 -11 14 -45 -41 -15
-23 -39 -47 -54 -53 -34 -13 -166 -18 -212 -8 -56 13 -61 28 -58 169 l3 125
75 1 c94 2 117 -8 131 -58 18 -68 31 -39 31 71 0 56 -3 106 -7 109 -9 9 -25
-19 -25 -44 0 -34 -23 -45 -98 -47 -112 -5 -108 -9 -106 129 1 66 2 125 3 132
1 10 25 13 100 11 117 -2 155 -18 169 -71 14 -54 37 -42 35 17 -4 101 19 92
-243 92 -189 1 -230 -2 -230 -13z"/>
</g>
</svg>
